<svg width="46" height="106" viewBox="0 0 46 106" fill="none" xmlns="http://www.w3.org/2000/svg">
<g clip-path="url(#clip0_10_42929)">
<path fill-rule="evenodd" clip-rule="evenodd" d="M45.7821 6.11955L45.7036 6.20672L45.7559 6.30261C45.3288 7.44454 45.2677 8.70852 44.6576 9.78944V9.76328C44.5617 9.90276 44.4483 10.0335 44.335 10.1643C43.9515 10.6699 43.3413 10.8704 42.7485 11.3585C43.7771 11.9861 43.8207 12.8317 43.2803 13.808C42.8967 14.5054 42.7049 15.3073 42.1993 15.935C41.1359 17.26 40.0811 18.5675 41.162 20.3981C41.2753 20.5812 41.1184 20.8776 41.0313 21.1042C40.9441 21.3221 40.8656 21.5488 40.822 21.7928C40.761 22.3595 40.9179 22.8738 41.1446 23.3794C41.1794 23.545 41.1794 23.7019 41.1446 23.8588C41.0487 24.1377 40.8482 24.3993 40.9964 24.7218C41.0836 24.8525 41.1271 24.9833 41.1533 25.1402C41.1359 25.2099 41.1184 25.2884 41.101 25.3581C41.0574 25.4191 41.0051 25.4802 40.9615 25.5412C40.6739 25.7853 40.2729 25.8637 40.0375 26.1863C39.9503 26.317 39.8632 26.4478 39.7847 26.5785C39.7063 27.3282 39.4186 27.9907 39.0612 28.6357C37.6839 31.1376 37.6054 33.6045 39.3053 36.0191C39.5494 36.3678 39.6191 36.8124 39.7847 37.2046C40.1072 37.8061 40.0462 38.4425 39.9416 39.0875C39.9242 39.3142 39.8893 39.5408 39.8283 39.7587C39.7847 39.8982 39.715 40.029 39.6278 40.1336C39.3053 40.3515 39.7847 40.3864 39.7237 40.5433C39.7847 40.7786 39.7673 40.9966 39.6975 41.2232C39.6104 41.4499 39.4796 41.6591 39.3314 41.8508C39.1658 42.0513 38.974 42.1995 38.7474 42.3216C37.3701 42.801 36.0015 43.3676 34.4324 42.8533C34.8247 44.4485 35.2344 46.0525 34.5806 47.3949C34.1622 48.2492 33.7089 48.8768 34.1448 49.7834C34.6242 50.7684 33.8484 50.7074 33.3079 50.8556C33.2033 50.8556 33.1161 50.7946 33.0028 50.7858C33.0813 50.8556 33.1685 50.9166 33.2643 50.9776C33.3602 52.4246 33.8571 53.8804 33.0464 55.2838C32.8546 55.4495 32.6367 55.5715 32.4188 55.7023C32.2009 55.9202 31.887 56.1556 31.887 56.4345C31.887 57.1057 30.5708 56.9052 31.0502 57.9338C31.5122 58.9276 30.1175 59.285 30.0129 60.1044C29.8995 60.9587 30.2657 61.7868 30.2395 62.6846C30.2221 63.3559 30.2046 63.9486 29.6903 64.2886C29.0278 64.7332 28.7402 64.0009 28.4002 63.6348C27.3542 62.5277 25.7241 63.1031 24.5996 62.2662C24.5385 62.1006 24.7739 62.0221 24.7216 61.8565C24.5734 61.9175 24.678 62.118 24.5385 62.1878C23.8848 63.2251 24.9134 62.7805 25.1662 62.8067C25.6282 62.859 26.0379 62.8677 26.0989 63.443C26.1512 63.9225 25.9246 64.2799 25.541 64.5327C24.8001 65.0121 24.0504 65.047 23.3094 64.5152C22.3506 63.8179 22.2024 62.6759 22.6557 61.874C23.4751 60.4356 22.9085 58.9799 23.1264 57.5503C23.1089 56.757 23.1351 55.9725 23.1089 55.188C23.1002 55.0136 23.1351 54.8567 23.2136 54.6998C23.4663 54.3686 23.5971 53.985 23.6407 53.5753C23.6756 53.3225 23.7453 53.0784 23.8499 52.8518C24.4339 51.2653 25.3057 49.7659 25.2969 47.9964C25.2969 47.5692 25.4277 47.0811 25.7154 46.7934C26.8311 45.6428 26.3081 44.4311 25.82 43.3066C25.419 42.3826 25.3667 41.7375 25.8984 40.7786C26.4476 39.7849 27.1624 38.6517 26.6917 37.3354C26.6132 37.1087 26.5173 37.2918 26.6481 37.1785C27.8336 36.1237 28.1823 34.5982 28.5833 33.2994C29.1499 33.2994 28.8274 32.8984 28.9407 33.1163C28.9755 33.1861 28.9407 33.2209 28.8099 33.2384C28.3828 33.282 27.5982 32.942 27.6941 33.6917C27.9295 35.5571 26.4214 36.0104 25.358 36.7775C24.5473 37.3615 24.0242 38.1897 23.353 38.7999C21.8537 40.151 20.9384 42.0339 19.1165 43.0887C18.271 43.5768 17.4429 44.2916 17.5475 45.6515C17.6433 46.9329 16.0394 47.299 15.5948 48.3712C15.0457 49.487 13.3633 49.0337 12.9274 50.2977C12.9448 50.4633 12.9536 50.6202 12.971 50.7858C12.9623 51.9278 12.8664 53.0436 11.6111 53.5579C10.7917 53.8891 11.0707 54.7172 10.7743 55.2838C10.6174 55.3797 10.443 55.4146 10.26 55.3885C9.51031 55.4059 8.8391 55.1444 8.20275 54.7783H8.21147C8.1243 54.6475 8.08943 54.508 8.09815 54.3424C8.14173 53.9327 7.91509 53.5753 7.90637 53.1743C9.73696 50.5679 10.9922 47.6303 12.8141 44.989C13.7381 43.6553 14.6708 41.999 15.2287 40.273C15.4379 39.6193 16.4578 38.7911 17.4777 38.6691C18.2187 38.5819 18.9073 38.3379 19.6221 38.1897C19.7965 38.3814 19.8662 37.8671 19.7703 38.0938C19.7529 38.1374 19.7267 38.1025 19.657 38.0763C18.6981 37.6666 19.134 37.1785 19.5698 36.6729C20.7989 35.252 22.2808 34.1624 23.9807 33.3778C24.3816 33.1948 24.6955 32.9158 25.0529 32.6892C25.14 32.6107 25.2621 32.6892 25.3667 32.6369C25.2969 32.5584 25.2098 32.4887 25.1139 32.4277C24.4688 31.277 25.3318 30.9283 26.1163 30.5274C27.0055 30.0741 28.252 29.8561 27.2496 28.3394C26.9706 27.9122 27.5808 27.4851 27.8772 27.1103C28.7663 26.0119 29.2545 24.8438 28.8186 23.3881C28.5048 22.342 28.8971 21.7057 30.0652 21.7493C30.9543 21.7841 31.7127 21.3308 32.5321 21.1739C32.6454 21.1652 32.7413 21.1739 32.7936 21.1914C32.7064 21.1478 32.6018 21.1391 32.4624 21.1565C31.9132 21.2873 31.364 21.3396 30.841 21.2437C29.7601 21.0432 29.4724 20.5376 30.3877 19.7095C30.7713 19.7182 31.1199 20.1628 31.5296 19.7966C31.2158 20.0233 30.9194 19.9361 30.6405 19.7269C30.6841 18.4629 31.643 17.4605 31.6255 16.1529C31.6168 15.4904 31.9306 15.0197 31.3117 14.2351C30.5969 13.3199 32.0614 13.4942 32.567 13.1455C32.7849 13.1629 32.3142 12.823 32.4013 13.0583C32.4537 13.1978 32.4362 13.2152 32.3316 13.2152C30.7974 13.2152 31.4163 11.4021 30.379 10.8181C30.0565 10.635 31.7214 9.79815 33.0464 10.4694C32.3316 9.47562 32.3142 9.43204 31.3204 9.93763C30.4313 10.3909 29.6903 10.635 29.4288 9.31871C29.3417 8.89158 28.8709 8.87414 28.6792 8.56033C28.5833 7.88911 28.714 7.30507 29.3242 6.90408L29.2894 6.93895C29.3417 6.67744 29.6206 6.64257 29.7601 6.45951C29.8472 6.32004 29.9257 6.18928 30.0129 6.04981C30.9456 5.43962 31.3292 3.93156 32.8634 4.31511L32.8285 4.27153C33.2643 4.52432 32.9157 5.0735 33.2556 5.36116C33.4823 5.54422 33.4038 5.88419 33.6305 6.07596L33.6566 6.0934C33.7612 6.21543 33.8745 6.32004 34.0053 6.40721L34.0576 6.4508C34.2058 6.71231 34.5632 6.6077 34.7288 6.84306C34.8596 6.95639 34.9816 7.07843 35.0949 7.20046C35.2257 7.33122 35.3826 7.43583 35.4175 7.63632L35.3913 7.60145C35.7051 7.75836 35.6354 8.11576 35.7923 8.35112L35.7749 8.33368C36.2717 9.14437 35.5482 9.92891 35.7923 10.6786C36.1148 9.49306 37.0999 8.52546 37.3962 7.23533L37.3614 7.27892C37.3962 7.07843 37.5444 6.95639 37.7013 6.84306C37.8931 6.63385 37.8147 6.27645 38.1023 6.11083L38.0849 6.13698C38.2505 5.91034 38.1721 5.5355 38.5033 5.39603L38.4859 5.42218C38.9217 4.69866 39.0786 3.84439 39.5581 3.14702V3.16446C39.7237 2.93781 39.6714 2.59785 39.9155 2.39736C40.0114 2.30147 40.1072 2.18815 40.1944 2.07482C40.3688 1.82203 40.4123 1.51693 40.5518 1.25542C40.6739 1.15081 40.8046 1.06364 40.9441 0.98519C41.563 0.871868 42.1645 0.41858 42.7921 0.932888L42.8357 0.993907C43.1321 1.1944 43.4023 1.4472 43.7858 1.49078C43.934 1.52565 44.0648 1.59539 44.1781 1.69999C44.2827 1.8046 44.3786 1.91792 44.4658 2.04867C44.4658 2.12713 44.4658 2.19686 44.4832 2.25788C44.6401 2.2143 44.0474 2.68502 44.5878 2.39736C44.675 2.34505 44.7622 2.29275 44.8755 2.2666C45.0411 2.27532 45.1631 2.35377 45.2416 2.50196C45.4857 3.2342 44.8929 4.04488 45.4247 4.75097C45.5728 4.81199 45.6862 4.90787 45.7733 5.02991L45.7559 4.99504C46.1133 5.34373 46.061 5.70984 45.7908 6.07596L45.7821 6.11955Z" fill="white"/>
<path fill-rule="evenodd" clip-rule="evenodd" d="M32.1573 55.188C32.4014 55.188 32.6455 55.188 32.8895 55.188C34.0663 54.6301 33.4213 52.721 34.9904 52.3985C35.2606 52.3462 34.9032 51.8842 34.816 51.6053C34.2494 49.7572 34.7463 48.6414 36.4984 47.8831C36.7251 47.7872 37.004 47.7697 37.0214 47.4646C37.0476 47.0898 36.7425 47.0288 36.4548 46.8806C35.3652 46.3227 35.1211 45.2592 36.0626 44.8931C37.3876 44.3875 38.2157 43.3938 39.2617 42.5918C39.4186 42.7138 39.5407 42.8533 39.6366 43.0189C40.2119 44.248 40.0288 45.5382 39.9417 46.8196C39.8283 47.3949 39.5058 47.8569 39.1135 48.2666C38.7736 48.563 38.791 48.8507 39.0525 49.2168C39.3053 49.5655 39.5668 50.2541 39.2879 50.3936C37.7014 51.2304 38.7387 52.3201 38.8782 53.3312C39.131 55.1618 38.6167 56.0684 36.9779 56.757C37.9193 58.7707 37.8583 58.9363 35.74 59.747C35.3216 59.9039 34.9468 60.1218 34.8945 60.6187C34.633 63.1641 33.5608 65.5962 33.9617 68.2461C34.0576 68.8825 34.3714 69.2137 34.6765 69.6409C35.1473 70.4516 35.8882 71.1315 35.958 72.1601C35.2257 73.7292 34.3627 75.2198 33.0552 76.5622C33.7613 77.0242 35.0427 77.1899 34.5981 78.4103C34.1099 79.7614 34.9642 81.8012 32.6629 82.2806C31.9481 82.4288 31.3466 83.0477 31.4425 83.7102C31.6343 85.0352 30.597 86.2905 31.3118 87.6155C31.4164 87.816 31.4338 88.1647 31.2856 88.3303C29.8647 89.9604 30.4575 91.4336 31.5733 92.898C31.6779 93.0288 31.5994 93.2554 31.5384 93.4298C30.9631 94.1882 30.0042 94.4148 29.2981 94.9989C28.7925 95.4086 28.3915 95.1122 28.0952 94.6502C27.8249 94.4322 27.5198 94.2405 27.3891 93.8395C27.4152 94.3974 27.9557 94.4497 28.191 94.7809C27.9034 96.4023 26.622 95.6003 25.8897 95.548C23.9022 95.3998 23.911 95.2865 24.1115 97.2566C24.1638 97.736 24.2771 98.2329 24.0243 98.7036C23.0654 99.1395 23.0393 98.3636 22.8475 97.797C22.7516 97.553 22.647 97.3089 22.6034 97.0474L22.6557 96.9515L22.5772 96.873C22.2896 96.5331 22.4116 96.01 22.0804 95.6875C21.8799 95.1035 22.185 94.4497 21.8537 93.8831L21.8712 93.9092C21.3656 93.3339 21.8712 92.5668 21.4963 91.9653C21.5835 91.8781 21.5835 91.791 21.4789 91.7125C21.0518 90.4311 21.3917 89.1148 21.2784 87.8247C21.4004 86.7786 21.6968 85.8459 22.4726 85.0352C23.231 84.242 23.17 83.1088 23.231 82.0801C23.2485 81.714 23.1962 81.2869 22.6034 81.592C22.185 81.8099 21.7578 81.8971 21.5922 81.2869C21.444 80.7639 21.5486 80.1537 22.0629 80.0316C24.1725 79.5086 24.8524 77.6432 25.9072 76.1264C26.7266 76.2571 26.5958 76.8935 26.4825 77.3991C26.3605 77.9831 26.3692 78.541 26.4476 79.0553C26.4999 78.7851 26.3256 78.4364 26.4912 78.1139C26.8225 77.4601 27.3542 77.1288 28.0864 77.1114C27.7465 76.754 27.3804 76.414 27.5198 75.8474C27.6767 75.1849 28.7053 75.1152 28.5833 74.2696C28.6182 74.0953 28.6879 73.9384 28.7751 73.7902C29.4114 73.1887 29.8734 72.2299 31.0415 72.6657C31.2856 72.7529 31.5297 72.5349 31.5994 72.2909C31.9655 71.0007 33.1946 69.885 32.3142 68.342C31.9568 67.7057 31.8086 66.9647 32.1312 66.2063C32.3404 65.7095 32.3317 65.2388 31.704 65.0034C30.1611 64.4193 31.0677 63.6174 31.6692 63.1292C32.2881 62.6323 32.5496 62.1878 32.3578 61.4381C32.1224 60.4705 32.1224 59.5465 32.506 58.5789C32.9506 57.437 32.2096 56.3212 32.166 55.1793L32.1573 55.188Z" fill="white"/>
<path fill-rule="evenodd" clip-rule="evenodd" d="M30.6754 19.762C30.3616 19.9799 30.1175 20.2763 30.2482 20.6511C30.3703 21.0085 30.7625 20.8255 31.0328 20.869C31.6604 20.9562 32.3665 20.6337 32.8808 21.2439C31.8522 21.7582 30.9717 22.6735 29.5945 22.133C29.0889 21.9412 28.932 22.5427 29.1324 23.0047C30.0913 25.1927 28.9494 26.7095 27.5198 28.1478C27.4849 28.5662 27.8946 28.5226 28.0864 28.7057C28.4612 29.0631 28.9581 29.281 28.0167 29.8302C27.3803 30.205 26.7527 30.8065 26.0379 31.0506C24.9831 31.408 25.0441 31.931 25.4974 32.6807C24.9047 33.1775 24.6867 34.302 23.5012 33.8488C23.1874 33.7267 23.0043 34.1016 22.8126 34.3456C22.4116 34.8774 22.307 35.8624 21.1999 35.444C21.0779 35.4004 20.6595 35.7839 20.5636 36.0367C20.3195 36.6731 19.9359 37.1525 19.3083 37.3879C19.5785 37.8673 19.8749 37.8237 20.1713 37.7366C20.4764 37.6494 20.642 37.7714 20.642 38.0765C20.642 38.277 20.5113 38.3904 20.2846 38.3904C19.2822 38.3816 18.5499 39.4974 17.3993 39.0354C17.1901 38.9482 16.5101 39.1487 16.606 39.541C16.7193 40.0117 16.6409 40.0727 16.2573 40.003C15.9174 39.9507 15.4815 39.6718 15.3856 40.2471C15.3159 40.6568 15.9348 40.6829 16.0656 41.1798C14.4529 41.8598 13.8514 43.3242 13.5289 44.9107C13.4243 45.4425 13.4679 45.8958 12.7356 45.7824C12.6397 45.765 12.5351 45.9045 12.4218 45.9481C11.6809 46.288 12.4741 47.2382 11.8378 47.5346C11.245 47.8135 10.9225 48.1448 10.9573 48.8334C10.9835 49.3129 10.9312 49.8097 10.4518 50.1323C9.29239 50.9168 8.96985 52.3028 8.15917 53.3401C6.90391 53.7324 6.41575 52.7212 5.91016 51.9716C5.41329 51.2393 6.04963 50.7076 6.58138 50.2892C7.36591 49.6702 7.50539 48.5806 8.43811 47.953C7.58384 47.9617 6.92134 47.8135 6.99979 46.9156C7.0521 46.2357 7.58384 45.9829 8.19403 46.0963C9.13548 46.2706 9.13548 45.3902 9.80669 44.8759C9.77182 44.8846 9.25752 44.7364 9.44058 44.902C9.5016 44.9543 9.45801 44.963 9.3534 45.0153C8.37709 45.5296 7.88022 45.0589 8.08943 44.1523C8.23762 43.5073 8.26377 42.8361 8.4817 42.2084C8.54272 42.0341 8.70834 41.9208 8.82166 41.7813C6.32858 40.4563 9.26623 40.0204 9.22265 39.2098C8.65604 39.541 8.38581 40.4737 7.41821 40.3866C7.23516 40.1425 7.19157 39.9158 7.47923 39.7154L7.4618 39.7328C8.15917 38.5821 8.59502 37.2397 9.76311 36.4116C9.88515 36.4639 9.9636 36.429 9.99847 36.2983C10.3384 35.8798 10.2774 35.2173 10.8266 34.9384L10.8092 34.9733C11.2014 34.2672 11.6983 33.6395 12.3172 33.1078L12.2998 33.134C12.7792 32.2535 13.032 31.2424 13.7817 30.5188L13.7642 30.545C14.4616 29.5512 14.8364 28.3483 15.7082 27.4679C15.7343 27.3022 15.7953 27.154 15.8999 27.0146C17.0331 26.169 17.0942 24.4605 18.4976 23.8328H18.5063C18.7766 23.4493 18.7155 22.6473 19.5524 22.9786C19.7006 24.6871 18.5935 25.8378 17.6782 27.0494C17.2859 27.5637 16.6932 27.9299 16.3706 28.697C16.8588 29.2026 17.809 29.2113 18.1228 29.9784C18.1228 30.2835 18.0966 30.6147 18.5674 30.3096C19.1863 30.3271 19.8052 30.3358 20.3979 30.4404C20.8948 30.5276 21.8363 30.4578 21.1389 31.4341C20.9733 31.6608 21.0256 31.6085 21.1825 31.5387C21.5573 31.3731 22.0542 31.6172 22.3244 31.1203C23.1089 29.682 24.9134 28.8364 24.7826 26.8664C24.7739 26.7008 24.9657 26.5351 25.1313 26.4741C27.4588 25.6634 27.3803 23.5626 27.0491 21.8977C26.7963 20.6075 27.5285 20.1542 27.9382 19.3697C28.0428 19.2389 28.1561 19.1169 28.2607 18.9861C29.1412 17.5042 28.1736 16.432 27.4065 15.3424C26.805 14.4881 26.3604 13.6775 27.5111 12.7709C26.8137 13.0847 26.7265 14.0087 25.9071 13.9302C25.6805 13.7472 25.6369 13.5118 25.7066 13.2416C25.8287 12.9191 25.9769 12.6053 26.2471 12.3873C26.5958 12.1084 26.2209 11.5331 26.6917 11.3151C26.8224 11.3587 26.9096 11.3151 26.9706 11.1931C27.2321 11.0798 27.1101 10.6701 27.4326 10.609L27.3977 10.6265C28.1125 10.147 27.9818 9.12714 28.6792 8.63898C28.9145 8.56925 29.1412 8.47336 29.3765 8.42105C30.039 8.2903 30.3703 8.45592 29.9693 9.16201C29.8124 9.44095 29.638 9.70246 29.9867 9.94654C30.2046 10.1035 30.44 10.086 30.6754 9.95526C31.3204 9.60658 32.1573 9.4671 32.1224 8.35132C32.8721 8.92665 32.7152 10.2168 33.9268 10.0163C34.0576 9.99885 34.1796 10.3214 34.0053 10.4521C33.6915 10.6875 33.552 11.2628 33.0028 11.0798C32.7849 11.0013 32.5931 10.8095 32.4275 10.6352C31.5732 9.79835 31.0764 10.3127 30.6231 11.0885C31.1984 11.3326 32.4798 10.9664 31.6604 12.335C31.5035 12.5965 31.6342 12.8319 31.8696 12.9365C32.3752 13.1544 32.2357 12.675 32.3578 12.4571C32.4101 12.3699 32.5495 12.274 32.6367 12.2827C32.8895 12.3089 32.8546 12.5355 32.8546 12.7099C32.8634 13.7036 31.8086 13.3898 31.364 13.9825C31.5819 14.4881 32.3055 13.7733 32.4624 14.3225C32.5844 14.7671 32.3926 15.1594 32.2096 15.5516C32.0875 15.8219 31.9655 16.1269 31.9655 16.4233C31.9568 17.7047 31.5994 18.838 30.6667 19.7445L30.6754 19.762Z" fill="white"/>
<path fill-rule="evenodd" clip-rule="evenodd" d="M32.1573 55.1879C33.3428 56.1904 33.4126 57.803 33.029 58.8317C32.5321 60.1566 32.7937 61.2463 32.9854 62.4405C33.0552 62.8589 32.8111 63.042 32.5321 63.0943C31.7999 63.2425 31.5297 63.8178 31.1287 64.5065C31.7127 64.5588 32.4101 64.245 32.7326 64.9249C32.9941 65.4828 32.8983 66.0058 32.4973 66.4591C32.1486 66.8514 32.2096 67.2611 32.4798 67.6359C33.0726 68.4553 32.6367 69.606 33.3951 70.3731C33.4387 70.4166 33.3515 70.6956 33.3254 70.6956C31.7999 70.7217 32.4363 72.1339 31.9568 72.8226C31.6692 73.2323 31.4251 73.6332 30.8149 73.0928C30.4836 72.7964 29.9519 72.6395 29.6991 73.4066C29.6119 73.6768 29.1238 73.8076 28.8187 74.0081C28.7315 73.9209 28.6356 73.8512 28.4961 73.8512C28.6182 73.8599 28.7315 73.9122 28.8187 74.0081C28.932 74.4788 29.0453 74.9408 29.1499 75.3854C28.7838 75.891 27.9208 75.1064 27.7901 75.9433C27.6157 76.998 28.7576 76.6842 29.3068 77.1288C26.1774 77.861 26.8748 77.9482 26.3953 80.1972C26.1774 78.8286 25.7154 77.7826 26.16 76.6494C26.1948 76.5622 25.9682 76.3704 25.8636 76.2309C24.6083 76.2048 23.4402 76.2484 23.7802 74.3132C23.9633 73.302 22.8213 72.8836 22.1152 72.3344C22.0281 72.1775 21.967 72.0206 21.9409 71.8375C21.8886 71.6719 21.8537 71.4976 21.8276 71.3232C21.8189 71.1489 21.8101 70.9745 21.8189 70.8002C21.967 69.7977 22.3506 69.4491 23.231 70.2772C21.5138 68.6209 22.2896 66.5201 22.185 64.5588C22.1937 64.2188 22.3767 63.8876 22.2286 63.5389L22.307 63.4343L22.2286 63.3297C21.9758 62.4144 22.2809 61.5775 22.5772 60.7407L22.5598 60.7581C22.9782 59.808 22.3593 58.5963 23.3008 57.7682C23.5013 57.9251 23.7017 58.1692 23.5884 58.3871C23.0654 59.3721 23.3356 60.1218 24.3381 60.6797C23.0305 61.2637 22.8213 61.7432 22.8823 63.0943C22.9172 63.9486 23.5013 64.2624 24.094 64.5239C24.6519 64.768 25.3667 64.2275 25.8723 63.2512C25.1836 63.1989 24.5647 63.0943 23.9197 63.2512C23.6843 63.3122 23.4228 63.2076 23.3443 62.92C23.231 62.5103 23.4751 62.4667 23.8151 62.3795C24.1463 62.2923 24.434 62.0221 24.7478 61.8303C24.8001 62.3621 25.0093 62.5103 25.3667 62.0395C25.6021 61.7344 26.1164 61.3596 26.1512 61.7344C26.2646 62.9461 26.8573 62.4405 27.4762 62.3446C27.7901 62.2923 28.1475 62.5887 28.3828 62.9025C28.6966 63.3384 29.0192 63.7655 29.5422 64.4803C29.5683 63.6348 30.44 63.1292 29.4114 62.5538C29.2022 62.4405 29.1673 62.1354 29.2284 61.8826C29.3243 61.4468 30.0652 62.0221 29.9693 61.4642C29.917 61.1765 29.4376 60.9848 29.2632 60.6797C29.1063 60.4007 29.3591 60.1218 29.4899 59.8428C29.8124 59.1629 30.5621 58.8665 30.9282 58.2563C30.6231 57.7682 30.196 58.3086 29.8211 57.9164C30.4836 56.9401 31.6691 56.3473 32.1224 55.1792L32.1573 55.1879Z" fill="white"/>
<path fill-rule="evenodd" clip-rule="evenodd" d="M29.9344 104.622C29.6903 104.448 29.4463 104.474 29.2022 104.614C28.714 104.91 28.2346 104.962 27.7726 104.57C27.5285 104.448 27.2321 104.474 27.0142 104.282L26.9532 104.265C26.683 103.908 26.1861 104.221 25.9071 103.908L25.8636 103.89C25.6369 103.646 25.2534 103.733 25.018 103.507C24.617 103.079 24.0242 102.835 23.7802 102.243C23.7279 102.068 23.7017 101.885 23.693 101.702C23.5797 100.604 24.1637 99.9936 25.1313 99.671C26.0553 99.3572 26.9532 98.9562 27.7987 98.4855C29.1586 97.7184 30.5272 97.5528 31.9917 98.0322C32.8982 98.3025 33.7612 98.6599 34.4499 99.3398C34.8857 99.8367 35.1211 100.412 35.1385 101.074C35.1734 101.406 34.877 101.728 35.1037 102.077C35.4523 102.652 35.5395 103.332 35.8533 103.925C35.5744 104.901 34.9555 104.439 34.3976 104.256C34.1535 104.099 33.9094 104.108 33.6653 104.256C33.3166 104.439 33.0551 104.901 32.5583 104.614C32.4362 104.518 32.3142 104.526 32.1921 104.622C32.0701 104.771 31.9394 104.91 31.7476 104.954L31.7737 104.919C31.4512 105.337 31.1025 105.241 30.7364 104.98H30.7277C30.5098 104.779 30.1698 104.858 29.978 104.622H29.9344Z" fill="white"/>
<path fill-rule="evenodd" clip-rule="evenodd" d="M34.3714 69.9545C33.8048 69.3355 32.8111 68.8474 33.7264 67.7926C33.2295 67.0255 33.3167 66.2061 33.5085 65.3693C33.7961 64.1314 34.0751 62.8849 34.3627 61.6471C34.4063 61.4727 34.4499 61.2897 34.5284 61.1241C34.7114 60.7144 33.8223 60.3134 34.5719 59.8775C35.1298 59.555 35.7575 59.0232 36.2979 59.2412C37.1958 59.616 37.2219 58.8663 37.1871 58.5787C37.1173 58.1079 37.2306 57.428 36.542 57.2188C36.1672 57.1055 36.1497 56.8178 36.1149 56.5302C36.2282 56.443 36.3154 56.3384 36.4112 56.3209C38.329 56.0158 38.9479 54.8652 38.3028 52.9562C38.0152 52.1193 37.6403 51.2738 37.7624 50.3585C38.2157 50.1841 38.5295 50.5067 38.9741 50.5067C39.1222 50.0185 38.9218 49.5478 38.6428 49.2252C38.1198 48.6151 38.0762 48.6499 38.8172 48.1792C39.3925 48.2664 39.8632 48.5192 40.1247 49.0683C40.0463 49.5042 40.2642 50.0011 39.8719 50.3759L39.8894 50.341C39.4535 51.5614 40.0463 52.8864 39.5058 54.0981L39.4535 54.1853L39.5145 54.2637C39.2966 54.656 39.532 55.1877 39.131 55.5277L39.1484 55.4928C38.6777 55.9723 39.4884 56.4953 39.0874 56.9747L39.1223 56.9399C38.7125 59.0407 39.3489 61.1938 38.7823 63.2772L38.7997 63.251C38.6428 63.4341 38.7125 63.6346 38.7736 63.8263V63.8438C38.73 64.114 38.4859 64.2099 38.3028 64.3494C37.928 64.7591 38.1634 65.2995 37.9977 65.7441C37.9106 65.9707 37.8147 66.1974 37.5183 66.2323C36.4723 66.3456 36.3589 66.4589 36.1584 67.7578C35.9928 68.8387 34.633 68.9258 34.3889 69.937L34.3714 69.9545Z" fill="white"/>
<path fill-rule="evenodd" clip-rule="evenodd" d="M22.1501 72.1686C23.876 72.0291 24.0155 73.5633 24.6083 74.5745C24.8698 75.0278 24.1724 75.0103 23.9719 75.3154C24.6083 75.6205 25.2446 75.9256 25.8723 76.2307C25.8723 77.6952 24.8088 78.6192 24.0504 79.6827C23.7976 80.0401 23.4663 80.2231 22.952 80.1621C22.0978 80.0662 21.7404 80.5282 21.8798 81.4609C22.3941 81.182 22.8474 80.9292 23.4751 80.8856C23.9283 82.8906 23.7976 84.7124 21.9757 86.0548C21.5224 86.3861 22.4987 87.2665 21.444 87.3014C21.0691 86.8307 21.444 86.203 21.1127 85.7236C21.2086 85.5667 21.2435 85.4011 21.1127 85.2354C21.3307 84.4248 21.3568 83.6141 21.1214 82.8034L21.1389 82.8382C20.7815 82.5767 20.7553 82.1932 20.764 81.8009C20.8512 81.5307 20.8599 81.2169 21.1825 81.0948L21.1563 81.1123C21.505 79.0027 20.9733 76.8496 21.4353 74.7488C21.566 74.5483 21.566 74.3391 21.4788 74.1212C22.0106 73.572 20.6769 72.4039 22.1326 72.1598L22.1501 72.1686Z" fill="white"/>
<path fill-rule="evenodd" clip-rule="evenodd" d="M34.3714 69.9548C34.3714 69.5887 34.3714 69.2139 34.3888 68.8477C34.4063 68.5252 34.4934 68.2201 34.9031 68.255C35.2518 68.2811 35.6267 68.5165 35.7923 67.976C36.0189 67.2612 35.3564 67.1043 34.9903 66.7295C35.3913 66.0408 36.1235 66.3982 36.6466 66.189C36.8035 65.7009 36.8383 65.2214 36.5943 64.6897C37.5618 64.742 37.1086 65.605 37.5008 65.9014C37.7536 65.7532 37.5967 65.4829 37.6839 65.2912C37.8582 64.8989 37.0127 64.1056 38.1459 64.0969C38.2592 65.6834 38.3813 67.2699 38.0762 68.8477C37.9018 69.1615 37.8931 69.4928 38.0239 69.824C37.9192 70.1291 37.7885 70.4342 38.0413 70.7219V70.7045C38.2766 70.9485 38.2766 71.1839 38.0326 71.4193V71.4018C37.8495 71.6198 37.928 71.9859 37.6229 72.1341L37.6403 72.0992C37.5618 72.2387 37.466 72.3694 37.3439 72.474C36.9081 72.6658 36.4461 72.7966 36.0015 72.9535C35.6615 72.7443 35.5569 72.5002 35.8533 72.1689C35.3651 71.428 34.8683 70.6957 34.3801 69.9548H34.3714Z" fill="white"/>
<path fill-rule="evenodd" clip-rule="evenodd" d="M24.1114 52.9652C24.0503 53.2354 23.9893 53.5144 23.9283 53.7846C23.8586 53.8107 23.7801 53.8456 23.7104 53.8718C23.6319 53.8718 23.5535 53.8805 23.475 53.8892C22.9781 53.8195 22.612 54.0984 22.2546 54.3773C22.1239 54.4645 21.9844 54.5343 21.8362 54.5866C21.688 54.6389 21.5485 54.7086 21.4265 54.8045V54.787C21.2086 55.0398 20.8686 55.005 20.5897 55.1444C20.2584 55.1532 19.9272 55.1706 19.6046 55.1793C18.8027 55.5454 17.9658 55.3101 17.1464 55.3362C16.7193 54.5517 17.4341 54.6127 17.8089 54.4209C19.2734 54.4558 20.5548 54.2902 21.1999 52.6339C21.4875 51.9017 22.4115 51.6315 23.0915 51.2654C23.9893 50.7859 24.0068 51.6925 24.2508 52.1894C24.2857 52.4683 24.2072 52.7211 24.1026 52.9739L24.1114 52.9652Z" fill="white"/>
<path fill-rule="evenodd" clip-rule="evenodd" d="M36.9778 83.5969C36.9778 83.7277 36.9953 83.8497 36.9953 83.9805C37.0301 84.4163 36.8122 84.4163 36.5071 84.2681C36.3153 84.0502 36.2195 83.7887 36.1759 83.5097C36.1148 83.0477 36.1148 82.5857 36.1148 82.1324C35.9579 81.1997 36.5594 80.2408 36.0015 79.3168C36.0451 77.6867 36.0015 76.0479 36.3938 74.4614C36.5158 73.982 36.3764 72.9708 37.4834 73.4589C37.3963 74.4963 37.7624 75.5772 37.2481 76.5797L37.2655 76.5361C37.1347 76.8237 37.0999 77.1027 37.2917 77.3729L37.2742 77.3555C37.3875 77.4252 37.4224 77.5037 37.3963 77.5821C37.3701 77.6693 37.3352 77.7042 37.3004 77.7042C37.3265 77.8349 37.3527 77.957 37.3875 78.0877C37.4834 78.942 37.7275 79.8137 37.2568 80.6418L37.2742 80.5982C37.1609 80.7726 37.1783 80.9382 37.2917 81.1038C37.2917 81.2782 37.2917 81.4438 37.2829 81.6181C36.9604 82.2458 37.3265 82.978 36.9778 83.5969Z" fill="white"/>
<path fill-rule="evenodd" clip-rule="evenodd" d="M39.9939 48.9379C39.436 48.9379 39.0263 48.7113 38.7997 48.1795C39.0525 47.8134 39.2966 47.4386 39.5494 47.0725C39.8719 45.6777 39.715 44.222 40.1421 42.836C40.299 42.3304 40.2206 41.7289 40.822 41.45C41.1794 41.4674 41.2405 41.755 41.3451 42.0078C41.2666 42.1037 41.2666 42.1909 41.3625 42.2694C41.4671 42.3652 41.4933 42.4437 41.441 42.5047C41.3974 42.5657 41.3538 42.5919 41.3015 42.5919L41.3276 42.5657C41.0923 42.9231 41.3276 43.4113 41.0051 43.7425C40.8831 43.9256 40.8656 44.1174 40.9702 44.3179C40.5344 45.3029 41.1969 46.4448 40.5431 47.395L40.5693 47.3514C40.2031 47.8134 40.8743 48.6503 40.0026 48.9205L39.9939 48.9379Z" fill="white"/>
<path fill-rule="evenodd" clip-rule="evenodd" d="M22.5162 64.332C22.5336 64.8725 22.5685 65.4217 22.5685 65.9621C22.5772 67.2174 22.4029 68.4901 23.2223 69.6233C23.4489 69.9371 23.4577 70.4253 23.5274 70.8437C23.5971 71.2534 23.4402 71.6195 23.0044 71.6108C22.4988 71.6021 22.7167 71.2011 22.7952 70.9396C22.8823 70.6345 22.9346 70.3468 22.6208 70.1289C22.0281 70.2684 22.2808 70.8175 22.1327 71.1662C21.6445 71.1488 21.6532 70.7914 21.6358 70.4427C21.6358 70.2771 21.6358 70.1027 21.6358 69.9371C21.6358 69.6843 21.6096 69.4315 21.8014 69.2223C21.9322 68.9869 21.9496 68.7429 21.845 68.4901C21.9932 67.0953 21.6009 65.6134 22.4988 64.3407L22.5162 64.332Z" fill="white"/>
<path fill-rule="evenodd" clip-rule="evenodd" d="M42.4609 34.9032L42.3911 35.0078L42.4434 35.1211C42.2168 35.5047 42.426 36.0016 42.1209 36.3677C42.0337 36.4461 42.0163 36.5333 42.086 36.6379C41.6589 37.4835 42.2517 38.4772 41.7112 39.314V39.2792C41.5804 39.3751 41.4322 39.3751 41.2928 39.2617C41.1882 39.131 41.1184 38.9915 41.0661 38.8346C40.9877 38.5121 40.979 38.1895 40.9702 37.8583C40.9615 37.6927 40.9702 37.527 40.9702 37.3614C40.9702 37.1958 40.9877 37.0302 41.0138 36.8558C41.2666 35.8795 41.3712 34.8771 41.5107 33.8833C41.5107 33.7177 41.5194 33.5521 41.5369 33.3864C41.563 33.1336 41.5979 32.8896 41.5804 32.6368C41.5804 31.7389 40.9179 30.4488 42.766 30.6754C42.9316 30.7975 43.0188 30.9544 43.0275 31.1636C43.1408 32.4537 42.7485 33.6741 42.4609 34.9032Z" fill="white"/>
<path fill-rule="evenodd" clip-rule="evenodd" d="M43.5417 26.5696C43.411 26.8311 43.4197 27.0839 43.5417 27.3454C43.0885 28.4612 43.7771 29.7165 43.132 30.8061L43.1495 30.7451C43.132 30.9282 43.0449 30.9717 42.888 30.8759C42.8444 30.8235 42.7921 30.7625 42.7398 30.7102C42.1644 29.7862 41.5978 28.8622 41.9116 27.6941C42.208 27.1101 42.3475 26.4912 42.3649 25.8287C42.3824 25.2185 42.7049 24.9744 43.3064 25.2708C43.5417 25.6805 43.3151 26.1686 43.5417 26.5696Z" fill="white"/>
<path fill-rule="evenodd" clip-rule="evenodd" d="M37.6403 100.752C37.6403 100.909 37.6577 101.057 37.6577 101.214C36.9952 101.772 36.202 101.38 35.4872 101.502C34.5021 100.839 35.4959 100.151 35.461 99.4707C35.74 99.183 36.0887 99.1307 36.4635 99.2092C36.6378 99.2789 36.7686 99.3922 36.8645 99.5491V99.5143C37.1696 99.645 37.0737 100.037 37.309 100.203C37.4572 100.369 37.5967 100.525 37.6229 100.752H37.6403Z" fill="white"/>
<path fill-rule="evenodd" clip-rule="evenodd" d="M42.7921 0.96762C42.0686 1.08966 41.3887 1.44706 40.6303 1.30759C40.5257 1.24657 40.4821 1.16811 40.4995 1.08966C40.517 1.00249 40.5431 0.958903 40.578 0.958903C40.7 0.915317 40.7349 0.836863 40.6826 0.714824C40.7262 0.496898 40.8569 0.348707 41.0226 0.226668C41.7286 -0.0697123 42.3911 -0.191751 42.827 0.645088C42.8008 0.749693 42.7921 0.863015 42.7921 0.96762Z" fill="white"/>
<path fill-rule="evenodd" clip-rule="evenodd" d="M35.7749 92.0959C35.9056 92.9589 35.7487 93.8655 36.2107 94.6762C36.1148 94.929 36.141 95.1818 36.263 95.4259C36.3676 95.6787 36.2805 95.8181 36.0102 95.8617C34.6939 94.5106 34.6155 93.3251 35.7749 92.1047V92.0959Z" fill="white"/>
<path fill-rule="evenodd" clip-rule="evenodd" d="M45.1632 2.35352C45.7472 2.63246 45.2852 3.15549 45.4421 3.53032C45.6426 3.7744 45.6601 4.01848 45.4421 4.26255C45.4596 4.38459 45.477 4.51535 45.4857 4.63739C45.5729 4.76815 45.5555 4.88147 45.4508 4.99479C44.3438 4.22769 44.8407 3.27753 45.1632 2.35352Z" fill="white"/>
<path fill-rule="evenodd" clip-rule="evenodd" d="M43.9167 1.68237C43.4111 1.69981 42.8968 1.71724 42.827 1.01988C42.8968 1.00244 42.9665 1.00244 43.045 1.00244C43.2542 1.01988 43.4198 1.15063 43.5854 1.27267C43.6551 1.36856 43.7423 1.40343 43.8556 1.35984C44.0125 1.40343 44.0736 1.46445 44.0387 1.55162C44.0038 1.63879 43.9602 1.69109 43.9167 1.69109V1.68237Z" fill="white"/>
<path fill-rule="evenodd" clip-rule="evenodd" d="M16.5973 55.493C16.2835 55.4755 16.0045 55.5366 15.8302 55.8242C14.0171 55.7283 12.1952 55.6412 10.382 55.5453C10.3297 55.4494 10.2862 55.3535 10.2513 55.2576C10.3995 55.214 10.5477 55.1792 10.7046 55.1356C10.9225 54.8305 11.5937 55.092 11.5501 54.3859C11.5327 54.0721 11.6111 53.5142 11.8814 53.3922C14.0432 52.442 14.1217 50.1407 15.159 48.467C16.0569 48.1881 16.7455 47.7609 17.2424 46.8456C18.2971 44.9279 20.0057 43.5854 21.7665 42.3389C22.9433 41.5108 25.0877 41.9292 25.9071 43.0711C26.1338 43.3762 26.2733 43.7685 26.1251 44.1085C25.3754 45.8257 25.2882 47.6563 25.079 49.4695C25.0442 49.7833 24.8611 50.0361 24.4775 50.0448C23.815 49.5741 24.0243 48.8331 23.9284 48.1881C23.8586 47.7086 23.9109 47.1159 23.3705 46.9241C22.769 46.7062 22.3244 47.1594 21.9409 47.5517C21.1825 48.3101 20.7031 49.3213 20.5113 50.2889C20.2062 51.8056 19.7355 53.1568 18.7156 54.3162C18.5848 54.5602 18.3494 54.6648 18.1054 54.752C17.7305 54.8741 17.2424 54.6997 16.9983 55.1704C16.8588 55.275 16.7281 55.3884 16.5886 55.493H16.5973Z" fill="white"/>
<path fill-rule="evenodd" clip-rule="evenodd" d="M0.488156 47.5169C0.740951 47.4994 0.819405 47.3338 0.828122 47.1072C1.15937 46.9503 1.38601 46.6888 1.56036 46.3749C2.0398 46.1744 2.34489 45.8519 2.33618 45.294C2.92894 45.1545 3.19917 44.6925 3.45196 44.2131C4.58518 43.6901 4.9513 42.2779 6.16297 41.8508C7.02596 41.7287 7.24389 41.0837 7.37464 40.3602C8.49915 39.9505 8.80424 38.7824 9.63237 37.9717C10.1554 38.2942 10.0595 38.7562 9.84158 39.1921C9.6498 39.5843 9.30112 39.8458 8.91757 40.0551C8.46428 40.3079 8.05458 40.6217 8.29866 41.2057C8.5253 41.7549 9.07447 41.2929 9.45803 41.4759C9.49289 42.0774 8.12431 42.1995 8.935 43.0799C9.21395 43.385 8.81296 43.6203 8.63862 43.8383C8.35096 44.1957 8.03714 44.5705 8.65606 44.8582C9.55391 45.2853 9.07447 44.2044 9.44931 44.0736C10.5564 45.0325 9.35342 45.7386 9.17908 46.558C9.08319 47.02 8.84783 46.7672 8.67349 46.6452C8.41198 46.4708 8.15918 46.2965 7.82793 46.3837C7.44438 46.497 7.13057 46.7062 7.34849 47.1682C7.51412 47.5343 7.64487 48.1358 8.08073 47.2554C8.23764 46.9328 8.76066 47.5082 8.71707 47.543C8.31609 47.883 9.50161 48.284 8.66477 48.5193C8.38583 48.5978 8.05458 48.5193 8.00227 48.9552C7.89767 49.9054 7.25261 50.4284 6.4855 50.8904C5.92761 51.2216 5.93633 51.7272 6.42448 52.0846C6.99981 52.503 7.38336 53.2178 8.17662 53.3312C8.28122 53.706 9.53648 54.107 8.1679 54.4644H8.15918C8.05458 54.2988 7.89767 54.1942 7.72333 54.1157C7.51412 54.0896 7.30491 54.0547 7.0957 54.0285C6.62498 53.767 6.14554 53.4968 5.67482 53.2353C5.33485 52.9215 5.0036 52.6076 4.48929 52.6164L4.3411 52.503L4.15804 52.5292C4.01857 52.4246 3.8791 52.3287 3.73962 52.2241C3.73962 51.9974 3.60015 51.8754 3.39094 51.8318C3.36479 51.6226 3.25147 51.4919 3.03354 51.4483C2.99867 51.2303 2.87663 51.1083 2.65871 51.0822C2.61512 50.8729 2.49308 50.7509 2.28387 50.7248C2.25772 50.5243 2.18799 50.3586 1.97006 50.2976C1.90904 50.071 1.75213 49.9838 1.53421 49.9925C1.38601 49.7136 1.13322 49.609 0.845556 49.5654C0.592761 49.33 0.339966 49.0947 0.0871707 48.8593C-0.139473 48.3014 0.0784536 47.8656 0.479439 47.4907L0.488156 47.5169Z" fill="white"/>
<path fill-rule="evenodd" clip-rule="evenodd" d="M24.3991 50.0187C25.079 48.9988 24.7042 47.7872 24.9744 46.6975C25.1226 46.1135 25.0965 45.4859 25.2272 44.9018C25.3492 44.3614 26.4389 43.9691 25.5149 43.2892C24.0591 42.217 23.0741 41.9554 22.1937 42.6354C20.2323 44.1347 17.9659 45.3987 17.2685 48.0487C17.1639 48.441 16.9547 48.5368 16.6409 48.5456C16.1527 48.563 15.6646 48.5543 15.1764 48.563C15.0805 48.4845 15.0544 48.3974 15.0805 48.3189C15.1154 48.2405 15.1416 48.1969 15.1764 48.1969C15.9087 47.5169 16.0045 46.2268 17.2337 46.1745C17.286 45.573 16.9809 45.2331 16.8239 44.8408C16.6932 44.5008 16.7629 44.0824 17.0332 44.0475C18.1402 43.8819 18.4802 42.7226 19.4391 42.3477C20.2149 42.0426 20.9558 41.5109 20.7205 40.43C20.6682 40.2033 20.7553 40.1597 20.9384 40.0726C22.3157 39.4101 22.307 39.4013 23.0741 37.8584C23.1438 37.7102 23.3007 37.5708 23.4576 37.5185C24.7391 37.039 25.3928 35.5397 26.8922 35.4089C27.1537 35.3828 27.2757 35.0951 27.2409 34.8423C27.1973 34.5459 27.0229 34.2583 27.0142 33.9619C26.9968 32.9856 27.5808 32.663 28.5833 33.0553C28.9058 33.1774 29.333 32.9158 29.6293 33.3343C28.9756 33.5086 28.3915 33.5435 28.592 34.5982C28.8622 35.9581 28.3566 36.4637 26.7876 36.9518C27.6157 37.6143 27.9731 38.2856 26.9881 39.0701C26.3953 39.5408 27.1188 40.5084 26.5261 40.9355C25.4277 41.7201 25.7677 42.4785 26.3691 43.324C26.5871 43.6291 26.6655 44.0127 26.6045 44.3788C26.4825 45.172 26.866 45.6341 27.6331 45.8258C27.3106 46.5755 26.282 45.6341 26.2035 46.654C26.1599 47.2554 25.419 47.7785 25.6543 48.3538C26.0205 49.2168 25.5759 49.7572 25.1923 50.3674C24.6867 51.1868 25.0877 52.3811 24.1027 52.9913C24.0766 52.7472 24.0504 52.5118 24.0155 52.2677C23.9371 52.1893 23.8935 52.0934 23.8935 51.9975C23.8935 51.9016 23.9022 51.8406 23.9196 51.8406C24.1027 51.3089 23.8848 50.7161 24.2073 50.2105C24.2683 50.1582 24.3293 50.1059 24.3817 50.0449L24.3991 50.0187Z" fill="white"/>
<path fill-rule="evenodd" clip-rule="evenodd" d="M39.1658 42.6441C38.9653 42.801 38.8084 42.9928 38.8171 43.2543C38.8345 44.248 38.6079 44.9105 37.3614 44.7362C36.9429 44.6752 36.3763 44.8321 36.0625 45.2854C35.8446 45.6079 35.7836 45.9827 35.9579 46.3227C36.1584 46.715 36.4461 46.4447 36.7337 46.3837C37.7972 46.1484 37.3265 47.2816 37.7798 47.6826C38.1721 48.0225 37.4224 48.3102 37.065 48.4148C36.8035 48.4845 36.4809 48.284 36.1846 48.284C35.8795 48.284 35.4436 48.4322 35.4349 48.6937C35.3826 49.827 34.2668 51.0561 35.7051 52.0847C35.8882 52.2154 35.9841 52.4857 35.923 52.7646C35.7051 53.0261 35.3913 52.9477 35.0949 52.9651C34.6329 52.9913 34.1971 52.7821 34.4237 53.7148C34.6155 54.508 33.6653 54.9265 32.9069 55.1792C32.9941 54.9003 33.212 54.5865 33.1597 54.3424C32.9418 53.4097 32.6367 52.5118 33.2033 51.5704C33.2992 51.4135 33.0203 51.0299 32.9157 50.751C33.1946 50.6289 33.4735 50.4982 33.7612 50.4023C34.014 50.3151 34.2581 50.2715 33.8571 50.01C33.1161 49.5219 34.0663 48.4758 33.2033 47.9441C33.0551 47.8482 33.4997 47.4734 33.8222 47.5518C34.3453 47.6738 34.6068 47.2903 34.5283 46.9765C34.1622 45.4597 34.6765 43.8122 33.7874 42.3913C33.7699 42.3652 33.8222 42.2954 33.8658 42.1559C35.5744 43.2369 37.187 42.4087 38.8171 41.9119C39.1048 42.0775 39.3576 42.2518 39.1832 42.6441H39.1658Z" fill="white"/>
<path fill-rule="evenodd" clip-rule="evenodd" d="M42.1296 27.8857C42.0337 28.8969 43.01 29.6727 42.7485 30.7188C42.025 30.8669 41.5542 31.1459 41.9465 32.0176C42.0773 32.3227 42.0511 32.6888 42.0947 33.0375C41.9814 33.1683 41.8855 33.3077 41.7547 33.4298C41.7547 33.5518 41.746 33.6738 41.7373 33.7959C41.1881 34.8594 40.9353 35.9664 41.345 37.1432C41.345 37.2478 41.345 37.3524 41.345 37.4483C41.1009 37.7186 40.9963 38.0672 40.7784 38.3549C40.7 38.4682 40.6128 38.5728 40.5169 38.6774C40.3949 38.8343 40.2728 39.0087 40.1595 39.1743C40.081 39.2876 39.9852 39.3835 39.8631 39.4533C39.7149 39.4968 39.6016 39.4533 39.5232 39.3225C39.3924 38.7036 39.9416 38.0934 39.5232 37.4745C39.2965 35.888 38.5991 34.2492 40.3774 32.9852C40.7523 32.715 39.7149 32.4099 39.9939 31.8781C40.0287 31.7038 40.0898 31.5556 40.1944 31.4074C40.3426 31.2331 40.7435 31.0239 40.7 30.989C39.1483 29.603 40.0636 27.6416 39.5319 26.029C39.6539 26.029 39.7759 26.029 39.898 26.029C40.238 25.7326 40.8307 25.8285 41.0051 25.288C41.0922 25.2096 41.1271 25.1224 41.0922 25.0439C41.0661 24.9655 41.0312 24.9219 41.0051 24.9219C40.6912 24.5558 40.7348 24.1809 41.0051 23.8148C41.0051 23.6928 41.0051 23.5708 41.0051 23.4487C40.421 22.9693 41.1271 21.9755 40.2728 21.6007C40.3949 21.4787 40.5169 21.3566 40.6389 21.2346C41.6065 20.9208 40.6389 19.5871 41.6676 19.3081C42.67 20.4413 42.3911 21.7576 42.2603 23.0826C42.0947 24.6778 41.685 26.2643 42.1296 27.877V27.8857Z" fill="white"/>
<path fill-rule="evenodd" clip-rule="evenodd" d="M40.2729 31.573C40.3165 31.8432 40.2206 32.3924 40.4473 32.3401C41.3713 32.0873 41.0488 32.898 40.918 32.9852C39.1484 34.101 39.7151 35.9054 39.532 37.4832C39.1659 36.2889 38.0588 35.4783 37.8583 34.1794C37.5881 32.4186 37.2307 30.71 38.3813 29.0538C38.9915 28.1821 39.2879 27.1012 39.532 26.0464C39.9766 26.6915 40.4996 27.2493 40.1596 28.1908C39.7063 29.4373 40.8221 30.248 41.3626 31.2243C40.9354 31.3638 40.6042 31.4684 40.2729 31.5817C40.2381 31.5469 40.1858 31.5207 40.1683 31.4684C40.2206 31.5207 40.2555 31.5556 40.2729 31.5817V31.573Z" fill="white"/>
<path fill-rule="evenodd" clip-rule="evenodd" d="M41.7461 19.3956C41.3451 19.6571 41.38 20.0755 41.3712 20.4678C41.3625 20.9559 41.1184 21.2 40.639 21.2349C40.8395 20.6857 41.0574 20.2063 40.4036 19.6919C40.1073 19.4566 40.3426 18.6895 39.6104 18.5587C39.5058 18.5413 39.7063 18.027 40.055 17.9398C40.6477 17.7829 41.0313 17.5214 40.8569 16.7804C40.6826 16.0744 41.5892 16.4143 41.7897 15.9087C42.1994 14.8627 42.766 13.8689 43.289 12.8752C43.5244 12.4219 43.1757 12.2388 42.9665 11.9512C42.6875 11.5502 42.1209 12.0209 41.842 11.4717C42.5655 10.7308 43.5854 10.4344 44.3961 9.82422C44.5355 11.0708 44.0474 12.2301 43.8992 13.4331C43.411 13.6684 43.4459 14.2176 43.2105 14.6099C42.7398 16.2138 42.7485 17.9572 41.7635 19.4043L41.7461 19.3956Z" fill="white"/>
<path fill-rule="evenodd" clip-rule="evenodd" d="M15.1765 48.1792C15.1765 48.3012 15.1765 48.4233 15.1765 48.5453C15.3159 49.7047 14.0607 50.6287 14.6447 51.9014C14.7493 52.1368 14.113 52.1542 13.9561 52.3721C13.5987 52.869 12.9885 52.9562 12.5439 53.1043C11.5589 53.4182 12.6311 54.0284 12.1952 54.4381C11.7419 54.8652 11.463 55.4405 10.7046 55.1354C10.321 54.2986 10.077 53.5489 11.3409 53.209C12.849 52.7992 12.5003 51.483 12.5962 50.3933C11.986 49.478 12.7095 49.2165 13.3371 49.1294C14.0955 49.0248 14.6796 48.7197 15.1765 48.1792Z" fill="white"/>
<path fill-rule="evenodd" clip-rule="evenodd" d="M39.1658 42.6439C39.0438 42.3998 38.9217 42.1557 38.7997 41.9116C38.9217 41.7896 39.0438 41.6675 39.1658 41.5455C39.3053 41.4409 39.4012 41.2927 39.5319 41.1794C39.5319 40.9353 39.5319 40.6912 39.5319 40.4384C39.4447 40.36 39.4186 40.2728 39.4535 40.1944C39.4796 40.1159 39.5058 40.0723 39.5406 40.0723C39.7673 39.8805 39.6714 39.5319 39.898 39.3401H39.9068C41.3887 39.9503 40.4734 41.0835 40.4036 41.9726C40.36 42.5654 40.2293 43.4371 39.1745 43.0274C39.1745 42.9054 39.1745 42.7746 39.1745 42.6526L39.1658 42.6439Z" fill="white"/>
<path fill-rule="evenodd" clip-rule="evenodd" d="M40.2729 21.6099C41.4584 21.8539 40.8482 22.8041 41.0051 23.4579C39.9416 23.1702 40.6826 22.159 40.2729 21.6099Z" fill="white"/>
<path fill-rule="evenodd" clip-rule="evenodd" d="M27.3019 59.4504C27.0927 60.1914 26.7527 60.418 26.1948 60.2263C26.1251 60.2001 26.0292 59.9996 26.064 59.9473C26.343 59.4417 26.805 59.5986 27.3019 59.4504Z" fill="white"/>
<path fill-rule="evenodd" clip-rule="evenodd" d="M25.9071 57.9513C26.1948 58.0385 26.221 58.2739 26.221 58.5092C26.2297 58.9189 26.0379 59.2938 25.6282 59.163C25.1488 59.0148 25.8112 58.7533 25.6805 58.4744C25.5846 58.2826 25.5846 58.0124 25.9071 57.9426V57.9513Z" fill="white"/>
<path fill-rule="evenodd" clip-rule="evenodd" d="M44.3786 2.01392C44.614 2.01392 44.8406 2.03135 45.076 2.04007C45.1283 2.12724 45.1544 2.22313 45.1457 2.32773C44.6314 2.52822 44.4658 3.10355 43.8992 3.47838C43.812 2.83332 44.1868 2.44977 44.3786 2.02263V2.01392Z" fill="white"/>
<path fill-rule="evenodd" clip-rule="evenodd" d="M41.0051 23.8237C41.0051 24.1898 41.0051 24.5647 41.0051 24.9308C40.7262 24.9046 40.2642 25.0267 40.2119 24.7826C40.0986 24.2422 40.6303 24.0591 41.0051 23.8237Z" fill="white"/>
<path fill-rule="evenodd" clip-rule="evenodd" d="M28.3218 60.9324C28.3479 61.1329 28.2869 61.2985 28.069 61.2898C27.8597 61.2898 27.7726 61.098 27.7813 60.915C27.7813 60.8104 27.8685 60.6273 27.9295 60.6186C28.13 60.6011 28.252 60.7493 28.3218 60.9324Z" fill="white"/>
<path fill-rule="evenodd" clip-rule="evenodd" d="M41.0138 25.2971C40.979 26.0468 40.4385 26.0381 39.9068 26.0381C39.8719 25.1838 40.7087 25.6458 41.0138 25.2971Z" fill="white"/>
<path fill-rule="evenodd" clip-rule="evenodd" d="M40.3252 1.35985C40.4298 1.3337 40.5257 1.31626 40.6303 1.29883C40.9441 1.848 40.8831 2.24027 40.1945 2.38846C40.238 2.0485 40.2816 1.69981 40.3165 1.35985H40.3252Z" fill="white"/>
<path fill-rule="evenodd" clip-rule="evenodd" d="M31.5645 19.8575C31.3989 19.9795 31.303 20.1015 31.2245 20.0841C31.0676 20.058 30.9107 19.9882 30.7712 19.9011C30.5969 19.779 30.6318 19.7267 30.841 19.7616C31.0502 19.7964 31.2681 19.8139 31.5558 19.8488L31.5645 19.8575Z" fill="white"/>
<path fill-rule="evenodd" clip-rule="evenodd" d="M32.8895 21.2439C33.0464 21.3224 33.2381 21.5751 33.1597 21.61C32.7413 21.7844 32.9941 21.3747 32.8982 21.2439H32.8895Z" fill="white"/>
<path fill-rule="evenodd" clip-rule="evenodd" d="M25.5062 32.6804C25.6631 32.724 25.8287 32.7676 25.9856 32.8199C25.7154 33.1599 25.6369 32.8199 25.5062 32.6804Z" fill="white"/>
<path fill-rule="evenodd" clip-rule="evenodd" d="M39.8893 39.3316C39.8893 39.6367 39.8283 39.8983 39.5319 40.0552C39.5319 39.8111 39.5319 39.567 39.5319 39.3142C39.654 39.3142 39.7673 39.3142 39.8893 39.3229V39.3316Z" fill="white"/>
<path fill-rule="evenodd" clip-rule="evenodd" d="M32.1398 48.8245C32.1398 48.8245 32.0526 48.7547 32.009 48.7199C32.0613 48.6937 32.1136 48.6414 32.1572 48.6501C32.2008 48.6501 32.2444 48.7112 32.288 48.746C32.2357 48.7722 32.1921 48.7983 32.1398 48.8245Z" fill="white"/>
<path fill-rule="evenodd" clip-rule="evenodd" d="M32.8895 50.7597C32.7326 50.6813 32.5408 50.4285 32.6193 50.3936C33.0377 50.2193 32.7849 50.629 32.8895 50.7597Z" fill="white"/>
<path fill-rule="evenodd" clip-rule="evenodd" d="M24.7739 61.8301L24.861 61.6819L24.9308 61.7516L24.7739 61.8301Z" fill="white"/>
<path fill-rule="evenodd" clip-rule="evenodd" d="M39.5319 40.0637C39.5319 40.1858 39.5319 40.3078 39.5319 40.4298C39.2791 40.3078 39.2791 40.1858 39.5319 40.0637Z" fill="white"/>
<path fill-rule="evenodd" clip-rule="evenodd" d="M41.0051 24.9312C41.2579 25.0532 41.2579 25.1752 41.0051 25.2973C41.0051 25.1752 41.0051 25.0532 41.0051 24.9312Z" fill="white"/>
<path fill-rule="evenodd" clip-rule="evenodd" d="M43.9689 1.71714C44.0823 1.71714 44.2043 1.71714 44.3176 1.69971C44.3612 1.79559 44.3874 1.9002 44.3786 2.0048C44.1694 2.0048 44.0387 1.90892 43.9689 1.71714Z" fill="white"/>
<path fill-rule="evenodd" clip-rule="evenodd" d="M35.8446 72.1687C35.8446 72.4738 35.9144 72.744 36.2195 72.9009C36.2718 72.9532 36.3328 73.0143 36.3851 73.0666C36.4897 73.2845 36.5246 73.5111 36.4984 73.7465C36.481 73.9034 36.4374 74.0516 36.3764 74.1998C36.1759 74.5659 36.2805 74.9756 36.2107 75.3591C35.9841 77.242 35.6005 79.0901 35.1037 80.9119C35.0862 81.0688 35.0514 81.217 35.0078 81.3652C34.8509 81.7836 34.7724 82.2108 34.9206 82.6553C34.9729 82.7948 34.9991 82.943 35.0252 83.0912C35.0688 83.4922 34.9816 83.8409 34.7288 84.1547C34.4848 84.4511 34.3366 84.7997 34.1535 85.131C34.0576 85.2617 33.953 85.3838 33.8397 85.4971C33.6392 85.7412 33.3951 86.0724 33.5956 86.3078C35.095 88.0251 34.0925 88.9839 32.4798 89.7075C34.4412 91.6775 34.1884 92.6887 31.6256 93.7347C31.5558 93.6824 31.4861 93.6301 31.4163 93.5778C31.4338 92.9415 30.9543 92.6102 30.5969 92.2005C29.577 90.9976 29.5073 90.0213 30.5708 88.9142C31.2682 88.1907 30.9805 87.5282 30.6405 86.9441C30.257 86.2904 30.1698 85.8458 30.8323 85.3925C31.1025 85.2007 31.1374 85.0438 31.0241 84.6603C30.6318 83.4137 31.2682 82.1497 32.506 81.8708C33.4997 81.6442 34.1709 81.4611 33.77 80.232C33.6915 79.9879 33.9181 79.6567 33.9879 79.3516C34.2843 77.9743 34.2843 77.9743 32.9854 77.2943C32.5583 77.0677 32.8024 76.4314 32.2532 76.3703C32.6455 75.5073 33.4126 75.5945 34.0228 75.394C34.2581 74.9756 33.9704 74.7054 33.7264 74.4526C33.3951 74.1126 33.5956 73.7552 33.8833 73.7901C34.9119 73.9034 35.1996 73.3891 35.2519 72.4999C35.2693 72.2472 35.618 72.221 35.8621 72.1774L35.8446 72.1687Z" fill="white"/>
<path fill-rule="evenodd" clip-rule="evenodd" d="M24.0329 98.7297C23.3879 97.8057 23.9806 96.5242 23.1263 95.6438C22.9433 95.4608 23.1263 95.1992 23.353 95.0511C23.8847 94.6937 24.6431 94.4147 25.0615 94.7895C25.9245 95.5654 26.927 94.8331 27.79 95.2603C27.9382 95.3387 28.0689 94.929 28.1038 94.6849C28.4699 94.7895 28.7837 95.1731 29.2021 94.6849C29.7775 94.0224 30.4923 93.5604 31.425 93.5779C31.7127 96.2976 30.501 97.8144 27.79 97.9538C26.5347 98.0149 25.4538 98.5728 24.277 98.8343C24.1985 98.7994 24.1114 98.7732 24.0329 98.7384V98.7297Z" fill="white"/>
<path fill-rule="evenodd" clip-rule="evenodd" d="M39.1658 43.0189C40.4298 42.1384 40.6128 41.197 39.898 39.3228C39.9068 39.0177 39.9765 38.7475 40.2729 38.5906C40.5257 38.1112 40.6564 37.5271 41.3364 37.4399C41.3364 37.5707 41.3364 37.7015 41.3364 37.8322C41.101 38.1983 41.1272 38.5732 41.3102 38.9567C41.3451 39.0875 41.3799 39.2269 41.4061 39.3577V39.3315C41.1707 39.7935 40.7523 40.2033 41.0313 40.796C41.0313 41.0401 41.0225 41.2842 41.0138 41.5282C40.7 43.1496 39.6278 44.6141 40.0375 46.3924C40.116 46.7411 39.8022 46.9241 39.5232 47.0723C39.3663 45.7212 39.8022 44.3177 39.1484 43.0189H39.1658Z" fill="white"/>
<path fill-rule="evenodd" clip-rule="evenodd" d="M23.0915 94.371C22.9085 93.4906 23.7366 92.3399 22.3506 91.7036C22.1326 91.6077 22.5249 90.919 22.9172 90.7186C23.231 90.5529 23.5187 90.736 23.6668 91.0498C23.9109 91.5728 23.9545 92.2353 24.6606 92.4358C24.8262 92.4881 25.0354 92.7584 24.8524 92.8368C24.1027 93.1855 24.495 94.8069 23.0915 94.3797V94.371Z" fill="white"/>
<path fill-rule="evenodd" clip-rule="evenodd" d="M28.0951 94.6763C27.6505 94.6763 27.267 94.4758 26.927 94.223C26.6568 94.0225 26.5609 93.7087 26.7963 93.4385C26.9444 93.2729 27.1972 93.1334 27.4064 93.1247C27.7203 93.116 27.668 93.4385 27.7377 93.6564C27.8423 94.0051 27.9731 94.3364 28.0951 94.685V94.6763Z" fill="white"/>
<path fill-rule="evenodd" clip-rule="evenodd" d="M23.0044 99.0348C22.9695 98.5641 22.9434 98.0934 22.9085 97.6313C23.4228 97.858 23.2223 98.8081 24.033 98.7384C24.033 99.366 23.7105 99.3573 23.2746 99.122C23.1875 99.0784 23.0916 99.0522 22.9957 99.0435L23.0044 99.0348Z" fill="white"/>
<path fill-rule="evenodd" clip-rule="evenodd" d="M36.8383 49.3213C36.7599 49.391 36.6814 49.5131 36.6029 49.5218C36.4548 49.5305 36.4025 49.4172 36.4896 49.2777C36.5158 49.2254 36.5681 49.1818 36.6204 49.1644C36.7599 49.1121 36.8383 49.1644 36.847 49.3213H36.8383Z" fill="white"/>
<path fill-rule="evenodd" clip-rule="evenodd" d="M25.2446 14.3223C25.4626 14.2526 25.5497 14.1044 25.541 13.8865C25.6369 13.8691 25.7328 13.8516 25.8287 13.8342C26.744 13.4681 26.9619 12.5702 27.3716 11.6113C27.7813 12.1954 28.4002 12.6051 27.5895 13.163C26.8747 13.6598 27.0578 14.209 27.4501 14.7059C27.9295 15.3074 28.4961 15.813 28.6966 16.6236C28.7663 16.9113 29.5247 17.1554 29.2981 17.382C28.7053 17.9661 29.4463 19.0383 28.47 19.3957C27.8772 19.8141 27.9644 20.7381 27.1973 21.0519C27.0404 21.1217 27.145 21.418 27.4065 21.357C28.13 21.1827 27.7639 21.7842 27.9121 22.0195C28.2956 22.6384 26.282 22.8128 27.5983 23.4055C28.3741 23.7542 27.145 24.6172 28.191 24.748C28.5223 24.7915 28.1387 25.3494 27.8946 25.3407C27.0665 25.3233 26.7614 26.1427 26.2907 26.3432C25.0529 26.8575 24.9483 27.6159 25.1052 28.6881C25.1575 29.028 24.9047 29.2547 24.5734 29.3244C23.9981 29.429 23.5971 29.5423 24.1463 30.2397C24.3904 30.5448 24.0243 30.571 23.7802 30.5274C23.4751 30.4751 23.1787 30.4228 22.891 30.5884C22.8213 31.1201 22.7516 31.6432 22.6818 32.1575C22.0978 32.2882 21.7665 31.4601 21.1215 31.9047C20.7641 32.1488 20.2934 32.5149 19.7703 32.0354C19.8924 31.2945 20.9123 31.6693 21.1215 30.9109C20.1277 30.6756 19.0381 31.0766 18.1315 30.4576C17.5039 29.6557 16.7717 29.0891 15.5948 29.5249C15.6297 28.4876 16.1615 27.7466 16.7194 27.3456C18.271 26.2386 18.672 24.469 19.5698 22.9871C19.8226 22.5251 20.0841 22.0544 20.3369 21.5924C21.3307 20.6771 22.246 19.7008 22.6557 18.3671C23.0741 18.0794 23.2833 17.6784 23.292 17.1728C23.5884 17.0595 23.7192 16.8329 23.7366 16.519C23.7715 16.3098 23.8761 16.1704 24.0678 16.0919L24.1114 16.1181C24.2858 15.6996 24.3991 15.2376 24.8437 14.9936C25.0529 14.8105 25.2272 14.6013 25.2534 14.3136L25.2446 14.3223Z" fill="white"/>
<path fill-rule="evenodd" clip-rule="evenodd" d="M19.2124 32.1314C19.1601 32.236 19.1252 32.419 19.0555 32.4365C18.8463 32.48 18.6894 32.3231 18.6894 32.1226C18.6894 31.9222 18.8463 31.774 19.0642 31.8263C19.134 31.8437 19.1601 32.0268 19.2124 32.1401V32.1314Z" fill="white"/>
<path fill-rule="evenodd" clip-rule="evenodd" d="M28.5658 14.7408C28.5484 14.7844 28.531 14.8715 28.5135 14.8715C28.4612 14.8715 28.4089 14.8454 28.3566 14.8192C28.3741 14.7756 28.3915 14.6885 28.4089 14.6885C28.4612 14.6885 28.5135 14.7146 28.5658 14.7408Z" fill="white"/>
<path fill-rule="evenodd" clip-rule="evenodd" d="M18.1315 30.4661L18.0443 30.623L17.9746 30.5532L18.1315 30.4661Z" fill="white"/>
<path fill-rule="evenodd" clip-rule="evenodd" d="M28.8361 74.0079C28.7751 74.0079 28.7141 74.0428 28.6618 74.0254C28.3044 73.9208 28.2085 74.6181 27.8075 74.2869C27.7552 74.252 27.7814 74.0428 27.8424 73.9643C28.1911 73.4849 28.5223 73.6244 28.8449 74.0079H28.8361Z" fill="white"/>
<path fill-rule="evenodd" clip-rule="evenodd" d="M29.8385 72.3952C29.8559 72.3516 29.8734 72.2644 29.8908 72.2644C29.9431 72.2644 29.9954 72.2906 30.0477 72.3167C30.0303 72.3603 30.0128 72.4475 29.9954 72.4475C29.9431 72.4475 29.8908 72.4213 29.8385 72.4039V72.3952Z" fill="white"/>
<path fill-rule="evenodd" clip-rule="evenodd" d="M21.8625 71.7591C21.9584 71.6109 22.0455 71.4714 22.1414 71.3232C22.1414 71.5237 22.1414 71.7155 22.1414 71.916C22.0543 71.8637 21.9584 71.8114 21.8712 71.7591H21.8625Z" fill="white"/>
<path fill-rule="evenodd" clip-rule="evenodd" d="M23.2833 99.1132C23.5884 99.0958 23.8761 99.0435 24.0417 98.7384C25.2621 97.8754 26.5871 97.3873 28.1039 97.579C29.2109 97.7185 29.7601 96.6289 30.7103 96.4197C30.3529 95.6613 31.8086 95.1295 30.9631 94.2578C30.7713 94.0661 31.3292 93.8568 31.4251 93.5779C32.5234 93.543 32.6106 92.2529 33.491 91.8781C33.77 91.7648 33.5869 91.233 33.2295 90.9889C32.689 90.6228 32.166 90.2305 31.5297 89.7685C32.4624 89.1409 33.5085 88.8881 34.1448 87.938C33.892 87.598 33.6305 87.2144 33.3515 86.8483C32.7937 86.1219 33.0174 85.5379 34.0228 85.0962C35.3216 86.2207 35.1996 87.7026 34.9381 89.1409C34.6591 90.6577 34.2145 92.1309 34.7811 93.6651C34.9816 94.2055 34.7114 94.5978 34.3366 94.9726C34.1622 95.147 33.6566 95.2341 33.9705 95.6177C35.3565 97.3437 33.8397 96.9601 32.9593 97.0211C32.1922 97.0735 31.7389 97.3001 32.2445 98.1544C32.2183 98.2328 32.1922 98.3113 32.166 98.3897C32.044 98.3897 31.9132 98.4159 31.8086 98.381C29.9257 97.8057 28.3915 98.7471 26.805 99.4968C26.4302 99.6799 26.0466 99.8891 25.6457 99.9675C24.4514 100.22 23.8674 100.883 24.0156 102.129C23.3879 101.214 23.5274 100.124 23.3008 99.1132H23.2833Z" fill="white"/>
<path fill-rule="evenodd" clip-rule="evenodd" d="M35.1124 101.301C35.0252 101.389 34.9206 101.432 34.7986 101.432C34.6504 100.787 34.5022 100.142 34.354 99.4969C34.3714 99.4272 34.3802 99.3575 34.3976 99.2877C34.476 99.1657 34.5719 99.0698 34.694 98.9913C34.7637 98.9739 34.8334 98.9565 34.9032 98.9478C34.9729 98.9565 35.0427 98.9739 35.1124 98.9826C35.2431 99.0524 35.3478 99.1482 35.4349 99.2616C35.4524 99.3313 35.4785 99.401 35.4959 99.4708C35.9928 100.212 35.8969 100.831 35.1124 101.31V101.301Z" fill="white"/>
<path fill-rule="evenodd" clip-rule="evenodd" d="M34.3453 99.4966C33.5433 99.27 32.8633 98.7731 32.1398 98.3808L32.1573 98.346C33.3951 97.7183 34.3017 97.7532 34.3714 99.453L34.3453 99.4879V99.4966Z" fill="white"/>
<path fill-rule="evenodd" clip-rule="evenodd" d="M34.7288 81.3917C34.5806 79.5785 35.5395 77.9572 35.679 76.1963C35.7051 75.8389 35.7923 75.4815 35.8446 75.1241C36.1933 74.8277 35.8795 74.3134 36.2107 74.017C36.2107 73.895 36.2107 73.773 36.2107 73.6509C36.4374 73.4068 36.4374 73.154 36.2107 72.91C36.1846 72.0557 37.004 72.509 37.3265 72.1777C37.3091 72.5439 37.2916 72.91 37.2742 73.2674C36.5245 74.3657 36.5768 75.6471 36.5594 76.8675C36.542 77.7741 36.5158 78.6458 36.2369 79.5001C36.725 80.921 36.1323 81.4876 34.7288 81.3917Z" fill="white"/>
<path fill-rule="evenodd" clip-rule="evenodd" d="M24.0504 51.8668C24.0504 51.9889 24.033 52.1196 24.033 52.2417C23.6581 52.1806 23.7802 51.0997 22.8649 51.9104C22.1675 52.5206 21.4702 52.8954 21.0343 53.8543C20.5113 55.0224 19.2212 54.8306 18.1228 54.7522C18.2448 54.6476 18.3669 54.543 18.4889 54.4384C18.7591 54.1681 18.8638 53.7323 19.2909 53.6277C19.9098 53.8717 19.3606 53.1744 19.6657 53.1569C20.4328 52.4334 21.0082 51.5966 21.1912 50.5331C21.2348 50.2977 21.3133 50.0624 21.4179 49.8445C21.8101 49.0251 22.3942 48.3451 23.3618 48.4933C24.3206 48.6415 24.1812 49.5394 24.2248 50.2454C24.1637 50.7859 24.3729 51.3525 24.0591 51.8668H24.0504Z" fill="white"/>
<path fill-rule="evenodd" clip-rule="evenodd" d="M34.7288 81.3912C34.8944 81.2256 35.0688 80.9205 35.2257 80.9205C36.2891 80.9379 36.2281 80.2057 36.2368 79.5083C36.5507 79.5955 36.7424 79.7088 36.6814 80.1185C36.5855 80.7636 36.5768 81.4261 36.5332 82.0798C35.9753 82.6029 36.2543 83.1346 36.5158 83.6663C36.5507 83.9104 36.5855 84.1458 36.6204 84.3899H36.603C36.1933 84.6252 35.8707 84.3899 35.5308 84.2155C35.4 84.1284 35.2954 84.015 35.2169 83.8843C35.06 83.5443 35.0077 83.152 34.7375 82.8731C34.4673 82.3849 34.476 81.8881 34.7375 81.3912H34.7288Z" fill="white"/>
<path fill-rule="evenodd" clip-rule="evenodd" d="M36.5245 83.6578C36.385 83.5445 36.2369 83.4486 36.1235 83.3178C35.339 82.4723 35.3739 82.3851 36.5419 82.0713C36.5419 82.603 36.5332 83.1348 36.5245 83.6578Z" fill="white"/>
<path fill-rule="evenodd" clip-rule="evenodd" d="M41.3451 37.1347C40.0637 36.5943 41.0923 35.5133 40.8046 34.7114C40.5954 34.136 41.3712 34.0576 41.7374 33.7874C41.9466 34.9467 41.6415 36.0364 41.3451 37.1347Z" fill="white"/>
<path fill-rule="evenodd" clip-rule="evenodd" d="M41.319 38.9565C40.918 38.573 40.918 38.1981 41.3451 37.832C41.3451 38.2069 41.3277 38.5817 41.319 38.9565Z" fill="white"/>
<path fill-rule="evenodd" clip-rule="evenodd" d="M41.7461 19.3955C41.7199 19.2124 41.6066 18.9596 41.6851 18.8637C42.6701 17.6085 42.2604 15.8651 43.1931 14.6011C43.2803 15.2026 43.228 15.7692 43.0885 16.3706C42.9055 17.1639 42.4173 18.0007 43.4808 18.7155C43.9079 19.0032 43.5418 19.8488 43.4982 20.4328C43.2193 20.6159 43.2106 20.7728 43.5244 20.921C43.6638 21.1127 43.9515 21.4353 43.9166 21.4788C42.9229 22.6382 44.0823 24.1463 43.2629 25.3144C42.7921 25.3144 42.6352 25.5149 42.766 25.9943C42.9752 26.7527 42.8183 27.4152 42.1122 27.8772C41.3102 27.0665 41.5718 26.1773 41.5979 25.14C41.6502 23.231 42.2865 21.3132 41.7287 19.3867L41.7461 19.3955Z" fill="white"/>
<path fill-rule="evenodd" clip-rule="evenodd" d="M34.3714 99.4532C34.0402 98.2677 33.09 98.3287 32.1573 98.3462C31.9655 97.9278 31.0067 98.1195 31.3641 97.1955C31.6517 96.472 32.1399 96.5156 32.6803 96.5156C33.1598 96.5156 33.6479 96.5592 34.1622 96.594C34.1622 95.6526 33.3428 95.9141 32.8721 95.67C32.8983 95.2342 33.3167 95.1296 33.5695 94.964C34.232 94.5368 34.6765 94.3189 34.1535 93.2903C33.6828 92.3663 33.8659 91.1372 34.2407 90.0562C34.816 88.3738 34.6765 86.7089 33.9879 85.0788C34.1448 84.9132 34.2145 84.6952 34.354 84.5209C34.7376 84.3814 34.8857 83.7451 35.4524 83.963L35.4785 83.9804C36.5071 85.0701 35.7923 86.5171 36.2369 87.7201C36.019 88.4349 36.4112 89.2368 35.9231 89.9168C35.5395 91.0587 34.9904 92.2094 35.1821 93.421C35.4959 95.3649 35.1473 97.2042 34.7114 99.061C34.5894 99.1917 34.476 99.3138 34.354 99.4358L34.3714 99.4532Z" fill="white"/>
<path fill-rule="evenodd" clip-rule="evenodd" d="M34.7376 99.0782C34.4673 98.5813 34.1884 98.0234 34.4761 97.5004C35.2432 96.0708 35.0165 94.6151 34.8073 93.1157C34.6678 92.0871 35.4785 91.1893 35.3042 90.1171C35.278 89.9427 35.7052 89.9166 35.9492 89.9253C35.8011 90.6401 36.4897 91.4159 35.7836 92.0958C35.2257 93.3947 35.2519 94.6325 36.1672 95.7744C36.1846 95.8965 36.1933 96.0272 36.2108 96.1493C35.618 97.0471 35.4262 98.0932 35.1124 99.0956C34.9904 99.0956 34.8683 99.0782 34.7376 99.0782Z" fill="white"/>
<path fill-rule="evenodd" clip-rule="evenodd" d="M36.2543 87.7285C36.1672 87.467 36.202 87.1357 35.7662 87.127C35.3913 87.127 35.156 86.7871 35.3565 86.543C36.0451 85.6974 35.4611 84.8344 35.4872 83.9889C35.9144 83.9627 36.2543 84.1894 36.6117 84.3812C36.3154 85.4795 37.0563 86.6912 36.2456 87.7285H36.2543Z" fill="white"/>
<path fill-rule="evenodd" clip-rule="evenodd" d="M35.1037 99.0958C34.6504 97.8057 35.0949 96.8555 36.202 96.1494C36.3066 96.2889 36.4112 96.4196 36.5158 96.5591C36.4548 96.6463 36.4548 96.7335 36.4897 96.8293C35.9318 97.7185 35.4 98.6076 36.5071 99.4968C36.1671 99.4881 35.8272 99.4706 35.4872 99.4619H35.4785C35.3477 99.3399 35.2257 99.2265 35.1037 99.1045V99.0958Z" fill="white"/>
<path fill-rule="evenodd" clip-rule="evenodd" d="M7.37464 40.36C7.38335 40.8918 7.85408 41.3276 7.69717 41.9204C7.18286 42.1296 6.67727 41.7984 6.16296 41.8419C6.19783 41.2056 6.93878 41.0051 7.04339 40.4123C7.14799 40.3862 7.26131 40.3688 7.36592 40.3513L7.37464 40.36Z" fill="white"/>
<path fill-rule="evenodd" clip-rule="evenodd" d="M41.0487 40.8046C40.3514 40.1072 41.0051 39.7585 41.4236 39.3401C41.4933 39.8805 41.3102 40.3513 41.0487 40.8046Z" fill="white"/>
<path fill-rule="evenodd" clip-rule="evenodd" d="M24.8436 15.011C24.7129 15.4643 24.5647 15.8914 24.1114 16.1355C24.0765 15.996 24.0504 15.8565 24.0155 15.7084C24.0417 15.4817 24.0678 15.2551 24.094 15.0284C24.3468 15.0284 24.5908 15.0197 24.8436 15.011Z" fill="white"/>
<path fill-rule="evenodd" clip-rule="evenodd" d="M7.70593 54.1333C7.92386 54.1507 8.07205 54.2641 8.14179 54.4733H7.96745L7.7931 54.4646C7.76695 54.3599 7.7408 54.2466 7.70593 54.142V54.1333Z" fill="white"/>
<path fill-rule="evenodd" clip-rule="evenodd" d="M19.6046 53.7147C19.2298 53.9588 18.855 54.1941 18.4801 54.4382C18.4976 53.9065 17.9658 53.1481 18.9857 53.0086C19.8749 52.8866 19.7877 52.2502 19.7964 51.6488C19.8313 49.1208 21.2347 47.0636 23.6842 46.0698C24.6867 47.2466 24.3293 48.6762 24.399 50.0274C24.277 50.193 24.1462 50.193 24.0242 50.0274C23.937 49.5044 23.9283 48.868 23.2222 48.8331C22.6556 48.807 22.1936 49.1295 21.9408 49.6874C21.8711 49.853 21.6531 50.0012 21.6706 50.1407C21.8013 51.8231 20.5984 52.7122 19.6046 53.7234V53.7147Z" fill="white"/>
<path fill-rule="evenodd" clip-rule="evenodd" d="M24.033 50.0188C24.155 50.0188 24.277 50.0188 24.4078 50.0188C24.3293 50.6464 24.6432 51.3438 24.0591 51.8668C24.0591 51.2479 24.0504 50.629 24.0417 50.0188H24.033Z" fill="white"/>
<path fill-rule="evenodd" clip-rule="evenodd" d="M40.2729 31.5735C40.0462 31.5037 39.7847 31.4863 39.5929 31.3643C39.2442 31.1376 39.3576 30.8412 39.6104 30.6146C39.7324 30.5013 39.9503 30.3705 40.0636 30.4141C40.3339 30.51 40.2554 30.8064 40.2641 31.033C40.2729 31.2161 40.2641 31.3991 40.2641 31.5822L40.2729 31.5735Z" fill="white"/>
<path fill-rule="evenodd" clip-rule="evenodd" d="M12.5962 50.3934C12.6921 50.2452 12.7705 50.0709 12.9013 49.9576C13.0669 49.8094 13.2848 49.5914 13.4592 49.9314C13.4853 49.9837 13.2674 50.2103 13.1192 50.2888C12.971 50.3673 12.7793 50.3673 12.6049 50.4021L12.5962 50.3934Z" fill="white"/>
<path fill-rule="evenodd" clip-rule="evenodd" d="M35.4611 83.9716C35.0862 84.207 34.938 84.7736 34.3627 84.7213C34.1535 84.4772 34.1535 84.2332 34.3627 83.9804C34.7899 83.7101 34.7201 83.2743 34.7288 82.8733C35.217 83.0738 35.4611 83.4399 35.4524 83.9716H35.4611Z" fill="white"/>
<path fill-rule="evenodd" clip-rule="evenodd" d="M34.7288 81.3914C34.7288 81.8882 34.7288 82.3764 34.7288 82.8733C34.1971 82.3851 34.2145 81.8882 34.7288 81.3914Z" fill="white"/>
<path fill-rule="evenodd" clip-rule="evenodd" d="M34.3714 83.9805C34.3714 84.2245 34.3714 84.4686 34.3714 84.7214C34.2494 84.8435 34.1273 84.9655 34.0053 85.0875C34.014 84.6778 33.9356 84.242 34.3801 83.9805H34.3714Z" fill="white"/>
<path fill-rule="evenodd" clip-rule="evenodd" d="M36.2107 74.0078C36.2107 74.4175 36.2805 74.8446 35.8446 75.1149C35.8533 74.7052 35.7749 74.2693 36.2107 74.0078Z" fill="white"/>
<path fill-rule="evenodd" clip-rule="evenodd" d="M36.2107 72.9009C36.5855 73.145 36.5855 73.3978 36.2107 73.6418C36.2107 73.3978 36.2107 73.145 36.2107 72.9009Z" fill="white"/>
<path fill-rule="evenodd" clip-rule="evenodd" d="M40.2816 38.5906C40.3339 38.6167 40.4298 38.6516 40.4211 38.669C40.3949 38.7911 40.3339 38.7649 40.2816 38.5906Z" fill="white"/>
<path fill-rule="evenodd" clip-rule="evenodd" d="M28.4612 19.3956C28.4089 19.3694 28.313 19.3259 28.313 19.3084C28.3392 19.1864 28.4002 19.2125 28.4612 19.3956Z" fill="white"/>
<path fill-rule="evenodd" clip-rule="evenodd" d="M35.1124 99.1042C35.2344 99.2176 35.3564 99.3396 35.4872 99.4529C35.3652 99.3309 35.2431 99.2176 35.1124 99.1042Z" fill="white"/>
<path fill-rule="evenodd" clip-rule="evenodd" d="M19.6047 53.7145C19.657 53.7407 19.7529 53.7843 19.7529 53.793C19.7267 53.915 19.6657 53.8889 19.6047 53.7058V53.7145Z" fill="white"/>
</g>
<defs>
<clipPath id="clip0_10_42929">
<rect width="46" height="105.206" fill="white"/>
</clipPath>
</defs>
</svg>
