<svg width="73" height="108" viewBox="0 0 73 108" fill="none" xmlns="http://www.w3.org/2000/svg">
<g clip-path="url(#clip0_0_4295)">
<path d="M16.5043 98.7587C16.5043 98.7587 16.524 98.7587 16.5339 98.7686C16.5339 98.7686 16.5339 98.7784 16.5339 98.7883L16.4944 98.7587H16.5043ZM33.2851 87.0842C33.2851 87.0842 33.2851 87.0743 33.2949 87.0645C33.2851 87.0645 33.2653 87.0645 33.2554 87.0447L33.2851 87.0743V87.0842ZM72.8222 9.70877C72.595 10.094 72.2592 10.4397 72.1209 10.8446C71.7456 12.0101 70.9258 12.7904 69.9085 13.2941C67.0837 14.6966 64.2886 16.1979 61.3552 17.3238C57.6316 18.7461 53.7105 19.5461 49.7893 20.2968C47.6065 20.7116 45.4534 20.5733 43.3299 19.961C42.6385 19.7536 42.0459 19.7733 41.2656 20.2573C42.1446 20.8696 42.8854 21.3536 43.5669 21.8968C43.7644 22.0549 43.962 22.4598 43.8928 22.6376C43.7743 22.924 43.4187 23.1117 43.0829 23.4278C42.7965 23.0129 42.5891 22.7166 42.3916 22.4401C41.8286 22.8351 42.2632 23.2006 42.194 23.5166C42.1446 23.7932 42.036 24.0698 41.9175 24.455C41.6508 24.3068 41.4533 24.2377 41.315 24.1093C41.1471 23.9611 41.0285 23.7734 40.8804 23.5957C40.7619 23.6846 40.5742 23.7636 40.5742 23.8426C40.5742 24.4253 40.6137 25.0081 40.6433 25.6797H42.0755C41.7298 26.8748 40.5347 27.8822 41.3644 29.2452C41.473 29.1563 41.5619 29.0181 41.6804 28.9884C42.1446 28.86 42.5693 28.9588 42.6385 29.502C42.7076 30.0848 42.2829 30.1835 41.8088 30.144C41.8088 30.144 41.8088 30.1638 41.8187 30.1638L41.7989 30.144C41.8286 30.8947 41.8681 31.6453 41.878 32.396C41.878 33.0182 41.957 33.5911 42.52 33.9861C42.9249 34.2627 42.7076 34.6281 42.678 34.9936C42.6088 35.9319 42.836 36.1492 43.7447 36.3368C46.2337 36.8603 48.7819 37.0677 51.2412 37.8381C52.1598 38.1245 52.8709 38.5295 53.4537 39.2505C53.6413 39.4876 53.8191 39.7444 54.0463 39.932C55.1228 40.8012 55.6463 41.8975 55.3994 43.2803C55.992 43.379 55.7846 42.8951 56.0216 42.6975C56.15 42.9346 56.2192 43.3 56.4167 43.379C57.681 43.9025 58.3723 44.9495 59.0637 46.0359C59.3403 46.4705 59.7156 46.8656 60.1107 47.2014C61.9675 48.8014 62.8564 50.9349 63.4194 53.2263C64.1404 56.1795 64.1108 59.1919 63.8935 62.2044C63.6861 65.1378 63.1923 68.0218 62.2441 70.817C61.928 71.7454 61.691 72.6541 61.9379 73.6813C62.1354 74.511 61.9379 75.4493 61.128 75.8641C60.1699 76.3579 59.8341 77.2962 59.0934 78.0173C59.2514 78.8173 59.3699 79.6272 59.5872 80.4074C59.9823 81.8297 59.5477 82.9063 58.3526 83.7261C57.9871 83.973 57.6316 84.2496 57.2464 84.5162C57.2464 85.0792 57.2661 85.6027 57.2464 86.1163C57.2167 86.8867 56.9599 87.5781 56.4464 88.1805C55.9525 88.7633 55.6463 88.7929 54.7278 88.3188C54.6092 88.2596 54.4512 88.2497 54.3031 88.2102C53.8586 88.4176 53.9179 88.8324 54.0265 89.1584C54.1845 89.6522 54.471 90.1065 54.6685 90.5905C55.034 91.4794 54.6685 92.398 53.8092 92.8622C53.1376 93.2178 52.387 92.8819 52.2586 92.1511C52.2092 91.8548 52.2586 91.5486 52.1993 91.2523C52.1598 91.0448 52.0413 90.8473 51.9326 90.6103C51.7055 90.6399 51.4388 90.5905 51.2906 90.6992C50.0856 91.5881 48.7523 92.2893 47.4979 93.0894C46.7176 93.5931 46.2139 94.5215 45.5423 95.2129C44.841 95.9438 44.2879 96.7142 44.3966 97.771C43.6459 98.2352 42.8656 98.4328 42.4607 99.292C42.1249 99.9933 41.4137 100.517 40.7915 101.208C40.1989 100.369 39.7149 99.6772 39.5075 98.8278C39.389 99.4303 39.2606 100.023 39.1322 100.655C38.184 100.655 38.3717 99.5686 37.6704 99.1538C37.305 99.3118 36.8704 99.5093 36.4259 99.697C36.0605 100.961 36.0506 100.971 34.895 101.425C34.9839 101.001 35.053 100.675 35.132 100.349C35.1123 100.29 35.1123 100.191 35.0629 100.151C34.5592 99.7365 34.095 99.1044 33.5221 98.9661C32.6332 98.7686 32.7418 97.9685 32.1986 97.4056C30.6479 97.5932 28.9392 97.3167 27.438 98.3044C28.5047 98.2747 29.5714 98.2451 30.806 98.2155C31.0825 98.5513 31.4875 99.055 31.9023 99.5686C31.7838 100.24 31.1319 99.8353 30.8257 100.102C30.4899 100.388 30.2035 100.734 29.8578 101.011C29.6998 101.129 29.4232 101.228 29.2454 101.179C28.2676 100.882 27.4873 101.435 26.7071 101.821C26.154 102.097 25.5712 102.453 25.028 102.255C23.4872 101.692 22.1242 102.838 20.6328 102.591C20.3958 102.551 20.0303 102.946 19.813 103.223C19.3587 103.806 18.855 103.826 18.292 103.509C17.966 102.927 18.6969 102.946 18.7759 102.443C18.5389 102.048 18.2327 101.554 17.9364 101.08C18.4303 100.378 18.9142 101.208 19.3883 100.981C19.7636 100.527 19.6056 100.171 19.1216 99.9439C18.2623 99.539 17.3833 99.1636 16.5043 98.7784C16.4549 98.2253 16.2277 97.771 15.6944 97.5537C14.598 97.1092 13.4918 96.6845 12.3066 96.2104C12.2276 95.924 12.4844 95.8252 12.8103 95.8549C13.314 95.9043 13.8079 96.003 14.5585 96.1117C14.2721 95.5388 14.0943 95.1931 13.9165 94.8474C14.0548 94.7981 14.2227 94.6598 14.3017 94.6993C15.5166 95.4006 16.7413 96.0524 17.4722 97.366C18.3611 98.9661 18.9438 99.134 20.7809 98.7389C21.9365 98.492 23.0823 98.1167 24.307 98.5513C24.9589 98.7784 25.4527 98.2747 25.6898 97.6821C26.4206 95.8253 28.0602 95.608 29.7195 95.4499C29.8973 95.4302 30.0948 95.6672 30.2726 95.7759C31.3591 94.5511 32.3962 93.2869 33.532 92.1313C34.253 91.4004 35.132 90.8374 35.942 90.2053L35.9123 90.2448C36.1889 90.1559 36.4753 90.067 36.8111 89.9584C36.8506 88.7337 36.7914 87.5583 36.3963 86.4027C35.8531 86.0669 35.3888 86.2348 35.0234 86.6891C34.5197 87.3311 33.9271 87.3509 33.2554 87.0743C33.6308 86.541 33.9863 85.9879 34.4012 85.4743C34.895 84.8422 35.4382 84.2496 36.1 83.489C36.4951 83.5285 37.0482 83.5977 37.7395 83.6668C37.5321 84.9311 36.7914 86.1262 37.9865 87.0941C39.2705 86.4719 40.2581 85.5434 40.6631 84.4372C41.0285 83.4397 41.71 82.6594 42.2632 81.7902C43.5471 79.7852 44.9892 77.9185 46.4114 76.032C47.488 74.6097 48.456 73.1677 48.9202 71.3701C49.2659 70.017 50.0856 68.7922 50.7276 67.5181C51.7351 65.5131 51.8734 63.3501 51.824 61.1772C51.8042 60.4463 51.7351 59.6759 50.9153 59.2611C50.4412 59.024 50.4412 58.5104 50.5301 58.066C50.6783 57.3449 51.0832 56.6634 50.7968 55.8832L50.8264 55.9128C50.6684 53.9473 50.5103 51.9917 50.3523 50.0262C49.8881 49.72 49.7893 49.236 49.6708 48.7422C49.0683 46.2335 49.0288 46.1643 47.4189 44.2285C47.4979 43.6457 47.5769 43.0136 47.6658 42.3716C48.4263 42.6086 49.177 42.8951 49.9869 42.6087C49.8091 41.9173 49.5029 41.4662 49.0683 41.2555C49.0486 41.4629 49.0189 41.6605 48.9992 41.8679C48.5448 41.8679 48.0905 41.8679 47.6362 41.8679L47.6954 41.8975H47.6362C47.4979 41.8975 47.3596 41.8975 47.2312 41.8975C47.2312 41.8975 47.1917 41.8975 47.172 41.8975L47.2016 41.8679C46.9448 41.3642 46.688 40.8506 46.4213 40.3271C45.9571 40.2975 45.4534 40.2678 44.8805 40.2283C44.8213 40.495 44.762 40.7715 44.6731 41.1963C44.0212 41.3148 43.3101 41.4333 42.5891 41.5617C42.757 42.1839 43.0237 42.5296 43.6262 42.6778C43.9817 42.7667 44.2484 43.2111 44.6237 43.5568C44.1694 44.0902 43.7941 44.5346 43.4583 44.9396C43.2607 44.989 43.1126 45.0581 42.9743 45.0581C41.6607 45.0779 40.5643 45.5026 39.547 46.4014C38.4507 47.3891 37.2457 48.2286 36.4654 49.5521C36.1 50.1743 35.4876 50.6781 34.9444 51.1818C33.9369 52.13 33.295 53.1374 33.1764 54.6387C33.0283 56.4462 32.2184 58.0857 30.3813 58.866C29.9566 58.6586 29.9664 58.4413 30.164 58.145C30.4603 57.7104 30.4307 57.2659 29.9664 56.9993C29.5319 56.7523 29.0775 56.8412 28.7812 57.2758C28.4948 57.7104 28.2676 58.1845 27.9417 58.7771C27.4972 58.7376 26.9342 58.6981 26.4206 58.6487C26.0124 57.5096 26.0585 56.4527 26.5589 55.4782C26.2626 55.1029 25.9466 55.1622 25.6107 55.419C25.2651 55.6955 24.9194 55.9819 24.6231 56.2289C24.7119 56.6141 24.7515 56.8313 24.8107 57.0388C24.87 57.2363 24.9391 57.4338 24.9984 57.6215C24.2576 57.9968 24.2576 56.9499 23.586 57.0486C23.4773 57.3943 23.3489 57.7795 23.181 58.3129C22.7761 58.1845 22.2921 58.145 22.0057 57.8882C21.7193 57.6413 21.6205 57.1672 21.3637 56.6437C21.1464 56.9202 20.9785 57.1178 20.8402 57.3351C20.7217 57.5129 20.6525 57.7301 20.4846 58.0857C20.1192 57.5326 19.813 57.0783 19.4772 56.5844C19.2105 56.8709 18.9735 57.1277 18.7364 57.3845C18.0648 57.098 18.2623 56.5449 18.292 55.893C19.3686 55.4486 20.5439 54.9449 21.0476 53.6707C20.613 53.3152 19.9414 53.088 20.3464 52.2979C20.6624 51.6756 19.8525 51.4287 19.8723 50.8558C20.3661 49.4237 22.5785 49.8682 22.9144 48.0508C22.3711 47.8138 21.7884 47.557 21.2452 47.3199C21.2847 47.0532 21.255 46.8458 21.3341 46.7866C22.4403 46.0359 23.5267 45.2556 24.6823 44.5939C25.7885 43.9618 26.2824 42.6482 27.517 42.1938C28.0997 40.8209 28.6923 39.448 29.2751 38.0752C29.0479 37.2653 29.5319 36.643 29.8282 35.9615C30.5492 34.3219 31.2504 32.6824 31.4677 30.8552C31.5467 30.2033 31.5764 29.5909 31.1319 29.1958C30.3615 28.5045 30.6875 27.4773 30.2134 26.7168C30.1541 26.618 30.1739 26.3908 30.2529 26.292C31.043 25.2451 30.6084 24.0105 30.7368 23.2105C31.3196 22.3709 31.8826 21.8277 32.09 21.1659C32.3171 20.4548 32.3566 19.8326 33.1468 19.3684C33.7592 19.0029 33.5616 18.1337 33.3048 17.5115C33.0777 16.9683 32.5048 16.8596 31.9616 16.8695C31.5467 16.8794 31.1319 16.988 30.7467 17.0374C30.5492 16.5732 30.7072 16.4053 31.0233 16.2473C31.764 15.8917 31.5961 15.309 31.3393 14.7262C30.4504 13.699 30.4603 13.2249 31.4677 12.7706C31.8529 12.6027 32.3171 12.5928 32.7418 12.5138C32.7418 12.5138 32.7418 12.5138 32.732 12.5039L32.7122 12.4743C32.811 12.3953 32.9196 12.3163 33.0184 12.2471C32.9295 12.336 32.8505 12.415 32.7616 12.5039C33.6505 12.9583 33.6801 12.9484 34.1246 12.3558C34.2925 12.1286 34.411 11.8619 34.5493 11.615H34.5197V11.6249C34.5197 11.6249 34.5296 11.615 34.5394 11.6051C34.6876 11.457 34.8357 11.3088 34.9839 11.1607C34.9839 11.1607 35.0037 11.1409 35.0135 11.131L34.9839 11.1705C35.5568 11.0125 36.1296 10.8347 36.7123 10.6965C37.5124 10.4989 38.3223 10.3508 39.1124 10.1532C40.6335 9.76803 42.1545 9.35321 43.6755 8.93838C44.1101 8.81985 44.5151 8.58281 44.9497 8.49392C50.3029 7.50623 55.3204 5.46172 60.3872 3.58511C60.8811 3.40732 61.3749 3.21966 61.8786 3.1209C63.4392 2.82459 64.901 2.28136 66.2837 1.49121C66.8566 1.16527 67.5183 0.977613 68.1603 0.710938C68.664 1.42207 69.1283 2.08382 69.6517 2.83447C70.3135 2.95299 71.0444 3.09126 71.8642 3.24929C71.9432 3.52585 72.1407 3.82215 72.0815 4.0592C71.9037 4.81972 71.9926 5.5111 72.2592 6.25187C72.4271 6.7062 72.3975 7.26918 72.3284 7.7729C72.279 8.13835 72.3778 8.26675 72.6346 8.48404C73.0296 8.80998 73.0197 9.27419 72.7629 9.70877H72.8222ZM32.6628 14.1336C31.9912 13.946 31.7739 14.42 31.4677 14.7262C31.8727 14.6275 32.3962 14.7559 32.6628 14.1336ZM28.238 55.0535C27.8133 55.3893 27.2602 55.6856 27.7837 56.5153C27.9614 55.9622 28.0997 55.5078 28.238 55.0535ZM25.3342 99.9735C24.7811 99.8254 24.1885 100.043 23.6749 99.5093C23.3292 99.1636 21.3143 99.8451 20.8501 100.319C20.6624 100.507 20.7019 101.03 20.9489 101.1C21.3637 101.218 21.818 101.366 22.2328 101.307C22.8156 101.218 23.3588 100.892 23.9317 100.793C24.4947 100.704 25.0873 100.774 25.6009 100.774C25.7984 100.299 25.6601 100.062 25.3342 99.9735ZM33.9271 92.9906C33.9073 92.9313 33.8974 92.8424 33.8579 92.8227C33.8085 92.8029 33.7394 92.8523 33.6801 92.882C33.7197 92.961 33.769 93.0499 33.8085 93.1289C33.8481 93.0795 33.8876 93.04 33.9369 92.9906H33.9271ZM36.258 97.9389C36.1395 97.929 36.0308 97.8994 35.9123 97.8994C35.8926 97.8994 35.8728 98.0179 35.8531 98.0871C35.9716 98.1068 36.0901 98.1167 36.2086 98.1364C36.2284 98.0673 36.2383 98.008 36.258 97.9389ZM37.0975 91.193C37.0383 91.1732 36.9593 91.114 36.9198 91.1436C36.8704 91.1732 36.8506 91.2523 36.821 91.3115C36.8803 91.3313 36.9593 91.3905 37.0087 91.3609C37.058 91.3412 37.0679 91.2523 37.0975 91.1831V91.193ZM40.2581 98.0278C39.9915 98.3044 39.7939 98.5216 39.5964 98.7291C39.8927 98.65 40.2581 98.6599 40.2581 98.0278ZM40.9495 95.1141C40.8409 95.0549 40.7322 94.966 40.6236 94.9561C40.5347 94.9561 40.4359 95.0549 40.3372 95.1141C40.4359 95.1635 40.5446 95.2524 40.6433 95.2524C40.752 95.2524 40.8508 95.1833 40.9495 95.124V95.1141ZM44.3867 94.4425C44.3274 94.0968 44.199 93.761 44.0904 93.4252C43.0632 93.9882 42.0261 94.5511 40.9989 95.1141C40.8903 96.1018 40.6236 97.1092 41.2458 98.2155C41.8286 97.9883 42.3817 97.8303 42.8854 97.5735C44.0509 96.9809 44.6139 95.7857 44.3966 94.4524L44.3867 94.4425ZM51.0931 39.1024C51.1918 39.1814 51.2807 39.2703 51.3795 39.3493C51.419 39.29 51.498 39.2011 51.4882 39.1912C51.4091 39.0925 51.3104 39.0135 51.2116 38.9345C51.1721 38.9937 51.1326 39.0431 51.0931 39.1024ZM9.71885 101.662C10.025 101.455 10.3411 101.277 10.6571 101.09C11.0917 101.692 11.2893 102.354 11.1806 103.124C10.7757 103.697 10.1929 103.697 9.63983 103.43C9.0571 103.154 8.53362 102.769 7.98052 102.433C7.78298 102.897 7.4768 103.193 6.98295 102.818C6.27182 102.275 5.61007 101.682 4.95819 101.139C4.81992 101.169 4.75078 101.179 4.68164 101.198C4.77053 101.544 4.8693 101.89 4.96807 102.255C4.53349 102.739 4.01989 102.423 3.94087 102.067C3.66432 100.843 2.41983 100.053 2.5186 98.6698C2.54823 98.2155 2.18279 97.85 1.68895 97.7513C0.513598 97.5241 0.246922 96.6253 0 95.5783C0.661751 95.1437 1.26424 94.7388 1.79759 94.3931C3.00257 94.4425 2.86429 95.5783 3.42728 96.1018C4.08903 96.5463 4.84955 96.7833 5.47179 97.366C6.15329 98.008 7.10147 98.3735 7.95089 98.8278C8.52374 99.1439 9.12623 99.4106 9.867 99.7859C9.45217 100.23 9.12623 100.517 8.89907 100.862C8.76079 101.07 8.66202 101.465 8.77067 101.643C9.01759 102.038 9.39291 101.9 9.72872 101.672L9.71885 101.662ZM4.7409 99.6081C4.59275 99.4896 4.45447 99.3711 4.32607 99.2624C4.27669 99.3612 4.15816 99.4797 4.1878 99.5587C4.21743 99.6674 4.33595 99.776 4.44459 99.8353C4.4841 99.855 4.60262 99.7167 4.75078 99.6081H4.7409ZM10.6571 101.09L10.6275 101.05C10.6275 101.05 10.6473 101.08 10.6571 101.09ZM7.0916 90.2942C8.55338 91.3214 10.0349 92.3387 11.4671 93.4252C12.4449 94.1659 13.3338 94.1462 14.2425 93.3857C13.8079 93.0103 13.2844 92.6844 12.9782 92.2202C12.8301 91.993 13.077 91.4202 12.593 91.3807C12.277 91.351 11.9313 91.6375 11.5955 91.7362C11.4868 91.7659 11.3387 91.6868 11.2103 91.6473C11.2103 91.6375 11.2004 91.6177 11.1905 91.6078C11.1905 91.6078 11.1905 91.6276 11.1806 91.6375L11.2201 91.6671C9.98552 91.3214 9.25463 90.3535 8.49411 89.4349C7.98052 88.8225 7.50643 88.1608 7.02246 87.5188C6.43972 87.825 5.85699 88.1213 5.27425 88.4275C5.57056 88.8719 5.86686 89.3263 6.16317 89.7707C6.47923 89.9485 6.81504 90.1065 7.11135 90.314L7.0916 90.2942ZM14.2721 93.356C14.2721 93.356 14.2523 93.3758 14.2326 93.3857L14.2622 93.356H14.2721ZM5.26438 88.4077C5.26438 88.4077 5.26438 88.3978 5.2545 88.388V88.4176C5.2545 88.4176 5.2545 88.4176 5.26438 88.4077ZM6.98295 87.4595C6.98295 87.4595 7.00271 87.4892 7.01258 87.499L6.98295 87.4595ZM12.8399 98.0278C11.4275 97.0006 11.2103 96.9611 9.78798 97.8994C10.3806 98.6402 10.9633 99.3809 11.5559 100.122C11.8523 100.132 12.1486 100.141 12.4449 100.151C12.4449 100.151 12.435 100.171 12.4251 100.181C12.4251 100.181 12.4844 100.201 12.514 100.211C12.5041 100.201 12.4844 100.181 12.4745 100.171C13.0967 100.043 13.7091 99.8847 14.3313 99.8056C14.7561 99.7464 15.2104 99.8353 15.645 99.8056C16.2672 99.7661 16.4845 99.3513 16.5043 98.7982C15.0919 99.4995 13.9363 98.8179 12.8498 98.0278H12.8399ZM9.75835 97.9093C9.75835 97.9093 9.77811 97.8994 9.78798 97.8895L9.76823 97.9093H9.75835ZM11.5856 100.151C11.5856 100.151 11.5658 100.132 11.5559 100.122L11.5955 100.151H11.5856ZM16.5438 98.7784L16.5043 98.7488C16.5043 98.7686 16.5043 98.7784 16.5043 98.7982C16.5141 98.7982 16.5339 98.7982 16.5438 98.7784ZM5.58044 91.9733C5.8076 91.4597 5.97551 91.0745 6.14342 90.6794L6.18292 90.6992L6.16317 90.63L6.12366 90.6695C6.12366 90.3732 6.12366 90.067 6.12366 89.7707C5.2545 89.7312 4.98782 89.0793 4.76065 88.388C4.3557 87.7954 4.39521 87.1534 4.46435 86.4718C4.50386 86.136 4.46435 85.7311 3.98038 85.6126C3.23962 86.0175 3.89149 86.7188 3.61494 87.2422C3.33838 87.7657 3.11122 88.3287 2.98282 88.9114C2.9038 89.2473 2.96306 89.7016 3.14085 89.988C3.72358 90.9263 4.46435 91.7165 5.56068 91.9733H5.58044ZM6.13354 89.7707C6.13354 89.7707 6.16317 89.7707 6.17305 89.7707C6.17305 89.7609 6.16317 89.751 6.15329 89.7411C6.15329 89.7411 6.14342 89.7411 6.13354 89.7411C6.13354 89.751 6.13354 89.7707 6.13354 89.7806V89.7707ZM4.19767 93.7709C4.3162 93.5437 4.6125 93.2474 4.55324 93.04C4.43472 92.635 4.21743 92.1017 3.88161 91.9436C3.27912 91.6572 3.0322 91.272 2.84454 90.6597C2.71614 90.2448 2.53836 89.6226 1.80747 89.7411C1.52104 90.6498 0.829658 91.5288 1.44202 92.5066C2.04451 93.4746 3.06183 93.6918 4.20755 93.7709H4.19767ZM27.3392 93.8203C26.9639 93.5239 26.5984 93.2276 26.2034 92.9214C25.7095 93.3264 25.3342 93.6425 24.8601 94.0277C25.828 94.64 26.5688 94.1166 27.3293 93.8203H27.3392ZM27.3886 93.8005C27.3886 93.8005 27.3589 93.8104 27.3392 93.8203C27.3392 93.8203 27.3491 93.8203 27.3589 93.8301L27.3886 93.8005ZM21.7489 96.7734C22.4139 96.1347 22.8353 95.552 23.0131 95.0252C22.2954 95.0845 21.874 95.6672 21.7489 96.7734ZM30.322 102.433C30.2134 102.512 30.243 102.779 30.1837 103.124C30.806 102.966 31.2801 102.838 32.169 102.621C30.9146 102.018 30.9047 101.998 30.322 102.443V102.433ZM33.8678 88.8522C34.8555 88.7271 35.3987 88.2925 35.4975 87.5484C34.9444 87.9929 34.5098 88.3386 33.8678 88.8522ZM26.4997 103.598C26.796 103.707 27.0824 103.569 27.112 103.233C27.1219 103.085 26.9441 102.917 26.796 102.65C26.5194 102.867 26.312 103.025 26.1145 103.174C26.2429 103.322 26.3416 103.539 26.5095 103.598H26.4997ZM26.2725 105.712C26.1836 105.84 26.2132 106.077 26.2626 106.245C26.2824 106.305 26.549 106.364 26.6379 106.314C26.8651 106.186 27.0528 105.989 27.3392 105.742C27.0824 105.564 26.9244 105.366 26.7861 105.386C26.5984 105.406 26.3811 105.554 26.2725 105.712ZM26.1243 91.4399C26.0651 91.5683 25.9466 91.7757 25.9959 91.8251C26.1342 91.9535 26.3219 92.0622 26.4997 92.1017C26.6182 92.1313 26.7565 92.0424 26.8947 91.993C26.9639 91.7461 27.033 91.4992 27.0923 91.2523C26.8256 91.2621 26.5589 91.272 26.2824 91.3016C26.2231 91.3016 26.154 91.3807 26.1243 91.4399ZM26.9145 91.9831H26.8947C26.8947 91.9831 26.8947 91.993 26.8947 92.0029L26.9244 91.9733L26.9145 91.9831ZM24.4551 90.6893C24.1095 90.7979 23.7539 90.9066 23.4082 91.0053C23.4773 91.1436 23.5465 91.2819 23.6156 91.4202C23.9317 91.2621 24.2477 91.1041 24.5638 90.9461C24.5243 90.8572 24.4947 90.7683 24.4551 90.6794V90.6893ZM5.15573 94.077C5.26437 94.2647 5.41253 94.4326 5.58044 94.5709C5.61994 94.6104 5.79773 94.482 5.90637 94.4326C5.78785 94.1956 5.66933 93.9585 5.53105 93.6721C5.33351 93.8894 5.14585 94.0375 5.16561 94.077H5.15573ZM10.5781 95.3018C10.6473 95.203 10.7954 95.0845 10.7757 94.9956C10.746 94.8079 10.6374 94.6203 10.5386 94.3931C10.272 94.7586 10.1929 94.8573 10.1139 94.966C10.272 95.0746 10.4201 95.1931 10.5781 95.3018ZM10.7757 90.472C10.5386 90.9856 11.0325 91.2226 11.1905 91.5782C11.4868 91.0547 11.5559 90.6201 10.7757 90.472ZM27.4478 92.5066C27.4478 92.5066 27.4281 92.477 27.4083 92.4671L27.3787 92.4967C27.3787 92.4967 27.4281 92.4967 27.4478 92.4967V92.5066ZM28.4652 92.5955C28.1195 92.5659 27.7837 92.5363 27.4478 92.5066C27.754 92.8029 28.0405 93.2474 28.4652 92.5955ZM26.9145 59.8043C26.9145 59.8043 26.7663 59.9129 26.7762 59.9327C26.8454 60.1006 26.9342 60.2487 27.0231 60.4167C27.112 60.3376 27.191 60.2586 27.3392 60.1302C27.191 60.0216 27.0528 59.9129 26.9145 59.8142V59.8043ZM23.4279 97.4451C23.4675 97.5537 23.6255 97.6821 23.7341 97.6821C23.823 97.6821 23.9317 97.534 24.0304 97.4549C23.902 97.3265 23.7835 97.1883 23.6354 97.0302C23.5267 97.2179 23.3983 97.3562 23.4279 97.4352V97.4451ZM11.5856 100.141C11.5856 100.141 11.5461 100.112 11.5461 100.102C11.5461 100.122 11.5461 100.132 11.5362 100.151C11.5559 100.151 11.5658 100.141 11.5856 100.141ZM10.667 101.07C10.667 101.07 10.6769 101.04 10.6868 101.02C10.667 101.02 10.6572 101.03 10.6374 101.04L10.667 101.08V101.07ZM10.6868 101.02C11.1312 100.892 11.4967 100.695 11.5362 100.161C11.0325 100.23 10.8152 100.586 10.6868 101.02ZM46.5201 43.3C46.5003 43.3692 46.4806 43.4284 46.4608 43.4976C46.5497 43.4976 46.6485 43.5173 46.7374 43.5272C46.7275 43.4581 46.7374 43.379 46.6979 43.3297C46.6682 43.2902 46.5793 43.3099 46.5201 43.3ZM35.0234 10.7261C35.0234 10.7261 35.0234 10.7557 35.0234 10.7656C35.0234 10.7656 35.0432 10.7656 35.053 10.7557L35.0234 10.7261ZM35.0234 10.7656C34.6185 10.9138 34.3123 11.1212 34.6086 11.615C34.7567 11.4669 34.9049 11.3187 35.053 11.1705C35.053 11.0323 35.0333 10.894 35.0333 10.7557L35.0234 10.7656ZM14.8746 103.105C14.9042 103.154 14.9832 103.174 15.0326 103.213C15.0622 103.124 15.1017 103.045 15.1314 102.956H14.924C14.9042 103.006 14.8449 103.085 14.8647 103.105H14.8746ZM26.6676 107.519C26.6676 107.519 26.6083 107.608 26.5886 107.668C26.6478 107.697 26.7071 107.727 26.7663 107.757C26.8058 107.678 26.8355 107.598 26.875 107.51C26.8058 107.51 26.7268 107.49 26.6676 107.51V107.519ZM31.2307 91.9831C31.2307 91.9831 31.1023 92.0918 31.1122 92.1115C31.1517 92.2103 31.2208 92.2893 31.2801 92.3782C31.3591 92.2992 31.4381 92.2301 31.5171 92.1511C31.4183 92.0918 31.3295 92.0227 31.2208 91.9733L31.2307 91.9831ZM6.98295 87.4595L7.01258 87.499C7.03234 87.4892 7.06197 87.4694 7.08172 87.4595C7.04221 87.4595 7.01258 87.4595 6.97307 87.4595H6.98295ZM7.31877 87.3213C7.23975 87.3608 7.16074 87.4102 7.08172 87.4497C7.12123 87.4497 7.16074 87.4497 7.19037 87.4497C7.23975 87.4299 7.26938 87.3706 7.30889 87.3213H7.31877ZM32.3665 87.5188C32.6727 87.3707 32.969 87.2225 33.2752 87.0842L33.2456 87.0546C32.9394 87.2027 32.6431 87.3509 32.3369 87.4892L32.3665 87.5188ZM12.7609 100.309C12.672 100.28 12.5831 100.25 12.4942 100.22C12.5239 100.26 12.5535 100.29 12.593 100.319C12.6325 100.339 12.7017 100.319 12.7609 100.309ZM36.0012 9.8273L35.9716 9.79766C35.8136 9.94582 35.6654 10.094 35.5074 10.2322L35.537 10.2619C35.695 10.1137 35.8531 9.97545 36.0012 9.8273ZM35.5074 10.2322C35.3493 10.4002 35.1814 10.5681 35.0234 10.7261L35.053 10.7557C35.2111 10.5878 35.379 10.4199 35.537 10.252L35.5074 10.2224V10.2322ZM47.6856 42.2926V42.3518C47.6856 42.3518 47.7053 42.3519 47.7152 42.3617C47.7152 42.3519 47.7152 42.342 47.7152 42.3222C47.7053 42.3123 47.6954 42.3025 47.6757 42.2827L47.6856 42.2926ZM47.2806 41.8975C47.4189 42.0259 47.5572 42.1642 47.6856 42.2926C47.6856 42.1642 47.6856 42.0259 47.6856 41.8975C47.5473 41.8975 47.409 41.8975 47.2806 41.8975ZM27.4182 92.4869C27.2503 92.3288 27.0824 92.1609 26.9244 92.0029L26.8947 92.0325C27.0626 92.1906 27.2207 92.3585 27.3886 92.5165L27.4182 92.4869ZM5.2545 88.4176V88.388C5.09647 88.388 4.92856 88.388 4.77053 88.388C4.77053 88.388 4.77053 88.4077 4.78041 88.4176C4.93844 88.4176 5.08659 88.4176 5.24462 88.4176H5.2545ZM49.1078 41.9568L49.0782 41.858C49.0782 41.858 49.0486 41.858 49.0387 41.858C49.0387 41.8679 49.0387 41.8778 49.0387 41.8975L49.1078 41.9568Z" fill="white"/>
</g>
<defs>
<clipPath id="clip0_0_4295">
<rect width="73" height="107.026" fill="white" transform="translate(0 0.730713)"/>
</clipPath>
</defs>
</svg>
