<svg width="31" height="28" viewBox="0 0 31 28" fill="none" xmlns="http://www.w3.org/2000/svg">
<path d="M21.1226 7.29268C21.9217 6.01219 22.6345 4.66585 23.5344 3.46585C24.9382 1.59268 26.4645 -0.185366 27.9331 -2C28.8186 -1.25366 29.7689 -1.23171 30.7192 -1.76585C31.4176 -0.5 30.6184 0.539024 30.1505 1.26341C28.761 3.43659 27.4076 5.66829 25.7517 7.63659C24.3191 9.33415 23.4408 11.361 22.2169 13.1683C22.1809 13.2195 22.1593 13.2707 22.1161 13.3146C20.5107 14.8659 19.8124 17.0024 18.6605 18.8463C17.4798 20.7341 16.4575 22.7244 15.1976 24.5537C14.3553 25.7756 13.225 26.7854 12.1163 28C11.886 27.6195 11.67 27.3634 11.5692 27.0707C11.3748 26.4854 11.0149 26.1634 10.4101 26.222C8.93428 26.361 8.14956 25.3293 7.55922 24.2829C6.35694 22.139 5.24826 19.9366 4.23316 17.6976C3.74361 16.622 3.59963 15.3927 3.21807 14.2659C3.06688 13.8268 2.95169 13.3512 2.26777 13.1756C1.63423 13.0073 1.62703 12.3341 2.10218 11.6317C4.09638 13.1829 4.42754 15.9415 6.43613 17.3463C4.52113 13.2707 1.20947 9.97073 0 5.38293C0.683929 5.52195 1.20948 5.63171 1.56944 5.70488C4.93149 10.7244 9.03507 15.0049 12.5555 20.1268C13.333 18.9341 13.9666 17.9902 14.5713 17.0317C16.4431 14.061 18.2933 11.0829 20.1795 8.12683C20.3955 7.78293 20.8059 7.56341 21.1298 7.29268C21.4394 7.24146 21.8569 7.29268 22.0441 7.11707C22.6921 6.48049 23.304 5.79268 23.8367 5.05366C24.0383 4.77561 23.9951 4.30732 24.0599 3.92683C24.5999 3.75854 24.9454 3.4439 25.0102 2.91707C24.8878 2.8439 24.7654 2.77073 24.6431 2.69756C24.4631 3.12195 24.2759 3.53902 24.0959 3.96342C23.8871 4.13171 23.6496 4.27805 23.484 4.47561C22.6921 5.40488 21.9145 6.3561 21.1298 7.29268H21.1226Z" fill="white"/>
</svg>
