<svg width="83" height="106" viewBox="0 0 83 106" fill="none" xmlns="http://www.w3.org/2000/svg">
<g clip-path="url(#clip0_0_1111)">
<path d="M69.2627 100.565C69.2627 100.565 69.2627 100.536 69.2724 100.527C69.2724 100.527 69.2917 100.536 69.2917 100.546L69.2531 100.565H69.2627ZM67.2824 100.536C67.2824 100.536 67.2631 100.536 67.2534 100.536C67.2534 100.556 67.2534 100.565 67.2534 100.585L67.2728 100.546L67.2824 100.536ZM23.6575 88.2971L23.6285 88.3164C23.6285 88.3164 23.6382 88.3164 23.6479 88.3164C23.6575 88.3067 23.6672 88.2971 23.6768 88.2778C23.6768 88.2778 23.6768 88.2584 23.6768 88.2488C23.6672 88.2681 23.6479 88.2874 23.6382 88.3067C23.6382 88.3067 23.6479 88.3067 23.6672 88.2874L23.6575 88.2971ZM11.2443 30.298C11.2443 30.298 11.225 30.2787 11.2153 30.2593C11.2153 30.2593 11.2153 30.2593 11.2057 30.2593L11.2443 30.298ZM34.5058 2.06159V2.07125C34.5444 2.02295 34.5734 1.98431 34.612 1.93601C34.5637 1.96499 34.5154 2.00363 34.4768 2.03261C34.4768 2.03261 34.4768 2.03261 34.4865 2.05193L34.4671 2.03261C34.4671 2.04227 34.4671 2.06159 34.4671 2.07125C34.4671 2.07125 34.4865 2.07125 34.4961 2.07125C34.4961 2.07125 34.4961 2.07125 34.4961 2.06159H34.5058ZM53.4009 75.4878C53.4009 75.4878 53.3623 75.4878 53.3429 75.4878C53.3429 75.4975 53.3623 75.5168 53.3719 75.5361L53.4009 75.4975V75.4878ZM73.1944 97.3196C72.9915 98.2276 72.8273 98.9618 72.6534 99.7636C72.1897 99.8988 71.7454 100.024 71.2914 100.15C71.0209 99.6187 70.7794 99.1357 70.5089 98.6044C69.6202 99.0391 69.5622 99.8602 69.2724 100.536C68.9923 100.247 68.6155 99.9954 68.4899 99.638C68.1808 98.7493 67.5239 98.3242 66.8187 97.9185C66.5676 98.8652 67.1085 99.667 67.2534 100.536C66.7221 100.391 66.1425 100.324 65.6595 100.063C59.1583 96.5371 53.2753 92.0065 47.6628 87.0606C47.2281 86.6742 46.861 86.1815 46.5133 85.6985C46.2718 85.3508 46.1462 84.916 45.924 84.549C45.7115 84.1819 45.441 83.8438 45.1222 83.3801C45.2961 82.7619 45.47 82.105 45.6922 81.3128C46.465 81.506 47.1605 81.6703 47.856 81.8441C47.8753 81.6606 47.943 81.4288 47.885 81.3708C47.6338 81.1583 47.344 80.9941 47.0639 80.8298C44.8807 79.6223 44.7358 79.4098 44.4846 76.9562C44.4074 76.9562 44.2721 76.9079 44.2431 76.9562C43.6539 77.8449 42.9777 78.1733 41.944 77.6903C40.0313 76.7919 37.9544 76.7146 35.9065 76.5504C35.6843 76.5311 35.4428 76.618 34.8149 76.7243C36.2929 77.3039 37.4521 77.613 38.6306 77.8835C38.9687 77.9608 39.2006 78.2699 39.075 78.6853C38.9398 79.12 38.6403 79.091 38.2925 78.9751C38.08 78.8978 37.8385 78.9171 37.5487 78.8785C37.6163 79.3615 37.6646 79.7672 37.7226 80.173C36.4024 80.2696 35.7519 79.6739 35.7713 78.3858C34.9115 77.9028 34.0228 78.3375 33.1437 78.3858C32.2743 78.4341 31.3663 78.8978 30.5355 78.1926L30.5645 78.2216C30.4872 78.2313 30.3906 78.2216 30.323 78.2603C28.6131 79.1683 27.4733 80.7043 26.0242 82.3561C26.9709 82.6846 27.5505 82.8874 28.0529 83.0613C28.1108 83.3028 28.1495 83.3898 28.1495 83.4767C28.1495 83.5636 28.1398 83.6506 28.1108 83.7375C27.4926 85.9014 26.4686 87.5629 24.1115 87.7465C23.957 87.7561 23.8121 88.0459 23.6672 88.2488C23.5223 87.6305 23.3677 87.0026 23.1649 86.1236C22.2955 87.5436 20.7112 88.1232 20.5373 89.9296C19.2235 91.8423 17.4944 93.0885 15.3402 93.6294C14.9441 93.726 14.5288 93.7067 14.1134 93.7454C14.1134 93.7454 14.1134 93.7357 14.1134 93.726C13.3212 94.3153 12.5195 94.9142 11.7563 95.4842C11.6984 96.0831 11.9012 96.4309 12.4325 96.3632C13.0025 96.2956 13.5531 96.0928 14.123 96.0541C14.2873 96.0445 14.5771 96.3343 14.6254 96.5371C14.664 96.711 14.4708 97.0974 14.3162 97.1457C13.698 97.3292 13.0508 97.4162 11.9205 97.6287C11.737 97.8605 11.2733 98.4788 10.7806 99.0681C10.3266 99.609 9.81464 100.034 9.07081 99.9858C8.46223 99.9375 7.93092 100.111 7.5252 100.633C6.19211 100.372 4.73344 100.691 3.54525 99.8215C3.20714 99.5704 2.9753 98.9425 2.93666 98.4595C2.88836 97.8605 3.18782 97.2326 3.12986 96.6337C3.08156 96.1604 2.7338 95.7064 2.50196 95.262C2.24114 94.7597 1.80643 94.9625 1.28479 95.0495C1.15921 93.842 0.734166 92.6924 1.21717 91.5042C0.792126 90.9439 0.386403 90.4126 0 89.9103C0.144901 89.6785 0.202862 89.4853 0.328443 89.4176C0.618245 89.2631 0.937027 89.1568 1.24615 89.0409C3.05258 88.3164 3.0719 88.3164 3.11054 86.2298C3.12986 85.1865 3.36171 84.3461 4.24077 83.7375C5.00392 83.2159 5.67046 82.5493 6.40463 81.9891C7.10982 81.4577 7.67976 80.8685 7.70874 79.8638C7.7184 79.2746 8.07582 78.9365 8.47189 78.579C13.0894 74.3672 18.132 70.8703 23.7445 68.378C23.9763 68.2814 24.2081 68.1655 24.4496 68.1365C27.309 67.7984 28.8257 65.6152 30.2843 63.3161C31.0668 62.07 31.9362 60.8818 32.7766 59.6839C33.0278 59.3362 33.2596 58.9015 33.5977 58.7083C35.0274 57.8678 35.24 56.187 35.9451 54.8539C36.4281 53.9458 36.6793 52.8929 37.1333 51.9559C38.5727 48.9806 40.0893 46.0439 41.5093 43.0493C42.0696 41.8708 42.5526 40.6343 42.8714 39.3688C43.5476 36.7316 44.7551 34.2876 45.1609 31.5345C45.6342 28.279 45.0932 25.1975 44.4074 22.0869C44.1659 21.0243 43.3351 20.5896 42.5236 20.1452C42.2242 20.1452 41.7508 20.2515 41.6929 20.1356C41.065 18.7928 39.9444 18.5707 38.7755 18.7252C36.0997 19.0826 33.4239 19.5173 30.7577 19.9907C30.1298 20.1066 29.5212 20.464 28.9609 20.8118C27.9369 21.459 26.8357 21.7198 25.6668 21.7295C24.8361 22.5699 24.0053 23.4007 23.1745 24.2315C22.933 24.473 22.7108 24.84 22.4307 24.898C20.0447 25.4293 19.2429 27.4772 18.4507 29.5542C18.4218 29.6314 18.3638 29.7087 18.2575 29.8923C16.0357 30.5685 15.7363 33.0608 14.4708 34.9252C14.152 34.8865 13.7656 34.8382 13.3792 34.7899C12.4615 35.2343 12.2586 36.5191 11.0511 37.06C11.6114 34.8769 11.679 32.8193 12.703 30.8486C12.0944 30.6071 11.6597 30.4332 11.225 30.2593C10.3556 29.0518 10.3363 29.0422 8.53951 28.7041C8.70373 27.0619 10.0948 25.806 9.98852 23.961C8.51053 23.8934 8.11446 25.5839 6.82967 26.0862C6.94559 25.0236 7.5735 24.5406 7.97922 23.932C8.45257 23.2075 9.03217 22.5603 8.61679 21.5363C8.40427 21.005 8.95489 20.8504 9.22537 20.551C9.41857 20.3288 9.58279 19.9037 9.51517 19.6333C9.40891 19.2179 9.05149 19.2855 8.73271 19.4787C8.59747 19.5656 8.41393 19.6139 8.26902 19.585C8.13378 19.5656 7.9599 19.4401 7.9116 19.3145C7.8633 19.1792 7.94058 18.986 7.97922 18.8315C7.99854 18.7542 8.07582 18.6673 8.14344 18.6383C9.97886 17.9234 10.6454 16.175 11.3119 14.4458C11.8819 12.9775 12.4035 11.4802 12.9928 10.0118C13.9685 7.54851 15.6493 5.80004 17.7939 4.46695C20.1123 3.03725 22.5659 2.05193 25.1548 1.4047C26.7584 0.998979 28.362 0.593256 29.9559 0.139233C30.8833 -0.13125 31.7527 0.0136516 32.7283 0.390394C32.8442 0.796118 32.8539 1.43368 33.1534 1.70416C33.4722 1.99397 34.0421 1.96499 34.5154 2.06159C34.5927 2.38037 34.67 2.70881 34.7859 3.20148C36.3798 2.68949 37.9834 1.99397 39.529 3.16284L39.5097 3.13386C40.7269 3.62652 41.9247 4.21578 43.1805 4.56355C43.934 4.77607 44.7744 4.60219 46.0979 4.60219C46.0496 4.52491 46.2621 4.87267 46.4746 5.23975C49.3243 6.65978 51.1404 8.96854 51.9905 12.2433C52.2996 13.4122 53.0821 14.4361 53.4685 15.5857C54.3476 18.2422 55.159 20.9181 55.9029 23.6229C56.0478 24.1542 55.8159 24.8111 55.7579 25.4873C57.3422 26.5306 57.9315 28.2211 57.8445 30.1821C57.7189 32.8193 57.8638 35.5144 56.8012 38.0067C56.6757 38.3158 56.4631 38.5863 56.3182 38.8278C55.7193 38.8278 55.7579 38.4124 55.7676 38.0743C55.7869 37.2339 56.0188 36.3935 55.613 35.0894C54.5408 38.6153 53.5941 41.7065 52.6474 44.8074C52.8792 45.1552 53.1111 45.5029 53.3333 45.8314C53.285 46.0342 53.2753 46.2178 53.2077 46.3723C52.8116 47.2321 52.3576 48.0725 51.9905 48.9516C51.6621 49.7244 51.2081 50.4103 50.4256 50.4972C48.6481 50.6807 47.827 52.1298 46.832 53.3759C46.2041 54.168 45.9916 55.3176 45.0256 55.8199C44.4267 57.1433 43.4124 58.0031 42.2049 58.631C41.4417 59.0367 40.9297 59.626 40.5337 60.4761C39.8961 61.8671 39.0847 63.1616 38.3408 64.4947C37.9738 64.1952 37.6743 63.9537 37.2782 63.6349C37.056 64.002 36.8339 64.2628 36.7179 64.5719C36.4861 65.2192 36.3026 65.8954 36.1287 66.475C36.6117 67.4796 37.4424 67.6245 38.2153 67.924C38.9108 68.1945 39.6449 68.5422 39.5097 69.6338C39.9637 69.6725 40.3984 69.827 40.7462 69.7014C42.2628 69.1701 43.6346 69.6725 45.0642 70.1555C47.7594 71.0828 50.0005 72.9376 52.4928 74.261C52.8792 74.4639 53.0918 75.0241 53.3816 75.4299C52.9275 75.3429 52.4349 75.3333 52.0195 75.1304C51.1984 74.7247 50.4642 74.1354 49.6335 73.749C48.8993 73.4109 48.2134 72.9859 47.315 73.0148C46.6292 73.0342 45.924 72.6284 45.2381 72.3773C44.6875 72.1744 44.1755 71.8363 43.6249 71.7107C42.3594 71.4113 41.0746 71.1987 39.7609 71.0635C41.2968 71.7784 42.514 73.266 44.388 73.1018C44.6295 73.0825 44.9193 73.1308 45.1125 73.2563C47.0542 74.6088 49.5465 74.7537 51.295 76.5214C51.4109 76.6374 51.5655 76.7533 51.72 76.7919C53.8356 77.3426 55.13 79.1973 56.6563 80.5883C57.9025 81.7186 58.7236 83.3801 59.8055 84.8967C60.0663 84.1819 60.3272 83.467 60.6556 82.588C63.9594 85.3025 67.6495 87.0799 71.0982 89.4273C70.9049 90.374 69.6974 89.9876 69.6105 91.0502C69.5525 91.7554 68.8957 92.393 68.4706 93.1368C69.1082 93.4652 69.881 92.7504 70.2867 93.5811L70.3253 93.5522C70.4992 93.7357 70.6731 93.9192 70.847 94.1028L70.818 94.1414C70.9726 94.1414 71.1271 94.1414 71.272 94.1414C71.1464 94.8756 71.0112 95.6098 70.876 96.4019C71.4363 97.0008 72.1028 97.5804 73.2523 97.2616L73.1944 97.3196ZM51.7973 41.7742C53.0048 40.6536 53.0821 40.3251 52.4928 38.7795C51.8875 39.9645 51.6556 40.9627 51.7973 41.7742ZM25.5412 21.6522C25.5412 21.6522 25.5026 21.6232 25.4736 21.6136C25.435 21.5943 25.377 21.6136 25.3287 21.6136C25.3963 21.6329 25.464 21.6426 25.5316 21.6619L25.5412 21.6522ZM34.6797 7.13313L34.5058 7.06551V7.21041L34.6797 7.13313ZM35.3752 4.25442C35.0371 4.2351 34.6893 4.21578 34.3512 4.19646C34.3512 4.30272 34.3416 4.41865 34.3319 4.52491C34.67 4.54423 35.0178 4.57321 35.3559 4.59253C35.3559 4.47661 35.3655 4.36069 35.3752 4.25442ZM37.085 7.66443C37.0271 7.62579 36.9691 7.56783 36.9111 7.55817C36.8435 7.55817 36.7759 7.59681 36.7083 7.62579C36.7662 7.66443 36.8242 7.69341 36.8822 7.73205C36.9498 7.71273 37.0174 7.68375 37.085 7.66443ZM42.4077 7.90593C42.1952 7.64511 42.002 7.22973 41.7508 7.18143C40.8911 7.01721 40.0024 6.89162 39.075 7.08483C39.6256 8.34064 40.3211 8.48554 42.4077 7.90593ZM46.7258 10.1857C47.0542 10.5335 47.5082 10.746 47.9043 11.0068C47.3633 9.76067 46.6388 8.67874 45.5279 7.93491C45.2091 7.72239 44.871 7.37463 44.3397 7.96389C44.5233 8.58214 44.7358 9.28732 44.9483 9.99251C45.5762 9.64475 46.1462 9.57713 46.7161 10.1954L46.7258 10.1857ZM10.5391 78.096C9.93056 78.9751 9.36061 79.8059 8.49121 81.0617C10.1914 79.9411 10.2976 79.7672 10.5391 78.096ZM13.8622 76.1833C13.8912 76.1157 13.6883 75.9418 13.6014 75.8163C13.4468 75.9708 13.2633 76.1157 13.1474 76.2993C13.128 76.3282 13.3212 76.5311 13.4758 76.734C13.6207 76.5408 13.7849 76.3765 13.8622 76.1833ZM15.4078 74.9565C15.3885 74.8889 15.3788 74.7923 15.3402 74.773C15.3016 74.7537 15.2243 74.8116 15.1567 74.8309C15.176 74.8986 15.1856 74.9952 15.2243 75.0145C15.2629 75.0338 15.3402 74.9758 15.3982 74.9565H15.4078ZM16.538 86.5969C16.6057 86.481 16.6153 86.3361 16.6346 86.1912C16.5187 86.2588 16.3931 86.3264 16.2869 86.4134C16.2386 86.452 16.2386 86.5583 16.2096 86.6355C16.3255 86.6259 16.4994 86.6549 16.5284 86.5969H16.538ZM16.9921 90.9536L16.9341 90.7894L16.8375 90.9343L16.9824 90.9536H16.9921ZM17.9871 85.1189C17.3012 84.8678 17.1563 83.9694 16.4414 84.7228C16.5187 85.1865 16.596 85.6502 16.6829 86.1139C17.0307 85.8531 17.3881 85.5826 17.9967 85.1189H17.9871ZM18.4218 89.5046C18.3735 89.4563 18.2769 89.3693 18.2769 89.379C18.1803 89.4756 18.0933 89.5819 17.9967 89.6978C18.045 89.7364 18.103 89.7847 18.1513 89.8234C18.2382 89.7171 18.3348 89.6108 18.4218 89.5143V89.5046ZM20.3828 73.3819C18.5087 73.9036 17.2143 75.3622 15.7556 76.5311C17.6393 76.5118 18.9627 75.1497 20.4407 74.1837C20.6629 74.0388 20.7498 73.5944 20.3828 73.3819ZM23.3194 72.0295C22.4629 71.8685 21.9477 72.2807 21.7738 73.266C22.4597 73.0148 23.1938 73.0535 23.3194 72.0295ZM24.0343 72.9472C23.957 73.0052 23.87 73.0631 23.7928 73.1404C23.7734 73.1501 23.8314 73.2563 23.8604 73.3143C23.9183 73.1887 23.9763 73.0728 24.0343 72.9472ZM25.9083 85.8048C25.9373 85.7275 25.8214 85.5923 25.7731 85.4763C25.7344 85.5536 25.6861 85.6212 25.6765 85.6985C25.6572 85.8338 25.6572 85.969 25.6475 86.1139C25.7441 86.0173 25.86 85.9304 25.9083 85.8048ZM31.5884 64.3691C31.5884 64.3691 31.5981 64.3691 31.6078 64.3691L31.6754 64.2725L31.5884 64.3787V64.3691ZM31.6947 71.4306C31.6174 71.2953 31.5498 71.1601 31.4725 71.0249C31.2986 71.1408 31.1248 71.2567 30.9412 71.363C31.0571 71.4596 31.1731 71.5562 31.2793 71.6528C31.4146 71.5755 31.5498 71.5079 31.685 71.4306H31.6947ZM33.6074 76.5408C33.4915 76.4732 33.3852 76.4055 33.2693 76.3476C33.221 76.4925 33.1244 76.647 33.1437 76.7823C33.1437 76.8596 33.3369 76.9175 33.4432 76.9851C33.5011 76.8402 33.5494 76.6953 33.6074 76.5504V76.5408ZM36.9594 61.7898C36.66 62.0796 36.3509 62.3598 36.0514 62.6496C36.4668 62.495 36.8242 62.2728 36.9594 61.7898ZM34.8922 64.5526C34.9598 64.3401 34.9695 64.0986 34.9985 63.8571C34.8246 63.9923 34.6217 64.1179 34.4865 64.2918C34.4285 64.3691 34.5154 64.5816 34.5348 64.7362C34.6603 64.6782 34.8632 64.6492 34.8922 64.5526ZM35.9258 62.7848C35.6457 63.1133 35.3752 63.4417 35.0951 63.7605C35.607 63.6639 35.8485 63.3065 35.9258 62.7848ZM38.2732 70.9959L38.0897 70.8703L38.0704 71.0635L38.2829 70.9959H38.2732ZM39.3551 75.285C39.2972 75.2367 39.2489 75.1594 39.1813 75.1401C39.104 75.1207 39.0267 75.1594 38.9398 75.1787C39.017 75.256 39.075 75.3622 39.1619 75.4105C39.2006 75.4299 39.2875 75.3333 39.3551 75.2946V75.285ZM41.0167 75.8259C40.8911 75.8066 40.7655 75.7873 40.6399 75.768C40.6786 75.9032 40.7076 76.0288 40.7462 76.164C40.8138 76.135 40.8814 76.0964 40.9491 76.0674C40.9684 75.9901 40.9974 75.9129 41.0167 75.8356V75.8259ZM50.358 82.9744C50.2131 82.8005 50.0875 82.6073 49.9136 82.4817C49.8363 82.4238 49.6624 82.53 49.5369 82.559C49.6141 82.7522 49.6624 83.0903 49.7687 83.1193C49.9426 83.1676 50.1551 83.0517 50.358 82.984V82.9744ZM64.027 86.7901L64.056 86.993L64.1429 86.8191L64.027 86.7901ZM61.6313 86.1332C61.3801 86.4423 61.2545 86.5293 61.2352 86.6355C60.9454 87.9493 60.9551 87.9493 59.8925 87.8527C59.4288 87.8141 58.9265 87.4856 58.5594 88.0652C59.1197 89.6591 59.6316 90.1035 60.7425 89.9393C61.2835 89.862 61.7086 89.5432 61.7279 88.9443C61.7569 88.0846 61.6796 87.2151 61.6313 86.1332ZM64.5293 89.6108C64.4037 89.5336 64.2878 89.4563 64.1622 89.3693C64.1043 89.5046 63.9787 89.6688 64.0077 89.7751C64.0366 89.8813 64.2298 89.9393 64.3458 90.0166C64.4037 89.8813 64.4713 89.7461 64.5293 89.6108ZM65.988 97.5031C66.2295 97.6287 66.4903 97.7157 66.7511 97.8122C66.5869 97.5804 66.4227 97.3389 66.2488 97.1167C66.2102 97.0781 66.0363 97.0877 66.0363 97.1071C66.0073 97.2423 65.9493 97.4838 65.9976 97.5031H65.988ZM67.2051 91.4463C67.1085 91.282 66.9636 91.1565 66.8284 91.0212C66.8284 91.2241 66.8284 91.4269 66.8381 91.6298C66.8381 91.6878 66.9347 91.7361 66.9926 91.7844C67.0699 91.6684 67.2245 91.4946 67.2051 91.4463ZM70.7504 94.1704C70.5862 93.9869 70.4123 93.813 70.2481 93.6294C70.0645 93.9192 69.9196 94.2284 70.277 94.4699C70.3543 94.5182 70.5765 94.3056 70.7504 94.1801V94.1704ZM67.8427 81.3805C69.0116 81.7186 70.2094 81.9504 71.33 82.4238C72.2863 82.8295 73.1268 83.525 74.0252 84.0756C74.5178 84.3751 75.0008 84.8195 75.5321 84.9064C76.5658 85.0706 77.3386 85.3508 77.8505 86.51C78.208 87.3311 79.2126 87.4084 80.0337 87.4373C80.7582 87.4663 81.4924 87.3504 82.3618 87.2924C82.5936 88.2971 82.2072 88.9443 81.3958 89.3693C80.9031 89.6302 80.9418 89.9779 81.1736 90.3837C81.2026 90.3837 81.2219 90.3837 81.2509 90.3837C81.2316 90.3933 81.2122 90.4126 81.1929 90.4223L81.1543 90.3837C80.594 91.5042 79.5121 91.4752 78.5751 91.6201C77.8022 91.7457 76.9618 91.6491 76.0538 90.8667C76.6527 90.6252 77.0101 90.4899 77.3675 90.345C77.3289 90.2098 77.3096 89.9876 77.2323 89.9586C75.7543 89.4273 74.257 88.9443 72.779 88.3937C72.4216 88.2584 72.1028 87.9783 71.7744 87.7561C71.7744 87.7561 71.7744 87.7561 71.7744 87.7658C70.7504 87.6788 70.4606 86.5293 69.6298 86.0946C68.2388 85.3797 66.954 84.4234 65.6112 83.5926C64.8384 83.1193 64.1429 82.5783 63.4957 81.5737C65.3987 81.622 66.6255 83.071 68.1712 83.3608C68.6252 82.4817 68.0262 81.9697 67.862 81.3515L67.8427 81.3805ZM72.5182 87.5243C72.2091 87.4083 71.9965 87.3311 71.784 87.2538C71.784 87.4083 71.7647 87.5726 71.755 87.7271C71.9772 87.6692 72.1994 87.6112 72.5085 87.5243H72.5182ZM70.335 84.4234C71.2044 84.7808 72.0835 85.1286 72.9529 85.486C72.4119 84.2592 71.3976 84.2012 70.4896 83.9114C70.4413 84.0853 70.393 84.2592 70.335 84.4331V84.4234ZM81.5407 92.0935C82.4874 93.7647 82.497 93.9386 81.8402 96.3439C81.1736 96.5951 80.4298 96.8752 79.5024 97.2327C79.7826 97.7253 79.9854 98.0634 80.1786 98.4015L80.2076 98.3919V98.9811H80.1786C79.7149 99.5994 79.174 100.131 78.4205 100.276C77.4931 100.111 77.1357 99.2613 76.5464 98.6913C76.0055 98.1697 75.1167 98.0441 74.2763 97.706C74.5565 97.2423 74.769 96.8945 75.0684 96.4115C74.5565 96.3149 74.1024 96.286 73.6774 96.1314C73.32 95.9962 73.0012 95.7257 72.6824 95.5228C72.9432 94.75 73.4455 94.6727 73.9286 94.7983C74.4695 94.9432 74.9718 95.32 75.5225 94.9625C75.5997 94.3926 75.2423 94.3056 74.9429 94.238C73.8803 93.9869 72.9239 93.4942 72.0931 92.7407C71.9482 92.6151 71.8903 92.2287 71.9579 92.0355C72.0352 91.852 72.3636 91.6105 72.5182 91.6588C73.2137 91.881 74.0348 92.0259 74.5371 92.5185C75.9282 93.8999 77.3869 93.5232 78.9325 93.0981C79.5314 92.9339 79.9854 92.1321 80.7196 92.5958C80.9901 92.4412 81.2606 92.2867 81.531 92.1321L81.5407 92.0935ZM79.8598 98.7686C79.9661 98.8266 80.0724 98.8845 80.1786 98.9425C80.1786 98.7589 80.1786 98.5851 80.1786 98.4015C80.0724 98.5174 79.9661 98.643 79.8598 98.7589V98.7686ZM48.3004 69.2764C48.2231 69.2474 48.1362 69.2474 48.0589 69.2474C47.6918 69.2571 47.431 69.3633 47.6531 69.9912C48.5709 70.2327 49.788 70.0106 50.4063 71.2277C50.4739 71.3533 50.6864 71.4306 50.841 71.4692C52.5991 71.8267 53.8163 73.2563 55.2943 74.1547C56.212 74.7054 56.9751 75.4975 58.086 75.7486C58.685 75.8839 59.3129 76.2606 59.5544 77.0431C59.622 77.2749 59.8055 77.642 59.9601 77.6613C61.2932 77.7966 62.3268 79.2842 63.8048 78.666C62.9354 78.0284 61.9404 77.5164 61.2352 76.7147C59.9601 75.2753 58.4145 74.261 56.9172 73.1791C54.2896 71.2857 51.2853 70.3004 48.3004 69.2957V69.2764ZM63.8628 78.637C63.8628 78.637 63.8241 78.637 63.8048 78.6563C63.8048 78.6563 63.8241 78.666 63.8338 78.6756L63.8724 78.637H63.8628ZM17.7359 96.5371C18.9627 96.4019 19.8515 95.716 20.7112 95.1461C22.5949 93.8903 23.8024 92.0065 24.3627 89.6978C24.5269 89.0506 24.4013 88.4613 23.6575 88.3067C22.2858 89.8041 20.9527 91.3303 19.5327 92.7697C18.5377 93.784 18.0933 95.0205 17.7359 96.5371ZM59.7959 79.2263C58.6946 77.729 57.12 77.3522 55.4875 77.1107C56.4245 79.0041 57.9508 79.4774 59.7959 79.2263ZM55.4875 77.1107C55.4875 77.1107 55.4681 77.0721 55.4585 77.0527L55.4198 77.1011C55.4198 77.1011 55.4681 77.1011 55.4875 77.1107ZM19.1076 33.6114C20.1896 33.7273 19.9481 32.4715 20.518 32.3266C21.5806 32.0561 21.5033 31.1867 21.6192 30.3946C20.6146 31.2833 19.5327 32.1141 19.1076 33.6114ZM21.6192 30.3946C21.6192 30.3946 21.6579 30.3656 21.6772 30.3463L21.6386 30.3076C21.6386 30.3076 21.6386 30.3656 21.6289 30.3946H21.6192ZM67.7558 81.3611C67.0796 80.4338 66.2198 79.9991 64.8384 80.173C65.2828 80.9264 65.5919 81.4674 65.8334 81.8924C66.6932 82.076 67.2341 81.7379 67.7558 81.3611ZM67.7848 81.3611V81.3805C67.7848 81.3805 67.8041 81.3805 67.8234 81.3901C67.8234 81.3708 67.8041 81.3418 67.8041 81.3225C67.7847 81.3322 67.7751 81.3418 67.7558 81.3515C67.7558 81.3515 67.7654 81.3611 67.7751 81.3708C67.7751 81.3708 67.7751 81.3611 67.7848 81.3418V81.3611ZM24.6912 25.6418C25.4833 25.2554 26.0919 24.7048 26.5459 23.9223C26.2271 23.9223 25.9083 23.9223 25.5992 23.9223L25.6378 23.874C25.6378 23.874 25.6089 23.874 25.5992 23.874C25.4446 23.874 25.2997 23.874 25.1452 23.874C25.1452 23.874 25.0969 23.874 25.0679 23.874C25.0679 23.874 25.0679 23.8837 25.0776 23.8934C25.0776 23.903 25.0872 23.9127 25.0872 23.9127C24.7298 24.3474 24.2854 24.7531 24.6815 25.6225L24.6912 25.6418ZM26.5749 23.8934C26.5749 23.8934 26.5555 23.9223 26.5459 23.932C26.5652 23.932 26.5845 23.932 26.6038 23.932L26.5652 23.8934H26.5749ZM59.8828 79.3035C59.8828 79.3035 59.8731 79.2649 59.8635 79.2359C59.8635 79.2359 59.8538 79.2456 59.8442 79.2552L59.8635 79.2359C59.8635 79.2359 59.8152 79.2359 59.7862 79.2359C59.7959 79.2456 59.8055 79.2552 59.8152 79.2746C59.8345 79.2746 59.8538 79.2939 59.8828 79.2939V79.3035ZM61.9984 81.023C61.3125 80.144 60.7812 79.4871 59.8828 79.3035C60.2595 80.5787 60.2885 80.5883 61.9984 81.023ZM39.8864 66.7068C39.7898 66.7165 39.7319 66.9483 39.6546 67.0836C39.8381 67.1995 40.012 67.412 40.2052 67.4217C40.4854 67.4313 40.7752 67.3057 41.094 67.2381C40.9587 66.9773 40.9008 66.7455 40.8138 66.7261C40.5144 66.6778 40.1956 66.6682 39.8864 66.7165V66.7068ZM74.7593 100.073C74.7593 100.073 74.7786 100.015 74.7883 99.9858C74.769 100.005 74.7497 100.015 74.7303 100.034C74.74 100.044 74.7593 100.063 74.769 100.073H74.7593ZM75.677 101.058C75.677 101.058 75.6964 101.087 75.7157 101.097L75.677 101.058ZM74.3826 101.01C74.3343 101.222 74.4019 101.628 74.5082 101.676C74.769 101.783 75.1167 101.802 75.3679 101.705C75.5225 101.647 75.5708 101.29 75.6674 101.068C75.3582 100.739 75.0588 100.411 74.7497 100.082C74.6144 100.391 74.4405 100.691 74.3729 101.019L74.3826 101.01ZM69.311 100.546L69.2724 100.565C69.2821 100.565 69.2917 100.556 69.3014 100.546H69.311ZM70.4026 101.889C70.0162 101.435 69.6491 101 69.2724 100.556C68.9536 100.73 68.6445 100.894 68.3257 101.068C68.9633 101.502 69.4946 102.256 70.393 101.889H70.4026ZM68.2774 101.106C68.2774 101.106 68.3161 101.087 68.3354 101.077C68.3354 101.077 68.3354 101.077 68.3257 101.068L68.2871 101.106H68.2774ZM42.3884 79.6127C42.5816 79.7383 42.7748 79.8638 42.968 79.9798C43.0356 79.8542 43.1129 79.7286 43.2192 79.5354C43.055 79.3905 42.8907 79.2359 42.7168 79.0814C42.6106 79.2552 42.4947 79.4291 42.3884 79.603V79.6127ZM22.5949 28.2114C21.8704 28.6848 21.6386 29.4093 21.6772 30.269C22.3148 29.757 22.6819 29.1001 22.5949 28.2114ZM21.6386 30.3076L21.6772 30.3463C21.6772 30.3173 21.6772 30.2883 21.6772 30.2593C21.6579 30.269 21.6482 30.2883 21.6289 30.298L21.6386 30.3076ZM22.6046 28.1341C22.6046 28.1341 22.6046 28.1824 22.6046 28.2114C22.6142 28.2114 22.6239 28.1921 22.6432 28.1824L22.6046 28.1438V28.1341ZM29.2314 81.8441C29.4439 82.1726 29.7434 82.1436 30.0235 81.8924L30.0525 81.9311C29.7627 81.593 29.4632 81.2549 29.1734 80.9168C29.0382 81.3225 29.0768 81.622 29.2314 81.8441ZM55.4488 77.0817C55.4488 77.0817 55.4005 77.0817 55.3812 77.0817C55.3909 77.1011 55.4005 77.1107 55.4102 77.1204L55.4488 77.0721V77.0817ZM55.3812 77.0817C55.0238 76.5504 54.647 76.0481 53.9419 76.0964C54.193 76.8306 54.647 77.188 55.3812 77.0817ZM53.9419 76.0964C53.9419 76.0964 53.9322 76.0771 53.9322 76.0674L53.9032 76.0964C53.9225 76.0964 53.9322 76.0964 53.9515 76.0964H53.9419ZM13.0411 101.106C13.0411 101.106 13.1667 101.261 13.1957 101.242C13.3116 101.184 13.4082 101.097 13.5144 101.019C13.4275 100.932 13.3406 100.836 13.244 100.749C13.1667 100.865 13.0894 100.981 13.0411 101.106ZM13.9395 105.849C13.9395 105.849 14.0844 106.014 14.094 106.004C14.2679 105.878 14.4322 105.724 14.5964 105.589C14.4998 105.492 14.4032 105.395 14.2389 105.241C14.1327 105.453 14.0264 105.647 13.9395 105.849ZM75.2037 99.5414C75.1071 99.5607 74.9622 99.5511 74.9139 99.6187C74.8463 99.7249 74.8173 99.8602 74.7786 99.9858C74.8849 99.9085 74.9912 99.8312 75.0878 99.7443C75.1457 99.696 75.165 99.609 75.2037 99.5414ZM75.7543 101.039C75.8702 101.01 75.9958 100.981 76.0924 100.913C76.1504 100.874 76.16 100.73 76.189 100.643C76.1214 100.672 76.0441 100.691 75.9958 100.739C75.9089 100.836 75.8316 100.932 75.7543 101.039ZM75.706 101.097C75.706 101.097 75.735 101.058 75.7543 101.039C75.7253 101.039 75.6964 101.058 75.6674 101.058L75.706 101.097ZM30.0622 81.9214C30.0622 81.9214 30.1008 81.8731 30.1201 81.8538C30.0911 81.8635 30.0525 81.8731 30.0235 81.8828L30.0525 81.9214H30.0622ZM30.5452 81.3611C30.4003 81.5254 30.265 81.6896 30.1201 81.8538C30.323 81.7862 30.5162 81.7186 30.719 81.6509C30.6611 81.5543 30.6031 81.4577 30.5452 81.3611ZM79.6087 104.043C79.7632 103.937 79.9275 103.84 80.082 103.734C79.8985 103.715 79.7149 103.705 79.5314 103.686C79.5604 103.801 79.5797 103.927 79.6087 104.043ZM80.082 103.734C80.082 103.734 80.14 103.734 80.169 103.734L80.14 103.695C80.14 103.695 80.1013 103.715 80.0917 103.734H80.082ZM48.9186 52.6128C48.9186 52.6128 48.9186 52.6128 48.9379 52.6321L48.9573 52.6514C48.9959 52.6128 49.0249 52.5838 49.0539 52.5548C49.0539 52.5548 48.9669 52.5934 48.9186 52.6128ZM49.0539 52.5548C49.1601 52.5065 49.2181 52.4775 49.0539 52.5548V52.5548ZM49.0539 52.5548C49.1408 52.4679 49.1891 52.4196 49.0539 52.5548V52.5548ZM54.9368 42.5856C54.9368 42.5856 54.9368 42.518 54.9272 42.489C54.9272 42.5083 54.9175 42.5276 54.9079 42.547L54.9368 42.5856ZM54.9272 42.489C55.0817 42.0157 55.2266 41.5423 55.3812 41.069C54.8692 41.4071 54.8499 41.9384 54.9272 42.489ZM55.4392 41.0303C55.4392 40.9434 55.4488 40.8564 55.4585 40.7695C55.4392 40.8468 55.4198 40.9144 55.4102 40.9917C55.4102 41.0207 55.3909 41.04 55.3812 41.069C55.4005 41.0593 55.4198 41.04 55.4392 41.0303ZM67.2728 100.594C67.6109 100.768 67.9393 100.952 68.2774 101.126L68.316 101.087C67.9779 100.913 67.6398 100.73 67.2921 100.556L67.2728 100.594ZM80.1786 103.763C80.1786 103.763 80.2366 103.705 80.2656 103.686C80.2269 103.695 80.1883 103.715 80.14 103.724L80.169 103.763H80.1786ZM80.4974 103.473C80.4201 103.531 80.3428 103.608 80.2752 103.676C80.4008 103.637 80.5264 103.589 80.652 103.541C80.6037 103.512 80.5264 103.454 80.4974 103.473ZM39.5194 81.1583C39.6449 81.2162 39.7705 81.2645 39.8961 81.3225C39.8285 81.2452 39.7609 81.1583 39.6836 81.0907C39.6643 81.0713 39.5773 81.139 39.5194 81.1583ZM42.2049 82.5976L42.3015 82.4238L42.1372 82.4044L42.2049 82.5976ZM54.9465 42.5856L54.9175 42.547C54.8982 42.5566 54.8789 42.5663 54.8596 42.5759C54.8885 42.5759 54.9175 42.5759 54.9465 42.5759V42.5856ZM54.7147 42.5856C54.6664 42.6049 54.6277 42.6725 54.5794 42.7208C54.6664 42.6725 54.763 42.6242 54.8499 42.5759C54.8016 42.5759 54.7533 42.5759 54.7147 42.5759V42.5856ZM81.3861 90.403C81.4344 90.3837 81.4538 90.2871 81.4924 90.2291C81.4054 90.2967 81.3185 90.3643 81.2316 90.4223C81.2895 90.4223 81.3378 90.4223 81.3861 90.403ZM53.9322 76.0771C53.7583 75.8839 53.5844 75.6907 53.4105 75.4975L53.3816 75.5361C53.5555 75.7293 53.7293 75.9225 53.9032 76.1157L53.9322 76.0867V76.0771ZM40.0024 81.3901L40.0217 81.3708C40.0217 81.3708 39.9347 81.3322 39.8961 81.3225C39.9251 81.3515 39.9541 81.3805 39.983 81.4094L40.0893 81.5061L40.0217 81.3708C40.0217 81.3708 40.0217 81.3708 40.0024 81.3901ZM26.1112 88.8187L26.1402 88.8477C26.314 88.6738 26.4879 88.4903 26.6521 88.3164L26.6232 88.2778C26.4493 88.4516 26.2851 88.6352 26.1112 88.8091V88.8187ZM71.2624 94.1994L71.2334 94.1607C71.2334 94.1607 71.2334 94.1897 71.2334 94.1994C71.2431 94.1994 71.2624 94.1994 71.272 94.1994H71.2624ZM10.6357 31.0128C10.6647 30.9549 10.6937 30.8969 10.7323 30.8389L10.6937 30.8003C10.6744 30.8679 10.6551 30.9452 10.6357 31.0128ZM10.7323 30.8389C10.9062 30.6554 11.0704 30.4719 11.2443 30.298L11.2057 30.2593C11.0318 30.4429 10.8676 30.6168 10.6937 30.8003L10.7323 30.8389ZM22.5949 28.1341L22.6336 28.1728L22.7398 28.0568L22.5949 28.1245V28.1341ZM26.5749 23.8837L26.6135 23.9223L26.7101 23.7581L26.5845 23.8837H26.5749ZM25.6282 23.4104L25.6668 23.3234L25.6282 23.3814V23.4104C25.4736 23.5649 25.3191 23.7195 25.1548 23.8644C25.3094 23.8644 25.4543 23.8644 25.6089 23.8644C25.6089 23.7098 25.6282 23.5553 25.6282 23.4007V23.4104Z" fill="white"/>
</g>
<defs>
<clipPath id="clip0_0_1111">
<rect width="82.4004" height="106" fill="white"/>
</clipPath>
</defs>
</svg>
