<svg width="99" height="107" viewBox="0 0 99 107" fill="none" xmlns="http://www.w3.org/2000/svg">
<g clip-path="url(#clip0_2020_810)">
<path d="M62.9604 85.6449C62.9604 85.6449 62.9245 85.6495 62.8975 85.6529C62.9065 85.6518 62.9132 85.6327 62.921 85.6226L62.9615 85.6539L62.9604 85.6449ZM47.3629 101.909C47.3641 101.918 47.3473 101.929 47.3406 101.948L47.3629 101.909ZM38.3181 37.0514C38.3181 37.0514 38.3361 37.0491 38.3451 37.048C38.3439 37.039 38.3428 37.03 38.3416 37.021L38.3103 37.0615L38.3181 37.0514ZM85.3018 69.8718C85.3018 69.8718 85.2973 69.8359 85.2938 69.809C85.286 69.8191 85.2692 69.8304 85.2613 69.8405L85.2917 69.864L85.3018 69.8718ZM70.828 5.38688C70.828 5.38688 70.828 5.38688 70.8303 5.40484C70.8483 5.40255 70.8595 5.41937 70.8786 5.42606L70.8291 5.39586L70.828 5.38688ZM83.1765 79.2613L83.2044 79.1938L83.1687 79.2714C83.1687 79.2714 83.153 79.2917 83.1452 79.3018C83.1452 79.3018 83.1452 79.3018 83.1541 79.3006L83.1687 79.2714L83.1765 79.2613ZM85.2015 65.1474C85.2015 65.1474 85.1813 65.1317 85.1801 65.1227L85.2105 65.1463L85.2015 65.1474ZM92.0753 47.1111C92.2496 49.0513 92.7733 51.0109 91.9335 52.9435C91.7637 53.3302 91.8269 53.8972 91.9548 54.3282C92.2459 55.3225 91.9807 56.1778 91.5258 57.0481C91.2039 57.6733 90.9685 58.3332 90.6961 58.9886C90.4594 59.5664 90.2824 60.1823 89.9974 60.7389C88.9156 62.9214 87.7867 65.0916 86.7049 67.2741C86.4289 67.8296 86.299 68.4577 86.014 69.0143C85.8531 69.3269 85.5448 69.5579 85.286 69.8191C85.2309 68.886 85.5366 68.062 85.9029 67.2121C86.4904 65.8776 86.98 64.4917 87.4325 63.1013C87.5897 62.6158 87.5187 62.0589 87.5522 61.5344C86.6001 61.6558 86.2694 62.3551 86.2445 63.1615C86.2197 64.0409 85.7516 64.5935 85.1712 65.1239C84.956 64.8684 84.666 64.741 84.3846 64.9686C83.1316 66.0228 81.7233 66.9326 81.1716 68.6185C81.0589 68.9524 80.717 69.2059 80.4605 69.485C80.3076 68.9295 80.1445 68.3661 79.9111 67.5379C79.2251 68.529 78.7069 69.2614 78.1989 70.0016C77.6293 70.8318 77.1103 71.7012 76.4799 72.4844C75.928 73.1663 75.9677 74.2657 74.8627 74.7625C74.7705 74.254 74.5831 73.858 74.6699 73.5366C74.8514 72.8837 75.1666 72.2776 75.4335 71.6503C75.2124 71.7058 74.9125 71.7167 74.8567 71.8516C74.0814 73.5021 72.8574 74.9269 72.3755 76.7317C72.6211 76.5818 72.8768 76.4396 73.0998 76.256C73.5627 75.8775 74.0454 75.7977 74.5772 76.0312C74.6859 76.3824 74.8137 76.7403 74.8954 77.095C74.9748 77.4317 74.5198 77.8001 74.9845 78.1516C75.2323 78.0196 75.4892 77.8864 75.7539 77.7432C75.9342 77.0812 76.0346 76.3656 76.342 75.7696C76.5097 75.4379 77.0484 75.2962 77.5799 74.9546C77.1162 74.1101 77.7601 73.3617 78.312 72.6068C78.5683 72.2546 78.9067 71.9742 79.2238 71.669C79.0326 72.4601 78.8402 73.2423 78.658 74.0322C79.2532 74.0476 79.6792 73.7377 80.0049 73.2854C80.4616 72.6431 80.8777 71.9693 81.3343 71.3269C81.6052 70.9456 81.8974 70.5888 82.5651 70.385C82.6155 70.7802 82.7679 71.1168 82.6662 71.3214C82.3074 72.0152 81.88 72.6722 81.4414 73.3122C81.1336 73.7622 80.6673 74.1138 80.4181 74.5928C80.2638 74.8863 80.2373 75.5377 80.4185 75.6698C81.7494 76.6593 81.4989 77.9874 81.3315 79.3231C81.3051 79.5455 81.3899 79.7811 81.4311 80.1045C82.0514 79.8155 82.5932 79.5547 83.144 79.2928C81.5855 81.244 80.0293 83.2132 78.4517 85.1577C77.1036 86.8265 75.4357 88.1344 73.6846 89.3617C72.8381 89.9534 71.3028 89.9392 71.5506 91.5962C70.8676 91.9663 70.2243 92.5047 69.4981 92.6794C68.7102 92.8711 68.0889 93.2242 67.4723 93.6861C67.818 93.6055 68.0722 93.7374 67.8283 94.1154C66.526 96.1434 64.509 96.574 62.285 96.456C61.3335 95.8653 60.48 96.3301 59.6026 96.6793C58.8722 96.9641 58.1181 97.2063 57.253 97.5083C57.7855 97.6047 58.1979 97.689 58.6091 97.7644C58.5892 97.8947 58.6018 97.9935 58.5682 98.016C56.3236 99.0963 54.1705 100.393 51.5913 100.567C50.6503 100.632 49.7197 100.778 48.7856 100.897C48.1299 100.981 47.6434 101.317 47.3551 101.919C46.3936 102.325 45.511 101.917 44.6053 101.686C43.8501 101.49 43.1612 101.313 42.3991 101.921C41.5708 102.584 40.4341 102.546 39.4466 102.389C37.7321 102.115 36.2216 103.01 34.5843 103.055C33.9655 103.07 33.8209 104.083 32.9801 103.788C32.7227 103.703 32.1289 104.271 32.0062 104.168C31.6686 103.883 31.3518 103.832 30.9474 103.81C29.9354 103.748 28.9242 103.548 27.9158 103.585C27.3071 103.608 26.9083 103.559 26.4905 103.073C26.2123 102.753 25.7187 102.533 25.2896 102.46C24.0593 102.261 22.9601 101.442 21.631 101.685C21.4345 101.719 21.1703 101.579 20.9723 101.458C19.4967 100.551 18.0456 99.6226 16.3119 99.2686C15.9647 99.1942 15.6393 98.8615 15.3837 98.5746C14.3566 97.3912 13.3373 96.1976 12.3763 94.9602C11.8963 94.3459 11.524 93.6449 11.1618 92.9518C11.0422 92.7297 11.1021 92.4117 11.058 91.8514C12.1141 92.4744 12.7257 93.1905 13.3652 93.8392C14.0474 94.5372 14.7044 94.5355 15.5014 93.9137C16.4531 94.5773 17.0905 96.212 18.5811 94.9449C19.172 95.4994 19.6189 95.9262 20.085 96.3597C20.5182 96.2496 20.9591 96.0565 21.3982 96.0644C21.8475 96.0802 22.3018 96.3508 22.7435 96.0207C22.651 97.2282 23.1126 98.1278 24.1854 98.7394C24.6578 99.0078 25.0497 99.4325 25.5409 99.6346C25.8209 99.754 26.2258 99.5655 26.7894 99.4754C26.4138 98.8204 26.041 98.4025 25.9152 97.9165C25.796 97.4114 25.9159 96.8485 25.9403 96.2521C26.2732 95.9997 26.6398 95.7248 27.0142 95.4397L26.9828 95.4802C27.5267 95.5934 28.1808 95.7839 28.4476 95.1566C28.7883 94.392 29.1725 93.5398 28.5999 92.7001C28.3768 92.3817 28.1076 92.06 27.7971 91.844C26.446 90.9118 25.0546 90.0213 23.6969 89.1082C23.3875 88.9012 23.1072 88.6357 22.8214 88.3984C22.8124 88.3995 22.7384 88.4637 22.791 88.3748L22.8304 88.3972C22.6766 87.9787 22.515 87.5703 22.3635 87.1697C22.7848 86.7509 23.0754 87.0972 23.4025 87.229C24.258 87.5671 25.1066 87.8514 25.8728 87.06C25.8694 87.0331 25.8277 86.9928 25.8975 87.0387L25.8739 87.069C26.155 87.1975 26.4271 87.3271 26.7768 87.4924C26.6808 87.742 26.6477 87.9835 26.5099 88.1198C26.1716 88.4732 26.1893 88.8269 26.4597 89.1576C26.9226 89.7101 27.5444 90.0051 28.3794 90.2546C28.5052 89.8096 28.7648 89.4114 28.6665 89.1409C28.4561 88.5653 28.1111 88.0069 27.7304 87.526C26.5768 86.0667 25.3828 84.6489 24.2035 83.202C24.4378 83.0352 24.5956 82.8416 24.6721 82.8684C25.3061 83.1162 25.9491 83.3628 26.5328 83.7173C26.661 83.7923 26.5476 84.2631 26.5394 84.5562L26.5371 84.5383C26.7629 85.0206 26.9225 85.5571 27.2234 85.9842C28.0427 87.112 28.9202 88.1958 29.8057 89.3425C30.1913 89.5033 30.7121 88.9349 31.1531 89.6728C31.7575 90.691 32.9517 90.8217 34.021 90.9045C34.3074 90.9318 34.6475 90.3773 34.9634 90.0632C35.6855 90.5006 36.441 90.8424 36.8217 91.7522C37.1256 92.4893 37.7615 93.0381 38.722 92.6965C38.7916 92.6694 38.9106 92.6725 38.9433 92.714C39.7408 93.6711 40.4737 93.0483 41.2114 92.5343C42.0804 93.3363 43.0108 93.5463 44.0584 93.0293C44.6417 92.7359 45.2157 92.7996 45.8721 93.008C46.9185 93.3401 48.0284 93.4542 48.9358 92.5536C48.5816 92.3523 48.2946 92.1059 48.6417 91.6783C48.8701 91.3936 49.1896 91.1794 49.7825 90.6749L47.097 91.0172C47.7556 90.3126 48.4377 90.0066 49.3555 90.1177C50.0138 90.1981 50.7625 90.057 51.3987 89.8207C52.2694 89.4907 53.0208 89.0845 54.0535 89.3089C54.6254 89.4276 55.3642 88.9227 55.9947 88.6415C57.1165 88.1333 58.2225 87.5725 59.3307 87.0296L59.2994 87.0701C59.9914 86.6989 60.7375 86.3938 61.363 85.9307C61.8641 85.5656 62.3596 85.6576 62.8796 85.6552C62.2546 86.3373 61.6397 87.0273 61.0046 87.7015C60.6103 88.1169 60.645 88.5324 60.9673 88.9842C61.9449 89.2064 62.7118 88.707 63.1379 87.9681C63.6099 87.1595 64.2939 86.7254 64.9956 86.2161C65.7479 85.6729 66.4313 85.0198 67.2304 84.3429C66.9643 83.9022 66.7782 83.5882 66.5921 83.2742C66.2842 82.7202 66.3806 82.1876 66.7995 81.7509C68.0497 80.4596 69.2164 79.0148 71.1592 79.0044C72.0689 77.6197 70.5421 76.9563 70.4233 75.6663C71.1642 74.1753 71.9596 72.4674 72.863 70.8188C74.1219 68.5224 75.1393 66.1929 75.4101 63.5205C75.6262 61.421 76.2681 59.3676 76.72 57.2563C76.5045 56.8548 76.0692 56.5908 76.1282 55.9079C76.4337 52.2909 75.582 48.9036 73.8807 45.725C73.6279 45.2461 73.336 44.8178 72.6408 44.8061C72.2938 44.8047 71.9179 44.5057 71.6063 44.2808C68.6361 42.1037 55.0593 42.931 51.5476 42.9498C50.5537 42.9578 49.9451 43.4827 49.5099 44.1497C47.9735 44.5555 46.6751 44.0365 45.4699 43.533C45.0745 43.9394 44.7765 44.2512 44.3564 44.679C44.054 44.0968 43.8486 43.7032 43.6219 43.2848C43.1864 43.3769 42.7508 43.4689 42.2614 43.5678C42.2684 43.1927 42.2677 42.9007 42.2746 42.5256L40.604 42.7386C40.4164 42.2696 40.2694 41.832 40.0797 41.418C39.8166 40.8583 39.6488 40.186 39.2221 39.7748C38.4004 38.9851 38.2129 38.0871 38.308 37.0436C39.2161 36.8639 40.1479 36.7269 41.0402 36.4944C42.0211 36.2416 42.7429 35.6749 42.7838 34.4922C43.4303 34.3368 44.0229 34.1882 44.7839 33.9999C44.9646 33.484 45.2395 32.9196 45.3458 32.3218C45.4755 31.6207 45.8652 31.1694 46.4508 30.894C47.2932 30.4854 48.1535 30.0744 49.0378 29.7792C50.4393 29.3175 61.6607 27.4122 62.5777 26.3004C63.179 25.5757 63.8434 24.9159 64.4762 24.2237C64.6285 24.0582 64.9055 23.8678 64.9017 23.6948C64.8843 22.5561 65.9079 21.8505 66.0096 20.7149C66.0936 19.7275 66.6304 18.7828 66.8413 17.7884C66.9501 17.2817 66.8891 16.6596 66.6824 16.184C66.5254 15.8115 66.0582 15.369 65.6875 15.325C64.0024 15.1382 62.3521 15.3669 61.0196 16.5134C60.3618 17.0811 60.0742 17.9757 59.0146 18.1839C48.4169 19.3251 48.1045 20.1681 47.7306 20.6722C47.5437 20.9242 47.3658 21.1751 47.1095 21.5272C46.6203 21.2701 46.1514 21.0287 45.633 20.7571C44.5668 21.0573 44.1558 21.9859 43.865 22.9266C43.0207 23.0343 42.3145 23.0787 41.6297 23.2208C40.5533 23.4401 39.4418 23.6001 38.4445 24.0102C37.143 24.5412 36.0532 24.3698 34.8678 23.663C33.6025 22.9024 32.6321 21.9491 32.0571 20.5894C31.8741 20.1563 31.69 19.7143 31.4218 19.3286C31.1648 18.9598 30.7979 18.6597 30.4838 18.3437C30.6746 17.8357 31.0969 17.8548 31.4799 17.8516C32.2177 17.8397 31.8145 16.8962 32.1928 16.8571C33.6614 16.7064 33.1357 15.7329 33.0888 14.9356C33.0796 14.8638 33.1142 14.7772 33.123 14.7031L33.0839 14.7537L33.0287 14.6786L33.1141 14.7042C33.275 14.3916 33.4427 14.0599 33.6841 13.591C34.2457 13.6289 34.9174 13.6711 35.4509 13.7035C37.2954 12.0626 38.9015 10.2697 40.8469 8.99023C43.2385 7.41658 45.7042 5.85173 59.0431 5.09124C60.5304 5.23022 62.1018 4.88383 63.6286 4.68916C63.9699 4.64565 64.3421 4.34264 64.5716 4.06692C64.9837 3.57626 65.4865 3.43914 66.0506 3.56803C67.0293 3.79922 68.0459 3.8978 68.9078 4.57288C69.4254 4.98153 70.1468 5.12688 70.782 5.38362C70.754 5.88008 70.5168 6.23891 70.0377 6.41865C70.2842 7.13568 70.8342 7.4398 71.5498 7.54024C72.3856 7.65274 73.1331 7.93167 73.5473 8.74599C74.1919 8.28957 74.2666 7.58636 74.3424 6.89212C74.6114 7.14078 75.0117 7.34532 75.1045 7.64382C75.4 8.60106 75.627 9.5944 75.7811 10.5879C75.8941 11.3311 76.1653 12.0267 76.7099 12.4319C77.9081 13.3106 77.9274 14.3213 77.3767 15.5142C77.7116 15.6358 78.1116 15.6943 78.3682 15.9172C78.7857 16.2565 79.1091 16.7172 79.4718 17.1274L79.5031 17.0869C79.5797 17.1866 79.6563 17.2864 79.7251 17.3963C79.6407 17.3067 79.5574 17.226 79.4819 17.1352C79.1644 17.7234 78.848 18.3205 78.4736 19.0345C78.884 19.2469 79.1538 19.3585 79.3844 19.5208C79.8378 19.8555 79.8817 20.3428 79.5975 20.7624C78.5367 22.3216 77.4646 23.8639 76.3542 25.3928C75.5148 26.5404 75.4945 26.5247 75.2912 27.865C74.7939 27.9741 74.1406 27.6466 73.8718 28.402C73.9551 28.9116 74.4234 28.9341 74.7762 28.9804C76.2254 29.179 77.4085 29.8679 78.5674 30.7242C79.9389 31.745 81.4369 32.6128 82.879 33.5425C83.1467 33.7092 83.4715 33.823 83.6652 34.0538C85.1698 35.7606 86.6901 37.447 88.1129 39.2281C88.6345 39.8826 88.9364 40.7478 89.2484 41.5477C89.5987 42.4341 89.9656 43.2362 90.75 43.8755C91.7267 44.6637 91.9253 45.9346 92.0269 47.0899L92.0753 47.1111ZM73.7511 9.4137C73.8304 9.67743 73.9018 9.95128 73.999 10.2127C74.0137 10.2565 74.1845 10.3077 74.1924 10.2976C74.2606 10.1885 74.3904 9.98938 74.3577 9.94791C74.1776 9.75182 73.9649 9.58725 73.7511 9.4137ZM46.9562 15.8146C46.8987 15.7216 46.6783 15.6401 46.592 15.6785C46.4977 15.727 46.3972 15.9407 46.4266 16.0282C46.5351 16.3064 46.6941 16.5509 46.8373 16.8156C47.2297 16.5282 47.1648 16.1623 46.955 15.8056L46.9562 15.8146ZM68.4241 41.3001C68.4916 41.328 68.568 41.3548 68.6354 41.3827C68.6152 41.367 68.5938 41.3424 68.5735 41.3267C68.5342 41.3044 68.4713 41.3124 68.4241 41.3001ZM62.573 9.72528C62.8668 10.0255 63.1697 10.3246 63.4647 10.6339C63.5206 9.64097 63.5116 9.64211 62.573 9.72528ZM58.4756 12.7395C58.7621 12.7669 59.0667 12.865 59.3327 12.8037C59.519 12.7616 59.6509 12.5075 59.7965 12.3612C59.7446 12.24 59.732 12.1412 59.6813 12.102C59.3325 11.7996 58.9562 11.7837 58.655 12.1416C58.5374 12.2935 58.5324 12.5406 58.4858 12.7473L58.4756 12.7395ZM61.9804 14.4559C61.2375 14.2129 60.4754 13.9632 59.465 13.6265C59.1587 14.2315 58.895 14.7397 58.5966 15.3346C60.0144 15.5737 61.0057 14.9727 61.9793 14.4469L61.9804 14.4559ZM68.0771 12.9484C68.0122 12.5824 67.9565 12.2883 67.8929 12.0044C67.6729 12.0689 67.369 12.2628 67.2487 12.1778C66.6873 11.7838 66.2121 11.2785 65.653 10.9025C64.995 10.4662 64.1603 11.2937 63.4872 10.6675C62.7909 10.6468 62.1024 10.6159 61.406 10.5951C61.0949 10.5892 60.7815 10.5652 60.4762 10.6042C60.3684 10.6179 60.2273 10.8002 60.2153 10.9204C60.2043 11.0496 60.297 11.2751 60.3925 11.3085C60.6792 11.4089 60.9971 11.4688 61.3082 11.4747C62.0136 11.4943 61.6651 12.269 62.188 12.5765C64.0464 12.4765 65.9398 13.7959 68.067 12.9406L68.0771 12.9484ZM68.0653 7.19953C68.4527 6.30126 69.2515 6.40935 70.0163 6.394C69.6641 6.13769 69.3254 5.84315 68.943 5.63633C68.2761 5.2741 67.644 5.32731 67.0928 5.87222C67.122 5.88675 67.1513 5.90127 67.1805 5.9158C67.1446 5.92038 67.1064 5.907 67.0603 5.90374C66.6728 6.80201 67.4827 6.85393 68.0641 7.19054L68.0653 7.19953ZM70.3981 10.9639C70.3159 9.9612 69.619 9.72146 68.3192 9.54945C68.9999 10.5215 69.1863 11.4105 70.266 11.145C70.3289 11.137 70.4061 11.0268 70.4071 10.9627L70.3981 10.9639ZM16.3438 96.7271C16.2999 96.6688 16.2649 96.6094 16.2221 96.56C16.1616 96.586 16.0909 96.6042 16.0213 96.6313C16.0652 96.6896 16.1025 96.767 16.1598 96.7871C16.2082 96.8083 16.2833 96.7531 16.3438 96.7271ZM30.0192 92.5921C30.0043 92.4754 29.9434 92.3554 29.8914 92.2342C29.8154 92.3534 29.7213 92.4749 29.7003 92.5963C29.6859 92.6985 29.8097 92.8105 29.8684 92.9126C29.9187 92.8058 30.0228 92.6921 30.0181 92.5831L30.0192 92.5921ZM30.7929 92.0736C30.5634 91.9203 30.344 91.7749 30.1145 91.6216C30.0465 91.8037 29.9874 91.9846 29.9205 92.1757C30.2079 92.1391 30.4965 92.1114 30.7929 92.0736ZM38.9687 95.2756C37.1076 94.2806 35.4029 92.5082 32.9223 93.9563C33.1693 94.3903 33.3084 94.765 33.5527 95.0351C33.8714 95.3869 34.2345 95.0851 34.6106 95.028C35.2921 94.932 35.9964 95.0156 36.6872 95.0644C37.451 95.1131 38.2014 95.2 38.9597 95.2767L38.9687 95.2756ZM50.776 91.8808C49.958 92.195 49.4891 92.3826 49.0189 92.5612C49.583 92.6901 50.0826 92.599 50.776 91.8808ZM53.4529 91.2566C53.326 91.2636 53.1969 91.2527 53.0812 91.2766C53.0633 91.2789 53.0839 91.4405 53.0864 91.5315C53.2098 91.4975 53.3434 91.4713 53.4567 91.4295C53.4747 91.4272 53.4609 91.3194 53.4541 91.2655L53.4529 91.2566ZM59.1987 89.0727C59.2289 89.0232 58.9509 88.7757 58.693 88.4709C58.4737 88.8274 58.2733 89.0447 58.2065 89.3088C58.182 89.4032 58.5691 89.7189 58.5938 89.6975C58.827 89.5217 59.0567 89.319 59.2077 89.0716L59.1987 89.0727ZM71.2683 10.9168C71.7311 11.3964 72.0284 11.7236 72.357 12.0103C72.4279 12.0651 72.676 12.0061 72.7656 11.9217C72.8541 11.8282 72.9277 11.618 72.8859 11.5047C72.6712 10.9662 72.3758 10.5109 71.2683 10.9168ZM76.259 45.6226C76.2419 45.4879 76.2247 45.3532 76.2075 45.2184C76.2052 45.2005 76.0963 45.2052 76.0401 45.1941C76.0573 45.3289 76.0745 45.4636 76.1276 45.5937C76.131 45.6207 76.2309 45.6171 76.2692 45.6305L76.259 45.6226ZM83.4886 44.9108C83.2669 43.8164 83.1419 43.1934 83.0157 42.5614C82.3742 43.4008 82.6586 43.9852 83.4886 44.9108ZM84.9821 37.0806C85.1348 37.4901 84.9835 38.0936 85.733 38.2445C85.8458 37.5547 85.3557 37.3616 84.9821 37.0806ZM86.4985 58.2094L86.3513 58.2007L86.4258 58.3555L86.5075 58.2082L86.4985 58.2094ZM85.4661 49.3959C85.3727 49.3074 85.2871 49.2088 85.1948 49.1293C85.1948 49.1293 85.1051 49.2138 85.0469 49.2577C85.1403 49.3462 85.2259 49.4448 85.3271 49.5232C85.3271 49.5232 85.4168 49.4387 85.4661 49.3959ZM89.0349 53.4043C88.4443 52.5669 88.3725 51.645 88.5431 50.6922C88.8466 48.9923 88.4339 47.402 87.7552 45.8729C87.4492 45.1908 87.2534 44.586 87.5706 43.8519C87.9234 43.0402 87.6025 42.2413 87.1316 41.6259C86.6201 40.9792 85.9092 40.4857 85.2811 39.9268C85.9839 42.5755 86.1018 45.2896 86.3555 47.9955C86.5228 49.8089 86.4755 51.5857 86.3406 53.3919C86.2679 54.396 86.3524 55.4167 86.3896 56.4251C86.4022 56.5239 86.5968 56.6178 86.6789 56.6894C87.2824 56.8407 87.329 55.7029 88.1917 56.241C88.1387 56.6128 88.2074 57.1517 87.9723 57.4555C87.3207 58.2871 87.3431 59.1787 87.4735 60.1296C87.5296 60.5697 87.5599 61.0222 87.6071 61.4635C88.2324 60.9274 88.4294 60.1812 88.551 59.4172C88.7655 58.0207 88.9417 56.6109 89.2033 55.2266C89.3219 54.5817 89.435 53.9649 89.0349 53.4043ZM79.262 71.6824C79.262 71.6824 79.3113 71.6396 79.327 71.6194L79.2775 71.5892C79.2775 71.5892 79.2586 71.6555 79.253 71.6836L79.262 71.6824ZM74.5952 76.0289C74.5952 76.0289 74.5963 76.0378 74.5975 76.0468C74.6065 76.0457 74.6154 76.0445 74.6256 76.0524L74.5851 76.021L74.5952 76.0289ZM74.3783 6.88754L74.3985 6.90322C74.3963 6.88525 74.394 6.86729 74.4007 6.84818L74.3682 6.87971L74.3783 6.88754ZM15.2153 92.6723C15.2153 92.6723 15.2153 92.6723 15.2142 92.6633C15.2052 92.6644 15.1939 92.6476 15.1838 92.6398L15.2243 92.6711L15.2153 92.6723ZM11.6261 89.5062C13.3669 89.9871 14.3717 91.2099 15.2142 92.6633C15.8442 93.0941 16.4843 93.5328 17.2346 94.0487C17.3759 93.5104 17.4683 93.1609 17.5528 92.8215L17.5944 92.8618L17.5898 92.8259C17.5704 92.6732 17.5509 92.5205 17.5326 92.3768L17.5269 92.3319L17.4955 92.3724C17.2651 91.8541 16.6543 91.43 16.967 90.733C17.9554 90.753 18.4828 91.9545 19.5826 91.6317C19.5482 91.3623 19.5947 91.0825 19.4866 90.9503C18.1969 89.4261 16.3677 88.6096 14.805 87.4488C14.653 87.3313 14.3251 87.3366 14.1243 87.4078C13.267 87.6997 13.1414 86.8577 12.5485 86.4313C11.7985 86.9924 11.0161 87.585 10.0577 88.3005C10.6878 88.8044 11.0968 89.3638 11.6363 89.5141L11.6261 89.5062ZM16.0435 85.9948C15.5205 85.6873 15.2632 85.1724 15.3651 84.6117C15.4537 84.0893 15.9429 83.9174 16.4493 83.8802C16.602 83.8608 16.7637 83.8402 16.9253 83.8195C17.1454 84.257 17.3353 84.7439 17.6249 85.1543C17.901 85.5298 18.2768 85.8287 18.6347 86.13C19.5226 86.8656 20.5527 87.428 20.7548 88.7987C20.8256 89.2826 21.5802 89.6884 22.0518 90.0938C22.5233 90.4992 23.0587 90.8326 23.5134 91.2492C23.7003 91.4262 23.7415 91.7495 23.8602 92.0356C23.5672 92.1003 23.3788 92.1974 23.2899 92.1448C21.8322 91.2354 20.3577 90.3372 18.9458 89.358C18.1842 88.8253 17.4291 88.2005 17.349 87.1427L17.3244 87.1641C17.3015 86.9845 17.2797 86.8139 17.2568 86.6342L17.2861 86.6487C16.8666 86.4375 16.4484 86.2353 16.0435 85.9948ZM17.2952 86.7206C17.3124 86.8553 17.3296 86.9901 17.3479 87.1338C17.3781 87.0843 17.4083 87.0348 17.4026 86.9899C17.3821 86.9012 17.3336 86.807 17.2952 86.7206ZM65.7091 84.5095C65.819 84.4407 65.9442 84.2057 65.9069 84.1283C65.8099 83.9399 65.6307 83.6798 65.4745 83.6723C65.1892 83.6539 64.8424 83.7255 64.6171 83.8911C64.4175 84.0444 64.36 84.3803 64.2371 84.6333C64.4304 84.7182 64.6339 84.8109 64.8565 84.9103C65.1583 84.7714 65.4467 84.6708 65.7091 84.5095ZM20.2503 82.2638C19.3248 81.3048 19.1272 81.3299 18.0454 82.5814C18.8412 82.8816 18.8435 82.8995 20.2503 82.2638ZM80.192 15.9037C80.2402 15.852 80.3164 15.8057 80.3443 15.7383C80.5508 15.2099 80.3596 14.641 79.9551 14.5465C79.8899 14.5366 79.7934 14.5672 79.7452 14.6189C79.4943 14.87 79.6297 15.5738 79.9954 15.8649C80.046 15.9041 80.1268 15.8938 80.192 15.9037ZM80.4462 69.5873C80.4462 69.5873 80.4709 69.5659 80.4877 69.5546C80.4854 69.5366 80.4819 69.5097 80.4707 69.4929C80.4707 69.4929 80.455 69.5131 80.4472 69.5233C80.4506 69.5502 80.4529 69.5682 80.4563 69.5951L80.4462 69.5873ZM79.3169 71.6115C79.3169 71.6115 79.3134 71.5846 79.3112 71.5666C79.2932 71.5689 79.2842 71.5701 79.2662 71.5723L79.3068 71.6037L79.3169 71.6115ZM82.2542 15.1114C82.1709 15.0308 82.0786 14.9512 81.9953 14.8706C81.917 14.9719 81.7847 15.08 81.7715 15.1912C81.7627 15.2654 81.9213 15.3638 82.0136 15.4433C82.0998 15.3319 82.177 15.2217 82.2632 15.1103L82.2542 15.1114ZM18.9831 93.0864C18.6426 92.5639 18.091 92.4608 17.5326 92.3768C17.5521 92.5295 17.5715 92.6822 17.5898 92.8259C18.0572 92.9124 18.5246 92.9988 18.9921 93.0853L18.9831 93.0864ZM19.0482 93.0964C19.0482 93.0964 19.001 93.0841 18.9831 93.0864C18.9943 93.1032 19.0146 93.1189 19.0259 93.1357L19.0572 93.0952L19.0482 93.0964ZM12.9456 84.8928C12.7385 84.7002 12.5933 84.5635 12.4481 84.4269C12.3732 84.5551 12.2174 84.6936 12.2413 84.8092C12.2665 85.0068 12.4084 85.1895 12.5043 85.369C12.632 85.2249 12.7698 85.0887 12.9456 84.8928ZM23.3053 81.0254C23.4278 81.0555 23.5602 81.0203 23.6961 81.0121C23.643 80.882 23.5989 80.7507 23.5133 80.6521C23.4288 80.5624 23.2725 80.482 23.1569 80.5058C23.085 80.515 22.9665 80.7309 22.9937 80.8005C23.0343 80.9048 23.1828 80.9954 23.3053 81.0254ZM23.741 81.0064C23.741 81.0064 23.714 81.0098 23.6961 81.0121C23.6972 81.0211 23.6984 81.0301 23.7007 81.0481L23.7332 81.0165L23.741 81.0064ZM34.6972 90.0515C34.6332 90.0506 34.6422 90.0494 34.6972 90.0515V90.0515ZM34.6972 90.0515C34.7523 90.0536 34.8545 90.068 34.9646 90.0722C34.9735 90.0711 34.9802 90.052 34.9971 90.0407C34.8702 90.0477 34.7523 90.0536 34.6972 90.0515ZM89.1985 63.7798C89.2648 63.7987 89.3447 63.8524 89.3873 63.8288C89.4377 63.7949 89.4443 63.7028 89.4733 63.6444C89.407 63.6254 89.3497 63.6054 89.2834 63.5864C89.2555 63.6539 89.2275 63.7213 89.1985 63.7798ZM19.9178 93.6883C19.8312 93.6537 19.7447 93.6191 19.6682 93.5923C19.6908 93.626 19.7145 93.6686 19.7538 93.691C19.7932 93.7133 19.8639 93.6952 19.9178 93.6883ZM19.717 102.924L19.8515 102.833L19.6987 102.78L19.717 102.924ZM47.3618 101.9L47.3394 101.939C47.4697 101.959 47.6012 101.988 47.7315 102.008C47.6079 101.969 47.4944 101.938 47.3708 101.899L47.3618 101.9ZM70.8078 4.9422C70.8078 4.9422 70.8269 4.94889 70.8371 4.95672C70.8359 4.94774 70.8336 4.92978 70.8325 4.9208L70.809 4.95118L70.8078 4.9422ZM70.828 5.38688L70.8775 5.41708C70.8752 5.39911 70.8729 5.38115 70.8695 5.35421C70.8515 5.3565 70.8448 5.3756 70.8269 5.37789L70.828 5.38688ZM70.8269 4.94889C70.8441 5.08361 70.8613 5.21834 70.8695 5.35421C70.9782 5.27645 71.087 5.19869 71.1969 5.12991C71.0709 5.07295 70.9529 5.00585 70.8269 4.94889ZM38.308 37.0436L38.3405 37.0121C38.3382 36.9941 38.3179 36.9784 38.3067 36.9616C38.3101 36.9885 38.3135 37.0155 38.3091 37.0526L38.308 37.0436ZM38.2794 36.819C38.2545 36.7674 38.1871 36.7395 38.1365 36.7003C38.1928 36.7844 38.2492 36.8685 38.3055 36.9526C38.2998 36.9077 38.3019 36.8527 38.2872 36.8089L38.2794 36.819ZM22.7871 95.933L22.7412 96.0027C22.7412 96.0027 22.7412 96.0027 22.7424 96.0117L22.7871 95.933ZM19.5962 93.5285L19.5727 93.5589C19.6019 93.5734 19.63 93.579 19.6593 93.5935C19.6379 93.5688 19.6176 93.5532 19.6052 93.5274C19.4229 93.3863 19.2406 93.2453 19.0584 93.1042L19.0259 93.1357C19.2081 93.2768 19.3904 93.4178 19.5727 93.5589C19.5727 93.5589 19.5884 93.5386 19.5962 93.5285ZM20.8794 92.4248L20.8974 92.4225L20.8186 92.3778L20.8794 92.4248ZM15.2064 92.6734L15.1658 92.6421L15.1121 92.7219C15.1121 92.7219 15.2052 92.6644 15.2064 92.6734ZM83.5633 75.351L83.5937 75.3745C83.7258 75.1934 83.8579 75.0122 83.9911 74.8401L83.9596 74.8076C83.8275 74.9887 83.6954 75.1698 83.5633 75.351ZM79.1168 70.6148L79.1877 70.6696L79.1966 70.6685C79.2356 70.9738 79.2734 71.2702 79.3123 71.5756C80.4314 71.3325 80.4686 70.4789 80.4473 69.5962C80.0282 69.96 79.6169 70.3137 79.1978 70.6775L79.1179 70.6237L79.1168 70.6148ZM67.4064 5.96916C67.3322 5.96035 67.2491 5.9527 67.175 5.94389C67.2042 5.95842 67.2334 5.97295 67.2627 5.98748C67.3099 5.99971 67.3615 5.97488 67.4153 5.96801L67.4064 5.96916Z" fill="white"/>
</g>
<defs>
<clipPath id="clip0_2020_810">
<rect width="86.5864" height="95.5954" fill="white" transform="translate(0.302612 11.8592) rotate(-7.26567)"/>
</clipPath>
</defs>
</svg>
