<svg width="62" height="112" viewBox="0 0 62 112" fill="none" xmlns="http://www.w3.org/2000/svg">
<g clip-path="url(#clip0_0_3314)">
<path d="M18.9107 64.9874C18.9107 64.9874 19.0051 64.977 19.0576 64.9665C19.0156 64.9874 18.9842 65.0084 18.9422 65.0188L18.9107 64.9874ZM61.5383 27.1975C60.6148 30.941 59.2716 34.5485 57.7499 38.0723C56.4486 41.0733 55.2313 44.0744 54.5491 47.2845C54.1923 48.9994 53.5732 50.6515 53.1324 52.3455C52.3559 55.3256 51.6318 58.3266 50.8972 61.3172C50.8237 61.6309 50.6768 62.0178 50.7817 62.2897C51.7157 64.7156 50.8972 67.0788 50.5613 69.4629C50.5403 69.6092 50.4354 69.7556 50.278 70.0902C49.8477 68.459 50.341 66.8801 49.8897 65.3743C48.7878 65.9285 48.4835 66.3468 48.7668 67.2983C48.9872 68.0408 49.1656 68.7309 49.0292 69.4942C48.8403 70.5608 48.6619 71.6274 48.515 72.7044C48.1267 75.4335 47.7804 78.1627 47.3711 80.8814C47.2661 81.6238 47.0877 82.3662 46.8359 83.0668C45.9754 85.43 45.4716 87.8768 45.0833 90.355C44.5586 93.6488 43.9185 96.9322 43.3728 100.226C43.2154 101.188 43.2049 102.181 43.1209 103.175C42.2919 103.164 42.8061 102.255 42.3863 102.119C41.7147 101.899 41.4733 101.481 41.4733 100.822C41.4733 100.32 41.3894 99.8182 41.4209 99.3163C41.5048 98.1556 41.6517 96.9949 41.7672 95.8343C41.8406 95.0918 41.9246 94.339 41.9666 93.5965C42.04 92.3418 42.082 91.0974 42.1554 89.8426C42.2289 88.6924 42.3338 87.5422 42.4388 86.2979C41.6622 86.6534 41.5993 87.2181 41.5363 87.7932C41.2005 90.7837 40.8437 93.7638 40.5079 96.7544C40.3924 97.821 40.277 98.8876 39.7313 99.8496C39.5424 99.7032 39.3745 99.5672 39.0072 99.264C39.1541 100.069 39.1016 100.812 39.4269 101.293C40.319 102.641 40.193 103.959 39.6473 105.36C39.1016 105.58 38.5664 105.799 38.0942 105.988C37.6639 107.912 38.4405 109.856 37.6429 111.822C36.5305 111.331 36.1632 110.369 35.586 109.616C34.799 109.773 35.2292 110.683 34.6835 110.975C34.1483 111.279 33.6971 111.08 33.4872 110.557C33.1829 109.794 32.8471 108.999 32.7841 108.194C32.6687 106.709 32.7421 105.214 32.7841 103.729C32.7841 103.53 33.0569 103.342 33.2773 103.049C34.3162 103.875 33.5712 105.381 34.5786 106.207C35.3657 105.778 35.5231 105.099 35.5126 104.325C35.5126 103.405 35.5126 102.495 35.5126 101.575L35.4811 101.606C35.628 101.324 35.8904 101.042 35.9219 100.749C36.1317 98.5216 36.2997 96.2943 36.4886 94.0775L36.4466 94.1089C36.4466 94.088 36.4466 94.0566 36.4466 94.0357C36.4466 94.0357 36.4676 94.0566 36.4781 94.0671C36.6565 93.7116 37.0028 93.3247 36.9293 93.0214C36.4886 91.0138 37.3176 89.0898 37.2651 87.103C37.2231 85.5346 37.433 83.9556 37.3911 82.3871C37.3491 80.6409 37.3386 78.9156 37.7898 77.2007C38.0627 76.155 37.9682 75.9355 37.3281 73.9592C36.8559 75.3185 36.4571 76.5524 36.4256 77.8908C36.4046 79.2815 36.0478 80.6095 35.3867 81.8329C35.5336 79.5534 35.733 77.2843 35.7749 75.0048C35.7959 73.771 35.628 72.4743 34.6101 71.5646C34.0749 71.0941 33.7601 70.5922 33.6446 69.8916C33.4557 68.8145 32.6896 68.3963 31.6507 68.3963C31.147 68.3963 30.6433 68.459 30.15 68.3963C29.7722 68.344 29.4259 68.114 28.7543 67.8316C30.4229 66.9219 32.102 67.2147 33.5712 66.6187C32.1964 65.4894 32.0705 65.4371 30.9266 65.6567C30.4334 65.7508 29.9716 65.9704 29.4784 66.0331C29.1006 66.0854 28.7018 65.9808 27.8833 65.9076C28.7648 65.4789 29.237 65.2175 29.7303 65.0188C30.1605 64.8515 30.6118 64.7679 31.0945 64.6424C30.9686 64.4333 30.9266 64.3078 30.8951 64.3078C30.0136 64.3914 29.0796 64.3496 28.2611 64.6215C26.8548 65.0711 25.5011 65.0711 24.0844 64.7783C23.2868 64.611 22.4368 64.6424 21.6182 64.6842C20.7577 64.726 19.8972 64.862 19.0366 64.977C19.8972 64.5587 20.7577 64.1509 21.6707 63.7118C21.7651 63.3667 21.8701 62.9798 21.996 62.4988C22.2164 62.5197 22.5312 62.457 22.6362 62.572C23.3393 63.419 23.9269 63.0216 24.651 62.3838C24.5986 61.9341 24.5356 61.4113 24.4936 60.9721C25.2597 60.2611 25.9838 61.1081 26.7604 60.7316C27.1907 60.5225 27.9777 61.0767 28.6179 61.1917C29.0062 61.2649 29.6253 61.3277 29.8142 61.1081C30.6642 60.1147 31.7557 60.3866 32.8051 60.3761C32.9835 60.6375 33.1619 60.9094 33.3403 61.1708C34.2533 60.7107 35.1453 60.2925 35.9848 59.801C36.1947 59.6755 36.2367 59.2677 36.4151 58.8704C35.6385 58.6508 35.0194 58.473 34.4107 58.3057C34.4317 58.0757 34.3897 57.8247 34.4737 57.7724C35.7645 56.9045 36.8349 56.9568 37.9892 57.9188L37.9682 57.8875C38.2201 57.3646 38.5979 56.8732 38.7133 56.319C39.4269 52.8892 40.1825 49.4595 40.7177 45.9984C41.064 43.7816 41.148 41.523 41.7042 39.3271C42.7956 35.0399 43.824 30.7318 44.9154 26.4446C45.5976 23.7782 46.3846 21.1327 47.0458 18.4558C47.2347 17.6821 47.1297 16.8351 47.1717 15.894C48.4415 15.7581 49.0187 14.7961 49.5224 13.5099C50.0051 12.3074 50.8762 11.2304 51.6842 10.1847C52.2614 9.44231 53.0275 8.92994 54.0874 9.49459C54.3183 9.62007 54.7171 9.40048 55.0424 9.36911C55.5356 9.32729 55.9764 9.6619 55.9344 10.0488C55.7665 11.6591 56.6165 13.1021 56.564 14.7647C57.0783 15.1307 57.6135 15.4966 58.1172 15.8522C58.3271 15.6849 58.516 15.6117 58.558 15.4966C58.8308 14.6601 58.4635 13.6981 59.0407 12.8302C59.7963 14.0327 60.2265 15.3503 60.237 16.8142C60.237 17.5043 60.3525 18.1108 60.6988 18.7173C62.2099 21.436 62.2309 24.3115 61.5068 27.2393L61.5383 27.1975ZM38.1047 59.6546C37.9577 59.5396 37.8318 59.3723 37.6744 59.32C37.58 59.2886 37.433 59.4559 37.3071 59.5396C37.4225 59.6232 37.5485 59.7069 37.6639 59.7906C37.8108 59.7487 37.9577 59.7069 38.1047 59.6651V59.6546ZM40.4869 86.0365C40.6128 85.4614 40.7492 84.8967 40.8437 84.3216C40.8647 84.1857 40.7597 84.0184 40.7177 83.872C40.5708 83.9452 40.4239 84.0079 40.277 84.0811C40.0671 84.1857 39.8467 84.2798 39.6053 84.3948C38.7973 83.2341 39.7942 81.948 39.2276 80.4631C38.1991 85.0745 37.8633 89.393 37.433 93.7011C37.3911 94.1089 37.412 94.5376 37.475 94.9559C37.6324 96.0329 37.6324 97.0577 37.3071 98.1556C36.9713 99.2954 36.9398 100.55 37.7479 102.244C37.8108 101.104 37.7479 100.519 37.8948 99.9959C38.0837 99.3686 38.3775 98.7307 38.7658 98.2079C39.0596 97.8105 39.5739 97.5805 40.0146 97.2563C39.6683 96.8485 39.406 96.5453 39.1436 96.2421C39.4374 95.4787 40.2035 94.8513 39.7418 93.9207C39.4269 93.9416 39.1121 93.9625 38.6714 93.9939C38.7028 93.5965 38.7448 93.2829 38.7448 92.9692C38.7133 91.7353 39.5424 90.7837 39.8257 89.6753C40.1301 88.4728 39.8257 87.1553 40.5183 86.0156L40.4764 86.0469L40.4869 86.0365ZM43.1104 77.598C42.9845 77.5667 42.8586 77.5458 42.7431 77.5144C42.7221 77.7549 42.7116 77.9849 42.7011 78.2254C42.7011 78.2359 42.8166 78.2568 42.9215 78.2777C42.9845 78.0581 43.0475 77.8281 43.1104 77.598ZM11.5542 61.0349C12.908 63.4922 12.866 63.9104 11.0925 65.343C10.3684 65.0606 9.61279 64.7679 8.85721 64.4751C9.14055 64.0882 9.4134 63.7013 9.7807 63.2098C8.24854 62.9275 7.08368 63.9313 5.583 64.1196C6.05524 64.5587 6.47501 64.9561 6.91577 65.3743C6.3176 67.2879 4.77495 67.6852 3.19032 67.9048C2.06743 68.0617 0.346375 66.535 0.20995 65.2802C0.0210535 63.4608 -0.178337 61.6414 0.241433 59.801C1.16493 55.8066 2.31929 51.9168 3.85145 48.1001C5.34164 44.3672 7.22011 40.8328 9.02512 37.2567C10.0745 35.1654 11.0085 33.0009 12.1839 30.9828C14.0414 27.7935 15.5315 24.437 17.1791 21.1536C18.6798 18.1631 20.1175 15.1516 21.5762 12.1401C21.7966 11.6905 22.0905 11.2199 22.1219 10.7494C22.2584 8.96131 23.5387 7.75881 24.3467 6.33672C24.735 5.6675 25.5536 5.23878 26.2567 4.6323C26.3301 3.97354 26.4141 3.24158 26.5085 2.41551C26.8758 2.14364 27.4425 1.93451 27.6314 1.53716C28.2506 0.240553 29.4574 0.25101 30.5593 0.0314225C31.3464 -0.125426 31.9445 0.324206 31.9236 1.05616C31.9026 1.79858 31.7557 2.54099 31.6087 3.27295C31.4828 3.92126 31.2729 4.54865 31.105 5.16558C31.8116 5.93937 32.987 6.62601 34.6311 7.22552C34.7255 7.41374 34.8095 7.74835 35.0194 7.97839C36.8139 9.93377 36.3626 12.2028 35.7225 14.3569C35.1768 16.1868 34.4212 17.9853 33.4977 19.6583C31.6507 23.0254 29.6358 26.3087 27.6944 29.6234C27.1907 30.4913 26.6764 31.3592 26.2042 32.2376C25.3647 33.7851 24.4097 35.2491 23.2133 36.5561C22.7096 37.0999 22.3633 37.7795 21.954 38.4174C21.4188 39.2644 20.8521 40.0904 20.3694 40.9688C19.8027 41.9831 19.3095 43.0183 18.8582 44.0953C18.1446 45.7788 17.5464 47.661 15.8254 48.738C16.1612 47.8283 16.4865 46.9185 16.8433 46.0193C17.3051 44.8586 17.8088 43.7084 18.2601 42.5477C18.344 42.3386 18.2705 42.0667 18.2705 41.6171C17.9242 41.7426 17.6094 41.7739 17.4205 41.9412C16.4236 42.7987 15.4161 43.6561 14.4926 44.5867C13.5586 45.5278 12.6666 46.5317 11.8271 47.5564C9.24549 50.7352 6.85281 54.0395 5.27867 57.8456C4.90088 58.7554 4.76445 59.7696 4.61753 60.7421C4.41814 62.0701 4.75396 62.4988 5.9608 62.4779C7.12566 62.457 8.322 62.4256 9.45538 62.1746C10.2005 62.0073 10.8616 61.4218 11.5542 61.0349ZM3.10636 63.5444C3.01191 62.9275 2.82302 62.321 2.57116 61.2963C1.92051 62.4151 1.7526 63.0321 2.1304 63.6595C2.23534 63.8372 2.50819 64.0359 2.68659 64.015C2.8545 63.9941 3.12735 63.6908 3.10636 63.5444ZM8.83622 64.496C8.83622 64.496 8.83622 64.4855 8.84671 64.4751C8.83622 64.4751 8.81523 64.4646 8.80474 64.4542L8.83622 64.4855V64.496ZM18.2391 67.7794C17.1896 67.8421 16.1402 67.9676 14.8494 68.1035C14.8914 68.5113 14.8284 68.8459 14.9649 68.9609C15.9303 69.7975 17.8823 69.6197 18.7323 68.6263C18.8162 68.5322 18.8477 68.2708 18.7848 68.1871C18.6483 68.0094 18.4175 67.7689 18.2496 67.7794H18.2391ZM13.7055 66.054C13.2963 66.305 12.866 66.6605 13.3487 67.3506C15.1957 67.9153 16.3711 66.9637 17.2736 65.4371C16.0353 65.3534 14.8074 65.3953 13.716 66.054H13.7055ZM17.2631 65.4371C17.2631 65.4371 17.2946 65.4371 17.3156 65.4371L17.2841 65.4057C17.2841 65.4162 17.2736 65.4266 17.2631 65.4371ZM4.16628 70.749C3.5786 70.2785 2.88598 70.498 2.24583 70.6654C2.08842 70.7072 2.00447 70.979 1.93101 71.0732C2.76005 71.5751 3.51564 72.0352 4.27122 72.4848C4.21875 72.5057 4.17677 72.5266 4.1348 72.5475C4.18727 72.5371 4.25023 72.5266 4.3132 72.5057L4.28172 72.4743C4.80643 71.8574 4.80643 71.2405 4.16628 70.7385V70.749ZM35.0194 3.62847C35.1243 2.58282 34.6835 2.30049 33.1514 2.4678C33.5921 3.3566 34.0224 4.20358 34.6521 5.46882C34.841 4.54865 34.9774 4.09902 35.0194 3.62847ZM33.6446 96.6289C33.4557 98.0301 33.2983 99.1803 33.1409 100.331C34.1483 98.647 34.2008 98.0197 33.6446 96.6289ZM34.4422 93.8266C34.5471 92.7809 34.6416 91.913 34.778 90.5641C34.1413 91.9235 34.0294 93.011 34.4422 93.8266ZM44.0654 105.632C44.0654 105.632 44.0549 105.642 44.0444 105.653C44.0444 105.653 44.0654 105.653 44.0759 105.663V105.632H44.0654ZM42.6487 105.486C42.9215 105.893 42.3234 106.448 42.9215 106.95C43.3098 106.489 43.6771 106.071 44.0339 105.653C43.6246 105.486 43.2888 105.015 42.6487 105.475V105.486ZM35.1978 84.4262C35.9848 83.4642 35.8064 82.7217 35.3867 81.9898C35.1243 82.7113 34.9564 83.4432 35.1978 84.4262ZM35.3867 81.9898C35.3867 81.9898 35.3867 81.9689 35.3867 81.9584C35.3867 81.9166 35.3867 81.8748 35.3867 81.8329C35.3657 81.8643 35.3552 81.8957 35.3447 81.927C35.3552 81.948 35.3657 81.9689 35.3762 81.9793L35.3867 81.9898ZM41.4313 110.933C42.4493 110.128 42.6277 109.637 42.1869 108.644C41.9246 109.438 41.7672 109.93 41.4313 110.933ZM24.798 66.1272C24.8085 66.2527 24.819 66.3782 24.8295 66.5036C25.1023 66.4514 25.3752 66.3991 25.6375 66.3468C25.627 66.2527 25.6165 66.1586 25.606 66.0645C25.3332 66.0854 25.0708 66.1063 24.798 66.1168V66.1272ZM10.4313 67.7898C10.211 67.863 10.0221 67.9989 9.81218 68.114C9.89614 68.2185 10.0011 68.4277 10.064 68.4172C10.2844 68.3858 10.4838 68.2708 10.7147 68.1767C10.5783 67.9989 10.4628 67.7794 10.4209 67.7898H10.4313ZM23.5701 61.7459C23.6331 61.6414 23.6856 61.5472 23.7485 61.4427C23.7066 61.3904 23.6646 61.3381 23.6121 61.2754C23.5492 61.3695 23.4757 61.4636 23.4442 61.5682C23.4337 61.61 23.5282 61.6832 23.5701 61.7355V61.7459ZM34.8619 86.988C34.8619 86.988 34.799 86.8521 34.7675 86.7789C34.7255 86.8416 34.6521 86.9044 34.6416 86.9671C34.6206 87.0403 34.6416 87.1344 34.6521 87.2181C34.7255 87.1449 34.82 87.0821 34.8619 86.9985V86.988ZM13.5271 53.4957C13.6006 53.4434 13.716 53.4121 13.737 53.3493C13.779 53.2448 13.7895 53.1297 13.8 53.0147C13.7265 53.1088 13.6426 53.1925 13.5796 53.2866C13.5376 53.3389 13.5376 53.4225 13.5271 53.4957ZM13.8 53.0147C13.8 53.0147 13.8315 52.9729 13.8525 52.952L13.8105 52.9206C13.8105 52.9206 13.8105 52.9833 13.8 53.0147ZM14.6395 62.7707C14.6395 62.7707 14.65 62.6661 14.6605 62.6138C14.5976 62.6138 14.5241 62.5929 14.4611 62.6138C14.4401 62.6138 14.4401 62.7184 14.4401 62.7707C14.5031 62.7707 14.5766 62.7916 14.6395 62.7707ZM35.67 111.822C35.67 111.875 35.712 111.937 35.7435 112C35.7854 111.948 35.8484 111.906 35.8589 111.854C35.8589 111.801 35.8169 111.739 35.7854 111.676C35.7435 111.728 35.6805 111.77 35.67 111.822ZM17.3995 65.3848C17.8718 65.2593 18.344 65.1443 18.8162 65.0188C18.302 64.977 17.7983 64.9979 17.3995 65.3848ZM17.3261 65.4475C17.3261 65.4475 17.3785 65.4162 17.3995 65.3848C17.368 65.3848 17.3366 65.4057 17.2946 65.4162L17.3261 65.4475ZM18.9527 65.0293L18.9212 64.9979C18.8897 64.9979 18.8582 65.0188 18.8162 65.0293C18.8582 65.0293 18.9107 65.0293 18.9527 65.0293ZM0.335881 67.9989C0.377858 67.863 0.398846 67.7794 0.419835 67.6852C0.356869 67.7062 0.293904 67.7375 0.230938 67.7584C0.262421 67.8212 0.28341 67.8839 0.335881 67.9989ZM4.27122 69.6824C4.29221 69.7556 4.32369 69.8811 4.33419 69.8811C4.47061 69.8497 4.60704 69.8079 4.73297 69.7661C4.71198 69.6929 4.6805 69.5674 4.67 69.5674C4.53358 69.5988 4.40765 69.6406 4.27122 69.6824ZM4.11381 72.5789C4.04035 72.6103 4.05084 72.6103 4.11381 72.5789V72.5789ZM4.14529 72.5684C4.1348 72.5684 4.1243 72.5685 4.11381 72.5789C4.1243 72.5789 4.1243 72.5789 4.14529 72.5684ZM4.14529 72.5684C3.99837 72.5998 4.04035 72.5894 4.14529 72.5684V72.5684ZM36.2682 93.2201C36.1842 93.3351 36.0058 93.5129 36.0373 93.5652C36.1422 93.7429 36.2997 93.8789 36.4466 94.0357C36.4466 93.8161 36.4466 93.607 36.4256 93.3979C36.4256 93.3351 36.3206 93.2829 36.2682 93.2306V93.2201ZM15.689 49.1458C15.7204 49.0517 15.7519 48.9367 15.7939 48.8112C15.7939 48.7798 15.8149 48.7589 15.8254 48.7275C15.8044 48.738 15.7834 48.7589 15.7624 48.7694C15.7414 48.9053 15.7099 49.0308 15.689 49.1353V49.1458ZM13.8525 52.952C13.9994 52.586 14.1463 52.22 14.2932 51.854L14.2512 51.8122C14.1043 52.1782 13.9574 52.5546 13.8105 52.9206L13.8525 52.952ZM32.7841 58.2534H32.6162L32.6896 58.4207L32.7841 58.2534ZM8.46892 64.611C8.55287 64.5692 8.63683 64.5378 8.72078 64.496C8.67881 64.496 8.64732 64.496 8.60535 64.496C8.55287 64.5065 8.5109 64.5692 8.45843 64.611H8.46892ZM8.80474 64.4542C8.80474 64.4542 8.75227 64.4751 8.72078 64.496C8.76276 64.496 8.79424 64.496 8.83622 64.496L8.80474 64.4646V64.4542ZM39.6158 107.221C39.5949 107.336 39.5739 107.441 39.5529 107.556C39.6578 107.504 39.7523 107.462 39.8572 107.41C39.7733 107.347 39.6998 107.284 39.6158 107.221ZM39.5109 107.598L39.5319 107.619C39.5319 107.619 39.5319 107.566 39.5424 107.546C39.5214 107.546 39.5004 107.566 39.4899 107.577C39.4899 107.577 39.5004 107.587 39.5109 107.598ZM10.2529 54.3845L10.2844 54.4263L10.3894 54.3427L10.2529 54.3845ZM14.8809 50.8398L14.8284 50.9025C14.6395 51.2057 14.4506 51.509 14.2722 51.8122L14.3142 51.854C14.4926 51.5403 14.6605 51.2371 14.8389 50.9234L14.8914 50.8398H14.8809ZM38.6714 88.5147L38.8288 88.5356L38.7658 88.3683L38.6714 88.5251V88.5147Z" fill="white"/>
</g>
<defs>
<clipPath id="clip0_0_3314">
<rect width="62" height="112" fill="white"/>
</clipPath>
</defs>
</svg>
