<svg width="58" height="111" viewBox="0 0 58 111" fill="none" xmlns="http://www.w3.org/2000/svg">
<path d="M52.1438 7.55697C53.5938 5.62697 55.9238 4.77697 57.7238 3.20697C56.8838 2.63697 56.0738 2.25697 55.5138 1.64697C54.9738 1.05697 54.4038 0.826973 53.6738 0.796973C51.3838 0.726973 49.1138 0.656973 46.8338 1.11697C43.4638 1.80697 39.9838 2.06697 36.6438 2.87697C28.8838 4.76697 21.0038 5.77697 13.0538 6.37697C11.8338 6.46697 10.6038 6.76697 9.4438 7.14697C8.2638 7.53697 7.1438 7.96697 5.8438 7.82697C5.0838 7.74697 4.2438 7.82697 3.6038 8.57697C3.3838 10.137 4.7738 11.407 4.7138 12.977C3.6438 13.447 2.5638 11.397 1.7138 13.117C1.9938 14.617 4.2838 14.997 3.6838 17.027C3.0638 16.957 2.4838 16.897 1.8138 16.817C1.9238 17.607 2.0338 18.367 2.1238 19.037C3.3438 20.467 4.8638 21.117 6.6538 21.417C6.8138 23.387 7.9638 24.217 9.8238 24.197C10.0838 24.197 10.3438 24.277 10.6038 24.357C12.9638 25.037 15.3238 24.937 17.6938 24.447C19.9438 23.987 22.2038 23.557 24.4438 23.007C25.5138 22.747 26.6938 22.767 27.5938 21.977C28.0138 21.997 28.4338 22.027 28.9438 22.057C28.9438 23.157 28.3638 23.817 27.8738 24.517C26.3538 26.687 24.7638 28.817 23.3438 31.057C21.1738 34.497 19.1038 37.997 17.0238 41.497C15.8038 43.547 14.4738 45.557 13.5138 47.727C11.0838 53.217 8.7938 58.777 6.5338 64.337C5.4738 66.957 4.6838 69.677 4.2938 72.497C4.0538 74.247 3.7138 75.987 3.2738 77.697C2.3838 81.207 1.1438 84.647 1.4438 88.357C1.4438 88.447 1.4238 88.537 1.4138 88.617C0.733803 92.807 0.313803 97.017 0.413803 101.277C0.413803 101.717 0.373803 102.167 0.313803 102.597C-0.0161968 104.807 0.123803 107.017 0.413803 109.207C0.463803 109.567 0.633803 109.917 0.923803 110.837C1.1138 109.187 1.2338 108.147 1.3438 107.097C1.4638 105.957 1.5438 104.817 1.7138 103.687C1.7838 103.207 2.0338 102.747 2.2038 102.277C2.3438 102.927 2.4338 103.607 2.6638 104.227C3.0238 105.177 3.3038 106.227 4.3138 106.677C5.2838 106.187 4.4038 104.887 5.4338 104.497C5.8938 105.197 5.8238 105.847 5.5938 106.547C5.3138 107.377 5.0538 108.207 4.8738 109.067C4.7938 109.427 4.6738 109.947 5.2938 110.117C6.0538 109.697 5.8838 108.947 5.9938 108.277C6.0838 107.687 6.2938 107.117 6.4538 106.537C7.7138 106.247 7.5538 105.197 7.6838 104.277C7.7438 103.827 7.9138 103.397 8.0438 102.957C8.0138 103.427 7.9538 103.887 7.9838 104.347C8.0638 105.547 8.3638 105.957 9.9338 107.037C11.5238 101.737 11.4238 96.167 13.0538 90.687C13.4338 92.327 13.1438 93.677 13.0538 95.047C13.0238 95.477 13.0838 95.957 13.7538 95.737C13.8238 95.567 13.9338 95.407 13.9538 95.237C14.6938 89.347 15.8938 83.547 17.2438 77.777C17.7038 75.827 17.7738 73.707 19.1338 72.037C19.2738 71.857 19.2538 71.547 19.3138 71.297C19.4638 70.617 19.5138 69.897 19.7638 69.257C21.2938 65.227 23.1638 61.337 24.5138 57.227C25.4538 54.377 26.6338 51.607 27.7738 48.827C28.7538 46.447 28.8338 43.827 29.8538 41.467C29.9538 41.237 30.0038 40.937 29.9638 40.687C29.6638 38.797 30.5238 37.257 31.4138 35.717L31.3738 35.757C31.7038 34.937 32.1038 34.137 32.3338 33.287C32.9038 31.277 34.0338 29.617 35.3138 28.027C38.4338 24.177 41.5338 20.317 44.6838 16.507C45.2938 15.767 46.0638 15.147 46.8238 14.557C48.9138 12.937 51.0438 11.357 53.1138 9.79697C53.0138 8.83697 53.1938 7.88697 52.1238 7.52697L52.1438 7.55697ZM53.9438 1.45697L53.7838 1.53697V1.38697L53.9438 1.46697V1.45697ZM2.3738 102.057C2.3738 102.057 2.3038 102.137 2.2638 102.167C2.3038 102.067 2.3338 101.967 2.3738 101.867C2.3738 101.927 2.4038 102.007 2.3738 102.057ZM2.4238 93.577L2.3938 93.377L2.5138 93.407L2.4238 93.577ZM8.1538 102.617C8.1538 102.617 8.1438 102.647 8.1338 102.667C8.1338 102.607 8.1438 102.547 8.1538 102.487C8.1538 102.537 8.1538 102.577 8.1538 102.627V102.617ZM29.0638 21.447C28.5838 21.617 28.0938 21.797 27.6138 21.977C27.6138 21.977 27.6338 21.967 27.6438 21.957C25.0938 22.187 22.5438 22.427 19.9938 22.637C17.8738 22.807 15.7638 22.997 13.6438 23.037C11.9838 23.067 10.3138 22.917 8.6138 21.857C9.4738 21.377 10.2538 21.517 10.9538 21.357C11.7238 21.187 12.5138 21.057 13.2938 20.927C14.0738 20.797 14.8638 20.677 15.6538 20.557C16.4438 20.437 17.2238 20.317 18.0138 20.187C18.8038 20.057 19.5838 19.937 20.3638 19.777C21.0538 19.637 21.7438 19.457 22.4338 19.307C23.2138 19.137 23.9938 18.967 24.7638 18.787C25.5438 18.607 26.3138 18.437 27.0938 18.247C27.8638 18.057 28.6338 17.847 29.4138 17.667C30.1538 17.497 30.8938 16.967 31.7538 17.667C31.6438 19.477 30.8538 20.807 29.0638 21.447ZM52.0838 16.027C52.3938 16.307 52.6638 16.637 53.0638 17.057C52.6638 17.337 52.5438 17.467 52.3938 17.527C51.8938 17.697 51.2838 17.857 51.0038 17.327C50.6938 16.727 50.9438 16.177 51.6038 15.887C51.7738 15.937 51.9738 15.937 52.0838 16.037V16.027ZM2.3538 108.357C2.4438 108.367 2.5238 108.377 2.6138 108.387C2.5738 108.647 2.5238 108.897 2.4838 109.157C2.4238 109.117 2.3138 109.077 2.3138 109.037C2.3138 108.817 2.3438 108.587 2.3538 108.367V108.357Z" fill="white"/>
</svg>
