<svg width="583" height="197" viewBox="0 0 583 197" fill="none" preserveAspectRatio="none" xmlns="http://www.w3.org/2000/svg">
<path d="M496.297 12.9397C496.297 12.9397 494.783 12.519 493.269 12.0984C491.755 11.6778 490.216 11.2688 490.216 11.2688C494.698 11.6206 498.289 12.164 500.093 12.3854C501.897 12.6068 501.901 12.4972 499.211 11.5726C497.772 12.24 491.283 11.0548 484.666 10.008C478.035 8.95214 471.261 8.02557 469.89 8.73792L465.678 7.78083C466.969 7.96862 467.296 7.90595 468.563 8.10539C464.528 7.12596 462.542 7.17576 460.139 7.28455C457.76 7.38168 454.988 7.49651 449.248 6.72609C445.296 6.13842 442.639 5.62893 445.659 5.7353C445.659 5.7353 443.262 5.59523 440.864 5.45517C438.442 5.32677 436.034 5.20737 436.034 5.20737C433.369 4.91709 434.309 4.70214 436.973 4.99243C436.973 4.99243 433.39 4.70687 429.832 4.40966C426.224 4.13577 422.619 3.89156 422.619 3.89156L422.769 3.85122C420.467 3.94302 415.443 3.98705 412.995 4.00957C409.525 3.54712 414.995 3.96878 414.259 3.70233C414.259 3.70233 412.151 3.67117 410.043 3.64002C407.949 3.61787 405.816 3.59838 405.816 3.59838C402.897 2.99797 410.013 2.94643 415.485 3.39773C412.492 2.35526 410.718 2.3504 407.759 2.36895C404.789 2.40817 400.719 2.41516 392.748 1.6719L396.758 1.7089C398.751 1.74805 400.731 1.7782 400.731 1.7782C399.675 1.49445 398.485 1.28968 397.182 1.12255C395.856 0.96708 394.379 0.851913 392.788 0.744769C391.197 0.637626 389.479 0.529507 387.594 0.423053C385.71 0.316598 383.723 0.197476 381.565 0.020752C382.511 0.202902 386.766 0.600328 389.486 1.09548C392.217 1.56999 393.54 2.00397 388.861 2.05364C386.457 1.82464 383.081 1.73328 377.906 1.95689C378.113 1.67404 376.978 1.53489 375.047 1.48141C373.092 1.43959 370.326 1.47445 367.264 1.48035L368.25 0.735379C364.888 0.821926 363.207 1.01928 361.907 1.18995C360.582 1.37228 359.601 1.56024 357.537 1.75462C353.862 1.74392 351.724 1.66514 350.319 1.48536C348.914 1.30557 348.256 1.06344 347.549 0.844628C335.585 1.05711 355.222 1.52928 340.901 2.10574C335.956 2.17409 331.692 2.30402 327.039 2.67983C324.731 2.85158 322.335 3.04931 319.738 3.28105C317.143 3.54243 314.334 3.82881 311.233 4.14553C304.221 4.37861 312.733 3.60308 310.28 3.56629C310.28 3.56629 308.628 3.81128 306.93 4.10924C305.242 4.38654 303.568 4.67284 303.568 4.67284C302.008 4.78223 302.602 4.56164 302.9 4.45135C300.158 4.7827 299.957 4.98559 299.362 5.20618C299.065 5.31647 298.692 5.4321 297.823 5.58241C296.98 5.72106 295.654 5.90339 293.519 6.1624C292.171 6.69419 287.967 6.78015 282.669 7.06207C280.015 7.22818 277.096 7.41297 274.145 7.68937C271.194 7.96577 268.195 8.43438 265.47 8.97328C262.914 9.09274 266.875 8.36787 266.185 8.1877C258.752 9.37458 255.536 10.0075 252.694 10.5247C251.249 10.795 249.917 11.0573 248.158 11.3992C246.402 11.7708 244.221 12.2517 241.149 12.9242C241.149 12.9242 238.594 13.2126 236.04 13.5009C233.464 13.8306 230.887 14.1603 230.887 14.1603C234.671 13.7659 234.063 14.1464 231.469 14.8848C230.171 15.254 228.395 15.6966 226.393 16.1848C225.404 16.423 224.353 16.6756 223.263 16.9309C222.187 17.1951 221.125 17.4684 220.049 17.7327C221.378 17.6096 222.594 17.4946 223.696 17.3876C224.786 17.3012 225.711 17.2165 226.483 17.1425C226.483 17.1425 223.104 17.8067 219.732 18.5599L213.011 20.0249C211.406 20.2169 212.77 19.7237 214.984 19.012C214.071 19.2449 213.183 19.4662 212.496 19.6534C210.086 19.9814 209.523 19.9712 209.986 19.6903C210.204 19.5557 210.698 19.3521 211.369 19.1262C212.016 18.9119 212.85 18.6547 213.708 18.3858C215.354 18.2207 216.961 18.0584 218.555 17.887C220.248 17.3609 221.89 16.8284 223.027 16.3809C224.179 15.9424 224.804 15.6302 224.486 15.4737C223.597 15.6949 221.87 16.1142 220 16.4937C220.883 16.2132 221.478 15.9926 221.07 16.0013C220.624 16.0126 219.166 16.4428 216.918 17.0477L213.867 16.864L213.112 17.3145C213.112 17.3145 212.834 17.3538 212.331 17.4388C211.852 17.5121 211.147 17.6311 210.292 17.7904C208.607 18.0973 206.38 18.492 204.142 18.9072C199.675 19.6874 195.169 20.6096 195.169 20.6096C191.977 21.539 188.884 22.4217 185.76 23.396C182.625 24.391 179.465 25.3976 176.065 26.441C172.682 27.5229 169.077 28.7098 165.067 29.9351C163.061 30.5329 160.988 31.2546 158.786 31.9457C156.596 32.6458 154.268 33.3656 151.804 34.1346C156.509 32.1948 152.528 32.9906 152.549 32.3033C155.421 31.8337 159.267 30.6398 163.733 29.2136C165.963 28.5405 168.367 27.8154 170.872 27.0733C172.131 26.7068 173.39 26.3402 174.677 25.9917C175.963 25.6431 177.265 25.3332 178.605 25.0206C175.862 25.6601 174.765 25.8264 174.546 25.7921C174.312 25.7488 174.94 25.4663 175.625 25.2494C175.625 25.2494 175.325 25.33 174.826 25.4743C174.303 25.6303 173.58 25.8498 172.708 26.1098C170.964 26.6296 168.647 27.3287 166.305 28.0394C165.147 28.389 163.975 28.7296 162.892 29.0738C161.81 29.418 160.804 29.7569 159.945 30.0258C158.216 30.5842 157.085 30.9518 157.085 30.9518C157.2 30.6356 156.182 30.8263 154.506 31.2518C153.681 31.4587 152.656 31.7293 151.569 32.0142C150.471 32.3198 149.299 32.6604 148.062 32.9856C150.122 32.9008 146.726 34.1427 141.965 35.7088C141.368 35.8997 140.746 36.1023 140.1 36.3166C139.467 36.5399 138.835 36.7631 138.188 36.9774C136.885 37.4265 135.557 37.8874 134.291 38.3339C131.735 39.2385 129.276 40.0669 127.499 40.8176C127.163 40.7616 127.369 40.4788 128.811 39.8411C130.241 39.224 132.931 38.2403 137.482 36.7585C134.869 37.4287 132.805 38.1001 131.01 38.7825C130.118 39.1134 129.291 39.4596 128.488 39.7941C127.713 40.1466 126.964 40.5171 126.227 40.867C124.727 41.5783 123.28 42.296 121.563 43.0027C119.835 43.7301 117.836 44.4169 115.374 45.2156C117.5 44.3609 118.721 43.9971 119.449 43.5286C114.603 45.6274 102.323 50.3146 104.93 48.9392C104.93 48.9392 105.449 48.724 105.979 48.4881C106.511 48.2818 107.029 48.0666 107.029 48.0666C105.234 48.749 103.288 49.6109 101.175 50.4746C99.0652 51.3679 96.7673 52.3042 94.5012 53.3178C92.2375 54.361 89.9246 55.4275 87.6252 56.5031C86.4946 57.0395 85.3123 57.5696 84.2332 58.1124C83.1295 58.6668 82.0639 59.2186 81.0093 59.7497C78.8891 60.8325 76.8808 61.8777 75.0445 62.8413C73.2486 63.8318 71.6653 64.7677 70.3142 65.578C67.6121 67.1986 65.8798 68.3437 65.6801 68.7155C65.4001 68.7252 65.9928 67.2127 66.5255 66.6983C66.5255 66.6983 66.2242 66.9182 65.7065 67.3024C65.1888 67.6865 64.4277 68.2169 63.6135 68.8803C61.9716 70.198 59.8033 71.9501 57.6104 73.7139C56.506 74.5764 55.5452 75.4786 54.5907 76.3009C53.6742 77.1205 52.8045 77.8871 52.0554 78.5658C50.6038 79.8701 49.616 80.7543 49.616 80.7543C49.9528 80.0251 47.7467 80.5176 46.5683 80.4611C45.979 80.4328 45.6062 80.2403 45.9574 79.6889C46.3331 79.1259 47.3922 78.177 49.6153 76.6298C48.177 77.4661 46.5556 78.4046 44.6242 79.6134C42.8094 80.8438 40.6981 82.3534 38.1746 84.2894C40.1084 83.1103 44.2095 81.7495 41.9444 83.409C38.0283 85.4824 36.6971 86.2218 35.3287 87.1327C33.9221 88.0462 32.2968 89.0944 28.017 91.8791C28.6553 91.407 29.0866 91.2177 29.3689 91.2377C29.6132 91.2603 29.6569 91.4858 29.5468 91.8613C29.2885 92.6149 28.2739 93.9581 26.4917 95.4347C26.731 94.921 24.153 95.3899 25.2359 94.2605C25.2359 94.2605 24.7904 94.7489 24.1602 95.4789C23.8328 95.8497 23.4452 96.2645 23.0869 96.7269C22.7286 97.1893 22.3727 97.6814 22.0168 98.1735C21.2916 99.1486 20.5663 100.124 20.0257 100.857C19.761 101.214 19.543 101.517 19.3694 101.738C19.2204 101.947 19.1538 102.071 19.1538 102.071C20.6964 100.154 17.5699 101.576 15.4127 103.308C15.9931 102.909 14.4449 104.598 12.5939 106.646C11.7838 107.677 10.9428 108.799 10.1684 109.797C9.39396 110.796 8.76221 111.665 8.56097 112.176C8.4198 112.166 11.4829 108.851 11.4829 108.851C10.6395 109.943 9.86268 110.912 9.3832 111.771C8.94179 112.627 8.59392 113.376 8.32849 114.041C8.07655 114.715 7.88248 115.315 7.73517 115.862C7.63941 116.415 7.64199 116.922 7.64455 117.428C7.63363 117.926 7.59812 118.436 7.58959 118.963C7.57303 119.232 7.543 119.493 7.51535 119.783C7.48924 119.934 7.48769 120.073 7.46157 120.224C7.46004 120.363 7.44742 120.523 7.45937 120.672C7.45801 121.288 7.38529 121.969 7.2571 122.753C7.17397 123.146 7.11783 123.558 6.98794 124.004C6.85804 124.451 6.8693 124.907 6.78225 125.41C6.38145 124.554 3.89651 123.485 3.05347 127.749C3.46775 128.614 5.12501 130.337 6.87207 132.54C8.86971 134.686 11.0935 137.263 13.3269 139.959L13.2441 141.306C13.2441 141.306 13.4314 141.572 13.7939 141.954C14.1811 142.324 14.6674 142.817 15.1783 143.298C15.6646 143.79 16.1755 144.271 16.5626 144.642C16.7562 144.827 16.9204 144.965 17.0441 145.075C17.179 145.165 17.2599 145.219 17.2599 145.219C15.246 144.297 11.8472 142.339 8.87793 139.853C8.10212 139.252 7.52296 138.557 6.85657 137.888C6.25283 137.205 5.4992 136.562 5.05881 135.847C4.58035 135.136 4.12886 134.442 3.68216 133.807C3.47664 133.474 3.23545 133.172 3.10606 132.834C2.99016 132.504 2.86316 132.195 2.74965 131.895C2.4687 133.475 2.43627 133.706 2.35553 134.129C2.29938 134.54 2.34718 135.133 2.87771 137.282C2.85962 137.691 2.70103 137.782 2.51224 137.656C2.41785 137.593 2.29411 137.482 2.17906 137.321C2.10207 137.158 1.98463 136.967 1.88939 136.735C1.4973 135.829 1.1257 134.543 0.972412 133.908C0.972412 133.908 1.08762 134.545 1.24261 135.519C1.3324 135.999 1.42936 136.569 1.54219 137.177C1.65502 137.785 1.92011 138.383 2.09798 139.007C2.51635 140.24 2.91015 141.484 3.41405 142.353C3.85529 143.237 4.18303 143.82 4.18303 143.82C4.4843 143.6 5.00543 143.892 5.58613 144.447C6.2049 145 7.06879 145.745 7.84545 146.515C8.24607 146.895 8.66017 147.283 9.02034 147.635C9.41857 147.985 9.85008 148.273 10.2031 148.536C10.9447 149.031 11.477 149.302 11.7156 149.096C11.7156 149.096 11.1127 148.582 10.1703 147.813C9.25248 147.033 8.2679 145.899 7.17153 144.803C6.57974 144.268 6.21156 143.658 5.75853 143.103C5.34358 142.546 4.94447 142.027 4.59062 141.595C4.23677 141.163 3.96385 140.784 3.83924 140.505C3.67657 140.228 3.59959 140.064 3.59959 140.064C3.93892 139.842 4.49094 140.042 5.20803 140.548C6.01234 141.028 7.00629 141.803 8.06852 142.792C8.31842 143.043 8.58179 143.303 8.87214 143.581C9.17359 143.838 9.50201 144.113 9.83043 144.388C10.4627 144.95 11.1108 145.551 11.7502 146.202C12.3516 146.855 13.1655 147.454 13.8453 148.132C14.192 148.475 14.5252 148.81 14.8719 149.153C15.194 149.508 15.5407 149.852 15.9254 150.193C16.9347 151.792 12.2767 150.2 11.9913 150.458C12.5259 150.759 14.317 151.925 15.844 153.14C16.5952 153.753 17.4694 154.308 18.0944 154.781C18.7195 155.254 19.1693 155.61 19.2463 155.774C19.2463 155.774 18.3413 155.311 17.4117 154.859C16.9469 154.633 16.5066 154.396 16.1608 154.221C15.815 154.047 15.6127 153.912 15.6127 153.912C16.4164 154.7 17.3468 155.321 18.324 155.888C19.3012 156.456 20.2872 156.973 21.3849 157.453C22.4716 157.953 23.5471 158.474 24.5695 159.128C25.6166 159.77 26.731 160.457 27.775 161.378C28.193 161.657 28.6833 162.04 29.1378 162.455C29.6305 162.868 30.1501 163.299 30.6157 163.693C31.5986 164.489 32.4418 165.136 32.981 165.018C31.1681 162.631 35.0522 160.003 38.1904 160.469C38.3387 160.568 38.9455 160.973 39.8086 161.548C40.6716 162.124 41.9026 162.833 43.0869 163.595C44.2601 164.377 45.5831 165.119 46.6952 165.777C47.8073 166.434 48.7084 167.007 49.1447 167.354C50.4353 168.327 48.4122 168.24 46.4423 168.021C44.4477 167.813 42.3992 167.569 43.4273 168.451C43.888 168.309 46.2182 168.881 47.1691 169.123C49.2171 170.152 45.2104 169.359 50.434 171.16C52.3942 170.784 60.9152 174.868 53.8489 171.417C59.2436 172.967 59.013 173.431 65.2382 175.31C64.0031 174.234 73.2439 175.375 79.0335 176.599C78.4293 176.701 79.3058 177.286 79.7484 177.553C85.3557 179.048 89.6599 180.208 93.9324 181.29C98.2048 182.372 102.434 183.397 108.062 184.513C108.473 184.703 109.949 185.126 110.999 185.49C112.06 185.833 112.671 186.128 111.289 186.076C113.102 186.247 114.941 186.267 118.487 186.893C124.449 188.821 110.507 185.554 114.693 187.308C115.214 187.123 117.648 187.399 120.689 187.773C123.742 188.125 127.366 188.607 130.069 188.894C129.724 188.412 126.823 187.879 123.326 187.399C119.818 186.939 115.858 186.402 113.166 186.094C113.753 185.615 116.565 185.527 120.733 185.782C122.799 185.925 125.299 186.078 128.038 186.333C130.776 186.589 133.726 186.928 136.93 187.27C146.895 188.53 140.402 188.548 142.237 188.677C146.785 189.382 150.221 189.738 152.957 189.963C155.729 190.157 157.85 190.197 159.844 190.236C161.838 190.275 163.706 190.343 166.016 190.509C168.364 190.672 171.108 190.987 174.869 191.588C180.569 192.809 173.85 192.872 174.802 193.451C166.191 192.842 162.452 191.723 156.923 191.037L163.42 192.172C160.579 192.073 154.947 191.543 152.185 190.992C154.466 191.587 162.374 192.653 171.69 193.62C173.983 193.886 176.461 194.08 178.879 194.318C181.322 194.545 183.728 194.803 186.155 194.991C190.96 195.39 195.486 195.828 199.276 196.139C202.232 196.091 207.173 196.132 205.165 195.746L200.173 195.559C196.169 194.796 210.034 195.375 204.067 194.789C207.476 194.819 211.243 194.694 215.212 194.704C219.17 194.734 223.495 194.729 228.108 194.973L229.268 195.746C229.262 195.518 223.441 195.17 220.609 195.329C222.705 195.212 226.138 195.538 229.691 195.776C233.292 195.961 237.013 196.058 239.566 195.601L233.22 195.071C234.987 194.987 236.917 194.872 238.886 194.754C240.867 194.645 242.901 194.542 245.019 194.384C247.126 194.246 249.273 194.135 251.423 194.054C252.505 194.018 253.562 193.993 254.632 193.978C255.714 193.942 256.785 193.927 257.855 193.911C254.39 193.339 255.764 194.088 250.268 193.34C252.54 193.817 247.048 193.913 242.011 193.948C237.007 193.921 232.374 193.918 236.145 194.469C234.797 194.215 233.446 194.072 232.124 193.975C230.788 193.87 229.466 193.774 228.071 193.713C226.661 193.643 225.214 193.575 223.648 193.456C222.081 193.338 220.399 193.197 218.652 192.902C218.685 193.148 221.045 193.46 214.238 193.072C213.86 193.129 213.061 193.185 212.528 193.222C212.335 193.206 212.245 193.202 212.091 193.183C212.232 193.193 212.31 193.218 212.452 193.227C212.109 193.252 212.084 193.263 212.593 193.237C214.15 193.407 215.376 193.579 215.785 193.739C213.848 193.935 210.074 193.971 206.378 193.862C202.695 193.762 198.996 193.624 197.021 193.653C193.135 193.25 198.949 193.508 197.014 193.087L191.197 193.107C191.151 192.544 181.481 191.453 191.145 191.839C191.145 191.839 189.053 191.677 186.946 191.507C184.889 191.313 182.794 191.122 182.794 191.122C180.505 190.746 177.672 190.428 174.951 190.072C172.219 189.736 169.519 189.478 167.365 189.361C163.647 188.817 157.122 188.757 160.887 188.772C160.887 188.772 160.065 188.7 158.868 188.575C157.671 188.45 156.002 188.319 154.417 188.132C151.199 187.781 148.005 187.418 148.005 187.418L148.045 187.276C135.904 185.464 122.1 184.225 110.036 180.668C106.001 179.996 101.8 179.327 95.6504 177.75L95.0307 177.028C89.928 176.094 81.4526 173.051 78.8538 172.944C77.1967 171.699 71.8193 170.048 66.0874 168.274C63.3075 167.345 60.2881 166.454 57.712 165.521C56.4239 165.055 55.1517 164.627 54.0453 164.198C52.9634 163.757 51.9601 163.34 51.1384 162.961L49.9601 163.381C49.3652 163.125 48.7592 162.889 48.1644 162.632C47.583 162.385 46.9881 162.128 46.4178 161.86C45.2416 161.356 44.0518 160.843 42.786 160.336C40.4263 159.239 37.7621 158.164 35.0605 156.783L34.5104 157.398C31.9112 156.337 29.3198 154.581 26.7916 152.502C25.5699 151.435 24.2071 150.358 23.0631 149.146C22.442 148.563 21.8454 147.969 21.2107 147.377C20.6253 146.762 20.0533 146.156 19.4924 145.53C19.8445 145.624 20.2697 145.992 20.7156 146.458C20.9385 146.691 21.1503 146.944 21.3376 147.209C21.574 147.451 21.7858 147.705 21.9707 147.94C21.3843 147.156 20.9209 146.314 20.2965 145.533C19.6967 144.74 18.9605 143.997 18.3852 143.192C17.7854 142.399 17.0849 141.624 16.4224 140.845C15.8472 140.041 15.2719 139.236 14.6586 138.434C13.9962 137.656 13.658 136.785 13.1589 135.975C12.9462 135.553 12.709 135.142 12.5098 134.729C12.2725 134.318 12.2232 133.864 12.0866 133.437C11.8761 132.567 11.6411 131.709 11.5583 130.84C11.5762 129.954 11.6702 129.063 11.8293 128.187C11.7332 127.786 11.6014 127.418 11.6108 127.059C11.6313 126.68 11.6677 126.34 11.704 125.999C11.8148 125.316 11.9684 124.689 12.1736 124.068C12.161 124.228 12.1594 124.367 12.169 124.486C12.2062 124.314 12.2362 124.054 12.2528 123.784C12.5332 122.989 13.0532 122.158 13.4161 121.278C12.9675 122.045 12.5546 122.779 12.2868 123.414C12.4872 122.734 12.6867 121.885 12.8925 120.957C12.9955 120.492 13.096 119.998 13.21 119.513C13.3867 119.014 13.5745 118.494 13.7376 117.985L15.1774 117.01C15.2281 116.847 15.2812 116.714 15.3565 116.54C15.6854 116.03 15.8359 115.682 15.9064 115.448C15.9904 115.223 15.9698 115.126 15.8421 115.125C15.5867 115.123 14.9302 115.526 14.3262 116.105C14.4378 115.591 14.666 115.098 14.8451 114.628C15.0241 114.158 15.1564 113.741 15.2665 113.366C15.9452 112.921 16.4486 112.359 16.8575 111.734C16.9598 111.578 17.062 111.421 17.1754 111.244C17.3022 111.076 17.429 110.909 17.5423 110.732C17.7825 110.387 18.0338 110.021 18.285 109.656C19.2901 108.194 20.2744 106.634 22.2265 105.523C22.4871 104.799 24.5568 102.14 27.1776 99.5113C27.788 98.8523 28.3984 98.1933 28.9731 97.5666C29.5859 96.9373 30.19 96.3582 30.6957 95.8258C31.7073 94.7611 32.3683 93.9395 32.3151 93.5954C32.5926 93.556 33.4116 92.952 32.0869 94.0884C32.8186 93.5104 33.5504 92.9323 34.2822 92.3543C35.0789 91.7916 35.8377 91.2315 36.5964 90.6714C38.0758 89.554 39.4545 88.4535 40.6183 87.3781C40.6183 87.3781 41.1773 87.1898 41.8013 87.0169C42.3873 86.8466 42.9979 86.6646 42.9979 86.6646L48.8375 81.3853C53.9864 78.6192 56.1986 77.5697 52.3638 80.6512C57.3023 77.0153 59.416 75.5353 61.4973 74.2862C62.5177 73.6482 63.4889 73.0335 64.7614 72.1989C66.0474 71.3733 67.5538 70.2738 69.9363 68.8048L69.9524 69.3205C71.7863 68.3273 74.0237 66.9579 76.105 65.7088C76.641 65.393 77.1524 65.0888 77.6527 64.8053C78.1664 64.5307 78.6937 64.2652 79.1718 64.0229C80.1281 63.5385 80.9907 63.16 81.6481 62.9251C84.0356 61.9924 87.7939 60.1785 92.7757 58.0304C97.6743 55.7987 103.758 53.2354 110.33 50.5485C123.552 45.199 139.309 39.8009 152.023 36.3853C149.348 36.5927 152.305 35.7593 156.05 34.8905C159.793 33.9921 164.26 32.9037 164.609 32.3227C166.194 32.2016 169.767 31.4145 165.715 32.752C168.945 31.82 171.754 31.0566 174.329 30.3891C176.89 29.7126 179.224 29.2211 181.428 28.6989C183.607 28.1883 185.672 27.6858 187.745 27.133C189.821 26.6098 191.906 26.0363 194.158 25.3219C195.685 25.2744 191.386 26.3908 192.74 26.2561C193.762 25.9559 196.88 25.0615 198.235 24.9268C199.565 24.8038 196.35 25.6055 194.292 26.197C195.946 25.8128 197.436 25.4599 198.724 25.1409C200.037 24.8104 201.165 24.5524 202.189 24.2818C204.214 23.7523 205.645 23.3042 206.712 22.9213C208.856 22.1349 209.435 21.5676 209.965 21.0235C213.359 20.5372 215.895 20.1805 218.228 19.689C220.551 19.2181 222.622 18.6356 225.143 17.9322C227.481 17.808 231.367 17.4263 223.045 18.9737C224.229 18.7814 226.572 18.4084 229.482 17.9361C230.93 17.6955 232.516 17.4352 234.141 17.1722C235.791 16.8976 237.456 16.6616 239.094 16.4076C242.384 15.9087 245.569 15.3674 247.948 14.9621C250.327 14.5568 251.934 14.2256 252.11 14.0343C253.512 14.0156 258.61 13.1513 259.843 12.9357C265.036 12.3033 267.854 11.9666 270.673 11.6299C273.455 11.3256 276.238 11.0212 281.32 10.4265L278.541 10.6213C282.935 9.25973 287.067 9.54657 295.252 8.66479L295.006 8.7814C304.107 8.34228 306.139 8.07061 308.141 7.89056C309.128 7.79154 310.115 7.69251 311.983 7.59143C313.826 7.502 316.569 7.33954 320.943 7.31121L320.302 6.79957C321.488 6.15986 325.401 6.10425 330.316 6.12752C332.768 6.1643 335.452 6.21472 338.194 6.19152C340.96 6.15666 343.704 6.16311 346.355 5.96735L342.866 5.74475C345.792 5.48001 349.476 5.74856 353.008 6.19668C356.541 6.6448 360.024 7.11624 362.661 7.21963C363.768 7.34081 360.657 7.37004 358.892 7.48377C372.705 8.19526 361.332 6.72637 372.155 6.59393C373.772 7.02721 368.851 7.56094 375.885 7.76359C376.697 7.85581 378.457 7.85169 380.775 7.79854C383.082 7.76604 385.924 7.72583 388.971 7.68128C395.051 7.61284 401.75 7.75955 406.078 8.43014C404.295 7.99854 402.526 7.57594 407.494 7.63517C411.171 7.81478 415.777 8.44605 420.365 9.00902C424.939 9.56299 429.46 10.081 433.146 9.90214C433.951 10.0743 434.202 10.1859 434.158 10.2685C439.83 10.5169 451.923 11.7366 455.63 11.6557C457.007 12.9108 465.33 13.7486 472.919 14.6578C480.519 15.5464 487.395 16.4856 486.24 17.3418C486.24 17.3418 487.197 17.5033 488.634 17.7604C490.046 18.0291 491.95 18.3728 493.842 18.7371C495.71 19.113 497.578 19.489 498.965 19.7694C500.342 20.0704 501.288 20.2526 501.288 20.2526L500.671 20.3456C509.854 22.5146 513.454 23.0077 517.201 23.4308C519.068 24.1149 517.362 23.8468 517.06 23.8978C523.252 25.8392 526.521 26.9816 529.711 27.9308C532.926 28.8683 536.05 29.6332 541.467 31.1419L541.565 32.0494C543.113 32.408 546.749 34.3 550.948 36.8481C553.053 38.1119 555.238 39.5688 557.424 41.0554C559.587 42.5537 561.702 44.1049 563.721 45.5636C563.529 45.5473 563.181 45.512 562.482 45.074C567.207 48.281 569.873 53.3418 570.643 57.979C570.997 60.3196 571.008 62.5152 571.04 64.3318C571.062 65.2446 571.026 66.0621 571.22 66.7244C571.313 67.4036 571.511 67.9563 571.887 68.3474C571.887 68.3474 571.869 68.448 571.87 68.6169C571.846 68.7974 571.827 69.0373 571.751 69.3508C571.608 69.9571 571.406 70.7763 571.204 71.5955C570.902 72.4317 570.624 73.2562 570.418 73.8769C570.137 74.5029 569.942 74.9339 569.942 74.9339C570.682 73.8285 571.039 73.0283 571.426 72.4446C571.775 71.8636 572.015 71.5188 572.204 71.3366C572.507 70.9774 572.645 71.2659 572.632 71.734C572.643 72.6674 572.316 74.3005 573.567 72.4138C573.386 72.8539 573.168 73.3263 572.889 73.813C572.571 74.3024 572.267 74.8008 571.911 75.2929C571.579 75.7733 571.248 76.2537 570.887 76.6865C570.527 77.1193 570.15 77.5134 569.845 77.8429C568.586 79.1635 567.999 79.4731 569.419 77.3062L570.078 76.6239C569.844 76.2428 569.221 76.7536 568.379 77.7071C567.958 78.1838 567.509 78.7818 566.95 79.4472C566.391 80.1125 565.786 80.8308 565.18 81.549C562.659 84.4688 559.436 87.5373 558.962 87.3617C554.538 91.6772 549.183 95.8491 543.374 99.9138C537.55 103.97 531.318 107.865 524.792 111.592C511.74 119.047 497.688 125.806 483.307 131.814L487.271 130.979C487.271 130.979 486.63 131.253 485.705 131.646C484.755 132.05 483.496 132.585 482.236 133.091C480.95 133.609 479.678 134.135 478.726 134.51C477.763 134.906 477.119 135.149 477.119 135.149C475.701 135.607 474.674 135.848 474.935 135.601C475.196 135.354 476.725 134.69 480.343 133.204C479.308 133.495 478.072 133.989 476.737 134.53C475.427 135.059 474.06 135.662 472.806 136.257C470.321 137.405 468.283 138.403 468.241 138.515C460.777 141.056 462.071 140.319 464.686 139.201C467.301 138.084 471.038 136.48 468.858 137.299C468.858 137.299 467.36 137.871 465.862 138.443C464.337 138.997 462.813 139.551 462.813 139.551L464.26 139.142C461.866 140.154 460.615 140.779 458.813 141.541C457.912 141.922 456.875 142.353 455.5 142.867C454.099 143.362 452.361 143.971 450.049 144.73C444.147 146.545 446.829 145.303 444.528 146.041C444.512 146.002 443.738 146.215 440.992 147.133C440.992 147.133 437.581 148.197 434.196 149.25C432.503 149.776 430.756 150.266 429.485 150.653C428.202 151.032 427.354 151.28 427.354 151.28L433.06 150.204C427.104 152.291 420.124 154.033 426.734 152.774C421.885 153.72 408.966 157.28 396.436 160.454C383.922 163.667 371.789 166.376 368.88 166.848C360.214 169.204 351.611 170.901 340.972 172.839C342.272 172.668 343.318 172.665 342.881 172.934C342.443 173.203 340.519 173.716 335.936 174.474C337.727 173.424 333.528 174.047 328.031 174.869C325.294 175.26 322.205 175.725 319.365 176.103C316.511 176.472 313.938 176.692 312.177 176.696C313.767 176.634 312.955 176.85 310.982 177.217C309.008 177.584 305.884 178.081 302.882 178.52C296.882 179.428 291.324 180.295 296.312 180.114C288.801 180.968 296.029 179.617 290.442 179.959C288.186 180.306 285.879 180.647 283.506 180.972C281.169 181.265 278.767 181.543 276.338 181.802C271.472 182.372 266.501 182.76 261.394 183.198C251.222 183.96 240.611 184.654 229.858 185.338C229.391 185.56 232.819 185.658 228.031 186.252C228.031 186.252 227.365 186.229 226.355 186.2C225.356 186.151 224.011 186.096 222.692 186.03C220.028 185.908 217.389 185.775 217.389 185.775C213.125 186.074 212.788 187.111 205.607 186.671C206.562 186.802 208.008 187.009 205.15 187.18C184.844 187.271 164.141 187.351 144.186 186.414C134.196 185.951 124.368 185.289 114.993 184.226C105.607 183.185 96.7637 181.747 88.5535 179.778C92.8577 180.938 89.6053 180.48 85.9714 179.88C88.2071 180.389 85.3086 180.364 85.4269 180.723C85.4269 180.723 82.0157 179.879 78.58 179.046C75.2045 178.17 71.8291 177.293 71.8291 177.293C68.2375 177.535 56.3139 174.296 53.8612 174.736L58.5935 175.508C51.433 175.165 64.6972 179.045 62.4104 179.961C66.4073 180.158 70.4744 181.383 75.2069 182.632C77.591 183.24 80.1187 183.888 82.9389 184.366C85.7836 184.833 88.7759 185.229 92.163 185.3C94.5336 185.899 89.4865 185.338 90.6199 185.786C94.2258 185.722 97.8771 186.221 104.617 187.21L103.702 187.244C104.925 187.387 106.122 187.512 107.243 187.642C108.388 187.76 109.506 187.861 110.6 187.973C112.773 188.188 114.806 188.394 116.749 188.595C120.695 188.955 124.321 189.297 128.012 189.655C129.888 189.811 131.763 189.968 133.704 190.14C134.681 190.231 135.682 190.31 136.698 190.397C137.737 190.474 138.777 190.55 139.879 190.612C142.048 190.768 144.37 190.913 146.821 191.089C149.319 191.212 152.01 191.352 154.918 191.496L153.656 190.879C158.628 191.136 159.585 191.298 161.884 191.485C165.173 191.125 161.593 191.038 157.961 190.944C154.352 190.81 150.727 190.637 153.76 190.275C155.191 190.612 158.109 190.875 161.846 191.01C163.69 191.09 165.748 191.144 167.845 191.196C169.966 191.236 172.2 191.239 174.422 191.262C178.803 191.322 183.202 191.282 186.717 191.354C190.207 191.437 192.893 191.517 193.824 191.83C201.952 191.668 191.888 191.24 200.003 191.069C200.003 191.069 200.493 191.144 200.946 191.221C201.424 191.287 201.915 191.362 201.915 191.362L204.284 190.838C209.597 190.734 212.035 191.07 212.046 191.358C210.758 191.368 208.286 191.571 206.851 191.652C213.567 191.867 226.787 190.613 229.132 190.577C229.132 190.577 227.172 190.645 225.175 190.716C223.191 190.795 221.253 190.822 221.253 190.822C232.689 190.06 245.355 189.222 258.148 188.047C270.914 186.854 283.779 185.306 295.218 183.48L293.582 183.456C302.335 182.027 305.763 181.648 309.463 181.17C311.307 180.941 313.19 180.71 315.816 180.357C318.441 180.004 321.852 179.417 326.634 178.595L325.921 178.764C326.898 178.546 327.952 178.324 329.044 178.098C330.161 177.861 331.34 177.609 332.546 177.375C334.969 176.888 337.572 176.407 340.215 175.953C337.772 176.512 340.037 176.284 342.121 176.018C344.219 175.762 346.115 175.54 342.898 176.312C347.702 175.279 350.673 174.624 352.653 174.177C354.631 173.701 355.617 173.433 356.378 173.21C357.948 172.742 358.685 172.393 364.95 170.652L367.841 170.419C369.983 169.772 371.126 169.384 372.96 168.868C373.884 168.614 374.946 168.341 376.385 167.982C377.834 167.602 379.635 167.147 382.038 166.562C374.2 168.741 388.222 165.721 379.455 168.233C384.519 167.262 388.958 166.295 392.857 165.277C396.769 164.267 400.153 163.354 403.193 162.435C406.234 161.546 408.927 160.761 411.453 160.117C413.976 159.443 416.357 158.898 418.74 158.552C423.175 156.741 418.784 157.824 413.939 159.137C411.505 159.815 408.968 160.48 407.331 160.903C405.707 161.335 404.993 161.504 406.288 161.105C404.075 161.509 405.933 160.812 409.106 159.814C410.687 159.326 412.617 158.733 414.523 158.152C416.442 157.581 418.35 157.029 419.911 156.612C423.107 155.742 425.887 155.239 429.952 154.387C434.007 153.557 439.235 152.246 447.207 149.68C445.642 150.207 445.559 150.292 443.967 150.801C447.029 150.01 449.862 148.897 452.889 147.83C454.389 147.288 455.952 146.731 457.605 146.178C459.23 145.607 460.959 145.048 462.829 144.5C464.649 143.497 466.983 142.698 468.929 141.975C470.885 141.232 472.467 140.604 472.753 140.037C472.753 140.037 471.875 140.377 470.551 140.897C469.883 141.153 469.116 141.455 468.287 141.772C467.444 142.079 466.577 142.398 465.685 142.729C462.141 144.041 458.584 145.344 458.584 145.344C466.592 142.268 473.59 138.856 486.713 133.861C485.878 134.426 482.215 136.164 479.643 137.338C481.631 136.672 483.43 135.88 485.243 135.097C487.042 134.305 488.825 133.474 490.884 132.743C490.71 133.272 486.598 135.131 481.435 137.242C476.282 139.333 470.032 141.729 465.874 143.501C468.087 142.929 472.137 141.253 475.114 140.041C478.051 138.801 479.991 138.019 478.188 139.229C479.536 138.389 481.145 137.61 482.955 136.798C484.779 135.994 486.795 135.207 488.919 134.322C489.981 133.88 491.08 133.435 492.216 132.958C493.338 132.472 494.446 131.977 495.604 131.459C497.919 130.422 500.198 129.248 502.416 127.95L502.289 128.595C503.784 127.824 506.707 126.098 509.52 124.748L505.098 127.662C506.927 126.61 508.828 125.662 510.729 124.713C512.606 123.777 514.564 122.894 516.481 121.985C518.36 121.078 520.291 120.177 522.116 119.234C523.928 118.282 525.726 117.321 527.378 116.291C519.981 120.447 518.858 120.764 518.902 120.513C518.907 120.264 519.949 119.416 516.541 120.986C525.43 115.861 528.218 114.523 531.573 113.085C533.198 112.345 534.961 111.585 537.443 110.239C538.689 109.555 540.103 108.73 541.793 107.697C543.443 106.638 545.41 105.396 547.593 103.822C546.464 104.696 543.956 106.194 542.261 107.168C540.553 108.132 539.565 108.539 541.372 107.22C545.057 104.964 549.866 101.943 552.28 100.552C553.688 99.4989 554.71 98.7217 555.406 98.1759C556.075 97.6122 556.457 97.2774 556.646 97.0951C556.987 96.7333 556.462 97.0285 555.746 97.4763C554.312 98.3719 551.914 99.8022 554.102 97.9791C558.785 95.2954 559.107 93.7423 562.933 89.9259L563.859 90.0101C569.494 85.0433 569.369 84.2868 569.427 83.7361C569.381 83.1728 569.552 82.7533 573.269 78.2191C573.269 78.2191 573.199 78.4526 573.075 78.819C572.976 79.1738 572.748 79.6669 572.531 80.1393C572.099 81.1138 571.667 82.0882 571.667 82.0882C571.667 82.0882 572.528 80.8949 573.413 79.6898C573.863 79.0918 574.185 78.4928 574.48 78.0447C574.762 77.5876 574.956 77.2958 574.956 77.2958L575.404 78.2682C575.759 77.6072 576.094 77.0172 576.394 76.4595C576.656 75.9045 576.908 75.3998 577.15 74.9157C577.392 74.4316 577.636 73.9772 577.869 73.5435C578.064 73.1124 578.259 72.6813 578.467 72.2592C578.884 71.415 579.339 70.5681 579.697 69.6287C579.914 69.1563 580.129 68.6542 580.366 68.1108C580.578 67.5791 580.761 66.9998 580.953 66.3702C580.43 67.0032 579.988 66.9049 579.823 66.1214C579.765 65.718 579.695 65.1663 579.675 64.4521C579.681 63.7262 579.712 62.8494 579.731 61.8243C580.098 60.3575 580.342 60.6883 580.518 60.6659C580.671 60.6553 580.817 60.2475 580.359 57.4172C580.861 57.9485 581.243 58.5678 581.497 59.355C581.79 60.1395 581.646 61.1932 581.12 62.5817C581.492 62.7743 581.614 63.8093 581.913 64.0368C582.059 63.629 582.202 63.1916 582.319 62.7362C582.435 62.2808 582.475 61.8308 582.502 61.3717C582.529 60.9126 582.58 60.4419 582.594 59.9738C582.544 59.5201 582.495 59.0664 582.459 58.6217C582.398 57.7115 582.179 56.892 581.978 56.1408C581.885 55.7697 581.78 55.4193 581.691 55.1075C581.564 54.7983 581.477 54.5162 581.393 54.2637C581.646 55.0212 581.763 55.9969 581.703 56.518C581.703 56.518 581.51 56.0246 581.208 55.2904C580.819 54.5822 580.36 53.6305 579.764 52.728C579.143 51.8373 578.572 50.9232 578.011 50.2966C577.475 49.6584 577.134 49.235 577.134 49.235C576.803 47.9761 577.708 48.7476 578.552 49.563C578.306 49.2026 578.062 48.8718 577.794 48.5527C577.501 48.2452 577.184 47.9494 576.878 47.633C576.571 47.3165 576.238 46.9821 575.862 46.591C575.475 46.2206 575.059 45.8025 574.61 45.3072C575.231 45.4128 575.762 45.3458 576.446 45.6059C577.155 45.8543 578.007 46.4506 579.285 47.8916L578.386 46.8713C577.876 46.2511 577.086 45.4716 576.247 44.7154C575.481 43.9243 574.519 43.2265 573.887 42.6645C573.23 42.1142 572.756 41.7698 572.756 41.7698C572.696 41.5056 572.089 40.6239 571.611 39.912C571.083 39.2234 570.72 38.6725 571.344 38.9766C569.597 37.2504 566.477 35.5906 563.026 33.9342C559.562 32.2688 555.694 30.6714 552.388 28.9154C551.859 28.8431 551.031 28.5434 549.364 27.9645C542.643 24.9968 536.816 22.2049 526.657 20.1143C526.657 20.1143 525.603 19.5521 524.55 18.9898C523.497 18.4276 522.419 17.877 522.419 17.877C518.533 16.9965 520.032 17.7163 520.882 18.2829C521.72 18.8701 521.955 19.2512 515.475 17.8469C506.161 15.9554 513.035 16.3879 510.163 15.4264C505.084 14.7885 496.082 13.9188 488.086 11.756C491.177 12.1059 493.301 12.6527 496.042 13.1066L496.297 12.9397ZM389.079 2.05828C391.386 2.02578 396.151 1.78123 397.448 2.19721C394.377 2.73047 392.678 2.38247 389.079 2.05828ZM201.408 20.4505C203.24 19.9047 206.107 19.3758 209.299 18.9235C206.967 19.4447 204.331 19.9872 201.408 20.4505ZM176.162 190.851C176.162 190.851 175.997 190.853 175.92 190.858C171.627 190.156 173.141 190.407 176.162 190.851ZM185.477 191.958C186.512 191.975 186.529 191.874 186.202 191.768C185.391 191.844 183.233 191.668 180.826 191.409C181.354 191.621 182.482 191.84 185.477 191.958ZM443.605 146.463C443.605 146.463 444.155 146.325 444.705 146.187C445.242 146.04 445.803 145.882 445.803 145.882C441.066 147.576 442.346 146.999 443.605 146.463Z" fill="white" fill-opacity="0.85"/>
</svg>
