<svg width="69" height="109" viewBox="0 0 69 109" fill="none" xmlns="http://www.w3.org/2000/svg">
<g clip-path="url(#clip0_32_650)">
<path d="M67.97 12.7499C67.44 12.2799 66.86 11.8699 66.34 11.4499C66.56 9.97991 66.12 8.88991 64.85 8.25991C63.74 7.71991 62.88 6.94991 62.21 5.91991C61.21 4.36991 60.13 2.90991 57.96 2.98991C57.68 2.99991 57.38 2.74991 57.12 2.58991C56.05 1.91991 54.81 1.73991 53.66 1.92991C51.89 2.21991 50.22 1.56991 48.49 1.83991C48.41 1.38991 48.36 1.08991 48.3 0.719914C47.65 0.619914 46.98 0.519914 46.36 0.419914C46.08 0.949914 45.86 1.35991 45.65 1.74991C44.52 2.07991 43.44 2.34991 42.39 2.72991C41.07 3.20991 39.78 3.76991 38.48 4.29991C38.73 4.35991 39.08 4.24991 39.12 4.79991C38.79 4.90991 38.44 5.02991 38.08 5.13991C36.88 5.48991 35.73 5.92991 34.71 6.70991C33.41 7.69991 32.06 8.62991 30.73 9.57991V9.55991C30.55 9.55991 30.37 9.55991 30.19 9.55991V9.58991H30.2C29.68 10.1799 29.17 10.7799 28.62 11.3399C28.05 11.9299 27.34 12.4199 27.12 13.6499C28.46 12.6999 29.52 11.9499 30.58 11.1999C30.63 11.1599 30.66 11.0999 30.7 11.0499C31.07 11.1299 31.45 11.1999 31.87 11.2899C31.87 12.5699 30.83 13.0899 30.28 13.8899C29.7 14.7199 28.91 15.3999 28.22 16.1599C27.16 17.3199 27.12 17.3999 26.72 18.7399C27.12 18.5799 27.47 18.4299 27.81 18.2899C27.73 18.5799 27.68 18.8999 27.54 19.1499C26.32 21.2999 25.16 23.4899 23.81 25.5599C21.95 28.3999 20.85 31.5699 19.61 34.6799C18.01 38.6799 16.46 42.7099 14.83 46.6899C13.95 48.8299 12.9 50.8899 11.99 53.0099C11.37 54.4399 11.42 54.4599 10.01 54.8699C10.98 55.8599 11.04 55.8799 10.69 57.0599C9.47998 61.1899 8.20998 65.3099 6.97998 69.4399C5.71998 73.6499 4.43998 77.8499 3.20998 82.0599C1.73998 87.1099 1.72998 92.2299 2.74998 97.3999C2.81998 96.5799 2.87998 95.7499 2.94998 94.8699C3.18998 94.9799 3.26998 94.9999 3.31998 95.0499C3.41998 95.1699 3.49998 95.3099 3.58998 95.4499C4.71998 97.3599 6.23998 98.7499 8.36998 99.5799C9.42998 99.9899 10.42 100.85 11.16 101.75C12.37 103.21 13.85 104.21 15.49 105.07C15.96 105.32 16.35 105.74 16.77 106.08L16.75 106.06C16.91 105.92 17.11 105.64 17.23 105.67C18.47 105.93 19.7 106.46 20.94 106.48C22.27 106.49 23.21 106.97 24 107.94C24.29 107.75 24.49 107.5 24.67 107.52C26.53 107.68 28.2 106.81 30 106.62C30.51 106.57 31.06 106.23 31.47 105.88C32.91 104.66 34.57 103.97 36.37 103.54C36.59 103.49 36.79 103.38 36.97 103.31C36.37 102.47 35.59 103.35 35.06 102.59C36.4 101.96 37.61 101.39 38.82 100.81C39.02 100.71 39.28 100.58 39.36 100.39C40.1 98.7899 41.58 98.4999 43.08 98.3399C43.49 97.6499 43.85 97.0399 44.2 96.4399C44.98 96.1299 45.75 95.8099 46.52 95.4999V95.5299H46.51C46.69 95.5299 46.86 95.5299 47.04 95.5299C47.04 95.3499 47.04 95.1799 47.04 94.9999L47.01 95.0099C47.27 94.7599 47.51 94.4899 47.8 94.2799C48.15 94.0199 48.54 93.8199 48.91 93.5899C48.87 92.9799 48.83 92.3699 48.77 91.5599C49.63 90.9299 50.58 90.2399 51.66 89.4499C51.57 88.6599 51.91 87.9299 52.66 87.3099C53.21 86.8599 53.64 86.2599 54.07 85.6899C54.98 84.4799 55.86 83.2499 56.74 82.0199C56.97 81.6999 57.19 81.3499 57.36 80.9999C57.74 80.1899 58.16 79.4899 59.17 79.2599C59.55 79.1799 59.84 78.6199 60.13 78.2499C60.39 77.9099 60.59 77.5099 60.95 76.9299C61.13 78.0799 60.54 78.6999 60.27 79.4199C59.94 80.2899 59.91 81.0699 60.6 81.9099C61.08 81.4799 61.51 81.1399 61.9 80.7499C64.49 78.2199 65.59 75.2199 64.73 71.6199C64.64 71.2299 64.46 70.8599 64.41 70.4699C64.37 70.1799 64.45 69.8699 64.48 69.5299H65.91C67.09 66.6599 67.04 66.2699 65.19 63.8599C64.81 63.3599 64.74 62.8899 65.05 62.3199C65.54 61.4399 65.5 60.4299 64.61 60.0099C63.44 59.4499 62.8 58.5299 62.08 57.5799C61.66 57.0199 61.02 56.6199 60.54 56.0899C59.52 54.9599 57.92 54.5599 57.05 53.2399C56.91 53.0199 56.51 52.8699 56.22 52.8599C55.12 52.8299 54.26 52.3299 53.4 51.6899C52.84 51.2699 52.15 50.9999 51.49 50.7299C50.09 50.1499 48.68 49.5899 47.27 49.0499C45.75 48.4699 44.68 47.2299 43.33 46.4099C42.99 46.2099 42.64 46.0199 42.28 45.8699C42.19 45.8299 42.02 45.9799 41.77 46.0999C42.14 47.0999 43.71 47.3999 43.41 48.8899C42.67 49.5699 41.69 49.7799 40.62 49.7299C39.6 49.6799 38.58 49.6299 37.42 49.5699C37.14 49.3199 36.75 48.9599 36.4 48.6399C35.51 49.0399 34.73 49.3999 33.88 49.7799V51.0599C33.61 51.1199 33.45 51.1999 33.31 51.1799C32.92 51.1099 32.54 50.9899 32.15 50.8899V50.8599H32.16C31.98 50.8599 31.8 50.8599 31.62 50.8599L31.64 50.8899C30.21 50.6999 29.49 49.5299 28.41 48.7799C28.92 47.7999 29.4 46.9899 29.78 46.1299C30.92 43.6099 30.99 43.5799 33.01 45.4899C33.01 45.5199 33.01 45.5499 33.01 45.5799C33.01 45.5599 33.03 45.5499 33.04 45.5299C33.3 45.8899 33.57 46.2599 33.92 46.7299C34.6 46.3599 35.25 45.9099 35.98 45.6499C36.7 45.3899 37.5 45.3199 38.28 45.1699C38.69 44.4999 38.85 43.8599 37.91 43.3299C37.35 43.4999 36.63 43.9899 36.17 43.8099C34.67 43.2399 33.21 44.0099 31.76 43.6899C31.47 43.6299 31.21 43.4799 30.86 43.3399C30.95 42.9299 30.97 42.6099 31.09 42.3399C31.82 40.6599 32.43 38.9099 33.35 37.3299C35.08 34.3699 37.03 31.5399 38.81 28.6199C40.11 26.4899 41.72 24.6199 43.36 22.7799C43.83 22.2499 44.4 21.7599 45.02 21.4299C45.82 21.0099 45.46 20.0899 45.98 19.5899C46.27 19.3099 46.49 18.9599 46.82 18.7399C49.03 17.2599 51.31 15.8899 54.12 16.2899C55.37 16.4699 56.61 16.8099 57.8 17.2399C58.92 17.6399 60.02 17.9799 61.35 17.9599C61.31 17.5299 61.39 17.1399 61.23 16.9499C60.9 16.5399 60.45 16.2299 60.05 15.8799C61.04 15.8999 61.75 16.5499 62.53 17.0299C63.67 17.7299 64.79 18.5599 66.28 18.2499C66.53 17.9299 66.74 17.5799 67.02 17.3099C67.3 17.0399 67.69 16.8699 67.97 16.5899C69.06 15.5499 69.05 13.7799 67.93 12.7799L67.97 12.7499ZM60.58 69.5499C60.58 69.5499 60.75 69.6099 60.76 69.6499C60.78 69.8599 60.76 70.0799 60.76 70.3399C60.39 70.0999 60.35 69.8499 60.57 69.5499H60.58ZM28.02 50.4999C28.07 50.4799 28.19 50.6199 28.27 50.6799C28.16 50.7399 28.05 50.7999 27.93 50.8599C27.87 50.8199 27.82 50.7899 27.76 50.7499C27.84 50.6599 27.91 50.5299 28.01 50.4899L28.02 50.4999ZM20.63 61.0699L20.77 61.1399L20.62 61.2099V61.0599L20.63 61.0699ZM19.66 44.5899C19.72 44.4899 20.01 44.3999 20.03 44.4199C20.14 44.5799 20.32 44.8199 20.27 44.9499C20.14 45.2699 19.9 45.5399 19.68 45.8699C19.47 45.6199 19.29 45.4899 19.31 45.4099C19.38 45.1299 19.5 44.8399 19.66 44.5899ZM19.98 48.2199C19.7 49.5199 18.39 49.6699 17.61 50.3999C17.39 50.6099 16.76 50.3899 16.3 50.3399C16.68 49.2399 17.06 48.1299 17.42 47.0899C18.5 46.8699 19.3533 47.2466 19.98 48.2199ZM19.04 55.2699C19.11 55.1699 19.17 55.0599 19.24 54.9599C19.36 55.0199 19.48 55.0799 19.6 55.1299C19.53 55.2299 19.48 55.4099 19.4 55.4099C19.29 55.4199 19.16 55.3199 19.04 55.2699ZM19.31 57.0199V57.2099C19.25 57.2299 19.18 57.2799 19.13 57.2699C19.08 57.2599 19.05 57.1799 19.02 57.1299C19.12 57.0899 19.21 57.0599 19.31 57.0199ZM19.49 54.0499C19.49 54.0499 19.43 53.9699 19.4 53.9299C19.53 53.9099 19.65 53.8799 19.78 53.8699C19.81 53.8699 19.84 53.9499 19.86 53.9999C19.74 54.0199 19.61 54.0499 19.49 54.0499ZM16.23 50.3899C16.17 50.7499 16.11 51.1199 16.05 51.4399C16.24 52.0499 17.26 51.6199 17.19 52.4299C17.15 52.8699 17 53.3099 16.89 53.8099H17.9C18.15 55.3799 17.99 55.5799 16.75 55.1699L16.78 55.1999C16.56 55.1499 16.22 55.1799 16.12 55.0399C15.54 54.2499 14.71 54.1799 13.86 54.1399C14.11 53.3499 14.36 52.5599 14.6 51.7699C14.84 50.9499 15.49 50.6299 16.21 50.3899H16.23ZM13.85 54.2299C13.89 54.4199 13.94 54.6099 13.94 54.8099C13.94 54.9299 13.84 55.0399 13.61 55.1099C13.69 54.8199 13.77 54.5199 13.85 54.2299ZM4.84998 94.1999C4.04998 93.0499 3.63998 92.0599 4.08998 90.7599C4.98998 91.8399 5.00998 91.9199 4.84998 94.1999ZM5.90998 92.0299C5.81998 91.4099 6.26998 91.0499 6.63998 90.6699C7.03998 92.2299 7.44998 93.7999 7.92998 95.6699C7.13998 94.7499 5.98998 92.6399 5.89998 92.0299H5.90998ZM14.68 89.9199C14.68 89.9199 14.77 89.9699 14.79 90.0099C14.8 90.0299 14.8 90.0599 14.81 90.0899C14.76 90.0299 14.72 89.9799 14.67 89.9199H14.68ZM43.81 96.3599C43.74 96.3399 43.69 96.2199 43.63 96.1499C43.7 96.1599 43.78 96.1499 43.84 96.1899C43.95 96.2499 44.05 96.3199 44.15 96.3799C44.04 96.3799 43.92 96.3799 43.81 96.3599ZM47.04 95.4699C46.88 95.4699 46.72 95.4699 46.55 95.4699C46.7 95.3199 46.86 95.1599 47.01 95.0099C47.01 95.1699 47.03 95.3199 47.04 95.4799V95.4699ZM47.2 93.3999C47.2 93.3999 47.14 93.4499 47.11 93.4799C47.15 93.3999 47.19 93.3199 47.24 93.2399C47.23 93.2899 47.24 93.3599 47.2 93.3999ZM49.78 77.4799C49.78 77.4799 49.78 77.3899 49.8 77.3499C49.8 77.3399 49.81 77.3299 49.82 77.3199C49.81 77.3699 49.79 77.4299 49.78 77.4799ZM52.09 67.3099C52.09 67.3099 52.17 67.5499 52.25 67.7899C52.02 67.7899 51.81 67.8299 51.63 67.7699C51.54 67.7399 51.52 67.5199 51.47 67.3899C51.68 67.3599 51.89 67.2999 52.1 67.3099H52.09ZM33.92 62.3399C35.76 62.3499 37.59 62.3999 39.43 62.4799C40.63 62.5299 41.82 62.6199 42.73 63.6099C42.97 63.8699 43.48 64.0699 43.8 64.0099C44.92 63.7799 45.91 64.4199 47.06 64.3199C48.4 64.2099 49.66 64.9799 50.46 66.2199C50.6 67.9499 50.75 69.6799 50.92 71.8299C51.16 72.1699 51.54 72.9299 52.3 73.3899C52.51 75.2799 51.33 76.2699 49.92 77.1199C50.04 76.6999 50.21 76.2899 50.27 75.8599C50.34 75.3399 50.42 74.7799 49.9 74.3999C49.12 75.6299 48.33 76.8499 47.83 78.2499C47.58 78.9299 47 79.4999 46.56 80.1099C46.48 79.9999 46.39 79.8899 46.31 79.7799C46.38 79.8999 46.46 80.0299 46.53 80.1499L46.57 80.1199C45.88 81.4599 45.03 82.6599 43.71 83.4499C43.59 83.2799 43.46 83.1099 43.26 82.8299C41.23 84.9599 39.27 87.0299 37.31 89.0899C37.17 90.0199 36.44 90.1099 35.72 90.4699C33.52 91.5699 31.44 92.9099 29.33 94.1799C28.71 94.5499 28.16 94.8499 27.34 94.6799C26.26 94.4499 25.22 94.8499 23.92 95.4399C24.5 95.7799 24.81 95.9599 25.14 96.1499C25.06 96.2499 24.99 96.3899 24.89 96.4399C24.21 96.7699 23.53 96.9299 22.87 96.3899C22.32 95.9499 21.71 95.9699 21.05 96.0699C19.88 96.2399 18.7 96.3599 17.36 96.5199C17.65 95.3699 18.37 94.3399 17.87 93.1899C17.01 92.9999 17 92.9999 15.28 93.4799C15.33 92.5299 15.38 91.5999 15.43 90.6799C15.43 90.6799 15.43 90.6799 15.42 90.6699C15.51 90.4699 15.65 90.2599 15.63 90.0699C15.59 89.5999 15.5 89.1299 15.36 88.6799C14.63 86.3799 15.05 84.2899 16.65 82.5099C17.18 81.9199 17.39 81.3399 17.34 80.5999C17.28 79.7099 16.66 79.3599 15.86 79.8099C15.61 79.9499 15.46 80.2699 15.09 80.7199C15 79.9499 14.94 79.4599 14.84 78.6499C14.47 79.2799 14.23 79.6899 14 80.0999C13.99 80.0999 13.97 80.0999 13.96 80.0999C13.96 80.1099 13.98 80.1299 13.98 80.1399L14.01 80.1099C13.67 80.7299 13.34 81.3399 12.88 82.1899C12.76 81.7099 12.73 81.4999 12.64 81.3099C12.55 81.1199 12.42 80.9499 12.18 80.5799C11.27 81.8199 11.37 83.2499 10.87 84.4499C10.37 85.6799 10.25 87.0699 9.97998 88.3499C9.55998 88.6499 9.13998 88.8699 8.82998 89.1899C8.58998 89.4399 8.48998 89.8199 8.18998 90.1099C8.53998 87.0099 8.76998 83.9299 8.69998 80.7199C8.51998 80.9199 8.31998 81.0999 8.15998 81.3099C8.06998 81.4299 8.03998 81.6099 8.02998 81.7599C7.90998 84.2199 6.99998 86.5799 7.11998 89.0699C7.14998 89.6099 7.14998 90.1599 6.70998 90.5799C6.57998 89.8999 6.43998 89.2299 6.30998 88.5499C6.11998 87.4899 5.94998 86.4299 5.74998 85.2799C5.01998 85.7799 5.18998 86.2999 5.33998 86.8399C5.50998 87.4499 5.66998 88.0599 5.76998 88.6799C5.82998 89.0599 5.77998 89.4499 5.77998 90.0099C4.07998 87.7699 3.40998 85.7699 5.16998 83.3299C6.47998 81.4999 7.03998 79.2899 7.08998 77.0199C7.13998 74.7599 7.78998 72.6299 8.23998 70.4499C8.31998 70.0699 8.49998 69.6999 8.62998 69.3299C8.95998 68.3599 9.33998 67.3999 9.58998 66.3999C10.08 64.4699 10.71 62.6099 11.59 60.8999C12.3 60.7699 12.68 61.0399 12.68 61.5999C12.68 62.4599 12.56 63.3299 12.48 64.1899C12.65 64.2299 12.82 64.2699 13 64.3099C13.05 64.1899 13.1 64.0699 13.15 63.9499C13.26 64.0699 13.37 64.1899 13.48 64.3099C14.02 62.8566 14.83 61.5699 15.91 60.4499C15.84 60.3099 15.72 60.1799 15.71 60.0299C15.66 59.4999 15.95 59.1399 16.28 59.3199C16.97 59.6799 17.63 60.0799 18.36 60.4999C18.11 62.3199 17.84 64.0599 16.85 65.5799C16.97 64.0299 17.22 62.4899 16.83 60.9499C16.67 60.9399 16.51 60.9199 16.36 60.9099C16.18 61.9099 16.07 62.9299 15.8 63.9099C15.38 65.4299 15.48 66.8399 16.38 68.1599L16.36 68.1399C15.85 69.6399 15.44 71.1699 14.81 72.6499C14.28 73.8999 13.82 75.2999 14.08 76.7799C14.84 76.6799 14.9 76.1499 15.03 75.7199C15.53 74.1299 16.02 72.5299 16.5 70.9299C16.8 69.9399 17.07 68.9399 17.8 68.1499H17.77C17.82 67.5699 18.04 67.0899 18.81 67.0099C18.19 65.7799 18.25 64.6799 18.49 63.5899C20.23 61.9399 22.21 62.2999 24.12 62.9399C25.42 63.3799 26.64 63.8599 28.06 63.7099C28.64 63.6499 29.27 63.9799 29.9 64.1299C29.97 63.8499 30.04 63.5699 30.1 63.3299C30.86 63.0799 31.59 62.8099 32.34 62.6099C32.87 62.4699 33.43 62.3599 33.97 62.3699L33.92 62.3399ZM16.75 65.7299C16.75 65.8599 16.75 65.9899 16.73 66.1199C16.73 66.1899 16.67 66.2599 16.64 66.3299C16.59 66.2299 16.47 66.0999 16.5 66.0299C16.55 65.9099 16.66 65.8199 16.75 65.7299ZM28.81 52.0299C29.1 51.9399 29.54 51.8799 29.74 52.0299C30.62 52.7099 31.71 52.4799 32.66 52.8199C32.34 53.3299 32.02 53.8299 31.75 54.2499C29.93 54.8999 28.17 55.5299 26.41 56.1599L26.43 56.1399L26.44 56.1299C26.27 55.9499 26.09 55.7799 25.92 55.5999L25.89 55.6299C26.06 55.7999 26.24 55.9799 26.41 56.1499C25.15 56.9599 23.76 56.9899 22.29 56.9599C22.69 55.9699 23.48 55.0499 24.22 54.7199C24.73 54.4899 25.27 54.3199 25.78 54.0999C25.99 54.0099 26.34 53.8499 26.35 53.7099C26.46 52.0699 27.85 52.3499 28.83 52.0299H28.81ZM52.08 3.13991C52.89 2.82991 53.22 3.08991 53.56 3.96991C52.93 3.61991 52.58 3.41991 52.08 3.13991ZM54.8 5.01991C54.35 4.96991 54.23 4.55991 54.32 4.16991C54.36 4.00991 54.68 3.73991 54.73 3.76991C55 3.92991 55.23 4.15991 55.65 4.51991C55.23 4.77991 55 5.02991 54.8 5.00991V5.01991ZM59.89 15.6499C59.89 15.6499 59.92 15.6999 59.94 15.7199C59.88 15.6799 59.81 15.6299 59.75 15.5899C59.8 15.6099 59.86 15.6199 59.9 15.6499H59.89ZM16.8 60.9499C16.8 60.9499 16.78 60.9499 16.77 60.9499C16.77 60.9399 16.77 60.9299 16.77 60.9199L16.8 60.9499ZM49.92 74.3699C49.92 74.3699 49.9 74.3999 49.89 74.4099C49.89 74.4099 49.89 74.4099 49.88 74.3999L49.92 74.3699ZM48.92 93.5799C48.92 93.5799 48.92 93.5799 48.92 93.5699C48.93 93.5699 48.94 93.5599 48.95 93.5499L48.92 93.5799ZM12.4 64.1899C12.4 64.1899 12.42 64.1899 12.43 64.1899C12.43 64.1899 12.43 64.2099 12.43 64.2199L12.4 64.1899ZM38.41 4.27991C38.41 4.27991 38.46 4.28991 38.48 4.29991C38.47 4.29991 38.46 4.30991 38.44 4.31991L38.41 4.28991V4.27991ZM58.08 83.9999C58.08 83.9999 58.05 84.0299 58.04 84.0399C58.04 84.0199 58.05 83.9999 58.06 83.9699L58.08 83.9899V83.9999ZM55.42 86.6499C56.29 85.7799 57.17 84.9099 58.04 84.0399C57.88 84.5399 57.72 85.0399 57.56 85.5399C57.49 85.7599 57.48 86.0399 57.33 86.1999C56.24 87.3999 55.12 88.5699 53.74 90.0399C53.97 88.4499 54.58 87.4899 55.42 86.6499ZM9.12998 48.1699C9.10998 48.2199 8.99998 48.2299 8.92998 48.2599C9.04998 46.6099 9.80998 44.6599 11.86 41.6899C10.95 43.8499 10.05 46.0099 9.12998 48.1599V48.1699ZM21.33 22.5199C21.09 21.8699 20.95 21.6899 21 21.5799C21.24 20.9399 21.08 20.0799 21.95 19.7899C22.06 19.7499 22.23 19.8799 22.39 19.9399C22.52 20.8699 21.58 21.2399 21.33 22.5199ZM42.71 0.679914C43.35 -0.100086 43.35 -0.110086 45.31 0.159914C44.23 0.759914 43.55 0.969914 42.71 0.679914ZM13.92 35.9699L13.9 35.9599C13.89 35.1699 14.1 34.4999 14.85 34.1099C14.85 34.8799 14.67 35.5699 13.91 35.9699H13.92ZM14.9 34.0799C14.9 34.0799 14.87 34.0999 14.86 34.1099C14.86 34.0899 14.86 34.0699 14.86 34.0499L14.9 34.0799ZM40.63 101.81C40.97 101.68 41.3 101.55 41.77 101.38C41.6 102.16 41.12 102.06 40.63 101.81ZM0.39998 86.5799C0.46998 87.2599 0.51998 87.5499 0.51998 87.8299C0.51998 88.0399 0.42998 88.2599 0.32998 88.7299C-0.0800196 88.0099 -0.16002 87.5199 0.39998 86.5799ZM33.03 45.5599C33.06 46.2199 33.22 46.9299 32.35 47.4699C32.22 46.6099 32.76 46.1299 33.03 45.5599ZM13.44 36.9999C13.68 37.5199 13.64 37.9999 13.24 38.4699C12.95 37.7899 12.95 37.7799 13.44 36.9999ZM13.45 36.9799C13.45 36.9799 13.45 36.9899 13.44 36.9999C13.44 36.9799 13.44 36.9599 13.42 36.9499L13.45 36.9799ZM14.41 38.7899C14.46 38.3099 14.12 37.7599 14.71 37.3399C15.07 37.9499 14.7 38.3599 14.41 38.7899ZM14.41 38.7899C14.41 38.7899 14.41 38.8299 14.41 38.8499L14.39 38.8299C14.39 38.8299 14.41 38.7999 14.42 38.7899H14.41ZM7.46998 51.6999C7.46998 51.5599 7.40998 51.3999 7.45998 51.2799C7.50998 51.1399 7.64998 51.0399 7.74998 50.9299C7.83998 51.0099 7.91998 51.0999 8.00998 51.1899C7.96998 51.3399 7.95998 51.5199 7.86998 51.6199C7.78998 51.6999 7.60998 51.6899 7.47998 51.7099L7.46998 51.6999ZM3.71998 100.68C3.80998 100.78 3.88998 100.88 3.97998 100.98C3.87998 101.04 3.78998 101.11 3.67998 101.14C3.65998 101.14 3.54998 101.03 3.55998 100.99C3.58998 100.88 3.65998 100.78 3.71998 100.68ZM1.42998 79.6299L1.38998 79.5999C1.40998 79.5499 1.43998 79.4999 1.45998 79.4499C1.44998 79.5099 1.43998 79.5699 1.42998 79.6399V79.6299ZM1.80998 78.6999C1.68998 78.9499 1.57998 79.1999 1.45998 79.4499C1.50998 79.1699 1.54998 78.8999 1.59998 78.6199C1.66998 78.6499 1.73998 78.6699 1.80998 78.6999ZM31.07 45.9899C31.16 46.0199 31.21 46.1899 31.28 46.2999C31.15 46.3399 31.02 46.3799 30.89 46.4199C30.83 46.3199 30.77 46.2199 30.7 46.1199C30.82 46.0699 30.96 45.9699 31.07 45.9999V45.9899ZM10.55 47.8699C10.56 47.7399 10.57 47.5999 10.6 47.4699C10.61 47.3999 10.66 47.3299 10.7 47.2599C10.75 47.3699 10.86 47.4999 10.82 47.5799C10.77 47.6999 10.65 47.7799 10.55 47.8699ZM10.55 47.9399C10.55 47.9399 10.53 47.9199 10.52 47.9199C10.52 47.9199 10.55 47.9399 10.55 47.9499C10.52 47.9699 10.5 47.9999 10.48 48.0199C10.49 47.9799 10.51 47.9499 10.52 47.9099C10.52 47.9099 10.55 47.8799 10.56 47.8699C10.56 47.8899 10.56 47.9199 10.56 47.9399H10.55ZM6.08998 66.9899C6.00998 66.9599 5.92998 66.9299 5.85998 66.8899C5.88998 66.8399 5.90998 66.7699 5.95998 66.7399C5.97998 66.7299 6.04998 66.7799 6.08998 66.7999V66.9899ZM3.12998 71.2399C3.02998 71.1799 2.93998 71.1199 2.83998 71.0499C2.91998 70.9599 2.98998 70.8599 3.06998 70.7699C3.12998 70.8699 3.19998 70.9599 3.22998 71.0699C3.23998 71.1099 3.16998 71.1799 3.12998 71.2399ZM38.24 4.34991C38.24 4.34991 38.3 4.33991 38.33 4.32991C38.26 4.37991 38.2 4.41991 38.13 4.46991C38.17 4.42991 38.19 4.36991 38.24 4.34991ZM38.33 4.32991C38.33 4.32991 38.38 4.28991 38.41 4.26991L38.44 4.29991C38.4 4.29991 38.37 4.31991 38.33 4.31991V4.32991ZM13.77 36.2699C13.67 36.4999 13.57 36.7399 13.46 36.9699L13.43 36.9399C13.54 36.7199 13.66 36.4899 13.77 36.2699ZM13.92 35.9699C13.87 36.0699 13.82 36.1699 13.77 36.2699C13.81 36.1699 13.86 36.0599 13.9 35.9599L13.92 35.9699ZM15.36 33.1199C15.21 33.4399 15.05 33.7599 14.9 34.0799L14.86 34.0499C15.02 33.7299 15.18 33.4099 15.34 33.0899L15.36 33.1199ZM65.6 19.4699C65.51 19.4099 65.43 19.3299 65.35 19.2599C65.49 19.2999 65.62 19.3399 65.76 19.3799C65.71 19.4099 65.63 19.4799 65.6 19.4699ZM65.23 19.2199L65.27 19.1899C65.27 19.1899 65.32 19.2299 65.35 19.2599C65.31 19.2499 65.27 19.2399 65.23 19.2199ZM10.38 48.0999C10.38 48.0999 10.44 48.0399 10.47 48.0099C10.44 48.0999 10.41 48.1799 10.38 48.2699C10.38 48.2099 10.36 48.1399 10.38 48.0999ZM1.36998 79.6699C1.36998 79.6699 1.37998 79.6199 1.38998 79.5899C1.38998 79.5899 1.42998 79.6199 1.42998 79.6299C1.41998 79.6499 1.38998 79.6599 1.36998 79.6699ZM1.36998 79.6699C1.33998 79.7799 1.30998 79.8999 1.27998 80.0099C0.97998 79.7699 1.22998 79.7399 1.36998 79.6699ZM1.19998 91.6499L1.26998 91.8099H1.11998L1.19998 91.6499ZM54.17 86.8999L54.22 86.8099L54.26 86.8399L54.18 86.8899L54.17 86.8999ZM16.77 106.06L16.75 106.05L16.83 106.11L16.77 106.06ZM19.17 107.98L19.15 107.96L19.12 107.89L19.16 107.97L19.23 108.02L19.17 107.98ZM9.67998 76.9599C10.07 77.8399 9.60998 78.2399 9.38998 78.9199C9.12998 78.1199 9.24998 77.6399 9.67998 76.9599ZM21.09 94.3899C21.28 94.4499 21.44 94.6199 21.61 94.7499C21.41 94.9399 21.2 95.1299 21 95.3199C20.71 95.1899 20.49 95.1299 20.32 94.9999C20.22 94.9299 20.14 94.7499 20.16 94.6299C20.18 94.5199 20.33 94.3699 20.44 94.3499C20.66 94.3199 20.9 94.3199 21.1 94.3899H21.09ZM49.89 74.3399C49.89 74.3399 49.91 74.3599 49.92 74.3799L49.88 74.4099C49.88 74.3899 49.88 74.3599 49.89 74.3399ZM50.14 72.9999C50.04 73.5299 49.96 73.9399 49.89 74.3399C49.43 73.7199 49.45 73.6999 50.14 72.9999ZM17.79 92.5499L17.76 92.5799C17.76 92.5599 17.75 92.5499 17.75 92.5299C17.77 92.5299 17.77 92.5499 17.79 92.5499ZM16.81 91.1599C16.81 91.1599 16.81 91.1999 16.81 91.2199C16.79 91.2199 16.78 91.1999 16.77 91.1899L16.8 91.1599H16.81ZM17.75 92.5299C17.14 92.3099 16.86 91.8499 16.82 91.2199C17.37 91.4799 17.61 91.9699 17.75 92.5299ZM20.58 63.4199C20.56 63.3699 20.54 63.3099 20.52 63.2599C20.6 63.2899 20.67 63.3099 20.78 63.3499C20.69 63.3799 20.63 63.4099 20.58 63.4299V63.4199ZM11.79 71.6299V71.8499C11.73 71.8499 11.62 71.8699 11.61 71.8499C11.58 71.7899 11.58 71.6999 11.61 71.6499C11.63 71.6199 11.73 71.6399 11.8 71.6399L11.79 71.6299ZM13.65 79.7799C13.75 79.8599 13.81 79.9899 13.88 80.1099C13.75 80.0899 13.6 80.0799 13.5 80.0199C13.4 79.9599 13.36 79.8099 13.29 79.7099C13.41 79.7299 13.56 79.7099 13.65 79.7899V79.7799ZM17.83 93.2199C17.83 93.2099 17.83 93.1999 17.82 93.1899C17.8 92.9899 17.79 92.7899 17.77 92.5999L17.8 92.5699C17.81 92.7899 17.83 93.0099 17.85 93.2299L17.83 93.2199Z" fill="white"/>
</g>
<defs>
<clipPath id="clip0_32_650">
<rect width="68.82" height="108.03" fill="white"/>
</clipPath>
</defs>
</svg>
