<svg width="46" height="34" viewBox="0 0 46 34" fill="none" xmlns="http://www.w3.org/2000/svg">
<g clip-path="url(#clip0_0_346)">
<path d="M45.9022 21.7042C45.979 20.8103 45.9389 19.9268 45.7929 19.0474C45.6966 18.4672 45.5659 17.8948 45.377 17.3328C45.2291 16.8927 45.0858 16.4521 44.8877 16.0349C44.7025 15.645 44.5416 15.2447 44.3118 14.872C44.0141 14.3892 43.7475 13.8877 43.4326 13.4133C42.5478 12.0803 41.5384 10.8513 40.4169 9.71603C39.7094 8.99982 38.9437 8.35016 38.124 7.76519C37.2965 7.17413 36.4322 6.644 35.5428 6.15559C35.0432 5.88138 34.5464 5.60061 34.0347 5.35031C33.5691 5.12251 33.0802 4.94346 32.6117 4.72222C32.0079 4.43724 31.3455 4.31302 30.7469 4.02288C30.291 3.80211 29.857 3.53634 29.4132 3.28979C28.5285 2.7981 27.6046 2.39546 26.6557 2.04767C25.9356 1.78378 25.2076 1.54426 24.4819 1.29911C23.7823 1.10553 23.0915 0.880071 22.384 0.713673C21.3378 0.467592 20.2916 0.231823 19.2157 0.143702C18.5682 0.090736 17.9202 0.0607375 17.2727 0.0672997C16.2135 0.0780804 15.1654 0.20698 14.1267 0.426813C13.3652 0.588055 12.6126 0.780701 11.8799 1.03991C11.0724 1.32536 10.2811 1.653 9.51312 2.0397C8.6493 2.47515 7.83571 2.98934 7.05375 3.55556C6.15085 4.20943 5.33029 4.9608 4.5595 5.76842C3.97292 6.38245 3.4496 7.04804 2.96023 7.73988C2.68997 8.12142 2.45506 8.52922 2.21456 8.93138C1.67403 9.83509 1.21165 10.7814 0.837186 11.7639C0.59204 12.4061 0.424578 13.0796 0.292003 13.7597C0.166872 14.4014 0.104539 15.0497 0.0552305 15.6989C0.0287156 16.0476 0.0580215 16.401 0.0738374 16.7521C0.111982 17.5977 0.211994 18.4348 0.412483 19.2584C0.609251 20.0655 0.891611 20.8408 1.2363 21.5959C1.38702 21.9259 1.56332 22.2418 1.72101 22.5676C1.88429 22.8549 2.0471 23.1427 2.21038 23.43C2.3183 23.5814 2.42622 23.7333 2.53367 23.8847C2.71695 24.0459 2.82999 24.2634 2.97559 24.4547C3.76266 25.4868 4.6209 26.4486 5.5973 27.3064C6.14992 27.792 6.75465 28.2035 7.33193 28.6535C7.36263 28.6774 7.39984 28.6919 7.43427 28.7112C7.67988 28.6746 7.86827 28.7374 7.99061 28.9802C8.03155 29.0613 8.15714 29.0885 8.25297 29.104C8.34089 29.1185 8.4088 29.155 8.48184 29.2C8.74605 29.3613 9.0112 29.5221 9.28333 29.6688C9.68384 29.8849 10.0913 30.0869 10.4946 30.2978C11.1236 30.6268 11.7711 30.9086 12.4372 31.1565C13.3494 31.4954 14.2737 31.7968 15.2073 32.0635C16.3614 32.393 17.5308 32.6658 18.7068 32.9063C19.426 33.0534 20.1502 33.1697 20.8754 33.2803C21.4904 33.3741 22.1091 33.4397 22.7273 33.51C23.152 33.5583 23.579 33.5747 24.0023 33.6225C24.3828 33.6651 24.7657 33.6412 25.1448 33.7078C25.3267 33.7397 25.5202 33.6965 25.7081 33.7008C26.1765 33.7101 26.6445 33.7359 27.1125 33.7397C27.7646 33.7448 28.4168 33.7354 29.069 33.7331C29.1248 33.7331 29.1811 33.7364 29.2374 33.7593C28.3103 33.8653 27.379 33.8404 26.4468 33.8456C26.571 33.9487 26.7385 33.8447 26.8617 33.9412C27.0278 33.9356 27.1953 33.9684 27.3604 33.9272C27.7032 33.8587 28.0475 33.915 28.3912 33.9196C28.4573 33.9206 28.5238 33.922 28.5899 33.9229C28.7573 33.8531 28.9294 33.9131 29.0992 33.9047C29.2081 33.8367 29.3258 33.8887 29.4388 33.8807C29.5132 33.8151 29.6114 33.8372 29.6937 33.8287C29.9147 33.8067 30.1384 33.8142 30.3612 33.81C30.3817 33.81 30.4026 33.809 30.4231 33.8086C30.5329 33.7415 30.6506 33.7917 30.7645 33.7861H30.7636C30.9176 33.7214 31.0785 33.7167 31.2418 33.7322C31.6856 33.6979 32.1261 33.6384 32.5643 33.5606C32.6624 33.5137 32.7653 33.4922 32.8736 33.5081C33.2337 33.4655 33.5854 33.3787 33.9407 33.3117C34.0715 33.2869 34.204 33.2691 34.3357 33.2475C34.7981 33.1256 35.2623 33.0113 35.7219 32.8805C36.715 32.5978 37.6765 32.2294 38.6097 31.7841C39.3586 31.427 40.0643 30.9943 40.7606 30.5453C40.8402 30.4937 40.9104 30.4276 40.9849 30.3686C41.7198 29.8305 42.3943 29.2263 42.9744 28.5185C43.0046 28.482 43.0223 28.4252 43.0837 28.422C43.8573 27.5098 44.4392 26.4758 44.9705 25.4099C45.0705 25.1343 45.1654 24.8573 45.2714 24.584C45.6305 23.6574 45.8166 22.6965 45.9013 21.7056L45.9022 21.7042ZM44.0727 21.2181C43.9941 22.2254 43.7671 23.1943 43.3772 24.127C43.1605 24.6454 42.9018 25.1413 42.6102 25.6162C42.2083 26.271 41.757 26.8916 41.2295 27.454C40.1224 28.6343 38.832 29.5417 37.3481 30.1764C36.2164 30.6601 35.0376 30.976 33.8361 31.2184C32.8304 31.4213 31.8144 31.5465 30.7934 31.6398C29.6765 31.7415 28.5592 31.8113 27.4362 31.8169C26.4659 31.8221 25.4955 31.8315 24.5275 31.778C23.3688 31.7138 22.2128 31.6107 21.0615 31.4509C19.5762 31.2442 18.1016 30.9803 16.641 30.6437C15.1133 30.2917 13.6118 29.8441 12.1441 29.2854C10.6826 28.729 9.32008 27.9762 7.98177 27.1728C6.92769 26.54 5.94013 25.8144 5.07072 24.9426C4.59764 24.4678 4.17434 23.9452 3.83383 23.3541C3.51658 22.8038 3.24259 22.2362 3.00675 21.6489C2.75044 21.0114 2.56158 20.3524 2.42017 19.6793C2.21875 18.7193 2.13455 17.7505 2.15967 16.7694C2.1806 15.9599 2.32155 15.1692 2.48157 14.378C2.67648 13.4152 2.98721 12.4942 3.41099 11.612C3.68032 11.051 3.97292 10.5011 4.30272 9.97289C4.5809 9.50979 4.87535 9.05794 5.19027 8.61921C5.5973 8.05158 6.05922 7.53036 6.51462 7.00398C6.56858 6.94164 6.62068 6.87274 6.70348 6.84274C6.69743 6.76868 6.75604 6.7354 6.79977 6.69556C6.97793 6.53479 7.13469 6.35058 7.33053 6.20949C7.35333 6.18746 7.37565 6.1659 7.39845 6.14387C7.50683 5.93013 7.69848 5.78998 7.87572 5.6503C8.37438 5.2561 8.8656 4.85159 9.39218 4.49301C9.82944 4.1949 10.2825 3.92585 10.7537 3.68962C11.1208 3.50541 11.5017 3.34838 11.8762 3.17917C11.9278 3.15574 11.979 3.13136 12.0381 3.14918C12.079 3.16136 12.1009 3.12761 12.1297 3.11074C12.1907 3.02496 12.2823 3.02262 12.3735 3.01934C12.3949 3.00903 12.4163 2.99918 12.4377 2.98887C12.5735 2.897 12.7219 2.84216 12.8856 2.83138C12.9647 2.7517 13.0624 2.73201 13.1694 2.73951C13.2368 2.72592 13.3047 2.71326 13.362 2.66967C13.4531 2.59702 13.5569 2.56889 13.6722 2.58108C13.7592 2.49811 13.8653 2.47843 13.9802 2.4878C14.0965 2.4114 14.2263 2.39312 14.3616 2.39828C14.4095 2.40765 14.4514 2.39453 14.4891 2.36406C14.6175 2.29094 14.7556 2.26328 14.9022 2.27734L14.9003 2.27828C14.9961 2.22157 15.0985 2.19813 15.2087 2.21828V2.21969C15.4273 2.10298 15.6739 2.1072 15.9074 2.07204C16.4996 1.98252 17.0936 1.90189 17.6937 1.87846C17.7216 1.87752 17.7592 1.88174 17.7751 1.86627C18.0179 1.62441 18.3328 1.7219 18.61 1.71347C19.1673 1.69659 19.7283 1.71112 20.2837 1.76081C20.9299 1.81846 21.5751 1.88971 22.2165 2.00267C22.8617 2.11657 23.5037 2.24641 24.1419 2.39031C24.621 2.49858 25.1053 2.59748 25.5704 2.76482C25.7491 2.82904 25.9347 2.87403 26.1151 2.93403C26.1505 2.94575 26.2161 2.95793 26.197 3.02028C26.1831 3.06527 26.1314 3.05121 26.0933 3.05637C25.8165 3.09246 25.5453 3.02403 25.2769 2.98653C25.0206 2.9509 24.762 2.93778 24.5066 2.91575C23.3836 2.81872 22.2561 2.77701 21.1299 2.77982C20.4638 2.78169 19.793 2.78872 19.1296 2.85528C18.384 2.93028 17.6355 2.99637 16.8973 3.13886C16.8433 3.14918 16.7861 3.14355 16.7303 3.14543C16.1446 3.25183 15.559 3.36198 14.9966 3.56259C14.4895 3.74352 13.982 3.92539 13.4894 4.14475C13.2354 4.29427 12.9642 4.41427 12.7284 4.5952C12.6917 4.71238 12.5735 4.74613 12.4884 4.7869C12.2167 4.91674 12.0874 5.15767 11.9655 5.40469C11.7901 5.76045 11.7953 5.75998 12.1855 5.77685C12.3083 5.78201 12.4307 5.8031 12.5526 5.82045C12.9452 5.87622 13.308 5.7342 13.6764 5.6428C14.5268 5.43187 15.3803 5.23173 16.2456 5.10142C16.8763 5.00674 17.5057 4.89096 18.1458 4.8605C18.7394 4.83237 19.3269 4.71566 19.9242 4.74003C19.9325 4.74003 19.9418 4.72925 19.9609 4.7166C19.8986 4.63691 19.7865 4.71097 19.706 4.6266C19.7869 4.60691 19.8507 4.57504 19.9111 4.5802C20.126 4.59895 20.3382 4.56567 20.5507 4.5577C21.5927 4.5202 22.6343 4.53426 23.6739 4.59238C24.3624 4.63082 25.0466 4.73113 25.7346 4.77987C26.217 4.81409 26.6901 4.9069 27.1678 4.96971C27.9181 5.06814 28.6564 5.23313 29.3909 5.4164C29.9407 5.55327 30.4933 5.68358 31.0269 5.87341C31.5074 6.04403 32.007 6.16355 32.4666 6.39229C32.5601 6.4387 32.6494 6.5001 32.6815 6.599C32.7122 6.69415 32.7983 6.68478 32.8546 6.71337C33.3025 6.94211 33.6309 7.33068 34.0449 7.60161C34.1719 7.68457 34.3082 7.78675 34.4799 7.7755C34.5622 7.70473 34.6729 7.72066 34.7646 7.68035C34.8171 7.65738 34.8864 7.66301 34.9013 7.57676C34.9148 7.49755 34.9706 7.54302 35.0051 7.56223C35.3586 7.76191 35.7117 7.96487 36.0736 8.14486C36.4936 8.35344 36.8634 8.6403 37.2793 8.85404C37.6631 9.05138 38.0129 9.31011 38.3529 9.57916C38.5027 9.69728 38.6585 9.80743 38.812 9.92039C38.8432 9.94289 38.8967 9.96211 38.8693 10.0062C38.8418 10.0502 38.8009 10.0146 38.7688 9.9907C38.4841 9.77978 38.1999 9.56932 37.9147 9.35886C37.8426 9.30543 37.7766 9.24121 37.6886 9.21402C37.6305 9.19621 37.6017 9.2159 37.6221 9.28105C38.4725 9.89696 39.3163 10.5204 40.0685 11.261C40.7397 11.9223 41.3482 12.6353 41.8659 13.4251C41.8868 13.4569 41.9147 13.4893 41.904 13.5333C42.6023 14.5959 43.1447 15.7345 43.5321 16.9475C43.5926 17.1369 43.654 17.3258 43.715 17.5147C43.8224 17.7425 43.8382 17.9937 43.8917 18.2347C44.1108 19.2181 44.1517 20.2136 44.0741 21.2162L44.0727 21.2181Z" fill="white"/>
<path d="M1.70268 22.5503C1.24821 21.7643 0.906772 20.9295 0.61883 20.0679C0.284371 19.0663 0.131329 18.0332 0.0541108 16.987C-0.00915272 16.1264 0.0266656 15.2644 0.14668 14.4099C0.272742 13.5128 0.489978 12.6325 0.793735 11.7809C0.988643 11.2339 1.23193 10.7019 1.50126 10.1848C1.72873 9.74846 1.9455 9.30692 2.19577 8.88179C2.79537 7.86512 3.4736 6.90892 4.26392 6.03193C4.88679 5.34056 5.56129 4.70872 6.27719 4.11625C6.86657 3.62877 7.49315 3.19661 8.13416 2.786C9.11102 2.15931 10.1516 1.65637 11.2322 1.23967C12.0774 0.91344 12.9422 0.650016 13.8269 0.452682C14.467 0.31019 15.1122 0.201445 15.7616 0.122699C16.1621 0.0744203 16.5663 0.0645771 16.9697 0.0448906C17.6134 0.0130172 18.2554 0.0486404 18.8959 0.08192C19.4448 0.110512 19.9914 0.185508 20.5347 0.286285C21.3376 0.43534 22.1317 0.617674 22.9215 0.824382C23.4439 0.96125 23.9607 1.11874 24.4757 1.28045C24.4775 1.28092 24.4794 1.28139 24.4817 1.28233C24.4822 1.2753 24.4827 1.26873 24.4831 1.2617C23.9942 1.08828 23.4946 0.95047 22.9946 0.815945C21.6535 0.455495 20.3012 0.152698 18.9131 0.0486404C17.279 -0.0736972 15.6621 0.032235 14.0539 0.36878C12.571 0.679077 11.1522 1.1703 9.79204 1.82793C8.58584 2.41102 7.46013 3.13473 6.40232 3.96391C5.34778 4.79074 4.4058 5.73148 3.56989 6.77955C2.67675 7.89934 1.9562 9.12881 1.33985 10.4192C1.02539 11.0782 0.742101 11.7518 0.53789 12.4591C0.229946 13.5297 0.0275959 14.6185 0.00387211 15.7271C-0.0282248 17.227 0.135981 18.7091 0.6179 20.1429C0.90119 20.9848 1.23239 21.8022 1.68687 22.5663C1.69477 22.5663 1.70268 22.5663 1.71106 22.5663C1.70826 22.5606 1.70547 22.5555 1.70268 22.5498V22.5503Z" fill="white"/>
<path d="M24.477 1.28083C23.9616 1.11912 23.4452 0.961632 22.9228 0.824764C22.133 0.618055 21.3389 0.436189 20.536 0.286666C19.9927 0.185421 19.4457 0.110425 18.8972 0.082301C18.2567 0.0490215 17.6148 0.0133983 16.971 0.0452716C16.5677 0.0649582 16.1634 0.0748014 15.7629 0.12308C15.1131 0.201826 14.4679 0.310102 13.8283 0.453064C12.9435 0.650397 12.0787 0.913821 11.2335 1.24005C10.1529 1.65675 9.11233 2.16016 8.13547 2.78638C7.49446 3.19746 6.86787 3.62915 6.2785 4.11663C5.56213 4.7091 4.8881 5.34094 4.26523 6.03231C3.4749 6.9093 2.79622 7.86503 2.19707 8.88217C1.94681 9.30684 1.73004 9.74837 1.50257 10.1852C1.23324 10.7022 0.989951 11.2342 0.795043 11.7812C0.491285 12.6329 0.274515 13.5132 0.147988 14.4103C0.0279734 15.2648 -0.00831007 16.1268 0.0554186 16.9874C0.132637 18.0331 0.285679 19.0662 0.620138 20.0683C0.907615 20.9298 1.24905 21.7642 1.70399 22.5507C1.70678 22.5563 1.70957 22.5615 1.71236 22.5671C1.71562 22.5671 1.71934 22.5671 1.7226 22.5671C1.5649 22.2413 1.3886 21.9259 1.23789 21.5954C0.893195 20.8403 0.610835 20.0655 0.414067 19.2579C0.213577 18.4343 0.1131 17.5972 0.075421 16.7516C0.0596052 16.4005 0.0307644 16.0471 0.0568141 15.6984C0.105657 15.0492 0.16799 14.401 0.293587 13.7593C0.426161 13.0791 0.594089 12.4056 0.83877 11.7634C1.2137 10.781 1.67608 9.83462 2.21615 8.93092C2.45664 8.52875 2.69155 8.12096 2.96182 7.73941C3.45118 7.04757 3.97496 6.38198 4.56108 5.76795C5.33187 4.96034 6.15244 4.20944 7.05534 3.55509C7.83683 2.98887 8.65042 2.47468 9.51471 2.03923C10.2827 1.65207 11.074 1.32489 11.8815 1.03944C12.6142 0.780235 13.3663 0.587588 14.1283 0.426346C15.167 0.206514 16.2151 0.0776138 17.2743 0.0668331C17.9218 0.0602709 18.5698 0.0902694 19.2173 0.143235C20.2932 0.230887 21.3394 0.466657 22.3856 0.713207C23.0931 0.879605 23.7834 1.10506 24.4835 1.29865C24.4835 1.29349 24.4844 1.28833 24.4849 1.28318C24.483 1.28271 24.4812 1.28224 24.4788 1.2813L24.477 1.28083Z" fill="white"/>
<path d="M45.5723 17.7413C45.3011 16.7697 44.9289 15.8378 44.4559 14.9496C43.88 13.8687 43.2227 12.8417 42.4393 11.8968C41.763 11.0812 41.0745 10.2787 40.3228 9.53158C39.5534 8.76709 38.7119 8.09259 37.8216 7.48137C36.9363 6.87343 36.0111 6.33018 35.0654 5.8202C33.9844 5.23711 32.8684 4.73698 31.719 4.31091C31.3389 4.16982 30.9338 4.09389 30.5807 3.88296C29.0465 2.96707 27.4408 2.21054 25.7392 1.66635C25.3205 1.5323 24.9126 1.36543 24.4841 1.26184C24.4939 1.27028 24.4967 1.27825 24.4934 1.28528C24.9772 1.41558 25.4447 1.59698 25.9192 1.75635C26.9668 2.10789 27.9929 2.51334 28.9754 3.02425C29.4303 3.26096 29.8866 3.49813 30.3216 3.77093C30.6798 3.99545 31.0682 4.14498 31.4678 4.2631C31.9771 4.41309 32.4577 4.6348 32.9466 4.83541C33.7829 5.17852 34.5816 5.59662 35.3761 6.02691C35.9623 6.34424 36.5247 6.7 37.0968 7.03983C37.7876 7.44997 38.41 7.95572 39.0543 8.43101C39.3455 8.64569 39.599 8.90489 39.8674 9.14675C40.4014 9.62861 40.8903 10.1559 41.3732 10.6884C41.9439 11.317 42.4812 11.975 42.9715 12.6688C43.4353 13.325 43.886 13.9915 44.2712 14.6998C44.7671 15.6114 45.1745 16.5578 45.4806 17.5534C45.6881 18.2288 45.8267 18.9169 45.8997 19.6115C45.9695 20.2771 45.9979 20.9488 45.9402 21.6261C45.877 22.3648 45.7509 23.0881 45.5672 23.8005C45.4402 24.2936 45.2457 24.7689 45.0457 25.2391C45.0215 25.2958 44.9908 25.3502 44.9699 25.4087C45.0382 25.3595 45.0592 25.2798 45.0894 25.2086C45.4643 24.3274 45.743 23.4162 45.8751 22.4661C45.9751 21.7461 46.0263 21.0224 45.9821 20.2917C45.93 19.4259 45.803 18.5757 45.5699 17.7413H45.5723Z" fill="white"/>
<path d="M45.5684 23.8004C45.7516 23.088 45.8782 22.3647 45.9414 21.626C45.9991 20.9487 45.9712 20.277 45.901 19.6114C45.8279 18.9163 45.6893 18.2282 45.4818 17.5532C45.1758 16.5577 44.7683 15.6113 44.2724 14.6996C43.8868 13.9914 43.436 13.3249 42.9727 12.6686C42.4829 11.9754 41.9451 11.3173 41.3744 10.6883C40.8915 10.1563 40.4026 9.62848 39.8686 9.14663C39.6007 8.90477 39.3467 8.64603 39.0555 8.43089C38.4112 7.9556 37.7883 7.44984 37.098 7.03971C36.5259 6.69988 35.9635 6.34412 35.3774 6.02679C34.5828 5.5965 33.7841 5.1784 32.9478 4.83529C32.4584 4.63467 31.9783 4.41297 31.469 4.26297C31.0689 4.14532 30.681 3.99533 30.3228 3.77081C29.8879 3.49801 29.4315 3.26084 28.9766 3.02413C27.9941 2.51322 26.968 2.10777 25.9204 1.75623C25.4459 1.59686 24.9784 1.41546 24.4946 1.28516C24.4946 1.28516 24.4946 1.28609 24.4946 1.28656C24.4905 1.29406 24.4867 1.29781 24.4825 1.29781C25.2087 1.54342 25.9362 1.78294 26.6563 2.04637C27.6057 2.39416 28.5291 2.7968 29.4138 3.28849C29.8572 3.53504 30.2916 3.80128 30.7475 4.02158C31.3462 4.31125 32.0086 4.43593 32.6124 4.72092C33.0813 4.94216 33.5702 5.12121 34.0353 5.34901C34.5466 5.59931 35.0438 5.88008 35.5434 6.15429C36.4333 6.64317 37.2976 7.1733 38.1247 7.76389C38.9443 8.34886 39.71 8.99852 40.4175 9.71473C41.539 10.85 42.5485 12.079 43.4332 13.412C43.7477 13.8864 44.0147 14.3879 44.3124 14.8707C44.5422 15.2434 44.7031 15.6436 44.8883 16.0336C45.0864 16.4508 45.2302 16.8919 45.3776 17.3315C45.5665 17.8935 45.6967 18.4658 45.7935 19.0461C45.9396 19.9255 45.9796 20.809 45.9028 21.7029C45.8182 22.6938 45.6316 23.6546 45.273 24.5813C45.1674 24.8546 45.072 25.1321 44.972 25.4072C44.9929 25.3486 45.0236 25.2943 45.0478 25.2375C45.2479 24.7674 45.4423 24.2926 45.5693 23.799L45.5684 23.8004Z" fill="white"/>
<path d="M24.494 1.28553C24.4973 1.27811 24.4945 1.27022 24.4847 1.26233C24.4843 1.26929 24.4838 1.27579 24.4833 1.28275C24.4871 1.28368 24.4903 1.28461 24.494 1.286V1.28553Z" fill="white"/>
<path d="M24.4821 1.29917C24.486 1.29917 24.4905 1.29524 24.4949 1.28738C24.4949 1.28738 24.4949 1.2864 24.4949 1.28591C24.491 1.28493 24.487 1.28394 24.4836 1.28247C24.4836 1.28787 24.4826 1.29328 24.4821 1.29868V1.29917Z" fill="white"/>
<path d="M34.3186 33.2599C33.8399 33.355 33.3627 33.4581 32.8812 33.5378C32.771 33.5411 32.6635 33.5598 32.5593 33.5973C32.1244 33.6545 31.6908 33.7187 31.2545 33.7628C31.1959 33.7628 31.1382 33.7661 31.0801 33.7703C31.0312 33.7783 30.9824 33.7825 30.9331 33.7848C30.8866 33.7905 30.8405 33.797 30.794 33.8041C30.7768 33.8092 30.7591 33.8125 30.741 33.8134C30.6344 33.8162 30.527 33.8148 30.4214 33.8355C30.3939 33.8383 30.3665 33.8378 30.339 33.8378C30.2023 33.8519 30.0651 33.8561 29.9278 33.8617C29.8734 33.865 29.819 33.8678 29.7646 33.8701C29.6697 33.8758 29.5752 33.8842 29.4813 33.8992C29.4641 33.9039 29.4464 33.9072 29.4282 33.9095C29.3226 33.9105 29.2166 33.9076 29.1115 33.9287C29.0933 33.9325 29.0752 33.9344 29.057 33.9344C28.8979 33.9334 28.7388 33.9306 28.5807 33.9522C28.5114 33.955 28.4425 33.9503 28.3732 33.9494C28.2169 33.9536 28.0602 33.9484 27.9039 33.9456C27.7978 33.9494 27.6922 33.9498 27.5862 33.9456C27.5206 33.9475 27.4554 33.9503 27.3898 33.9559C27.2196 34.0075 27.047 33.9714 26.8754 33.97C26.76 33.9367 26.6395 33.9522 26.5228 33.9362C26.5088 33.9344 26.4944 33.932 26.4804 33.9287C26.3595 33.925 26.239 33.9212 26.1181 33.9175C26.1069 33.9175 26.0953 33.9166 26.0841 33.9166C24.7858 33.9386 23.4973 33.8111 22.2092 33.6695C21.3584 33.5758 20.5123 33.4563 19.6694 33.31C18.9093 33.1783 18.1566 33.0124 17.4049 32.8394C15.9499 32.5047 14.5171 32.0941 13.1016 31.6156C11.8791 31.2026 10.7288 30.6397 9.59467 30.0289C8.89923 29.6544 8.22938 29.2415 7.56512 28.8163C7.53581 28.7976 7.50883 28.7746 7.48232 28.7517H7.48092C7.28555 28.6945 7.14739 28.5478 6.99109 28.4301C6.61291 28.1456 6.21518 27.8878 5.86165 27.5705C5.47137 27.2203 5.07039 26.8828 4.7043 26.506C4.10097 25.8849 3.52881 25.2362 3.00875 24.543C2.8464 24.3269 2.68778 24.1075 2.53427 23.8844C2.52264 23.9242 2.55381 23.9467 2.57149 23.9739C2.83105 24.3733 3.12179 24.7506 3.42089 25.119C4.29402 26.1952 5.27042 27.1664 6.37195 28.0092C7.22182 28.6593 8.09681 29.2701 9.03506 29.7824C10.0408 30.3317 11.0376 30.9017 12.1126 31.3104C13.1044 31.6878 14.1078 32.0313 15.1298 32.314C16.4718 32.6852 17.8236 33.0166 19.1926 33.2772C20.396 33.5064 21.6068 33.6827 22.8237 33.8026C24.3681 33.955 25.919 34.0051 27.4717 33.9995C28.8947 33.9944 30.3107 33.9161 31.7229 33.737C32.6021 33.6259 33.4711 33.4661 34.3358 33.2767C34.3358 33.2697 34.3363 33.2622 34.3367 33.2552C34.3307 33.2566 34.3251 33.258 34.3195 33.2594L34.3186 33.2599Z" fill="white"/>
<path d="M4.70464 26.5055C5.07073 26.8824 5.47217 27.2198 5.86199 27.57C6.21552 27.8873 6.61371 28.1451 6.99143 28.4296C7.14773 28.5473 7.28588 28.694 7.48126 28.7512H7.48265C7.46683 28.7376 7.45148 28.7235 7.4352 28.7104C7.40125 28.6916 7.36357 28.6766 7.33286 28.6527C6.75559 28.2028 6.15086 27.7912 5.59823 27.3056C4.62184 26.4474 3.76359 25.486 2.97652 24.4539C2.83092 24.2626 2.71789 24.0452 2.53461 23.8839C2.68811 24.107 2.84674 24.3264 3.00908 24.5425C3.52961 25.2357 4.10131 25.884 4.70464 26.5055Z" fill="white"/>
<path d="M26.5234 33.9353C26.6406 33.9513 26.7606 33.9353 26.876 33.9692C27.0477 33.9706 27.2202 34.0069 27.3905 33.9551C27.4561 33.9494 27.5212 33.9466 27.5868 33.9447C27.5119 33.9414 27.437 33.9358 27.3617 33.9259C27.1965 33.9669 27.0291 33.9344 26.863 33.94C26.7355 33.9363 26.6081 33.932 26.4811 33.9283C26.495 33.9316 26.5099 33.9339 26.5234 33.9358V33.9353Z" fill="white"/>
<path d="M31.255 33.7629C31.6913 33.7188 32.1248 33.6546 32.5598 33.5974C32.664 33.5599 32.7714 33.5412 32.8817 33.5379C33.3631 33.4582 33.8404 33.3551 34.3191 33.2599C34.3251 33.2585 34.3307 33.2571 34.3363 33.2557C34.3363 33.2524 34.3363 33.2496 34.3363 33.2463C34.2046 33.2674 34.0725 33.2857 33.9413 33.3106C33.5859 33.378 33.2343 33.4643 32.8742 33.5069C32.7747 33.5463 32.6728 33.5712 32.5644 33.5594C32.1262 33.6373 31.6857 33.6968 31.2419 33.731C31.1884 33.7493 31.134 33.7615 31.0796 33.7704C31.1377 33.7662 31.1959 33.7629 31.254 33.7629H31.255Z" fill="white"/>
<path d="M30.3399 33.8375C30.3673 33.8375 30.3948 33.838 30.4222 33.8351C30.5278 33.8144 30.6348 33.8163 30.7418 33.813C30.7599 33.8121 30.7776 33.8092 30.7948 33.8036C30.8409 33.7965 30.8874 33.7899 30.9339 33.7843C30.8781 33.7871 30.8218 33.7867 30.7651 33.7843H30.766C30.6553 33.837 30.5385 33.8036 30.4245 33.806C30.4041 33.8064 30.3836 33.8069 30.3627 33.8074C30.2189 33.8361 30.0743 33.8511 29.9291 33.8605C30.0664 33.8549 30.2036 33.8507 30.3403 33.8365L30.3399 33.8375Z" fill="white"/>
<path d="M28.3742 33.9492C28.4435 33.9506 28.5124 33.9553 28.5817 33.952C28.7398 33.9303 28.8989 33.9332 29.058 33.9341C29.0761 33.9341 29.0943 33.9322 29.1124 33.9285C29.2171 33.9073 29.3232 33.9096 29.4292 33.9092C29.4469 33.9068 29.4646 33.9035 29.4822 33.8988C29.5762 33.8837 29.6706 33.8753 29.7655 33.8696C29.6572 33.8739 29.5483 33.8762 29.4399 33.8795C29.3297 33.9308 29.2138 33.9007 29.1003 33.904C28.9319 33.9511 28.7608 33.9242 28.591 33.9223C28.5249 33.9214 28.4584 33.92 28.3923 33.919C28.2295 33.928 28.0672 33.9402 27.9048 33.9459C28.0611 33.9492 28.2179 33.9539 28.3742 33.9496V33.9492Z" fill="white"/>
<path d="M40.9956 30.4031C40.7356 30.6435 40.4225 30.8048 40.1281 30.9923C39.3642 31.4793 38.5507 31.8693 37.7133 32.2105C36.8742 32.5522 36.0197 32.8456 35.1382 33.0565C34.873 33.1198 34.6102 33.1929 34.3441 33.2534C34.3478 33.2581 34.3497 33.2628 34.3474 33.267C34.3432 33.2736 34.3395 33.2768 34.3353 33.2768C34.7069 33.2117 35.067 33.0992 35.4317 33.0055C36.4374 32.7467 37.4087 32.39 38.3572 31.9668C38.9637 31.6958 39.561 31.408 40.1225 31.0481C40.449 30.8385 40.7854 30.6449 41.0714 30.3787C41.0593 30.3773 41.0468 30.3754 41.0342 30.374C41.0212 30.3839 41.0086 30.3937 40.9951 30.4036L40.9956 30.4031Z" fill="white"/>
<path d="M35.1383 33.0569C36.0203 32.846 36.8748 32.5525 37.7135 32.2108C38.5509 31.8696 39.364 31.4801 40.1283 30.9926C40.4227 30.8047 40.7362 30.6434 40.9958 30.4034C41.0088 30.3936 41.0214 30.3837 41.0349 30.3739C41.0186 30.372 41.0023 30.3697 40.986 30.3678C40.9116 30.4269 40.8414 30.4929 40.7618 30.5445C40.0655 30.9935 39.3603 31.4262 38.6109 31.7834C37.6777 32.2286 36.7162 32.5971 35.7231 32.8797C35.2635 33.0105 34.7992 33.1248 34.3369 33.2467C34.3406 33.2491 34.3424 33.2519 34.3443 33.2542C34.6104 33.1942 34.8732 33.1211 35.1383 33.0573V33.0569Z" fill="white"/>
<path d="M34.3473 33.2676C34.3502 33.2633 34.3483 33.2585 34.344 33.2537C34.3411 33.2541 34.3387 33.2551 34.3358 33.2556C34.3358 33.2628 34.3348 33.2705 34.3348 33.2777C34.3387 33.2777 34.343 33.2743 34.3473 33.2676Z" fill="white"/>
<path d="M34.344 33.2535C34.3422 33.2512 34.3404 33.249 34.3369 33.2463C34.3369 33.2495 34.3369 33.2521 34.3369 33.2553C34.3395 33.2548 34.3418 33.2539 34.3444 33.2535H34.344Z" fill="white"/>
<path d="M41.0499 30.3621C41.0573 30.3654 41.0647 30.3706 41.0717 30.3785C41.1006 30.3612 41.1303 30.3457 41.1578 30.3265C41.7011 29.944 42.156 29.4617 42.6277 28.9991C42.8026 28.8275 42.9752 28.648 43.085 28.4211C42.4924 29.1599 41.8058 29.7983 41.0503 30.3621H41.0499Z" fill="white"/>
<path d="M42.9754 28.5172C42.3953 29.2245 41.7213 29.8292 40.9858 30.3673C41.0082 30.3565 41.03 30.3528 41.0496 30.3621C41.8055 29.7978 42.4916 29.1594 43.0842 28.4211C43.0228 28.4244 43.0052 28.4811 42.9749 28.5177L42.9754 28.5172Z" fill="white"/>
<path d="M41.035 30.3731C41.0467 30.3745 41.0589 30.3763 41.0711 30.3776C41.0643 30.3699 41.0571 30.3654 41.0499 30.3618C41.0449 30.3654 41.0399 30.3695 41.035 30.3731Z" fill="white"/>
<path d="M41.0344 30.3734C41.0395 30.3697 41.0447 30.3655 41.0498 30.3618C41.0297 30.3524 41.0082 30.3566 40.9858 30.3669C41.0022 30.3688 41.0185 30.3711 41.0349 30.373L41.0344 30.3734Z" fill="white"/>
<path d="M1.68683 22.5665C1.75335 22.7517 1.86592 22.9124 1.96547 23.0793C2.03803 23.2012 2.08316 23.3456 2.21061 23.4295C2.0278 23.1538 1.85848 22.8707 1.71381 22.5726C1.70451 22.5778 1.69567 22.5759 1.68683 22.5665Z" fill="white"/>
<path d="M1.72168 22.5668C1.71935 22.5691 1.71656 22.571 1.71423 22.5724C1.8589 22.8705 2.02823 23.1536 2.21104 23.4292C2.04776 23.1419 1.88495 22.8541 1.72168 22.5668Z" fill="white"/>
<path d="M1.71359 22.5723C1.71359 22.5723 1.71175 22.5686 1.71082 22.5668C1.70298 22.5668 1.69513 22.5668 1.68683 22.5668C1.6956 22.576 1.70436 22.5778 1.71359 22.5728V22.5723Z" fill="white"/>
<path d="M1.7141 22.5721C1.71633 22.5708 1.719 22.569 1.72123 22.5668C1.71811 22.5668 1.71455 22.5668 1.71143 22.5668C1.71232 22.5686 1.71321 22.5703 1.7141 22.5721Z" fill="white"/>
<path d="M7.88583 28.9153C7.80256 28.7864 7.67092 28.7517 7.52997 28.7512C7.67929 28.8192 7.81791 28.9054 7.95328 28.9973C7.92909 28.9734 7.90629 28.9467 7.88629 28.9157L7.88583 28.9153Z" fill="white"/>
<path d="M9.83383 30.103C10.4083 30.4184 10.9972 30.7058 11.5866 30.9917C11.7601 31.0756 11.9406 31.1408 12.1202 31.2068C13.2431 31.6207 14.3753 32.0088 15.5303 32.3224C16.6249 32.6196 17.7273 32.8872 18.8391 33.1085C19.5024 33.2406 20.1686 33.3714 20.8389 33.4549C21.5706 33.5463 22.3005 33.6602 23.0373 33.7108C23.869 33.768 24.698 33.8608 25.5316 33.8851C25.713 33.8903 25.8921 33.85 26.073 33.865C26.0749 33.8247 26.1121 33.812 26.1628 33.8158C26.2302 33.8205 26.307 33.7947 26.3717 33.8612C26.3535 33.8748 26.334 33.8809 26.314 33.8833C26.3512 33.8866 26.3884 33.8903 26.4256 33.8936C26.4196 33.8828 26.4168 33.8697 26.4177 33.8519C26.4214 33.7942 26.4772 33.7919 26.5205 33.7834C26.548 33.7778 26.5768 33.7773 26.6047 33.7792C27.1001 33.8078 27.596 33.7848 28.0914 33.7881C28.4347 33.7905 28.7775 33.7675 29.0813 33.7647C29.0906 33.7642 29.0976 33.7628 29.1031 33.7619C28.1026 33.7928 27.1024 33.8003 26.1019 33.7605C25.5957 33.7403 25.0887 33.7548 24.5826 33.715C23.7067 33.6466 22.8317 33.5777 21.9586 33.4731C20.9445 33.3517 19.936 33.1961 18.9349 32.9997C17.0291 32.6257 15.1489 32.1452 13.3063 31.5246C12.1927 31.1497 11.107 30.7072 10.0725 30.1414C9.51752 29.8382 8.9528 29.5532 8.41599 29.2171C8.36249 29.1834 8.30202 29.1698 8.24248 29.1515C8.19131 29.1355 8.14246 29.1182 8.09595 29.0957C8.16386 29.143 8.23178 29.1899 8.30109 29.2349C8.7951 29.5569 9.31935 29.8208 9.83337 30.1035L9.83383 30.103Z" fill="white"/>
<path d="M29.1259 33.7551C29.1259 33.7551 29.1249 33.7522 29.1249 33.7507C29.1234 33.7542 29.1181 33.7586 29.1044 33.762C29.1063 33.762 29.1083 33.762 29.1102 33.762C29.122 33.762 29.1274 33.759 29.1259 33.7551Z" fill="white"/>
<path d="M7.88557 28.9153C7.90558 28.9467 7.92837 28.9734 7.95256 28.9968C8.00094 29.0296 8.04885 29.0624 8.09676 29.0957C8.14328 29.1182 8.19259 29.1356 8.24329 29.1515C8.30283 29.1698 8.36331 29.1838 8.4168 29.2171C8.95361 29.5537 9.51833 29.8382 10.0733 30.1414C11.1078 30.7072 12.1935 31.1497 13.3072 31.5247C15.1497 32.1448 17.0299 32.6257 18.9358 32.9997C19.9368 33.1961 20.9448 33.3518 21.9594 33.4732C22.8325 33.5777 23.7075 33.6466 24.5834 33.715C25.0895 33.7544 25.5966 33.7403 26.1027 33.7605C27.1033 33.8003 28.1038 33.7933 29.104 33.7619C29.117 33.7586 29.1221 33.7544 29.1235 33.7511C29.1244 33.7492 29.1244 33.7478 29.1235 33.7474C29.1235 33.7474 29.124 33.7492 29.1235 33.7511C29.1235 33.7525 29.1235 33.7534 29.1244 33.7553C29.1258 33.7591 29.1207 33.7614 29.1095 33.7619C29.1077 33.7619 29.1058 33.7619 29.104 33.7619C29.0984 33.7633 29.0914 33.7642 29.0821 33.7647C28.7783 33.7675 28.4355 33.7905 28.0922 33.7881C27.5968 33.7844 27.1009 33.8078 26.6055 33.7792C26.5776 33.7774 26.5488 33.7778 26.5213 33.7834C26.4781 33.7924 26.4222 33.7947 26.4185 33.8519C26.4176 33.8692 26.4204 33.8828 26.4264 33.8936C26.5725 33.9067 26.7186 33.9208 26.8637 33.94C26.7404 33.8434 26.5725 33.9475 26.4488 33.8444C27.381 33.8392 28.3122 33.8636 29.2393 33.7581C29.183 33.7352 29.1268 33.7319 29.0709 33.7319C28.4188 33.7347 27.7666 33.7436 27.1144 33.7384C26.646 33.7347 26.178 33.7094 25.7101 33.6995C25.5221 33.6958 25.3286 33.7389 25.1467 33.7066C24.7676 33.64 24.3843 33.6639 24.0043 33.6213C23.581 33.5735 23.1539 33.5571 22.7292 33.5088C22.111 33.4385 21.4923 33.3728 20.8774 33.2791C20.1522 33.1685 19.4279 33.0522 18.7087 32.9051C17.5328 32.6646 16.3629 32.3923 15.2093 32.0623C14.2757 31.7956 13.3518 31.4942 12.4392 31.1553C11.773 30.9078 11.1255 30.6261 10.4966 30.2966C10.0937 30.0857 9.68579 29.8836 9.28528 29.6676C9.01315 29.5208 8.748 29.3601 8.48379 29.1988C8.41029 29.1538 8.34284 29.1173 8.25492 29.1027C8.1591 29.0873 8.03303 29.0601 7.99256 28.979C7.87022 28.7362 7.68183 28.6734 7.43622 28.71C7.46832 28.7221 7.49948 28.7362 7.53018 28.7503C7.6716 28.7507 7.80324 28.7859 7.88604 28.9143L7.88557 28.9153Z" fill="white"/>
<path d="M26.3142 33.8828C26.2449 33.8922 26.1714 33.8569 26.1184 33.9167C26.2394 33.9205 26.3603 33.9242 26.4808 33.928C26.4575 33.9223 26.4366 33.9129 26.4254 33.8932C26.3882 33.8899 26.351 33.8861 26.3138 33.8828H26.3142Z" fill="white"/>
<path d="M25.5316 33.8851C24.6976 33.8608 23.8687 33.768 23.0374 33.7108C22.3001 33.6602 21.5707 33.5463 20.839 33.4549C20.1687 33.3709 19.5025 33.2406 18.8392 33.1085C17.7274 32.8868 16.625 32.6196 15.5304 32.3224C14.3754 32.0088 13.2432 31.6207 12.1203 31.2068C11.9407 31.1408 11.7602 31.0761 11.5867 30.9917C10.9973 30.7058 10.4084 30.4184 9.83393 30.103C9.31945 29.8203 8.79567 29.5565 8.30165 29.2344C8.23281 29.1894 8.16443 29.1426 8.09651 29.0952C8.04395 29.0699 7.99557 29.0385 7.95231 28.9963C7.81694 28.9049 7.67832 28.8182 7.529 28.7502C7.51365 28.7502 7.49783 28.7502 7.48248 28.7507C7.509 28.7737 7.53598 28.7966 7.56528 28.8154C8.22955 29.2401 8.8994 29.653 9.59483 30.028C10.7289 30.6387 11.8793 31.2017 13.1018 31.6146C14.5173 32.0927 15.95 32.5038 17.4051 32.8385C18.1568 33.0114 18.9094 33.1769 19.6695 33.3091C20.5124 33.4553 21.3586 33.5748 22.2094 33.6686C23.4974 33.8101 24.786 33.9376 26.0843 33.9156C26.0759 33.895 26.0726 33.8786 26.0731 33.865C25.8917 33.85 25.7131 33.8908 25.5316 33.8851Z" fill="white"/>
<path d="M7.52857 28.7506C7.49765 28.7366 7.46674 28.7226 7.43536 28.7104C7.45151 28.7235 7.46674 28.7375 7.48243 28.7511C7.49811 28.7501 7.51334 28.7501 7.52857 28.7506Z" fill="white"/>
<path d="M26.4805 33.9279C26.6079 33.9317 26.7354 33.9359 26.8624 33.9397C26.7168 33.9204 26.5712 33.9062 26.4251 33.8931C26.4363 33.9128 26.4572 33.9222 26.4805 33.9279Z" fill="white"/>
<path d="M7.95306 28.9969C7.99551 29.0385 8.04396 29.0702 8.0961 29.0955C8.04857 29.0623 8.00105 29.0296 7.95306 28.9969Z" fill="white"/>
<path d="M43.7137 17.5163C43.817 17.9939 43.9481 18.4687 43.9998 18.9539C44.0854 19.7601 44.1114 20.5677 44.0314 21.3809C43.9756 21.9481 43.8784 22.5063 43.7286 23.0487C43.5192 23.808 43.195 24.5265 42.8089 25.216C42.4847 25.7954 42.1219 26.3508 41.7023 26.8599C41.2897 27.3609 40.8426 27.8325 40.3496 28.2618C39.9174 28.6382 39.456 28.9677 38.9857 29.2879C38.56 29.5771 38.0991 29.8039 37.6339 30.0205C36.9008 30.3613 36.1365 30.6162 35.3583 30.8258C34.7354 30.9936 34.1093 31.1543 33.4706 31.2556C32.8845 31.3484 32.3011 31.4642 31.7104 31.5181C31.1861 31.5654 30.6651 31.6446 30.1404 31.6742C29.7366 31.6967 29.3333 31.7309 28.9291 31.7482C27.5113 31.8082 26.0925 31.8181 24.6746 31.7524C23.8764 31.7154 23.0786 31.662 22.2841 31.5762C21.7822 31.5223 21.2807 31.46 20.7811 31.391C20.2029 31.3114 19.6289 31.1961 19.053 31.0976C18.2604 30.9622 17.4733 30.7967 16.6876 30.6256C16.2094 30.5216 15.7382 30.3861 15.2646 30.2614C14.1975 29.9797 13.156 29.6174 12.1164 29.2476C11.5074 29.031 10.9395 28.732 10.3594 28.4549C9.78863 28.1821 9.23973 27.8676 8.68711 27.5611C8.14425 27.2602 7.60977 26.94 7.10505 26.5796C6.43009 26.0977 5.76489 25.5999 5.17831 25.0061C4.68429 24.5064 4.2461 23.9655 3.88234 23.358C3.52555 22.7623 3.22923 22.1393 2.9799 21.4948C2.7515 20.9038 2.58404 20.2911 2.44821 19.6696C2.30633 19.0195 2.25237 18.36 2.19004 17.7005C2.16492 17.4347 2.18678 17.1671 2.18818 16.9008C2.19236 16.1054 2.31284 15.3236 2.47705 14.5464C2.60078 13.9586 2.7515 13.3788 2.94408 12.8112C3.08782 12.3875 3.27854 11.9816 3.47066 11.578C3.73395 11.0254 4.03445 10.4929 4.33867 9.96228C4.33913 9.96135 4.3396 9.96041 4.34053 9.95947L4.30332 9.974C3.97351 10.5023 3.68092 11.0521 3.41158 11.6131C2.98781 12.4958 2.67754 13.4163 2.48217 14.3791C2.32215 15.1698 2.1812 15.9606 2.16027 16.7705C2.13468 17.7511 2.21934 18.7204 2.42076 19.6804C2.56218 20.3535 2.75104 21.0125 3.00735 21.65C3.24319 22.2373 3.51764 22.8049 3.83442 23.3552C4.17493 23.9463 4.59777 24.4689 5.07132 24.9437C5.94072 25.8155 6.92829 26.5411 7.98237 27.1739C9.32021 27.9773 10.6832 28.7301 12.1447 29.2865C13.6124 29.8452 15.1139 30.2928 16.6416 30.6448C18.1022 30.9814 19.5768 31.2453 21.0621 31.452C22.2134 31.6123 23.3694 31.7149 24.5281 31.7792C25.4961 31.8331 26.4665 31.8232 27.4368 31.8181C28.5598 31.812 29.6766 31.7426 30.794 31.6409C31.815 31.5476 32.831 31.4225 33.8367 31.2195C35.0382 30.9772 36.217 30.6612 37.3487 30.1775C38.8322 29.5429 40.123 28.6354 41.2301 27.4552C41.7581 26.8922 42.2089 26.2716 42.6108 25.6173C42.9024 25.1425 43.1611 24.6465 43.3778 24.1281C43.7676 23.1949 43.9947 22.226 44.0733 21.2192C44.1514 20.2166 44.11 19.2206 43.8909 18.2376C43.8374 17.9967 43.8216 17.7455 43.7141 17.5177L43.7137 17.5163Z" fill="white"/>
<path d="M43.7222 17.6325C43.8083 18.067 43.9223 18.4982 43.973 18.9369C44.06 19.693 44.0855 20.4519 44.0251 21.2159C43.9762 21.8318 43.8781 22.4393 43.7092 23.0238C43.4092 24.0625 42.9356 25.028 42.3374 25.9336C41.9174 26.5701 41.4415 27.1598 40.9126 27.6984C40.3297 28.2918 39.6841 28.8191 38.9779 29.2639C38.176 29.7692 37.3196 30.1531 36.4241 30.4615C35.6543 30.7268 34.8709 30.9382 34.0778 31.1032C32.6521 31.3999 31.2063 31.5569 29.755 31.6666C28.5502 31.7575 27.3435 31.7627 26.1364 31.7575C24.9562 31.7528 23.778 31.691 22.6048 31.5743C21.6744 31.4815 20.7455 31.3666 19.8231 31.2012C18.4806 30.9607 17.1409 30.7146 15.8179 30.3748C14.4498 30.0232 13.1088 29.592 11.79 29.0905C10.9611 28.775 10.1856 28.3396 9.40319 27.9229C8.09977 27.2287 6.85451 26.4469 5.73065 25.4775C5.07103 24.9085 4.48957 24.2734 4.03137 23.5276C3.58806 22.8067 3.21313 22.0516 2.92752 21.2529C2.41536 19.82 2.18231 18.3402 2.21534 16.8192C2.23162 16.0679 2.34 15.3268 2.49584 14.5914C2.64237 13.9005 2.82378 13.2199 3.08288 12.5646C3.33315 11.9313 3.62062 11.3131 3.96113 10.722C4.10766 10.468 4.23837 10.205 4.37606 9.94629C4.36443 9.95051 4.35327 9.9552 4.34164 9.95988C4.34118 9.96082 4.34071 9.96176 4.33978 9.96269C4.03556 10.4928 3.73459 11.0258 3.47177 11.5784C3.27965 11.982 3.08893 12.3879 2.94519 12.8116C2.75261 13.3792 2.60236 13.9591 2.47816 14.5468C2.31395 15.3245 2.19394 16.1063 2.18929 16.9012C2.18789 17.1675 2.16603 17.4347 2.19115 17.7009C2.25348 18.3604 2.30744 19.0199 2.44932 19.67C2.58515 20.2915 2.75261 20.9042 2.98101 21.4952C3.23034 22.1397 3.52712 22.7627 3.88345 23.3584C4.24675 23.9659 4.68494 24.5063 5.17942 25.0065C5.766 25.5999 6.4312 26.0981 7.10616 26.58C7.61134 26.9404 8.14536 27.2606 8.68822 27.5615C9.24084 27.868 9.78975 28.1826 10.3605 28.4554C10.9406 28.7324 11.5086 29.0314 12.1175 29.248C13.1571 29.6178 14.1987 29.9801 15.2658 30.2618C15.7393 30.387 16.2105 30.522 16.6887 30.626C17.4744 30.7971 18.261 30.9621 19.0541 31.098C19.63 31.1965 20.204 31.3118 20.7822 31.3915C21.2818 31.4604 21.7838 31.5222 22.2852 31.5766C23.0797 31.6624 23.8775 31.7158 24.6757 31.7528C26.0936 31.8189 27.5119 31.8091 28.9302 31.7486C29.3344 31.7313 29.7373 31.6975 30.1415 31.6746C30.6662 31.645 31.1877 31.5658 31.7115 31.5185C32.3022 31.465 32.8856 31.3488 33.4717 31.256C34.1104 31.1548 34.736 30.994 35.3594 30.8262C36.1371 30.6166 36.9019 30.3617 37.635 30.0209C38.1002 29.8048 38.5611 29.5775 38.9868 29.2883C39.4571 28.9681 39.919 28.6386 40.3507 28.2622C40.8438 27.8329 41.2908 27.3613 41.7034 26.8603C42.123 26.3508 42.4858 25.7958 42.81 25.2165C43.1961 24.527 43.5204 23.8084 43.7297 23.0491C43.879 22.5067 43.9767 21.9485 44.0325 21.3813C44.1125 20.5681 44.0865 19.7605 44.0009 18.9543C43.9492 18.4691 43.8185 17.9943 43.7148 17.5167C43.6967 17.557 43.7157 17.594 43.7232 17.6329L43.7222 17.6325Z" fill="white"/>
<path d="M12.507 4.74479C12.2196 4.88541 12.0595 5.12962 11.9326 5.40664C11.8995 5.47882 11.8521 5.54444 11.8279 5.62038C11.7921 5.73381 11.8325 5.79755 11.9516 5.80177C12.1484 5.8088 12.3433 5.82521 12.5382 5.8538C12.9001 5.90677 13.2374 5.77927 13.5807 5.69443C14.3347 5.50835 15.0915 5.33023 15.8572 5.2004C16.4661 5.09681 17.0769 4.99744 17.6919 4.93416C18.2054 4.88166 18.7213 4.85354 19.2339 4.79307C19.4539 4.76729 19.674 4.7987 19.8907 4.7762C20.2433 4.73917 20.5969 4.74854 20.9485 4.7237C21.3556 4.69511 21.7603 4.72933 22.1654 4.73495C22.6673 4.74198 23.1702 4.74667 23.6703 4.78276C24.3103 4.8287 24.9486 4.89807 25.5877 4.96088C26.425 5.0429 27.2502 5.19805 28.081 5.32039C28.3104 5.35414 28.5313 5.42585 28.7574 5.47226C29.9208 5.71037 31.0484 6.07457 32.1699 6.45799C32.7369 6.65204 33.2421 6.95109 33.6831 7.36357C33.8473 7.51731 34.0236 7.6598 34.2264 7.7648C34.3013 7.8037 34.372 7.82058 34.4525 7.80042C34.4641 7.79573 34.4758 7.79198 34.4869 7.78777L34.4795 7.77745C34.3078 7.7887 34.1711 7.68652 34.0445 7.60356C33.6305 7.33263 33.3021 6.94406 32.8542 6.71532C32.7979 6.68673 32.7118 6.6961 32.6811 6.60095C32.649 6.50205 32.5597 6.44065 32.4662 6.39424C32.0062 6.1655 31.507 6.04598 31.0265 5.87536C30.4925 5.68553 29.9403 5.55522 29.3905 5.41835C28.656 5.23508 27.9178 5.07009 27.1674 4.97166C26.6897 4.90885 26.2171 4.81604 25.7342 4.78182C25.0462 4.73308 24.3615 4.63277 23.6735 4.59433C22.6339 4.53621 21.5919 4.52215 20.5503 4.55965C20.3373 4.56715 20.1252 4.6009 19.9107 4.58215C19.8503 4.57699 19.7865 4.60933 19.7056 4.62855C19.7861 4.71292 19.8982 4.63886 19.9605 4.71855C19.9414 4.7312 19.9321 4.74198 19.9238 4.74198C19.3265 4.71761 18.739 4.83432 18.1454 4.86244C17.5053 4.89291 16.8759 5.00869 16.2452 5.10337C15.38 5.23321 14.5264 5.43382 13.676 5.64475C13.3071 5.73615 12.9448 5.87817 12.5522 5.8224C12.4303 5.80505 12.3079 5.78443 12.1851 5.7788C11.7949 5.76193 11.7897 5.76193 11.9651 5.40664C12.087 5.15915 12.2163 4.91822 12.488 4.78885C12.5731 4.74808 12.6913 4.71433 12.728 4.59715C12.6722 4.67308 12.5829 4.70823 12.5061 4.74573L12.507 4.74479ZM22.0212 4.65433C22.0212 4.66839 22.0212 4.68245 22.0212 4.69652C21.8896 4.71151 21.7575 4.70636 21.6263 4.64261C21.7579 4.64683 21.8896 4.65058 22.0212 4.6548V4.65433ZM20.5527 4.67824C20.5527 4.6937 20.5527 4.70964 20.5531 4.72511C20.4085 4.72089 20.2638 4.7162 20.1191 4.71198C20.2619 4.6323 20.4075 4.65855 20.5527 4.67824Z" fill="white"/>
<path d="M11.8022 5.59385C11.7269 5.76493 11.7715 5.82962 11.9576 5.84133C12.1265 5.85211 12.2949 5.86946 12.4633 5.88211C12.6484 5.89617 12.8303 5.91305 13.0168 5.8643C14.6393 5.43823 16.2786 5.10871 17.95 4.94138C19.192 4.81717 20.4359 4.75436 21.6825 4.76983C22.8724 4.78482 24.0609 4.84435 25.2462 4.96997C26.2784 5.07965 27.3078 5.21465 28.3229 5.4237C29.4318 5.65244 30.5306 5.93367 31.6005 6.31709C32.2526 6.55099 32.9309 6.72348 33.4635 7.21001C33.6216 7.35438 33.7844 7.495 33.9542 7.62531C34.1082 7.74296 34.245 7.92998 34.4836 7.81701C34.4803 7.80623 34.4817 7.79639 34.4878 7.78702C34.4762 7.79124 34.465 7.79498 34.4534 7.79967C34.3734 7.81983 34.3022 7.80295 34.2273 7.76405C34.0245 7.65905 33.8482 7.51656 33.684 7.36282C33.243 6.95034 32.7378 6.65129 32.1708 6.45724C31.0492 6.07335 29.9217 5.70962 28.7583 5.47151C28.5322 5.4251 28.3112 5.35339 28.0819 5.31964C27.2511 5.1973 26.4259 5.04216 25.5886 4.96013C24.9499 4.89732 24.3112 4.82795 23.6711 4.78201C23.1706 4.74639 22.6682 4.74123 22.1663 4.7342C21.7607 4.72858 21.3564 4.69436 20.9494 4.72295C20.5977 4.7478 20.2442 4.73889 19.8916 4.77545C19.6748 4.79795 19.4548 4.76654 19.2348 4.79232C18.7222 4.85279 18.2063 4.88044 17.6927 4.93341C17.0778 4.99669 16.467 5.09606 15.8581 5.19965C15.0924 5.32995 14.336 5.5076 13.5815 5.69368C13.2382 5.77852 12.901 5.90602 12.5391 5.85305C12.3442 5.82446 12.1493 5.80805 11.9525 5.80102C11.8334 5.7968 11.7929 5.73259 11.8288 5.61963C11.853 5.54416 11.8999 5.47807 11.9334 5.40589C12.0604 5.12887 12.2204 4.88419 12.5079 4.74405C12.5842 4.70655 12.6735 4.67139 12.7298 4.59546C12.2563 4.77264 11.9967 5.15231 11.8027 5.59291L11.8022 5.59385Z" fill="white"/>
<path d="M19.6687 1.92775C19.7385 1.93056 19.8078 1.93525 19.8771 1.939C19.9501 1.94228 20.0232 1.94463 20.0962 1.94838C20.392 1.96478 20.6874 1.99244 20.9828 2.02618C21.7401 2.1068 22.4923 2.22586 23.2422 2.37023C23.4231 2.40351 23.6036 2.43726 23.7845 2.47101C24.0288 2.51647 24.2697 2.57881 24.5111 2.64115C24.6512 2.6749 24.7912 2.71006 24.9307 2.74662C24.9372 2.74802 24.9438 2.7499 24.9498 2.7513C24.9558 2.75271 24.9619 2.75458 24.9684 2.75646C25.0931 2.78927 25.2173 2.82349 25.341 2.85911C25.3726 2.86802 25.4094 2.86661 25.4313 2.91676C25.3731 2.95801 25.3057 2.93739 25.2456 2.9327C24.7116 2.89005 24.179 2.83099 23.6445 2.80052C23.4729 2.79068 23.3008 2.78177 23.1286 2.77333C22.6323 2.75646 22.1364 2.73959 21.6401 2.72834C21.328 2.72646 21.0158 2.72974 20.7032 2.74146C20.4218 2.75224 20.1404 2.77099 19.8585 2.7738C19.811 2.77427 19.7641 2.77661 19.7171 2.77755C19.6966 2.77849 19.6761 2.77896 19.6561 2.77943C18.77 2.80661 17.8955 2.94161 17.0195 3.06394C16.9209 3.07754 16.8186 3.09066 16.7297 3.14597C16.7856 3.1441 16.8428 3.15019 16.8967 3.13941C17.6345 2.99692 18.3834 2.93083 19.1291 2.85583C19.792 2.78927 20.4632 2.78177 21.1293 2.78036C22.2555 2.77755 23.3831 2.81927 24.506 2.9163C24.7614 2.93833 25.02 2.95145 25.2764 2.98707C25.5448 3.02457 25.816 3.09301 26.0927 3.05691C26.1309 3.05176 26.183 3.06582 26.1965 3.02082C26.2155 2.95848 26.1499 2.94629 26.1146 2.93458C25.9341 2.87458 25.7485 2.82958 25.5699 2.76537C25.1047 2.59803 24.6205 2.49866 24.1413 2.39085C23.5031 2.24695 22.8612 2.11712 22.216 2.00322C21.575 1.88978 20.9293 1.81901 20.2832 1.76135C19.7278 1.71167 19.1668 1.69714 18.6095 1.71401C18.3323 1.72245 18.0178 1.62495 17.7745 1.86682C17.7587 1.88275 17.721 1.87807 17.6931 1.879C17.0935 1.90197 16.499 1.98306 15.9068 2.07259C15.6729 2.10774 15.4268 2.10352 15.2086 2.22024C15.604 2.16211 15.9989 2.09977 16.3948 2.04587C17.4819 1.89869 18.5732 1.88135 19.6678 1.92681L19.6687 1.92775ZM19.8938 1.86963C19.7687 1.86588 19.6436 1.86213 19.5184 1.85838C19.6445 1.79041 19.7696 1.79416 19.8938 1.86963ZM17.9908 1.79135C18.1294 1.83401 18.2722 1.76838 18.4104 1.84479C18.2667 1.84057 18.1229 1.83588 17.9792 1.83166C17.9829 1.81807 17.9871 1.80448 17.9908 1.79088V1.79135Z" fill="white"/>
<path d="M24.9498 2.75122C24.9435 2.74986 24.9372 2.74806 24.9313 2.7467C24.9435 2.74986 24.9557 2.75302 24.9679 2.75618C24.962 2.75438 24.9557 2.75257 24.9498 2.75122Z" fill="white"/>
<path d="M20.0967 1.9485C20.0236 1.94426 19.9506 1.94191 19.8776 1.93909C20.2474 1.95838 20.6158 1.98757 20.9833 2.02663C20.6884 1.99274 20.3925 1.96497 20.0967 1.9485Z" fill="white"/>
<path d="M24.5113 2.64129C24.2703 2.57894 24.0289 2.51707 23.7847 2.47114C23.6037 2.43739 23.4233 2.40364 23.2423 2.37036C23.246 2.3713 23.2502 2.37177 23.2539 2.3727C23.6749 2.45379 24.0945 2.54145 24.5108 2.64129H24.5113Z" fill="white"/>
<path d="M21.6407 2.72888C22.137 2.74018 22.6329 2.75712 23.1292 2.77407C22.6334 2.74959 22.1375 2.73218 21.6407 2.72888Z" fill="white"/>
<path d="M7.55093 6.04135C7.87423 5.73621 8.22776 5.4606 8.58222 5.18968C9.28789 4.65064 10.0331 4.17254 10.8067 3.74038C11.1709 3.53695 11.5575 3.37477 11.9431 3.21634C12.2399 3.09447 12.5353 2.96745 12.8418 2.87136C13.367 2.7059 13.8866 2.52591 14.4276 2.40638C14.6983 2.34685 14.9695 2.29014 15.2412 2.23811C15.2309 2.23483 15.2202 2.22967 15.2109 2.22077V2.21936C15.1123 2.26389 15.0077 2.27608 14.9016 2.27983L14.9035 2.27842C14.7699 2.32857 14.6337 2.36373 14.4904 2.36513C14.4527 2.3956 14.4108 2.40873 14.3629 2.39935C14.2401 2.4495 14.1127 2.48091 13.9801 2.48982H13.9805C13.8829 2.53669 13.781 2.56997 13.6726 2.58309C13.5745 2.6295 13.4721 2.66137 13.3633 2.67121C13.306 2.7148 13.2381 2.72746 13.1707 2.74105C13.0804 2.78746 12.9869 2.82261 12.886 2.83386C12.7427 2.90276 12.5976 2.96698 12.439 2.99042C12.4176 3.00073 12.3962 3.01057 12.3748 3.02088C12.2985 3.06494 12.2236 3.11275 12.131 3.11228C12.1022 3.12916 12.0803 3.16291 12.0394 3.15072C11.5691 3.38086 11.0783 3.56507 10.6169 3.81584C9.71864 4.30426 8.89342 4.8986 8.10728 5.55013C7.86957 5.74699 7.63559 5.94761 7.39975 6.14635C7.37696 6.16838 7.35463 6.18994 7.33183 6.21197C7.28764 6.27384 7.23926 6.33243 7.18903 6.38821C7.30904 6.27244 7.42999 6.15713 7.55093 6.04323V6.04135Z" fill="white"/>
<path d="M25.2265 2.87475C25.1652 2.85456 25.1035 2.83531 25.0418 2.81653C25.0432 2.82263 25.0437 2.82921 25.0427 2.83625C25.0395 2.85879 25.0283 2.87287 25.0135 2.8818C25.084 2.87569 25.155 2.86536 25.2265 2.87475Z" fill="white"/>
<path d="M6.54858 7.0394C6.57333 7.01233 6.59947 6.98572 6.62468 6.95911C6.59714 6.98432 6.56913 7.00906 6.54858 7.0394Z" fill="white"/>
<path d="M16.7814 3.08984C16.6954 3.10672 16.6098 3.12312 16.5242 3.14234C15.8278 3.29796 15.1259 3.43342 14.4663 3.72544C14.1425 3.86887 13.7904 3.94668 13.4899 4.14588C13.9825 3.92652 14.4895 3.74419 14.997 3.56373C15.5594 3.36311 16.1451 3.25296 16.7307 3.14656C16.7451 3.12219 16.7628 3.10437 16.7814 3.08984Z" fill="white"/>
<path d="M6.92723 6.64417C6.85391 6.71057 6.77966 6.7765 6.7068 6.84337C6.70077 6.86581 6.68963 6.88499 6.67664 6.90275C6.75878 6.81531 6.84231 6.72927 6.92723 6.64463V6.64417Z" fill="white"/>
<path d="M16.5244 3.14242C16.6099 3.1232 16.6955 3.1068 16.7816 3.08992C16.8528 3.03602 16.9491 3.04258 17.0295 3.02946C17.5454 2.94415 18.0655 2.88649 18.5851 2.83259C20.2248 2.66197 21.8683 2.684 23.5117 2.76228C23.9662 2.78384 24.4211 2.819 24.8733 2.88181C24.9203 2.88837 24.9668 2.88603 25.0138 2.88181C25.0286 2.8729 25.0398 2.85884 25.0431 2.83634C25.044 2.82931 25.0435 2.82275 25.0421 2.81665C24.4667 2.63994 23.8792 2.51433 23.2866 2.40511C22.7563 2.30715 22.2255 2.21293 21.692 2.13606C21.1291 2.05497 20.5639 1.99685 19.9959 1.96826C19.2758 1.9317 18.5544 1.91623 17.8343 1.94107C17.2779 1.96029 16.7239 2.02685 16.1713 2.10231C15.8871 2.14122 15.6052 2.19231 15.3223 2.23825C15.294 2.24293 15.2665 2.24668 15.2409 2.23825C14.9693 2.29027 14.6981 2.34699 14.4274 2.40652C13.8864 2.52604 13.3668 2.70603 12.8416 2.87149C12.535 2.96805 12.2396 3.09461 11.9429 3.21648C11.5568 3.37491 11.1702 3.53709 10.8064 3.74051C10.0333 4.17268 9.28766 4.65078 8.58199 5.18982C8.22753 5.46074 7.87354 5.73588 7.55071 6.04149C7.42976 6.15586 7.30928 6.2707 7.1888 6.38647C7.10647 6.47741 7.01762 6.56131 6.92737 6.6438C6.84225 6.72864 6.75898 6.81536 6.67618 6.90254C6.66083 6.9227 6.64269 6.94098 6.62362 6.95832C6.5985 6.98551 6.57291 7.01175 6.54779 7.03894C6.53477 7.05816 6.52453 7.07925 6.52081 7.10456C6.58547 7.09894 6.61199 7.04175 6.64967 7.00238C7.39859 6.21258 8.20893 5.49777 9.09834 4.86967C9.68864 4.45251 10.2952 4.06206 10.9348 3.73114C11.6661 3.35334 12.4299 3.04867 13.2123 2.78619C14.1469 2.47214 15.1065 2.28512 16.0769 2.1445C16.8853 2.02779 17.6975 1.96498 18.5167 1.95795C19.5508 1.94904 20.5783 2.01044 21.6012 2.14637C22.56 2.27387 23.5122 2.44777 24.4542 2.67463C24.6421 2.7201 24.8286 2.77025 25.0156 2.81806C24.9617 2.84853 24.9137 2.84993 24.8658 2.84525C24.2262 2.78666 23.5861 2.73838 22.9437 2.71166C21.7659 2.66244 20.5876 2.6601 19.4112 2.72666C18.4623 2.78056 17.517 2.89259 16.5848 3.09086C16.128 3.18835 15.667 3.27601 15.2209 3.411C14.7739 3.54599 14.3418 3.72973 13.9064 3.90129C13.7575 3.95988 13.6012 4.01566 13.4905 4.14502C13.791 3.94582 14.1431 3.86801 14.4669 3.72458C15.1265 3.43256 15.828 3.2971 16.5248 3.14148L16.5244 3.14242Z" fill="white"/>
<path d="M25.042 2.81673C25.1038 2.83556 25.1657 2.85486 25.2271 2.8751C25.1555 2.86568 25.0848 2.87604 25.0136 2.88216C24.9875 2.89816 24.9489 2.89722 24.9182 2.89439C24.6042 2.86851 24.2898 2.8478 23.9763 2.81862C23.893 2.81061 23.8093 2.79555 23.7251 2.7932C23.5264 2.78708 23.3283 2.78049 23.1296 2.7739C23.3018 2.78237 23.4734 2.79132 23.6455 2.8012C24.18 2.83132 24.7126 2.89063 25.2466 2.93393C25.3066 2.93864 25.3736 2.95887 25.4322 2.91793C25.4099 2.86757 25.3732 2.86898 25.342 2.86003C25.2183 2.82426 25.0941 2.7899 24.9694 2.75696C25.0024 2.76778 25.0355 2.78661 25.0424 2.8172L25.042 2.81673Z" fill="white"/>
<path d="M19.6574 2.77991C19.516 2.78319 19.3741 2.77991 19.2327 2.78413C18.7745 2.79725 18.327 2.88584 17.8739 2.93177C17.5079 2.9688 17.1432 3.01943 16.7817 3.08974C16.7626 3.10427 16.7454 3.12161 16.731 3.14645C16.8199 3.09114 16.9222 3.07849 17.0208 3.06442C17.8967 2.94209 18.7717 2.80709 19.6574 2.77991Z" fill="white"/>
<path d="M19.8567 2.77046C19.8107 2.77469 19.7646 2.77657 19.7186 2.77846C19.766 2.77752 19.813 2.77516 19.86 2.77469C20.1414 2.7714 20.4228 2.75257 20.7047 2.74222C21.0173 2.73045 21.3295 2.72715 21.6416 2.72904C21.462 2.7248 21.2825 2.72104 21.1029 2.71868C20.688 2.7135 20.2712 2.73421 19.8567 2.77093V2.77046Z" fill="white"/>
<path d="M16.5894 2.03238C17.1932 1.96676 17.7975 1.91614 18.4078 1.91473C18.8985 1.91332 19.3888 1.91801 19.8782 1.9391C19.8089 1.93535 19.7391 1.93067 19.6698 1.92786C18.5752 1.88286 17.4839 1.89973 16.3968 2.04691C16.001 2.10035 15.606 2.16269 15.2106 2.22128C15.2204 2.23018 15.2306 2.23534 15.2409 2.23862C15.6879 2.15331 16.1368 2.0816 16.5889 2.03238H16.5894Z" fill="white"/>
<path d="M23.2435 2.37029C22.4936 2.22592 21.7414 2.10687 20.9841 2.02625C21.22 2.05296 21.4554 2.08296 21.6903 2.1153C22.2108 2.18608 22.7276 2.27608 23.2435 2.37076V2.37029Z" fill="white"/>
<path d="M24.5115 2.64124C24.651 2.67748 24.7906 2.71372 24.9311 2.74714C24.7915 2.71042 24.652 2.67512 24.5115 2.64124Z" fill="white"/>
<path d="M15.3222 2.23855C15.605 2.19214 15.8869 2.14105 16.1712 2.10262C16.7238 2.02762 17.2778 1.96059 17.8341 1.94138C18.5542 1.91653 19.2757 1.932 19.9958 1.96856C20.5638 1.99715 21.1285 2.05528 21.6918 2.13637C22.2254 2.21324 22.7561 2.30698 23.2864 2.40541C23.8791 2.5151 24.4661 2.64072 25.042 2.81696C25.035 2.78649 25.002 2.76727 24.969 2.75696C24.9564 2.75368 24.9438 2.7504 24.9313 2.74712C24.7913 2.71384 24.6512 2.67774 24.5117 2.64165C24.0949 2.54181 23.6758 2.45463 23.2548 2.37307C23.2511 2.37214 23.2469 2.37167 23.2432 2.37073C22.7273 2.27605 22.2105 2.18605 21.69 2.11527C21.4546 2.0834 21.2192 2.0534 20.9838 2.02622C20.6163 1.98731 20.2479 1.95825 19.8781 1.93903C19.3888 1.91794 18.8985 1.91325 18.4077 1.91466C17.7969 1.91653 17.1931 1.96669 16.5893 2.03231C16.1367 2.08152 15.6878 2.15324 15.2413 2.23855C15.2669 2.24699 15.2943 2.24324 15.3227 2.23855H15.3222Z" fill="white"/>
<path d="M23.9761 2.81888C24.2897 2.84794 24.6041 2.8681 24.9181 2.89435C24.9488 2.89669 24.987 2.89763 25.0135 2.88216C24.967 2.88638 24.92 2.88825 24.873 2.88216C24.4213 2.81935 23.9659 2.7842 23.5114 2.76264C21.8684 2.68389 20.2245 2.66233 18.5848 2.83294C18.0652 2.88685 17.5451 2.94497 17.0292 3.02981C16.9488 3.04293 16.8525 3.03637 16.7813 3.09028C17.1428 3.01997 17.5074 2.96934 17.8735 2.93231C18.3266 2.88638 18.7746 2.79779 19.2323 2.78467C19.3737 2.78045 19.5156 2.78373 19.657 2.78045C19.6775 2.78045 19.6979 2.77951 19.7179 2.77857C19.764 2.7767 19.8101 2.77482 19.8561 2.7706C20.271 2.73404 20.6874 2.71342 21.1023 2.71858C21.2819 2.72092 21.4614 2.72467 21.641 2.72889C22.1373 2.73217 22.6336 2.74951 23.1295 2.77388C23.3277 2.78045 23.5263 2.78701 23.7249 2.7931C23.8091 2.79592 23.8929 2.81091 23.9761 2.81841V2.81888Z" fill="white"/>
<path d="M35.2743 7.91478C35.7855 8.20257 36.3097 8.46694 36.793 8.80348C37.02 8.93754 37.2466 9.07206 37.4741 9.20518C37.522 9.2333 37.5727 9.25674 37.622 9.28252C37.6015 9.21737 37.6304 9.19768 37.6885 9.21549C37.7764 9.24268 37.8425 9.30736 37.9146 9.36033C38.1997 9.57079 38.4844 9.78124 38.7686 9.99217C38.8007 10.0161 38.8417 10.0517 38.8691 10.0076C38.8966 9.96358 38.8431 9.94483 38.8119 9.92186C38.6579 9.80937 38.5021 9.69922 38.3528 9.58063C38.0127 9.31158 37.6625 9.05284 37.2791 8.85551C36.8633 8.64177 36.4935 8.35491 36.0734 8.14633C35.7115 7.96634 35.3584 7.76338 35.0049 7.5637C34.971 7.54448 34.9147 7.49901 34.9012 7.57823C34.8863 7.66448 34.817 7.65885 34.7644 7.68182C34.6728 7.72213 34.5621 7.70666 34.4797 7.77697C34.4839 7.77978 34.4876 7.78213 34.4918 7.78494C34.7802 7.65744 35.0226 7.77369 35.2733 7.91478H35.2743Z" fill="white"/>
<path d="M34.4915 7.78372C34.4877 7.78121 34.4844 7.77912 34.4806 7.77661L34.4873 7.78539C34.4873 7.78539 34.4898 7.78456 34.4915 7.78372Z" fill="white"/>
<path d="M37.5757 9.29348C38.0157 9.59252 38.4362 9.91969 38.8586 10.245C39.6899 10.8848 40.4281 11.6216 41.1031 12.4236C41.3971 12.7728 41.6608 13.1464 41.9032 13.5345C41.9139 13.49 41.8859 13.4581 41.865 13.4262C41.3477 12.636 40.7388 11.923 40.0676 11.2621C39.3159 10.5215 38.472 9.89813 37.6212 9.28223C37.6045 9.29207 37.5896 9.29488 37.5752 9.29394L37.5757 9.29348Z" fill="white"/>
<path d="M38.8595 10.245C38.4371 9.92018 38.0162 9.59301 37.5766 9.2935C37.5426 9.29115 37.5147 9.26631 37.4872 9.24709C37.2635 9.09241 37.0249 8.96304 36.7918 8.82336C36.7909 8.8304 36.7904 8.83789 36.7895 8.84493C37.1495 9.07741 37.5291 9.27897 37.8733 9.53583C38.4971 10.0017 39.127 10.4578 39.6996 10.9908C40.302 11.5518 40.857 12.1537 41.3659 12.7996C41.5538 13.0377 41.7254 13.2889 41.9041 13.5345C41.6617 13.1464 41.398 12.7729 41.104 12.4237C40.429 11.6217 39.6908 10.8844 38.8595 10.245Z" fill="white"/>
<path d="M36.7928 8.80308C36.7928 8.80542 36.7923 8.80777 36.7919 8.81011C37.0621 8.95776 37.3217 9.12088 37.5752 9.29337C37.5896 9.29431 37.6045 9.29149 37.6213 9.28165C37.572 9.25587 37.5213 9.23243 37.4733 9.20431C37.2459 9.07119 37.0193 8.93667 36.7923 8.80261L36.7928 8.80308Z" fill="white"/>
<path d="M37.4869 9.24691C37.5144 9.26613 37.5428 9.29097 37.5763 9.29332C37.3227 9.12082 37.0632 8.95771 36.7929 8.81006C36.7929 8.81428 36.792 8.81896 36.7915 8.82318C37.0241 8.96286 37.2627 9.09223 37.4869 9.24691Z" fill="white"/>
<path d="M7.89169 5.6795C8.50199 5.1775 9.12486 4.69002 9.79052 4.26536C10.3887 3.88334 11.0186 3.55664 11.6801 3.29603C11.8005 3.24869 11.9094 3.17369 12.0392 3.14932C11.9801 3.13151 11.9289 3.15588 11.8773 3.17932C11.5028 3.34853 11.1223 3.50602 10.7548 3.68976C10.2836 3.926 9.83053 4.19505 9.39327 4.49316C8.86669 4.85173 8.37547 5.25624 7.8768 5.65044C7.69957 5.79012 7.50792 5.93027 7.39954 6.14401C7.54653 5.97058 7.71725 5.822 7.89169 5.67857V5.6795Z" fill="white"/>
<path d="M10.6167 3.81454C11.0781 3.56377 11.5689 3.37956 12.0392 3.14941C11.9099 3.17332 11.8005 3.24878 11.6801 3.29613C11.0186 3.55627 10.3887 3.88344 9.79052 4.26545C9.12486 4.69012 8.50199 5.17759 7.89169 5.6796C7.71725 5.82303 7.54653 5.97162 7.39954 6.14504C7.63538 5.9463 7.86936 5.74569 8.10706 5.54882C8.89367 4.89729 9.71842 4.30295 10.6167 3.81454Z" fill="white"/>
<path d="M4.35474 9.93747C4.81294 9.18047 5.32323 8.45957 5.88377 7.77664C6.08519 7.53103 6.29684 7.29151 6.52245 7.06652C6.5364 6.95824 6.66154 6.93012 6.70619 6.84387H6.70526V6.84481C6.70526 6.84481 6.70526 6.84434 6.70526 6.84387C6.62246 6.87387 6.5699 6.94277 6.5164 7.00511C6.061 7.53196 5.59908 8.05319 5.19205 8.62035C4.87713 9.05907 4.58268 9.51092 4.3045 9.97403C4.32032 9.95996 4.33288 9.93606 4.35474 9.93793V9.93747Z" fill="white"/>
<path d="M6.52074 7.10496C6.51934 7.0909 6.52074 7.07872 6.52214 7.06653C6.29653 7.29199 6.08487 7.53104 5.88345 7.77665C5.32292 8.45958 4.81263 9.18048 4.35443 9.93748C4.36048 9.93795 4.36746 9.94029 4.37583 9.94591C5.0066 8.9344 5.70111 7.97164 6.52074 7.10496Z" fill="white"/>
<path d="M4.3416 9.95945C4.34582 9.95193 4.35052 9.94489 4.35522 9.93785C4.33268 9.93597 4.32047 9.95992 4.3045 9.974C4.31718 9.96931 4.32939 9.96461 4.34207 9.95945H4.3416Z" fill="white"/>
<path d="M4.35385 9.93746C4.34979 9.94468 4.34527 9.95146 4.34076 9.95823C4.35204 9.95416 4.36288 9.94965 4.37416 9.94514C4.36649 9.93972 4.35972 9.93746 4.3534 9.93701L4.35385 9.93746Z" fill="white"/>
<path d="M6.54798 7.04014C6.5684 7.00962 6.59578 6.98427 6.62363 6.95938C6.6408 6.9406 6.65843 6.92182 6.67607 6.90351C6.68906 6.88613 6.7002 6.86688 6.70623 6.84387H6.70577C6.66122 6.93074 6.53638 6.95891 6.52246 7.06738C6.52525 7.06456 6.52757 7.06221 6.53035 7.0594C6.53638 7.05282 6.54242 7.04672 6.54845 7.04014H6.54798Z" fill="white"/>
<path d="M6.52107 7.10467C6.52527 7.07946 6.53554 7.05845 6.54814 7.03931C6.54207 7.04584 6.53601 7.05191 6.52994 7.05845C6.52714 7.06125 6.5248 7.06358 6.522 7.06638C6.5206 7.07852 6.5192 7.09066 6.5206 7.10467H6.52107Z" fill="white"/>
<path d="M6.67623 6.90283C6.65849 6.92151 6.64121 6.93971 6.62347 6.95839C6.64261 6.94111 6.66082 6.92291 6.67623 6.90283Z" fill="white"/>
<path d="M27.3619 33.926C27.7052 33.9218 28.0489 33.9279 28.3922 33.9185C28.0484 33.9138 27.7047 33.8573 27.3614 33.926H27.3619Z" fill="white"/>
<path d="M27.9042 33.9451C27.7984 33.9427 27.693 33.9422 27.5872 33.9451C27.693 33.9498 27.7984 33.9493 27.9042 33.9451Z" fill="white"/>
<path d="M27.9042 33.9453C28.0671 33.9396 28.2294 33.9274 28.3917 33.9185C28.0484 33.9279 27.7047 33.9218 27.3614 33.926C27.4363 33.9359 27.5112 33.9415 27.5865 33.9448C27.6926 33.942 27.7982 33.9429 27.9042 33.9448V33.9453Z" fill="white"/>
<path d="M7.15656 6.39256C7.21517 6.33256 7.28216 6.28006 7.33146 6.21069C7.13563 6.35178 6.97886 6.53646 6.8007 6.69676C6.75698 6.73614 6.69836 6.76941 6.70441 6.84394C6.70488 6.84394 6.70534 6.84347 6.70581 6.84301C6.8342 6.67098 7.0077 6.54443 7.15609 6.39256H7.15656Z" fill="white"/>
<path d="M7.15707 6.39254C7.00868 6.54441 6.83517 6.67096 6.70679 6.84299C6.77982 6.77596 6.85425 6.71034 6.92774 6.64378C7.01427 6.55706 7.10125 6.47129 7.18917 6.38645C7.23987 6.33067 7.28779 6.27208 7.33198 6.21021C7.28267 6.27958 7.21569 6.33207 7.15707 6.39207V6.39254Z" fill="white"/>
<path d="M7.18781 6.38684C7.1001 6.47148 7.01285 6.55705 6.927 6.64356C7.0175 6.56126 7.10613 6.47756 7.18781 6.38684Z" fill="white"/>
<path d="M6.70563 6.84556C6.70563 6.84556 6.7069 6.84429 6.70754 6.84302C6.7069 6.84302 6.70626 6.84365 6.70563 6.84429C6.70563 6.84429 6.70563 6.84493 6.70563 6.84556Z" fill="white"/>
<path d="M6.70563 6.84556H6.7069C6.7069 6.84556 6.70754 6.84365 6.70817 6.84302L6.70626 6.84556H6.70563Z" fill="white"/>
<path d="M6.70632 6.84302C6.70632 6.84302 6.70504 6.84429 6.70441 6.84556L6.70632 6.84302Z" fill="white"/>
<path d="M6.70727 6.84302C6.70727 6.84302 6.70663 6.84365 6.70599 6.84429H6.70663V6.84302H6.70727Z" fill="white"/>
<path d="M29.4393 33.8798C29.7449 33.8332 30.0556 33.8482 30.3617 33.8082C30.1389 33.8125 29.9151 33.8049 29.6942 33.8271C29.6118 33.8355 29.5137 33.8134 29.4393 33.8793V33.8798Z" fill="white"/>
<path d="M29.7649 33.8699C29.8193 33.868 29.8737 33.8652 29.9282 33.8614C30.0733 33.852 30.218 33.8369 30.3617 33.8082C30.0556 33.8482 29.7449 33.8332 29.4393 33.8798C29.5477 33.8765 29.6565 33.8741 29.7649 33.8699Z" fill="white"/>
<path d="M30.7648 33.7855C30.923 33.7568 31.0844 33.7578 31.243 33.7309C31.0798 33.7154 30.9188 33.7201 30.7648 33.7855Z" fill="white"/>
<path d="M31.0801 33.7703C31.0312 33.774 30.9827 33.7787 30.9343 33.7847C30.9832 33.7824 31.0316 33.7777 31.0801 33.7703Z" fill="white"/>
<path d="M30.9337 33.7851C30.9825 33.779 31.0314 33.7743 31.0807 33.7705C31.1351 33.7615 31.1895 33.7493 31.243 33.731C31.0844 33.7578 30.923 33.7564 30.7648 33.7856C30.8211 33.7874 30.8774 33.7879 30.9337 33.7856V33.7851Z" fill="white"/>
<path d="M12.8872 2.83203C12.7234 2.84286 12.5746 2.89745 12.4392 2.99018C12.5867 2.93181 12.736 2.88051 12.8867 2.8325L12.8872 2.83203Z" fill="white"/>
<path d="M12.8867 2.8324C12.736 2.88041 12.5862 2.93171 12.4392 2.99007C12.5983 2.96654 12.7434 2.90206 12.8862 2.83287L12.8867 2.8324Z" fill="white"/>
<path d="M29.1001 33.9035C28.9303 33.912 28.7582 33.8517 28.5908 33.9218C28.7592 33.8795 28.9317 33.9458 29.1001 33.9035Z" fill="white"/>
<path d="M29.1001 33.9034C28.9317 33.9458 28.7592 33.8794 28.5908 33.9218C28.761 33.9237 28.9317 33.9505 29.1001 33.9034Z" fill="white"/>
<path d="M14.4901 2.36614C14.6259 2.32848 14.7636 2.29977 14.9032 2.27906C14.7567 2.26494 14.6185 2.29271 14.4901 2.36614Z" fill="white"/>
<path d="M14.4901 2.366C14.6334 2.36459 14.7697 2.32976 14.9032 2.27893C14.7636 2.29917 14.6259 2.32835 14.4901 2.366Z" fill="white"/>
<path d="M13.9806 2.49009C14.1052 2.44679 14.2359 2.4289 14.3634 2.39925C14.228 2.39407 14.0983 2.41243 13.982 2.48915L13.9801 2.49009H13.9806Z" fill="white"/>
<path d="M13.9807 2.49016L13.9833 2.48889C13.9833 2.48889 13.982 2.48889 13.9814 2.48953C13.9814 2.48953 13.9814 2.48953 13.9801 2.48953L13.9807 2.49016Z" fill="white"/>
<path d="M13.9805 2.49025C14.1131 2.48131 14.2406 2.44978 14.3634 2.39941C14.2354 2.42907 14.1052 2.44695 13.9805 2.49025Z" fill="white"/>
<path d="M13.6726 2.58222C13.5579 2.57001 13.4545 2.59819 13.363 2.67097C13.4637 2.6334 13.5668 2.60429 13.6721 2.58222H13.6726Z" fill="white"/>
<path d="M13.6733 2.58264C13.568 2.60471 13.465 2.63382 13.3643 2.67139C13.4728 2.662 13.5749 2.6296 13.6729 2.58311L13.6733 2.58264Z" fill="white"/>
<path d="M13.6722 2.58334C13.7697 2.53357 13.8759 2.51479 13.9804 2.48896C13.8657 2.47957 13.7599 2.49929 13.6731 2.5824H13.6736L13.6718 2.58334H13.6722Z" fill="white"/>
<path d="M13.6726 2.58341C13.7807 2.57026 13.8824 2.53646 13.9798 2.4895H13.9803C13.8763 2.51533 13.7696 2.53364 13.6726 2.58341Z" fill="white"/>
<path d="M13.6732 2.58294C13.6732 2.58294 13.6732 2.58294 13.6726 2.58294L13.6752 2.58167C13.6752 2.58167 13.6739 2.58166 13.6732 2.5823V2.58294Z" fill="white"/>
<path d="M13.9818 2.48953C13.9818 2.48953 13.9812 2.48953 13.9805 2.48953C13.9805 2.48953 13.9818 2.48953 13.9824 2.48889C13.9824 2.48889 13.9824 2.48889 13.9818 2.48889V2.48953Z" fill="white"/>
<path d="M12.8856 2.8336C12.9756 2.78712 13.0736 2.76692 13.1696 2.74063C13.0629 2.73265 12.9654 2.75284 12.8865 2.83266H12.8875L12.8856 2.8336Z" fill="white"/>
<path d="M12.8865 2.8333L12.889 2.83203C12.8884 2.83203 12.8871 2.83267 12.8865 2.8333Z" fill="white"/>
<path d="M13.1705 2.7406C13.074 2.76643 12.976 2.78709 12.8865 2.83357C12.9876 2.8223 13.0809 2.78709 13.1705 2.7406Z" fill="white"/>
<path d="M12.8881 2.83203H12.8868V2.83267C12.8868 2.83267 12.8881 2.83267 12.8887 2.83203H12.8881Z" fill="white"/>
<path d="M12.8868 2.83282C12.8868 2.83282 12.8881 2.83282 12.8894 2.83154C12.8887 2.83154 12.8881 2.83154 12.8875 2.83218L12.8868 2.83282Z" fill="white"/>
<path d="M14.9015 2.28035C15.0017 2.24795 15.1071 2.24185 15.2096 2.21978C15.0992 2.19959 14.9976 2.22307 14.902 2.27988L14.9015 2.28035Z" fill="white"/>
<path d="M14.9015 2.28123L14.9028 2.27991L14.9015 2.28123Z" fill="white"/>
<path d="M15.2096 2.21985C15.1071 2.24145 15.0017 2.24755 14.9015 2.28042C15.0073 2.27666 15.1117 2.26493 15.2096 2.21985Z" fill="white"/>
<path d="M32.5657 33.5595C32.6692 33.5444 32.7718 33.5266 32.8743 33.5069C32.7657 33.4904 32.6637 33.5125 32.5657 33.5595Z" fill="white"/>
<path d="M32.8743 33.507C32.7718 33.5267 32.6688 33.5445 32.5657 33.5595C32.6739 33.5718 32.7755 33.5469 32.8748 33.507H32.8743Z" fill="white"/>
<path d="M30.7657 33.7844C30.652 33.79 30.5346 33.7393 30.425 33.8069C30.5364 33.7628 30.6543 33.8247 30.7657 33.7844Z" fill="white"/>
<path d="M30.7657 33.7843C30.6543 33.8247 30.5364 33.7627 30.425 33.8068C30.5387 33.804 30.6552 33.8378 30.7657 33.7843Z" fill="white"/>
<path d="M12.1313 3.11158C12.2097 3.07402 12.2937 3.05148 12.3745 3.02002C12.2835 3.02331 12.1921 3.02518 12.1313 3.11158Z" fill="white"/>
<path d="M12.3745 3.02002C12.2937 3.05148 12.2097 3.07402 12.1313 3.11158C12.2236 3.11252 12.2988 3.06416 12.3745 3.02002Z" fill="white"/>
<path d="M29.4395 33.8795C29.3268 33.8875 29.2094 33.8354 29.1008 33.904C29.2112 33.8584 29.3291 33.9242 29.4395 33.8795Z" fill="white"/>
<path d="M29.1008 33.9034C29.214 33.9006 29.3296 33.9302 29.4395 33.879C29.3291 33.9236 29.2112 33.8579 29.1008 33.9034Z" fill="white"/>
<path d="M26.1152 33.8664C26.1207 33.8664 26.1262 33.8664 26.1322 33.8664C26.1544 33.8435 26.1991 33.8599 26.2241 33.8486C26.1872 33.8477 26.1452 33.8421 26.1152 33.8659V33.8664Z" fill="white"/>
<path d="M26.1317 33.8668C26.1261 33.8668 26.1205 33.8668 26.1144 33.8668C26.1012 33.8772 26.0904 33.8922 26.0834 33.9161C26.0946 33.9161 26.1064 33.9171 26.1177 33.9171C26.1167 33.8908 26.1223 33.8762 26.1313 33.8673L26.1317 33.8668Z" fill="white"/>
<path d="M26.1625 33.8157C26.1124 33.812 26.0753 33.8251 26.0729 33.865C26.078 33.865 26.0831 33.865 26.0887 33.866C26.0975 33.866 26.1059 33.866 26.1147 33.8665C26.1449 33.843 26.1871 33.8486 26.2242 33.8491C26.1992 33.8603 26.1541 33.8439 26.1319 33.8669C26.1379 33.8669 26.1435 33.8669 26.1495 33.8674C26.2043 33.873 26.259 33.8777 26.3138 33.8829C26.3337 33.8801 26.3532 33.8744 26.3713 33.8608C26.3068 33.7941 26.2303 33.8204 26.163 33.8153L26.1625 33.8157Z" fill="white"/>
<path d="M26.3139 33.8828C26.2591 33.8776 26.2044 33.8725 26.1496 33.8673C26.1436 33.8673 26.138 33.8673 26.132 33.8668C26.1232 33.8762 26.1176 33.8908 26.1185 33.9166C26.1709 33.857 26.2447 33.8922 26.3139 33.8828Z" fill="white"/>
<path d="M26.0886 33.8659C26.0835 33.8655 26.0783 33.8655 26.0727 33.865C26.0717 33.8786 26.0755 33.8955 26.0839 33.9157C26.091 33.8918 26.1018 33.8767 26.1149 33.8664C26.106 33.8664 26.0975 33.8659 26.0886 33.8659Z" fill="white"/>
<path d="M34.7849 7.7466C34.8373 7.75083 34.8893 7.76116 34.9408 7.77618C34.8879 7.75365 34.8391 7.74238 34.7849 7.7466Z" fill="white"/>
<path d="M36.7836 8.81856C36.2016 8.44405 35.5941 8.11641 34.9824 7.79439C34.9685 7.78689 34.955 7.78174 34.9415 7.77611C34.8899 7.76111 34.8378 7.7508 34.7852 7.74658C34.7629 7.74846 34.7396 7.75221 34.7145 7.7583C34.6466 7.77564 34.574 7.82627 34.4959 7.7897C34.4982 7.80142 34.4949 7.8108 34.4838 7.81689C34.528 7.81267 34.5754 7.8183 34.6149 7.80283C34.7764 7.74049 34.914 7.78455 35.0592 7.86704C35.4016 8.06203 35.7528 8.24062 36.0965 8.43327C36.3305 8.56451 36.5584 8.70747 36.7887 8.84528C36.7822 8.8359 36.7808 8.82746 36.7831 8.81903L36.7836 8.81856Z" fill="white"/>
<path d="M34.4874 7.7865V7.78782L34.4887 7.7865H34.4874Z" fill="white"/>
<path d="M34.489 7.78633C34.4833 7.79522 34.4819 7.80499 34.485 7.81476C34.4952 7.80899 34.4988 7.8001 34.4966 7.789C34.4944 7.78767 34.4917 7.78722 34.4895 7.78589L34.489 7.78633Z" fill="white"/>
<path d="M34.7852 7.74659C34.8396 7.74237 34.8889 7.75362 34.9415 7.77612C35.0425 7.80565 35.1425 7.85392 35.2439 7.91345C35.757 8.21484 36.2928 8.47639 36.7887 8.80825C36.7901 8.80638 36.791 8.80497 36.7929 8.8031C36.3096 8.46702 35.7853 8.20266 35.2741 7.91439C35.0229 7.77284 34.7806 7.65706 34.4926 7.78455C34.594 7.7494 34.6908 7.73862 34.7852 7.74659Z" fill="white"/>
<path d="M35.2451 7.91346C35.1436 7.85393 35.0436 7.80565 34.9427 7.77612C34.9562 7.78175 34.9692 7.7869 34.9836 7.7944C35.5949 8.11642 36.2028 8.44406 36.7848 8.81857C36.7857 8.81529 36.7876 8.81154 36.7904 8.80826C36.2945 8.4764 35.7586 8.21485 35.2455 7.91346H35.2451Z" fill="white"/>
<path d="M34.4927 7.78513C34.4927 7.78513 34.4946 7.78654 34.4955 7.78701C34.4955 7.78795 34.4955 7.78889 34.4955 7.78983C34.5735 7.82645 34.6459 7.77574 34.7136 7.75837C34.7387 7.75226 34.7619 7.74804 34.7841 7.74663C34.6899 7.73865 34.5934 7.74945 34.4922 7.78513H34.4927Z" fill="white"/>
<path d="M34.4927 7.78508C34.4927 7.78508 34.4895 7.78614 34.4874 7.78667C34.489 7.78614 34.4911 7.78561 34.4927 7.78455V7.78508Z" fill="white"/>
<path d="M34.4929 7.78503C34.4929 7.78503 34.4891 7.78613 34.4874 7.78723C34.4907 7.78888 34.4935 7.78943 34.4962 7.79108C34.4962 7.78998 34.4962 7.78888 34.4962 7.78778C34.4951 7.78723 34.494 7.78613 34.4929 7.78558V7.78503Z" fill="white"/>
<path d="M36.7905 8.8231C36.7905 8.8231 36.7878 8.82171 36.7868 8.82079C36.7854 8.81987 36.7841 8.8194 36.7831 8.81848C36.7804 8.82679 36.7818 8.83509 36.7887 8.84432C36.7896 8.8374 36.7901 8.83002 36.791 8.8231H36.7905Z" fill="white"/>
<path d="M36.7895 8.80888C36.7895 8.80888 36.792 8.81036 36.7929 8.81085C36.7929 8.80839 36.7934 8.80593 36.7939 8.80347C36.792 8.80544 36.791 8.80691 36.7895 8.80888Z" fill="white"/>
<path d="M36.7893 8.80823C36.7866 8.81145 36.7847 8.81514 36.7838 8.81836C36.7852 8.81928 36.7866 8.81974 36.7875 8.82066C36.7889 8.82159 36.7903 8.82205 36.7912 8.82297C36.7916 8.81882 36.7921 8.81422 36.7926 8.81007C36.7916 8.80961 36.7903 8.80869 36.7893 8.80823Z" fill="white"/>
<path d="M20.5526 4.67841C20.4075 4.65864 20.2619 4.63182 20.1191 4.7123C20.2637 4.71654 20.4084 4.72124 20.5531 4.72548C20.5531 4.70995 20.5531 4.69394 20.5526 4.67841Z" fill="white"/>
<path d="M22.0219 4.69681C22.0219 4.68269 22.0219 4.66857 22.0219 4.65445C21.8902 4.65021 21.7586 4.64645 21.627 4.64221C21.7581 4.70622 21.8902 4.7114 22.0219 4.69634V4.69681Z" fill="white"/>
<path d="M17.9913 1.79138C17.9871 1.80503 17.9834 1.81868 17.9797 1.83233C18.1234 1.83657 18.2672 1.84127 18.4109 1.84551C18.2727 1.76832 18.1299 1.83468 17.9913 1.79185V1.79138Z" fill="white"/>
<path d="M19.5189 1.85873C19.6441 1.8625 19.7692 1.86627 19.8943 1.87003C19.7701 1.79378 19.645 1.79049 19.5189 1.85873Z" fill="white"/>
</g>
<defs>
<clipPath id="clip0_0_346">
<rect width="46" height="34" fill="white"/>
</clipPath>
</defs>
</svg>
